<?xml version="1.0" encoding="UTF-8" standalone="no"?><svg xmlns="http://www.w3.org/2000/svg" xmlns:xlink="http://www.w3.org/1999/xlink" contentScriptType="application/ecmascript" contentStyleType="text/css" height="799px" preserveAspectRatio="none" style="width:3347px;height:799px;background:#FFFFFF;" version="1.1" viewBox="0 0 3347 799" width="3347px" zoomAndPan="magnify"><defs><filter height="300%" id="fhhcnt2dycyxp" width="300%" x="-1" y="-1"><feGaussianBlur result="blurOut" stdDeviation="2.0"/><feColorMatrix in="blurOut" result="blurOut2" type="matrix" values="0 0 0 0 0 0 0 0 0 0 0 0 0 0 0 0 0 0 .4 0"/><feOffset dx="4.0" dy="4.0" in="blurOut2" result="blurOut3"/><feBlend in="SourceGraphic" in2="blurOut3" mode="normal"/></filter></defs><g><!--MD5=[3d755a8e79ee953feccbf2e6a25fa9eb]
cluster type--><polygon fill="#FFFFFF" filter="url(#fhhcnt2dycyxp)" points="16,6,53,6,60,28.4883,980,28.4883,980,563,16,563,16,6" style="stroke:#000000;stroke-width:1.5;"/><line style="stroke:#000000;stroke-width:1.5;" x1="16" x2="60" y1="28.4883" y2="28.4883"/><text fill="#000000" font-family="sans-serif" font-size="14" font-weight="bold" lengthAdjust="spacing" textLength="31" x="20" y="21.5352">type</text><!--MD5=[55f0eade9f7465fb851700fb006d2734]
cluster type.ex--><polygon fill="#FFFFFF" filter="url(#fhhcnt2dycyxp)" points="844,49,866,49,873,71.4883,956,71.4883,956,256,844,256,844,49" style="stroke:#000000;stroke-width:1.5;"/><line style="stroke:#000000;stroke-width:1.5;" x1="844" x2="873" y1="71.4883" y2="71.4883"/><text fill="#000000" font-family="sans-serif" font-size="14" font-weight="bold" lengthAdjust="spacing" textLength="16" x="848" y="64.5352">ex</text><!--MD5=[3ac5bc1d849fdebadb9fc5e0e21f6cf5]
cluster 思考傾向--><polygon fill="#FFFFFF" filter="url(#fhhcnt2dycyxp)" points="1772,49,1834,49,1841,71.4883,1884,71.4883,1884,148,1772,148,1772,49" style="stroke:#000000;stroke-width:1.5;"/><line style="stroke:#000000;stroke-width:1.5;" x1="1772" x2="1841" y1="71.4883" y2="71.4883"/><text fill="#000000" font-family="sans-serif" font-size="14" font-weight="bold" lengthAdjust="spacing" textLength="56" x="1776" y="64.5352">思考傾向</text><!--MD5=[a5f6d7e9f88b7365548164145cca9219]
cluster env--><polygon fill="#FFFFFF" filter="url(#fhhcnt2dycyxp)" points="1004,49,1035,49,1042,71.4883,1382,71.4883,1382,256,1004,256,1004,49" style="stroke:#000000;stroke-width:1.5;"/><line style="stroke:#000000;stroke-width:1.5;" x1="1004" x2="1042" y1="71.4883" y2="71.4883"/><text fill="#000000" font-family="sans-serif" font-size="14" font-weight="bold" lengthAdjust="spacing" textLength="25" x="1008" y="64.5352">env</text><!--MD5=[24975937ae95dc6e3fd29564a246eb2e]
cluster think--><polygon fill="#FFFFFF" filter="url(#fhhcnt2dycyxp)" points="1406,49,1450,49,1457,71.4883,1748,71.4883,1748,256,1406,256,1406,49" style="stroke:#000000;stroke-width:1.5;"/><line style="stroke:#000000;stroke-width:1.5;" x1="1406" x2="1457" y1="71.4883" y2="71.4883"/><text fill="#000000" font-family="sans-serif" font-size="14" font-weight="bold" lengthAdjust="spacing" textLength="38" x="1410" y="64.5352">think</text><!--MD5=[d63a90b188f4c70d363d464b00892cb4]
cluster living--><polygon fill="#FFFFFF" filter="url(#fhhcnt2dycyxp)" points="1908,49,1955,49,1962,71.4883,2075,71.4883,2075,148,1908,148,1908,49" style="stroke:#000000;stroke-width:1.5;"/><line style="stroke:#000000;stroke-width:1.5;" x1="1908" x2="1962" y1="71.4883" y2="71.4883"/><text fill="#000000" font-family="sans-serif" font-size="14" font-weight="bold" lengthAdjust="spacing" textLength="41" x="1912" y="64.5352">living</text><!--MD5=[75ea3bd801f35bf9c6563570d027214a]
cluster state--><polygon fill="#FFFFFF" filter="url(#fhhcnt2dycyxp)" points="1004,418.5,1046,418.5,1053,440.9883,1274,440.9883,1274,792,1004,792,1004,418.5" style="stroke:#000000;stroke-width:1.5;"/><line style="stroke:#000000;stroke-width:1.5;" x1="1004" x2="1053" y1="440.9883" y2="440.9883"/><text fill="#000000" font-family="sans-serif" font-size="14" font-weight="bold" lengthAdjust="spacing" textLength="36" x="1008" y="434.0352">state</text><!--MD5=[3dab47d3fc3e186ff10f67819eb99ff8]
cluster time--><polygon fill="#FFFFFF" filter="url(#fhhcnt2dycyxp)" points="2099,49,2138,49,2145,71.4883,2278,71.4883,2278,148,2099,148,2099,49" style="stroke:#000000;stroke-width:1.5;"/><line style="stroke:#000000;stroke-width:1.5;" x1="2099" x2="2145" y1="71.4883" y2="71.4883"/><text fill="#000000" font-family="sans-serif" font-size="14" font-weight="bold" lengthAdjust="spacing" textLength="33" x="2103" y="64.5352">time</text><!--MD5=[88fa2f93c14291d48ff88be1aa3b6619]
cluster parents--><polygon fill="#FFFFFF" filter="url(#fhhcnt2dycyxp)" points="2302,49,2362,49,2369,71.4883,2788,71.4883,2788,256,2302,256,2302,49" style="stroke:#000000;stroke-width:1.5;"/><line style="stroke:#000000;stroke-width:1.5;" x1="2302" x2="2369" y1="71.4883" y2="71.4883"/><text fill="#000000" font-family="sans-serif" font-size="14" font-weight="bold" lengthAdjust="spacing" textLength="54" x="2306" y="64.5352">parents</text><!--MD5=[d997e4a7cbe3f85cf7bb1498fc1fda56]
cluster towoman--><polygon fill="#FFFFFF" filter="url(#fhhcnt2dycyxp)" points="2812,49,2885,49,2892,71.4883,2900,71.4883,2900,148,2812,148,2812,49" style="stroke:#000000;stroke-width:1.5;"/><line style="stroke:#000000;stroke-width:1.5;" x1="2812" x2="2892" y1="71.4883" y2="71.4883"/><text fill="#000000" font-family="sans-serif" font-size="14" font-weight="bold" lengthAdjust="spacing" textLength="67" x="2816" y="64.5352">towoman</text><!--MD5=[f5653ff7b3e7f0e91fa6f0a63a0f7584]
cluster sexual--><polygon fill="#FFFFFF" filter="url(#fhhcnt2dycyxp)" points="1298,412,1350,412,1357,434.4883,1555,434.4883,1555,684,1298,684,1298,412" style="stroke:#000000;stroke-width:1.5;"/><line style="stroke:#000000;stroke-width:1.5;" x1="1298" x2="1357" y1="434.4883" y2="434.4883"/><text fill="#000000" font-family="sans-serif" font-size="14" font-weight="bold" lengthAdjust="spacing" textLength="46" x="1302" y="427.5352">sexual</text><!--MD5=[7d6847f696e7bb74234bd2651e61af1d]
cluster freedom--><polygon fill="#FFFFFF" filter="url(#fhhcnt2dycyxp)" points="2924,49,2990,49,2997,71.4883,3103,71.4883,3103,148,2924,148,2924,49" style="stroke:#000000;stroke-width:1.5;"/><line style="stroke:#000000;stroke-width:1.5;" x1="2924" x2="2997" y1="71.4883" y2="71.4883"/><text fill="#000000" font-family="sans-serif" font-size="14" font-weight="bold" lengthAdjust="spacing" textLength="60" x="2928" y="64.5352">freedom</text><!--MD5=[8f24d0701dcb05dd6e6975b6669f8f05]
cluster commonsense--><polygon fill="#FFFFFF" filter="url(#fhhcnt2dycyxp)" points="3127,49,3236,49,3243,71.4883,3330,71.4883,3330,148,3127,148,3127,49" style="stroke:#000000;stroke-width:1.5;"/><line style="stroke:#000000;stroke-width:1.5;" x1="3127" x2="3243" y1="71.4883" y2="71.4883"/><text fill="#000000" font-family="sans-serif" font-size="14" font-weight="bold" lengthAdjust="spacing" textLength="103" x="3131" y="64.5352">commonsense</text><!--MD5=[dbc067f70f3795a5b04036b866ba55ba]
class type.自己中心的--><rect codeLine="3" fill="#FEFECE" filter="url(#fhhcnt2dycyxp)" height="48" id="type.自己中心的" style="stroke:#A80036;stroke-width:1.5;" width="92" x="536" y="84"/><ellipse cx="551" cy="100" fill="#ADD1B2" rx="11" ry="11" style="stroke:#A80036;stroke-width:1.0;"/><path d="M553.4731,106.1431 Q552.8921,106.4419 552.2529,106.5913 Q551.6138,106.7407 550.9082,106.7407 Q548.4014,106.7407 547.0815,105.0889 Q545.7617,103.437 545.7617,100.3159 Q545.7617,97.1865 547.0815,95.5347 Q548.4014,93.8828 550.9082,93.8828 Q551.6138,93.8828 552.2612,94.0322 Q552.9087,94.1816 553.4731,94.4805 L553.4731,97.2031 Q552.8423,96.6221 552.2488,96.3523 Q551.6553,96.0825 551.0244,96.0825 Q549.6797,96.0825 548.9949,97.1492 Q548.3101,98.2158 548.3101,100.3159 Q548.3101,102.4077 548.9949,103.4744 Q549.6797,104.541 551.0244,104.541 Q551.6553,104.541 552.2488,104.2712 Q552.8423,104.0015 553.4731,103.4204 Z " fill="#000000"/><text fill="#000000" font-family="sans-serif" font-size="12" lengthAdjust="spacing" textLength="60" x="565" y="104.5352">自己中心的</text><line style="stroke:#A80036;stroke-width:1.5;" x1="537" x2="627" y1="116" y2="116"/><line style="stroke:#A80036;stroke-width:1.5;" x1="537" x2="627" y1="124" y2="124"/><!--MD5=[84dec386c9d1977dcbb9f0451dd4ac42]
class type.頑固--><rect codeLine="4" fill="#FEFECE" filter="url(#fhhcnt2dycyxp)" height="48" id="type.頑固" style="stroke:#A80036;stroke-width:1.5;" width="56" x="667" y="84"/><ellipse cx="682" cy="100" fill="#ADD1B2" rx="11" ry="11" style="stroke:#A80036;stroke-width:1.0;"/><path d="M684.4731,106.1431 Q683.8921,106.4419 683.2529,106.5913 Q682.6138,106.7407 681.9082,106.7407 Q679.4014,106.7407 678.0815,105.0889 Q676.7617,103.437 676.7617,100.3159 Q676.7617,97.1865 678.0815,95.5347 Q679.4014,93.8828 681.9082,93.8828 Q682.6138,93.8828 683.2612,94.0322 Q683.9087,94.1816 684.4731,94.4805 L684.4731,97.2031 Q683.8423,96.6221 683.2488,96.3523 Q682.6553,96.0825 682.0244,96.0825 Q680.6797,96.0825 679.9949,97.1492 Q679.3101,98.2158 679.3101,100.3159 Q679.3101,102.4077 679.9949,103.4744 Q680.6797,104.541 682.0244,104.541 Q682.6553,104.541 683.2488,104.2712 Q683.8423,104.0015 684.4731,103.4204 Z " fill="#000000"/><text fill="#000000" font-family="sans-serif" font-size="12" lengthAdjust="spacing" textLength="24" x="696" y="104.5352">頑固</text><line style="stroke:#A80036;stroke-width:1.5;" x1="668" x2="722" y1="116" y2="116"/><line style="stroke:#A80036;stroke-width:1.5;" x1="668" x2="722" y1="124" y2="124"/><!--MD5=[d69c1dce711abfc2d0d1d2734420493a]
class type.防衛的--><rect codeLine="5" fill="#FEFECE" filter="url(#fhhcnt2dycyxp)" height="48" id="type.防衛的" style="stroke:#A80036;stroke-width:1.5;" width="68" x="430" y="84"/><ellipse cx="445" cy="100" fill="#ADD1B2" rx="11" ry="11" style="stroke:#A80036;stroke-width:1.0;"/><path d="M447.4731,106.1431 Q446.8921,106.4419 446.2529,106.5913 Q445.6138,106.7407 444.9082,106.7407 Q442.4014,106.7407 441.0815,105.0889 Q439.7617,103.437 439.7617,100.3159 Q439.7617,97.1865 441.0815,95.5347 Q442.4014,93.8828 444.9082,93.8828 Q445.6138,93.8828 446.2612,94.0322 Q446.9087,94.1816 447.4731,94.4805 L447.4731,97.2031 Q446.8423,96.6221 446.2488,96.3523 Q445.6553,96.0825 445.0244,96.0825 Q443.6797,96.0825 442.9949,97.1492 Q442.3101,98.2158 442.3101,100.3159 Q442.3101,102.4077 442.9949,103.4744 Q443.6797,104.541 445.0244,104.541 Q445.6553,104.541 446.2488,104.2712 Q446.8423,104.0015 447.4731,103.4204 Z " fill="#000000"/><text fill="#000000" font-family="sans-serif" font-size="12" lengthAdjust="spacing" textLength="36" x="459" y="104.5352">防衛的</text><line style="stroke:#A80036;stroke-width:1.5;" x1="431" x2="497" y1="116" y2="116"/><line style="stroke:#A80036;stroke-width:1.5;" x1="431" x2="497" y1="124" y2="124"/><!--MD5=[5d5fe8cc501f07ed9fb46b5587e42046]
class type.濾過機能--><rect codeLine="6" fill="#FEFECE" filter="url(#fhhcnt2dycyxp)" height="48" id="type.濾過機能" style="stroke:#A80036;stroke-width:1.5;" width="80" x="424" y="192"/><ellipse cx="439" cy="208" fill="#ADD1B2" rx="11" ry="11" style="stroke:#A80036;stroke-width:1.0;"/><path d="M441.4731,214.1431 Q440.8921,214.4419 440.2529,214.5913 Q439.6138,214.7407 438.9082,214.7407 Q436.4014,214.7407 435.0815,213.0889 Q433.7617,211.437 433.7617,208.3159 Q433.7617,205.1865 435.0815,203.5347 Q436.4014,201.8828 438.9082,201.8828 Q439.6138,201.8828 440.2612,202.0322 Q440.9087,202.1816 441.4731,202.4805 L441.4731,205.2031 Q440.8423,204.6221 440.2488,204.3523 Q439.6553,204.0825 439.0244,204.0825 Q437.6797,204.0825 436.9949,205.1492 Q436.3101,206.2158 436.3101,208.3159 Q436.3101,210.4077 436.9949,211.4744 Q437.6797,212.541 439.0244,212.541 Q439.6553,212.541 440.2488,212.2712 Q440.8423,212.0015 441.4731,211.4204 Z " fill="#000000"/><text fill="#000000" font-family="sans-serif" font-size="12" lengthAdjust="spacing" textLength="48" x="453" y="212.5352">濾過機能</text><line style="stroke:#A80036;stroke-width:1.5;" x1="425" x2="503" y1="224" y2="224"/><line style="stroke:#A80036;stroke-width:1.5;" x1="425" x2="503" y1="232" y2="232"/><!--MD5=[af35fff8827c1ac27b9b4609b21b259b]
class type.羞恥心--><rect codeLine="8" fill="#FEFECE" filter="url(#fhhcnt2dycyxp)" height="48" id="type.羞恥心" style="stroke:#A80036;stroke-width:1.5;" width="68" x="760" y="84"/><ellipse cx="775" cy="100" fill="#ADD1B2" rx="11" ry="11" style="stroke:#A80036;stroke-width:1.0;"/><path d="M777.4731,106.1431 Q776.8921,106.4419 776.2529,106.5913 Q775.6138,106.7407 774.9082,106.7407 Q772.4014,106.7407 771.0815,105.0889 Q769.7617,103.437 769.7617,100.3159 Q769.7617,97.1865 771.0815,95.5347 Q772.4014,93.8828 774.9082,93.8828 Q775.6138,93.8828 776.2612,94.0322 Q776.9087,94.1816 777.4731,94.4805 L777.4731,97.2031 Q776.8423,96.6221 776.2488,96.3523 Q775.6553,96.0825 775.0244,96.0825 Q773.6797,96.0825 772.9949,97.1492 Q772.3101,98.2158 772.3101,100.3159 Q772.3101,102.4077 772.9949,103.4744 Q773.6797,104.541 775.0244,104.541 Q775.6553,104.541 776.2488,104.2712 Q776.8423,104.0015 777.4731,103.4204 Z " fill="#000000"/><text fill="#000000" font-family="sans-serif" font-size="12" lengthAdjust="spacing" textLength="36" x="789" y="104.5352">羞恥心</text><line style="stroke:#A80036;stroke-width:1.5;" x1="761" x2="827" y1="116" y2="116"/><line style="stroke:#A80036;stroke-width:1.5;" x1="761" x2="827" y1="124" y2="124"/><!--MD5=[573d10e188d6fa6f0446b1e665f03c1d]
class type.優柔不断--><rect codeLine="9" fill="#FEFECE" filter="url(#fhhcnt2dycyxp)" height="48" id="type.優柔不断" style="stroke:#A80036;stroke-width:1.5;" width="80" x="539" y="192"/><ellipse cx="554" cy="208" fill="#ADD1B2" rx="11" ry="11" style="stroke:#A80036;stroke-width:1.0;"/><path d="M556.4731,214.1431 Q555.8921,214.4419 555.2529,214.5913 Q554.6138,214.7407 553.9082,214.7407 Q551.4014,214.7407 550.0815,213.0889 Q548.7617,211.437 548.7617,208.3159 Q548.7617,205.1865 550.0815,203.5347 Q551.4014,201.8828 553.9082,201.8828 Q554.6138,201.8828 555.2612,202.0322 Q555.9087,202.1816 556.4731,202.4805 L556.4731,205.2031 Q555.8423,204.6221 555.2488,204.3523 Q554.6553,204.0825 554.0244,204.0825 Q552.6797,204.0825 551.9949,205.1492 Q551.3101,206.2158 551.3101,208.3159 Q551.3101,210.4077 551.9949,211.4744 Q552.6797,212.541 554.0244,212.541 Q554.6553,212.541 555.2488,212.2712 Q555.8423,212.0015 556.4731,211.4204 Z " fill="#000000"/><text fill="#000000" font-family="sans-serif" font-size="12" lengthAdjust="spacing" textLength="48" x="568" y="212.5352">優柔不断</text><line style="stroke:#A80036;stroke-width:1.5;" x1="540" x2="618" y1="224" y2="224"/><line style="stroke:#A80036;stroke-width:1.5;" x1="540" x2="618" y1="232" y2="232"/><!--MD5=[3a61ae0ac77faa8e06db7ce7cfefbad0]
class type.より若い--><rect codeLine="11" fill="#FEFECE" filter="url(#fhhcnt2dycyxp)" height="48" id="type.より若い" style="stroke:#A80036;stroke-width:1.5;" width="80" x="654" y="192"/><ellipse cx="669" cy="208" fill="#ADD1B2" rx="11" ry="11" style="stroke:#A80036;stroke-width:1.0;"/><path d="M671.4731,214.1431 Q670.8921,214.4419 670.2529,214.5913 Q669.6138,214.7407 668.9082,214.7407 Q666.4014,214.7407 665.0815,213.0889 Q663.7617,211.437 663.7617,208.3159 Q663.7617,205.1865 665.0815,203.5347 Q666.4014,201.8828 668.9082,201.8828 Q669.6138,201.8828 670.2612,202.0322 Q670.9087,202.1816 671.4731,202.4805 L671.4731,205.2031 Q670.8423,204.6221 670.2488,204.3523 Q669.6553,204.0825 669.0244,204.0825 Q667.6797,204.0825 666.9949,205.1492 Q666.3101,206.2158 666.3101,208.3159 Q666.3101,210.4077 666.9949,211.4744 Q667.6797,212.541 669.0244,212.541 Q669.6553,212.541 670.2488,212.2712 Q670.8423,212.0015 671.4731,211.4204 Z " fill="#000000"/><text fill="#000000" font-family="sans-serif" font-size="12" lengthAdjust="spacing" textLength="48" x="683" y="212.5352">より若い</text><line style="stroke:#A80036;stroke-width:1.5;" x1="655" x2="733" y1="224" y2="224"/><line style="stroke:#A80036;stroke-width:1.5;" x1="655" x2="733" y1="232" y2="232"/><!--MD5=[424d44b692a1c6f8049480a4afadda66]
class type.平和--><rect codeLine="16" fill="#FEFECE" filter="url(#fhhcnt2dycyxp)" height="48" id="type.平和" style="stroke:#A80036;stroke-width:1.5;" width="56" x="769" y="192"/><ellipse cx="784" cy="208" fill="#ADD1B2" rx="11" ry="11" style="stroke:#A80036;stroke-width:1.0;"/><path d="M786.4731,214.1431 Q785.8921,214.4419 785.2529,214.5913 Q784.6138,214.7407 783.9082,214.7407 Q781.4014,214.7407 780.0815,213.0889 Q778.7617,211.437 778.7617,208.3159 Q778.7617,205.1865 780.0815,203.5347 Q781.4014,201.8828 783.9082,201.8828 Q784.6138,201.8828 785.2612,202.0322 Q785.9087,202.1816 786.4731,202.4805 L786.4731,205.2031 Q785.8423,204.6221 785.2488,204.3523 Q784.6553,204.0825 784.0244,204.0825 Q782.6797,204.0825 781.9949,205.1492 Q781.3101,206.2158 781.3101,208.3159 Q781.3101,210.4077 781.9949,211.4744 Q782.6797,212.541 784.0244,212.541 Q784.6553,212.541 785.2488,212.2712 Q785.8423,212.0015 786.4731,211.4204 Z " fill="#000000"/><text fill="#000000" font-family="sans-serif" font-size="12" lengthAdjust="spacing" textLength="24" x="798" y="212.5352">平和</text><line style="stroke:#A80036;stroke-width:1.5;" x1="770" x2="824" y1="224" y2="224"/><line style="stroke:#A80036;stroke-width:1.5;" x1="770" x2="824" y1="232" y2="232"/><!--MD5=[a0fbafcc919696d1d2a17016666dc09b]
class type.野心--><rect codeLine="14" fill="#FEFECE" filter="url(#fhhcnt2dycyxp)" height="48" id="type.野心" style="stroke:#A80036;stroke-width:1.5;" width="56" x="729" y="300"/><ellipse cx="744" cy="316" fill="#ADD1B2" rx="11" ry="11" style="stroke:#A80036;stroke-width:1.0;"/><path d="M746.4731,322.1431 Q745.8921,322.4419 745.2529,322.5913 Q744.6138,322.7407 743.9082,322.7407 Q741.4014,322.7407 740.0815,321.0889 Q738.7617,319.437 738.7617,316.3159 Q738.7617,313.1865 740.0815,311.5347 Q741.4014,309.8828 743.9082,309.8828 Q744.6138,309.8828 745.2612,310.0322 Q745.9087,310.1816 746.4731,310.4805 L746.4731,313.2031 Q745.8423,312.6221 745.2488,312.3523 Q744.6553,312.0825 744.0244,312.0825 Q742.6797,312.0825 741.9949,313.1492 Q741.3101,314.2158 741.3101,316.3159 Q741.3101,318.4077 741.9949,319.4744 Q742.6797,320.541 744.0244,320.541 Q744.6553,320.541 745.2488,320.2712 Q745.8423,320.0015 746.4731,319.4204 Z " fill="#000000"/><text fill="#000000" font-family="sans-serif" font-size="12" lengthAdjust="spacing" textLength="24" x="758" y="320.5352">野心</text><line style="stroke:#A80036;stroke-width:1.5;" x1="730" x2="784" y1="332" y2="332"/><line style="stroke:#A80036;stroke-width:1.5;" x1="730" x2="784" y1="340" y2="340"/><!--MD5=[9bd1a9cfa4f823156c3bce8b8abd28a1]
class type.気質--><rect codeLine="18" fill="#FEFECE" filter="url(#fhhcnt2dycyxp)" height="48" id="type.気質" style="stroke:#A80036;stroke-width:1.5;" width="56" x="323" y="84"/><ellipse cx="338" cy="100" fill="#ADD1B2" rx="11" ry="11" style="stroke:#A80036;stroke-width:1.0;"/><path d="M340.4731,106.1431 Q339.8921,106.4419 339.2529,106.5913 Q338.6138,106.7407 337.9082,106.7407 Q335.4014,106.7407 334.0815,105.0889 Q332.7617,103.437 332.7617,100.3159 Q332.7617,97.1865 334.0815,95.5347 Q335.4014,93.8828 337.9082,93.8828 Q338.6138,93.8828 339.2612,94.0322 Q339.9087,94.1816 340.4731,94.4805 L340.4731,97.2031 Q339.8423,96.6221 339.2488,96.3523 Q338.6553,96.0825 338.0244,96.0825 Q336.6797,96.0825 335.9949,97.1492 Q335.3101,98.2158 335.3101,100.3159 Q335.3101,102.4077 335.9949,103.4744 Q336.6797,104.541 338.0244,104.541 Q338.6553,104.541 339.2488,104.2712 Q339.8423,104.0015 340.4731,103.4204 Z " fill="#000000"/><text fill="#000000" font-family="sans-serif" font-size="12" lengthAdjust="spacing" textLength="24" x="352" y="104.5352">気質</text><line style="stroke:#A80036;stroke-width:1.5;" x1="324" x2="378" y1="116" y2="116"/><line style="stroke:#A80036;stroke-width:1.5;" x1="324" x2="378" y1="124" y2="124"/><!--MD5=[4c0d5c735afe52103e937b5580db5d59]
class type.分裂気質--><rect codeLine="20" fill="#FEFECE" filter="url(#fhhcnt2dycyxp)" height="125.7305" id="type.分裂気質" style="stroke:#A80036;stroke-width:1.5;" width="298" x="32" y="414.5"/><ellipse cx="152.75" cy="430.5" fill="#ADD1B2" rx="11" ry="11" style="stroke:#A80036;stroke-width:1.0;"/><path d="M155.2231,436.6431 Q154.6421,436.9419 154.0029,437.0913 Q153.3638,437.2407 152.6582,437.2407 Q150.1514,437.2407 148.8315,435.5889 Q147.5117,433.937 147.5117,430.8159 Q147.5117,427.6865 148.8315,426.0347 Q150.1514,424.3828 152.6582,424.3828 Q153.3638,424.3828 154.0112,424.5322 Q154.6587,424.6816 155.2231,424.9805 L155.2231,427.7031 Q154.5923,427.1221 153.9988,426.8523 Q153.4053,426.5825 152.7744,426.5825 Q151.4297,426.5825 150.7449,427.6492 Q150.0601,428.7158 150.0601,430.8159 Q150.0601,432.9077 150.7449,433.9744 Q151.4297,435.041 152.7744,435.041 Q153.4053,435.041 153.9988,434.7712 Q154.5923,434.5015 155.2231,433.9204 Z " fill="#000000"/><text fill="#000000" font-family="sans-serif" font-size="12" lengthAdjust="spacing" textLength="48" x="173.25" y="435.0352">分裂気質</text><line style="stroke:#A80036;stroke-width:1.5;" x1="33" x2="329" y1="446.5" y2="446.5"/><text fill="#000000" font-family="sans-serif" font-size="11" lengthAdjust="spacing" textLength="33" x="38" y="461.1348">やせ型</text><text fill="#000000" font-family="sans-serif" font-size="11" lengthAdjust="spacing" textLength="160" x="38" y="474.0898">【有名人】宮沢りえ・Mr.オクレ</text><text fill="#000000" font-family="sans-serif" font-size="11" lengthAdjust="spacing" textLength="143" x="38" y="487.0449">基本的に神経質で生真面目。</text><text fill="#000000" font-family="sans-serif" font-size="11" lengthAdjust="spacing" textLength="286" x="38" y="500">自分の世界に閉じこもりがちで、社交的ではありません。</text><text fill="#000000" font-family="sans-serif" font-size="11" lengthAdjust="spacing" textLength="286" x="38" y="512.9551">他人が口にしたちょっとした言葉に過敏に反応する反面、</text><text fill="#000000" font-family="sans-serif" font-size="11" lengthAdjust="spacing" textLength="264" x="38" y="525.9102">他人の気持ちには無頓着で鈍感なところがあります。</text><line style="stroke:#A80036;stroke-width:1.5;" x1="33" x2="329" y1="532.2305" y2="532.2305"/><!--MD5=[cac3458fc23d85ce3290563f87625c01]
class type.躁鬱気質--><rect codeLine="30" fill="#FEFECE" filter="url(#fhhcnt2dycyxp)" height="138.6855" id="type.躁鬱気質" style="stroke:#A80036;stroke-width:1.5;" width="298" x="365" y="408"/><ellipse cx="485.75" cy="424" fill="#ADD1B2" rx="11" ry="11" style="stroke:#A80036;stroke-width:1.0;"/><path d="M488.2231,430.1431 Q487.6421,430.4419 487.0029,430.5913 Q486.3638,430.7407 485.6582,430.7407 Q483.1514,430.7407 481.8315,429.0889 Q480.5117,427.437 480.5117,424.3159 Q480.5117,421.1865 481.8315,419.5347 Q483.1514,417.8828 485.6582,417.8828 Q486.3638,417.8828 487.0112,418.0322 Q487.6587,418.1816 488.2231,418.4805 L488.2231,421.2031 Q487.5923,420.6221 486.9988,420.3523 Q486.4053,420.0825 485.7744,420.0825 Q484.4297,420.0825 483.7449,421.1492 Q483.0601,422.2158 483.0601,424.3159 Q483.0601,426.4077 483.7449,427.4744 Q484.4297,428.541 485.7744,428.541 Q486.4053,428.541 486.9988,428.2712 Q487.5923,428.0015 488.2231,427.4204 Z " fill="#000000"/><text fill="#000000" font-family="sans-serif" font-size="12" lengthAdjust="spacing" textLength="48" x="506.25" y="428.5352">躁鬱気質</text><line style="stroke:#A80036;stroke-width:1.5;" x1="366" x2="662" y1="440" y2="440"/><text fill="#000000" font-family="sans-serif" font-size="11" lengthAdjust="spacing" textLength="33" x="371" y="454.6348">肥満型</text><text fill="#000000" font-family="sans-serif" font-size="11" lengthAdjust="spacing" textLength="154" x="371" y="467.5898">【有名人】森久美子・伊集院光</text><text fill="#000000" font-family="sans-serif" font-size="11" lengthAdjust="spacing" textLength="154" x="371" y="480.5449">基本的に社交的で温かく親切。</text><text fill="#000000" font-family="sans-serif" font-size="11" lengthAdjust="spacing" textLength="286" x="371" y="493.5">明るくて活発でユーモア精神があり一緒にいて楽しい人。</text><text fill="#000000" font-family="sans-serif" font-size="11" lengthAdjust="spacing" textLength="154" x="371" y="506.4551">ただし感情にムラがあるため、</text><text fill="#000000" font-family="sans-serif" font-size="11" lengthAdjust="spacing" textLength="264" x="371" y="519.4102">時には激しく怒ったり泣いたりすることもあります。</text><text fill="#000000" font-family="sans-serif" font-size="11" lengthAdjust="spacing" textLength="231" x="371" y="532.3652">突然落ち込み、鬱状態になることがあります。</text><line style="stroke:#A80036;stroke-width:1.5;" x1="366" x2="662" y1="538.6855" y2="538.6855"/><!--MD5=[8bace89e4294ec119e34d3ecb873523e]
class type.粘着気質--><rect codeLine="41" fill="#FEFECE" filter="url(#fhhcnt2dycyxp)" height="99.8203" id="type.粘着気質" style="stroke:#A80036;stroke-width:1.5;" width="265" x="698.5" y="427.5"/><ellipse cx="802.75" cy="443.5" fill="#ADD1B2" rx="11" ry="11" style="stroke:#A80036;stroke-width:1.0;"/><path d="M805.2231,449.6431 Q804.6421,449.9419 804.0029,450.0913 Q803.3638,450.2407 802.6582,450.2407 Q800.1514,450.2407 798.8315,448.5889 Q797.5117,446.937 797.5117,443.8159 Q797.5117,440.6865 798.8315,439.0347 Q800.1514,437.3828 802.6582,437.3828 Q803.3638,437.3828 804.0112,437.5322 Q804.6587,437.6816 805.2231,437.9805 L805.2231,440.7031 Q804.5923,440.1221 803.9988,439.8523 Q803.4053,439.5825 802.7744,439.5825 Q801.4297,439.5825 800.7449,440.6492 Q800.0601,441.7158 800.0601,443.8159 Q800.0601,445.9077 800.7449,446.9744 Q801.4297,448.041 802.7744,448.041 Q803.4053,448.041 803.9988,447.7712 Q804.5923,447.5015 805.2231,446.9204 Z " fill="#000000"/><text fill="#000000" font-family="sans-serif" font-size="12" lengthAdjust="spacing" textLength="48" x="823.25" y="448.0352">粘着気質</text><line style="stroke:#A80036;stroke-width:1.5;" x1="699.5" x2="962.5" y1="459.5" y2="459.5"/><text fill="#000000" font-family="sans-serif" font-size="11" lengthAdjust="spacing" textLength="176" x="704.5" y="474.1348">【有名人】ケインコスギ・マイケル</text><text fill="#000000" font-family="sans-serif" font-size="11" lengthAdjust="spacing" textLength="253" x="704.5" y="487.0898">几帳面で秩序を好み、物事に熱中するタイプです。</text><text fill="#000000" font-family="sans-serif" font-size="11" lengthAdjust="spacing" textLength="220" x="704.5" y="500.0449">正義感が強く、礼儀正しいのはいいですが、</text><text fill="#000000" font-family="sans-serif" font-size="11" lengthAdjust="spacing" textLength="220" x="704.5" y="513">融通がきかず頑固といわれることもあります</text><line style="stroke:#A80036;stroke-width:1.5;" x1="699.5" x2="962.5" y1="519.3203" y2="519.3203"/><!--MD5=[4eeffcf93d5726e6837df46188f932db]
class type.ex.物理学者--><rect codeLine="49" fill="#FEFECE" filter="url(#fhhcnt2dycyxp)" height="48" id="type.ex.物理学者" style="stroke:#A80036;stroke-width:1.5;" width="80" x="860" y="192"/><ellipse cx="875" cy="208" fill="#ADD1B2" rx="11" ry="11" style="stroke:#A80036;stroke-width:1.0;"/><path d="M877.4731,214.1431 Q876.8921,214.4419 876.2529,214.5913 Q875.6138,214.7407 874.9082,214.7407 Q872.4014,214.7407 871.0815,213.0889 Q869.7617,211.437 869.7617,208.3159 Q869.7617,205.1865 871.0815,203.5347 Q872.4014,201.8828 874.9082,201.8828 Q875.6138,201.8828 876.2612,202.0322 Q876.9087,202.1816 877.4731,202.4805 L877.4731,205.2031 Q876.8423,204.6221 876.2488,204.3523 Q875.6553,204.0825 875.0244,204.0825 Q873.6797,204.0825 872.9949,205.1492 Q872.3101,206.2158 872.3101,208.3159 Q872.3101,210.4077 872.9949,211.4744 Q873.6797,212.541 875.0244,212.541 Q875.6553,212.541 876.2488,212.2712 Q876.8423,212.0015 877.4731,211.4204 Z " fill="#000000"/><text fill="#000000" font-family="sans-serif" font-size="12" lengthAdjust="spacing" textLength="48" x="889" y="212.5352">物理学者</text><line style="stroke:#A80036;stroke-width:1.5;" x1="861" x2="939" y1="224" y2="224"/><line style="stroke:#A80036;stroke-width:1.5;" x1="861" x2="939" y1="232" y2="232"/><!--MD5=[a044d8ffc592be227e9dd186102b9b6d]
class type.ex.野心--><rect fill="#FEFECE" filter="url(#fhhcnt2dycyxp)" height="48" id="type.ex.野心" style="stroke:#A80036;stroke-width:1.5;" width="56" x="872" y="84"/><ellipse cx="887" cy="100" fill="#ADD1B2" rx="11" ry="11" style="stroke:#A80036;stroke-width:1.0;"/><path d="M889.4731,106.1431 Q888.8921,106.4419 888.2529,106.5913 Q887.6138,106.7407 886.9082,106.7407 Q884.4014,106.7407 883.0815,105.0889 Q881.7617,103.437 881.7617,100.3159 Q881.7617,97.1865 883.0815,95.5347 Q884.4014,93.8828 886.9082,93.8828 Q887.6138,93.8828 888.2612,94.0322 Q888.9087,94.1816 889.4731,94.4805 L889.4731,97.2031 Q888.8423,96.6221 888.2488,96.3523 Q887.6553,96.0825 887.0244,96.0825 Q885.6797,96.0825 884.9949,97.1492 Q884.3101,98.2158 884.3101,100.3159 Q884.3101,102.4077 884.9949,103.4744 Q885.6797,104.541 887.0244,104.541 Q887.6553,104.541 888.2488,104.2712 Q888.8423,104.0015 889.4731,103.4204 Z " fill="#000000"/><text fill="#000000" font-family="sans-serif" font-size="12" lengthAdjust="spacing" textLength="24" x="901" y="104.5352">野心</text><line style="stroke:#A80036;stroke-width:1.5;" x1="873" x2="927" y1="116" y2="116"/><line style="stroke:#A80036;stroke-width:1.5;" x1="873" x2="927" y1="124" y2="124"/><!--MD5=[f91ed0fda49237470cff63576de05b37]
class 思考傾向.伝統志向--><rect codeLine="58" fill="#FEFECE" filter="url(#fhhcnt2dycyxp)" height="48" id="思考傾向.伝統志向" style="stroke:#A80036;stroke-width:1.5;" width="80" x="1788" y="84"/><ellipse cx="1803" cy="100" fill="#ADD1B2" rx="11" ry="11" style="stroke:#A80036;stroke-width:1.0;"/><path d="M1805.4731,106.1431 Q1804.8921,106.4419 1804.2529,106.5913 Q1803.6138,106.7407 1802.9082,106.7407 Q1800.4014,106.7407 1799.0815,105.0889 Q1797.7617,103.437 1797.7617,100.3159 Q1797.7617,97.1865 1799.0815,95.5347 Q1800.4014,93.8828 1802.9082,93.8828 Q1803.6138,93.8828 1804.2612,94.0322 Q1804.9087,94.1816 1805.4731,94.4805 L1805.4731,97.2031 Q1804.8423,96.6221 1804.2488,96.3523 Q1803.6553,96.0825 1803.0244,96.0825 Q1801.6797,96.0825 1800.9949,97.1492 Q1800.3101,98.2158 1800.3101,100.3159 Q1800.3101,102.4077 1800.9949,103.4744 Q1801.6797,104.541 1803.0244,104.541 Q1803.6553,104.541 1804.2488,104.2712 Q1804.8423,104.0015 1805.4731,103.4204 Z " fill="#000000"/><text fill="#000000" font-family="sans-serif" font-size="12" lengthAdjust="spacing" textLength="48" x="1817" y="104.5352">伝統志向</text><line style="stroke:#A80036;stroke-width:1.5;" x1="1789" x2="1867" y1="116" y2="116"/><line style="stroke:#A80036;stroke-width:1.5;" x1="1789" x2="1867" y1="124" y2="124"/><!--MD5=[b337f6de976b78452eba931cf2ed514e]
class env.不満--><rect codeLine="64" fill="#FEFECE" filter="url(#fhhcnt2dycyxp)" height="48" id="env.不満" style="stroke:#A80036;stroke-width:1.5;" width="56" x="1123" y="84"/><ellipse cx="1138" cy="100" fill="#ADD1B2" rx="11" ry="11" style="stroke:#A80036;stroke-width:1.0;"/><path d="M1140.4731,106.1431 Q1139.8921,106.4419 1139.2529,106.5913 Q1138.6138,106.7407 1137.9082,106.7407 Q1135.4014,106.7407 1134.0815,105.0889 Q1132.7617,103.437 1132.7617,100.3159 Q1132.7617,97.1865 1134.0815,95.5347 Q1135.4014,93.8828 1137.9082,93.8828 Q1138.6138,93.8828 1139.2612,94.0322 Q1139.9087,94.1816 1140.4731,94.4805 L1140.4731,97.2031 Q1139.8423,96.6221 1139.2488,96.3523 Q1138.6553,96.0825 1138.0244,96.0825 Q1136.6797,96.0825 1135.9949,97.1492 Q1135.3101,98.2158 1135.3101,100.3159 Q1135.3101,102.4077 1135.9949,103.4744 Q1136.6797,104.541 1138.0244,104.541 Q1138.6553,104.541 1139.2488,104.2712 Q1139.8423,104.0015 1140.4731,103.4204 Z " fill="#000000"/><text fill="#000000" font-family="sans-serif" font-size="12" lengthAdjust="spacing" textLength="24" x="1152" y="104.5352">不満</text><line style="stroke:#A80036;stroke-width:1.5;" x1="1124" x2="1178" y1="116" y2="116"/><line style="stroke:#A80036;stroke-width:1.5;" x1="1124" x2="1178" y1="124" y2="124"/><!--MD5=[6dbbccf62dd0eb5d0bae1abab68992fa]
class env.圧力下--><rect codeLine="65" fill="#FEFECE" filter="url(#fhhcnt2dycyxp)" height="48" id="env.圧力下" style="stroke:#A80036;stroke-width:1.5;" width="68" x="1020" y="84"/><ellipse cx="1035" cy="100" fill="#ADD1B2" rx="11" ry="11" style="stroke:#A80036;stroke-width:1.0;"/><path d="M1037.4731,106.1431 Q1036.8921,106.4419 1036.2529,106.5913 Q1035.6138,106.7407 1034.9082,106.7407 Q1032.4014,106.7407 1031.0815,105.0889 Q1029.7617,103.437 1029.7617,100.3159 Q1029.7617,97.1865 1031.0815,95.5347 Q1032.4014,93.8828 1034.9082,93.8828 Q1035.6138,93.8828 1036.2612,94.0322 Q1036.9087,94.1816 1037.4731,94.4805 L1037.4731,97.2031 Q1036.8423,96.6221 1036.2488,96.3523 Q1035.6553,96.0825 1035.0244,96.0825 Q1033.6797,96.0825 1032.9949,97.1492 Q1032.3101,98.2158 1032.3101,100.3159 Q1032.3101,102.4077 1032.9949,103.4744 Q1033.6797,104.541 1035.0244,104.541 Q1035.6553,104.541 1036.2488,104.2712 Q1036.8423,104.0015 1037.4731,103.4204 Z " fill="#000000"/><text fill="#000000" font-family="sans-serif" font-size="12" lengthAdjust="spacing" textLength="36" x="1049" y="104.5352">圧力下</text><line style="stroke:#A80036;stroke-width:1.5;" x1="1021" x2="1087" y1="116" y2="116"/><line style="stroke:#A80036;stroke-width:1.5;" x1="1021" x2="1087" y1="124" y2="124"/><!--MD5=[fb4c72aeb41dd212a15cf732f22aff08]
class env.女性的要素からの圧力--><rect codeLine="67" fill="#FEFECE" filter="url(#fhhcnt2dycyxp)" height="48" id="env.女性的要素からの圧力" style="stroke:#A80036;stroke-width:1.5;" width="152" x="1214" y="84"/><ellipse cx="1229" cy="100" fill="#ADD1B2" rx="11" ry="11" style="stroke:#A80036;stroke-width:1.0;"/><path d="M1231.4731,106.1431 Q1230.8921,106.4419 1230.2529,106.5913 Q1229.6138,106.7407 1228.9082,106.7407 Q1226.4014,106.7407 1225.0815,105.0889 Q1223.7617,103.437 1223.7617,100.3159 Q1223.7617,97.1865 1225.0815,95.5347 Q1226.4014,93.8828 1228.9082,93.8828 Q1229.6138,93.8828 1230.2612,94.0322 Q1230.9087,94.1816 1231.4731,94.4805 L1231.4731,97.2031 Q1230.8423,96.6221 1230.2488,96.3523 Q1229.6553,96.0825 1229.0244,96.0825 Q1227.6797,96.0825 1226.9949,97.1492 Q1226.3101,98.2158 1226.3101,100.3159 Q1226.3101,102.4077 1226.9949,103.4744 Q1227.6797,104.541 1229.0244,104.541 Q1229.6553,104.541 1230.2488,104.2712 Q1230.8423,104.0015 1231.4731,103.4204 Z " fill="#000000"/><text fill="#000000" font-family="sans-serif" font-size="12" lengthAdjust="spacing" textLength="120" x="1243" y="104.5352">女性的要素からの圧力</text><line style="stroke:#A80036;stroke-width:1.5;" x1="1215" x2="1365" y1="116" y2="116"/><line style="stroke:#A80036;stroke-width:1.5;" x1="1215" x2="1365" y1="124" y2="124"/><!--MD5=[186806f0922ff661b6b52ac89de76293]
class env.諦め--><rect codeLine="69" fill="#FEFECE" filter="url(#fhhcnt2dycyxp)" height="48" id="env.諦め" style="stroke:#A80036;stroke-width:1.5;" width="56" x="1023" y="192"/><ellipse cx="1038" cy="208" fill="#ADD1B2" rx="11" ry="11" style="stroke:#A80036;stroke-width:1.0;"/><path d="M1040.4731,214.1431 Q1039.8921,214.4419 1039.2529,214.5913 Q1038.6138,214.7407 1037.9082,214.7407 Q1035.4014,214.7407 1034.0815,213.0889 Q1032.7617,211.437 1032.7617,208.3159 Q1032.7617,205.1865 1034.0815,203.5347 Q1035.4014,201.8828 1037.9082,201.8828 Q1038.6138,201.8828 1039.2612,202.0322 Q1039.9087,202.1816 1040.4731,202.4805 L1040.4731,205.2031 Q1039.8423,204.6221 1039.2488,204.3523 Q1038.6553,204.0825 1038.0244,204.0825 Q1036.6797,204.0825 1035.9949,205.1492 Q1035.3101,206.2158 1035.3101,208.3159 Q1035.3101,210.4077 1035.9949,211.4744 Q1036.6797,212.541 1038.0244,212.541 Q1038.6553,212.541 1039.2488,212.2712 Q1039.8423,212.0015 1040.4731,211.4204 Z " fill="#000000"/><text fill="#000000" font-family="sans-serif" font-size="12" lengthAdjust="spacing" textLength="24" x="1052" y="212.5352">諦め</text><line style="stroke:#A80036;stroke-width:1.5;" x1="1024" x2="1078" y1="224" y2="224"/><line style="stroke:#A80036;stroke-width:1.5;" x1="1024" x2="1078" y1="232" y2="232"/><!--MD5=[c6b2ce260a9bc64887e3e62bdd14a8ec]
class env.他者との接触の増加--><rect codeLine="72" fill="#FEFECE" filter="url(#fhhcnt2dycyxp)" height="48" id="env.他者との接触の増加" style="stroke:#A80036;stroke-width:1.5;" width="140" x="1114" y="192"/><ellipse cx="1129" cy="208" fill="#ADD1B2" rx="11" ry="11" style="stroke:#A80036;stroke-width:1.0;"/><path d="M1131.4731,214.1431 Q1130.8921,214.4419 1130.2529,214.5913 Q1129.6138,214.7407 1128.9082,214.7407 Q1126.4014,214.7407 1125.0815,213.0889 Q1123.7617,211.437 1123.7617,208.3159 Q1123.7617,205.1865 1125.0815,203.5347 Q1126.4014,201.8828 1128.9082,201.8828 Q1129.6138,201.8828 1130.2612,202.0322 Q1130.9087,202.1816 1131.4731,202.4805 L1131.4731,205.2031 Q1130.8423,204.6221 1130.2488,204.3523 Q1129.6553,204.0825 1129.0244,204.0825 Q1127.6797,204.0825 1126.9949,205.1492 Q1126.3101,206.2158 1126.3101,208.3159 Q1126.3101,210.4077 1126.9949,211.4744 Q1127.6797,212.541 1129.0244,212.541 Q1129.6553,212.541 1130.2488,212.2712 Q1130.8423,212.0015 1131.4731,211.4204 Z " fill="#000000"/><text fill="#000000" font-family="sans-serif" font-size="12" lengthAdjust="spacing" textLength="108" x="1143" y="212.5352">他者との接触の増加</text><line style="stroke:#A80036;stroke-width:1.5;" x1="1115" x2="1253" y1="224" y2="224"/><line style="stroke:#A80036;stroke-width:1.5;" x1="1115" x2="1253" y1="232" y2="232"/><!--MD5=[f67090f2d05e59c8cd2106ae3b8ec4a9]
class think.秘密主義--><rect codeLine="76" fill="#FEFECE" filter="url(#fhhcnt2dycyxp)" height="48" id="think.秘密主義" style="stroke:#A80036;stroke-width:1.5;" width="80" x="1422" y="84"/><ellipse cx="1437" cy="100" fill="#ADD1B2" rx="11" ry="11" style="stroke:#A80036;stroke-width:1.0;"/><path d="M1439.4731,106.1431 Q1438.8921,106.4419 1438.2529,106.5913 Q1437.6138,106.7407 1436.9082,106.7407 Q1434.4014,106.7407 1433.0815,105.0889 Q1431.7617,103.437 1431.7617,100.3159 Q1431.7617,97.1865 1433.0815,95.5347 Q1434.4014,93.8828 1436.9082,93.8828 Q1437.6138,93.8828 1438.2612,94.0322 Q1438.9087,94.1816 1439.4731,94.4805 L1439.4731,97.2031 Q1438.8423,96.6221 1438.2488,96.3523 Q1437.6553,96.0825 1437.0244,96.0825 Q1435.6797,96.0825 1434.9949,97.1492 Q1434.3101,98.2158 1434.3101,100.3159 Q1434.3101,102.4077 1434.9949,103.4744 Q1435.6797,104.541 1437.0244,104.541 Q1437.6553,104.541 1438.2488,104.2712 Q1438.8423,104.0015 1439.4731,103.4204 Z " fill="#000000"/><text fill="#000000" font-family="sans-serif" font-size="12" lengthAdjust="spacing" textLength="48" x="1451" y="104.5352">秘密主義</text><line style="stroke:#A80036;stroke-width:1.5;" x1="1423" x2="1501" y1="116" y2="116"/><line style="stroke:#A80036;stroke-width:1.5;" x1="1423" x2="1501" y1="124" y2="124"/><!--MD5=[9b9b31b741db9cc35ec471c2b68a55ac]
class think.伝統主義--><rect codeLine="77" fill="#FEFECE" filter="url(#fhhcnt2dycyxp)" height="48" id="think.伝統主義" style="stroke:#A80036;stroke-width:1.5;" width="80" x="1537" y="84"/><ellipse cx="1552" cy="100" fill="#ADD1B2" rx="11" ry="11" style="stroke:#A80036;stroke-width:1.0;"/><path d="M1554.4731,106.1431 Q1553.8921,106.4419 1553.2529,106.5913 Q1552.6138,106.7407 1551.9082,106.7407 Q1549.4014,106.7407 1548.0815,105.0889 Q1546.7617,103.437 1546.7617,100.3159 Q1546.7617,97.1865 1548.0815,95.5347 Q1549.4014,93.8828 1551.9082,93.8828 Q1552.6138,93.8828 1553.2612,94.0322 Q1553.9087,94.1816 1554.4731,94.4805 L1554.4731,97.2031 Q1553.8423,96.6221 1553.2488,96.3523 Q1552.6553,96.0825 1552.0244,96.0825 Q1550.6797,96.0825 1549.9949,97.1492 Q1549.3101,98.2158 1549.3101,100.3159 Q1549.3101,102.4077 1549.9949,103.4744 Q1550.6797,104.541 1552.0244,104.541 Q1552.6553,104.541 1553.2488,104.2712 Q1553.8423,104.0015 1554.4731,103.4204 Z " fill="#000000"/><text fill="#000000" font-family="sans-serif" font-size="12" lengthAdjust="spacing" textLength="48" x="1566" y="104.5352">伝統主義</text><line style="stroke:#A80036;stroke-width:1.5;" x1="1538" x2="1616" y1="116" y2="116"/><line style="stroke:#A80036;stroke-width:1.5;" x1="1538" x2="1616" y1="124" y2="124"/><!--MD5=[6209d979025a68e856ea4f551a5880c1]
class think.理想主義--><rect codeLine="78" fill="#FEFECE" filter="url(#fhhcnt2dycyxp)" height="48" id="think.理想主義" style="stroke:#A80036;stroke-width:1.5;" width="80" x="1652" y="84"/><ellipse cx="1667" cy="100" fill="#ADD1B2" rx="11" ry="11" style="stroke:#A80036;stroke-width:1.0;"/><path d="M1669.4731,106.1431 Q1668.8921,106.4419 1668.2529,106.5913 Q1667.6138,106.7407 1666.9082,106.7407 Q1664.4014,106.7407 1663.0815,105.0889 Q1661.7617,103.437 1661.7617,100.3159 Q1661.7617,97.1865 1663.0815,95.5347 Q1664.4014,93.8828 1666.9082,93.8828 Q1667.6138,93.8828 1668.2612,94.0322 Q1668.9087,94.1816 1669.4731,94.4805 L1669.4731,97.2031 Q1668.8423,96.6221 1668.2488,96.3523 Q1667.6553,96.0825 1667.0244,96.0825 Q1665.6797,96.0825 1664.9949,97.1492 Q1664.3101,98.2158 1664.3101,100.3159 Q1664.3101,102.4077 1664.9949,103.4744 Q1665.6797,104.541 1667.0244,104.541 Q1667.6553,104.541 1668.2488,104.2712 Q1668.8423,104.0015 1669.4731,103.4204 Z " fill="#000000"/><text fill="#000000" font-family="sans-serif" font-size="12" lengthAdjust="spacing" textLength="48" x="1681" y="104.5352">理想主義</text><line style="stroke:#A80036;stroke-width:1.5;" x1="1653" x2="1731" y1="116" y2="116"/><line style="stroke:#A80036;stroke-width:1.5;" x1="1653" x2="1731" y1="124" y2="124"/><!--MD5=[c52053fbb5ece2d33925a26c73482f85]
class think.逃避--><rect codeLine="79" fill="#FEFECE" filter="url(#fhhcnt2dycyxp)" height="48" id="think.逃避" style="stroke:#A80036;stroke-width:1.5;" width="56" x="1434" y="192"/><ellipse cx="1449" cy="208" fill="#ADD1B2" rx="11" ry="11" style="stroke:#A80036;stroke-width:1.0;"/><path d="M1451.4731,214.1431 Q1450.8921,214.4419 1450.2529,214.5913 Q1449.6138,214.7407 1448.9082,214.7407 Q1446.4014,214.7407 1445.0815,213.0889 Q1443.7617,211.437 1443.7617,208.3159 Q1443.7617,205.1865 1445.0815,203.5347 Q1446.4014,201.8828 1448.9082,201.8828 Q1449.6138,201.8828 1450.2612,202.0322 Q1450.9087,202.1816 1451.4731,202.4805 L1451.4731,205.2031 Q1450.8423,204.6221 1450.2488,204.3523 Q1449.6553,204.0825 1449.0244,204.0825 Q1447.6797,204.0825 1446.9949,205.1492 Q1446.3101,206.2158 1446.3101,208.3159 Q1446.3101,210.4077 1446.9949,211.4744 Q1447.6797,212.541 1449.0244,212.541 Q1449.6553,212.541 1450.2488,212.2712 Q1450.8423,212.0015 1451.4731,211.4204 Z " fill="#000000"/><text fill="#000000" font-family="sans-serif" font-size="12" lengthAdjust="spacing" textLength="24" x="1463" y="212.5352">逃避</text><line style="stroke:#A80036;stroke-width:1.5;" x1="1435" x2="1489" y1="224" y2="224"/><line style="stroke:#A80036;stroke-width:1.5;" x1="1435" x2="1489" y1="232" y2="232"/><!--MD5=[95fc97e972c07075c8661fe34708894e]
class think.可逆性--><rect codeLine="80" fill="#FEFECE" filter="url(#fhhcnt2dycyxp)" height="48" id="think.可逆性" style="stroke:#A80036;stroke-width:1.5;" width="68" x="1525" y="192"/><ellipse cx="1540" cy="208" fill="#ADD1B2" rx="11" ry="11" style="stroke:#A80036;stroke-width:1.0;"/><path d="M1542.4731,214.1431 Q1541.8921,214.4419 1541.2529,214.5913 Q1540.6138,214.7407 1539.9082,214.7407 Q1537.4014,214.7407 1536.0815,213.0889 Q1534.7617,211.437 1534.7617,208.3159 Q1534.7617,205.1865 1536.0815,203.5347 Q1537.4014,201.8828 1539.9082,201.8828 Q1540.6138,201.8828 1541.2612,202.0322 Q1541.9087,202.1816 1542.4731,202.4805 L1542.4731,205.2031 Q1541.8423,204.6221 1541.2488,204.3523 Q1540.6553,204.0825 1540.0244,204.0825 Q1538.6797,204.0825 1537.9949,205.1492 Q1537.3101,206.2158 1537.3101,208.3159 Q1537.3101,210.4077 1537.9949,211.4744 Q1538.6797,212.541 1540.0244,212.541 Q1540.6553,212.541 1541.2488,212.2712 Q1541.8423,212.0015 1542.4731,211.4204 Z " fill="#000000"/><text fill="#000000" font-family="sans-serif" font-size="12" lengthAdjust="spacing" textLength="36" x="1554" y="212.5352">可逆性</text><line style="stroke:#A80036;stroke-width:1.5;" x1="1526" x2="1592" y1="224" y2="224"/><line style="stroke:#A80036;stroke-width:1.5;" x1="1526" x2="1592" y1="232" y2="232"/><!--MD5=[be03a69dee268d605f6d6fbaa69865e7]
class living.死--><rect codeLine="84" fill="#FEFECE" filter="url(#fhhcnt2dycyxp)" height="48" id="living.死" style="stroke:#A80036;stroke-width:1.5;" width="44" x="2015" y="84"/><ellipse cx="2030" cy="100" fill="#ADD1B2" rx="11" ry="11" style="stroke:#A80036;stroke-width:1.0;"/><path d="M2032.4731,106.1431 Q2031.8921,106.4419 2031.2529,106.5913 Q2030.6138,106.7407 2029.9082,106.7407 Q2027.4014,106.7407 2026.0815,105.0889 Q2024.7617,103.437 2024.7617,100.3159 Q2024.7617,97.1865 2026.0815,95.5347 Q2027.4014,93.8828 2029.9082,93.8828 Q2030.6138,93.8828 2031.2612,94.0322 Q2031.9087,94.1816 2032.4731,94.4805 L2032.4731,97.2031 Q2031.8423,96.6221 2031.2488,96.3523 Q2030.6553,96.0825 2030.0244,96.0825 Q2028.6797,96.0825 2027.9949,97.1492 Q2027.3101,98.2158 2027.3101,100.3159 Q2027.3101,102.4077 2027.9949,103.4744 Q2028.6797,104.541 2030.0244,104.541 Q2030.6553,104.541 2031.2488,104.2712 Q2031.8423,104.0015 2032.4731,103.4204 Z " fill="#000000"/><text fill="#000000" font-family="sans-serif" font-size="12" lengthAdjust="spacing" textLength="12" x="2044" y="104.5352">死</text><line style="stroke:#A80036;stroke-width:1.5;" x1="2016" x2="2058" y1="116" y2="116"/><line style="stroke:#A80036;stroke-width:1.5;" x1="2016" x2="2058" y1="124" y2="124"/><!--MD5=[18cad1a8e596fd5472f250e718d823ca]
class living.充実--><rect codeLine="85" fill="#FEFECE" filter="url(#fhhcnt2dycyxp)" height="48" id="living.充実" style="stroke:#A80036;stroke-width:1.5;" width="56" x="1924" y="84"/><ellipse cx="1939" cy="100" fill="#ADD1B2" rx="11" ry="11" style="stroke:#A80036;stroke-width:1.0;"/><path d="M1941.4731,106.1431 Q1940.8921,106.4419 1940.2529,106.5913 Q1939.6138,106.7407 1938.9082,106.7407 Q1936.4014,106.7407 1935.0815,105.0889 Q1933.7617,103.437 1933.7617,100.3159 Q1933.7617,97.1865 1935.0815,95.5347 Q1936.4014,93.8828 1938.9082,93.8828 Q1939.6138,93.8828 1940.2612,94.0322 Q1940.9087,94.1816 1941.4731,94.4805 L1941.4731,97.2031 Q1940.8423,96.6221 1940.2488,96.3523 Q1939.6553,96.0825 1939.0244,96.0825 Q1937.6797,96.0825 1936.9949,97.1492 Q1936.3101,98.2158 1936.3101,100.3159 Q1936.3101,102.4077 1936.9949,103.4744 Q1937.6797,104.541 1939.0244,104.541 Q1939.6553,104.541 1940.2488,104.2712 Q1940.8423,104.0015 1941.4731,103.4204 Z " fill="#000000"/><text fill="#000000" font-family="sans-serif" font-size="12" lengthAdjust="spacing" textLength="24" x="1953" y="104.5352">充実</text><line style="stroke:#A80036;stroke-width:1.5;" x1="1925" x2="1979" y1="116" y2="116"/><line style="stroke:#A80036;stroke-width:1.5;" x1="1925" x2="1979" y1="124" y2="124"/><!--MD5=[e45ac958bfb7a40f67cd80ece99aeb6f]
class state.喪失--><rect codeLine="89" fill="#FEFECE" filter="url(#fhhcnt2dycyxp)" height="48" id="state.喪失" style="stroke:#A80036;stroke-width:1.5;" width="56" x="1020" y="453.5"/><ellipse cx="1035" cy="469.5" fill="#ADD1B2" rx="11" ry="11" style="stroke:#A80036;stroke-width:1.0;"/><path d="M1037.4731,475.6431 Q1036.8921,475.9419 1036.2529,476.0913 Q1035.6138,476.2407 1034.9082,476.2407 Q1032.4014,476.2407 1031.0815,474.5889 Q1029.7617,472.937 1029.7617,469.8159 Q1029.7617,466.6865 1031.0815,465.0347 Q1032.4014,463.3828 1034.9082,463.3828 Q1035.6138,463.3828 1036.2612,463.5322 Q1036.9087,463.6816 1037.4731,463.9805 L1037.4731,466.7031 Q1036.8423,466.1221 1036.2488,465.8523 Q1035.6553,465.5825 1035.0244,465.5825 Q1033.6797,465.5825 1032.9949,466.6492 Q1032.3101,467.7158 1032.3101,469.8159 Q1032.3101,471.9077 1032.9949,472.9744 Q1033.6797,474.041 1035.0244,474.041 Q1035.6553,474.041 1036.2488,473.7712 Q1036.8423,473.5015 1037.4731,472.9204 Z " fill="#000000"/><text fill="#000000" font-family="sans-serif" font-size="12" lengthAdjust="spacing" textLength="24" x="1049" y="474.0352">喪失</text><line style="stroke:#A80036;stroke-width:1.5;" x1="1021" x2="1075" y1="485.5" y2="485.5"/><line style="stroke:#A80036;stroke-width:1.5;" x1="1021" x2="1075" y1="493.5" y2="493.5"/><!--MD5=[9ea5e7bc442cc9805e3eb8d028deb84a]
class state.防衛--><rect codeLine="90" fill="#FEFECE" filter="url(#fhhcnt2dycyxp)" height="48" id="state.防衛" style="stroke:#A80036;stroke-width:1.5;" width="56" x="1111" y="453.5"/><ellipse cx="1126" cy="469.5" fill="#ADD1B2" rx="11" ry="11" style="stroke:#A80036;stroke-width:1.0;"/><path d="M1128.4731,475.6431 Q1127.8921,475.9419 1127.2529,476.0913 Q1126.6138,476.2407 1125.9082,476.2407 Q1123.4014,476.2407 1122.0815,474.5889 Q1120.7617,472.937 1120.7617,469.8159 Q1120.7617,466.6865 1122.0815,465.0347 Q1123.4014,463.3828 1125.9082,463.3828 Q1126.6138,463.3828 1127.2612,463.5322 Q1127.9087,463.6816 1128.4731,463.9805 L1128.4731,466.7031 Q1127.8423,466.1221 1127.2488,465.8523 Q1126.6553,465.5825 1126.0244,465.5825 Q1124.6797,465.5825 1123.9949,466.6492 Q1123.3101,467.7158 1123.3101,469.8159 Q1123.3101,471.9077 1123.9949,472.9744 Q1124.6797,474.041 1126.0244,474.041 Q1126.6553,474.041 1127.2488,473.7712 Q1127.8423,473.5015 1128.4731,472.9204 Z " fill="#000000"/><text fill="#000000" font-family="sans-serif" font-size="12" lengthAdjust="spacing" textLength="24" x="1140" y="474.0352">防衛</text><line style="stroke:#A80036;stroke-width:1.5;" x1="1112" x2="1166" y1="485.5" y2="485.5"/><line style="stroke:#A80036;stroke-width:1.5;" x1="1112" x2="1166" y1="493.5" y2="493.5"/><!--MD5=[a768ce815de24fe62eb746c3c9f7b47a]
class state.空想--><rect codeLine="92" fill="#FEFECE" filter="url(#fhhcnt2dycyxp)" height="48" id="state.空想" style="stroke:#A80036;stroke-width:1.5;" width="56" x="1202" y="453.5"/><ellipse cx="1217" cy="469.5" fill="#ADD1B2" rx="11" ry="11" style="stroke:#A80036;stroke-width:1.0;"/><path d="M1219.4731,475.6431 Q1218.8921,475.9419 1218.2529,476.0913 Q1217.6138,476.2407 1216.9082,476.2407 Q1214.4014,476.2407 1213.0815,474.5889 Q1211.7617,472.937 1211.7617,469.8159 Q1211.7617,466.6865 1213.0815,465.0347 Q1214.4014,463.3828 1216.9082,463.3828 Q1217.6138,463.3828 1218.2612,463.5322 Q1218.9087,463.6816 1219.4731,463.9805 L1219.4731,466.7031 Q1218.8423,466.1221 1218.2488,465.8523 Q1217.6553,465.5825 1217.0244,465.5825 Q1215.6797,465.5825 1214.9949,466.6492 Q1214.3101,467.7158 1214.3101,469.8159 Q1214.3101,471.9077 1214.9949,472.9744 Q1215.6797,474.041 1217.0244,474.041 Q1217.6553,474.041 1218.2488,473.7712 Q1218.8423,473.5015 1219.4731,472.9204 Z " fill="#000000"/><text fill="#000000" font-family="sans-serif" font-size="12" lengthAdjust="spacing" textLength="24" x="1231" y="474.0352">空想</text><line style="stroke:#A80036;stroke-width:1.5;" x1="1203" x2="1257" y1="485.5" y2="485.5"/><line style="stroke:#A80036;stroke-width:1.5;" x1="1203" x2="1257" y1="493.5" y2="493.5"/><!--MD5=[25e9c5294557a47419d23601d3bf55e0]
class state.現実--><rect codeLine="93" fill="#FEFECE" filter="url(#fhhcnt2dycyxp)" height="48" id="state.現実" style="stroke:#A80036;stroke-width:1.5;" width="56" x="1020" y="613.5"/><ellipse cx="1035" cy="629.5" fill="#ADD1B2" rx="11" ry="11" style="stroke:#A80036;stroke-width:1.0;"/><path d="M1037.4731,635.6431 Q1036.8921,635.9419 1036.2529,636.0913 Q1035.6138,636.2407 1034.9082,636.2407 Q1032.4014,636.2407 1031.0815,634.5889 Q1029.7617,632.937 1029.7617,629.8159 Q1029.7617,626.6865 1031.0815,625.0347 Q1032.4014,623.3828 1034.9082,623.3828 Q1035.6138,623.3828 1036.2612,623.5322 Q1036.9087,623.6816 1037.4731,623.9805 L1037.4731,626.7031 Q1036.8423,626.1221 1036.2488,625.8523 Q1035.6553,625.5825 1035.0244,625.5825 Q1033.6797,625.5825 1032.9949,626.6492 Q1032.3101,627.7158 1032.3101,629.8159 Q1032.3101,631.9077 1032.9949,632.9744 Q1033.6797,634.041 1035.0244,634.041 Q1035.6553,634.041 1036.2488,633.7712 Q1036.8423,633.5015 1037.4731,632.9204 Z " fill="#000000"/><text fill="#000000" font-family="sans-serif" font-size="12" lengthAdjust="spacing" textLength="24" x="1049" y="634.0352">現実</text><line style="stroke:#A80036;stroke-width:1.5;" x1="1021" x2="1075" y1="645.5" y2="645.5"/><line style="stroke:#A80036;stroke-width:1.5;" x1="1021" x2="1075" y1="653.5" y2="653.5"/><!--MD5=[062afe9b5d2e58a566a11929855daa8a]
class state.過去--><rect codeLine="95" fill="#FEFECE" filter="url(#fhhcnt2dycyxp)" height="48" id="state.過去" style="stroke:#A80036;stroke-width:1.5;" width="56" x="1111" y="613.5"/><ellipse cx="1126" cy="629.5" fill="#ADD1B2" rx="11" ry="11" style="stroke:#A80036;stroke-width:1.0;"/><path d="M1128.4731,635.6431 Q1127.8921,635.9419 1127.2529,636.0913 Q1126.6138,636.2407 1125.9082,636.2407 Q1123.4014,636.2407 1122.0815,634.5889 Q1120.7617,632.937 1120.7617,629.8159 Q1120.7617,626.6865 1122.0815,625.0347 Q1123.4014,623.3828 1125.9082,623.3828 Q1126.6138,623.3828 1127.2612,623.5322 Q1127.9087,623.6816 1128.4731,623.9805 L1128.4731,626.7031 Q1127.8423,626.1221 1127.2488,625.8523 Q1126.6553,625.5825 1126.0244,625.5825 Q1124.6797,625.5825 1123.9949,626.6492 Q1123.3101,627.7158 1123.3101,629.8159 Q1123.3101,631.9077 1123.9949,632.9744 Q1124.6797,634.041 1126.0244,634.041 Q1126.6553,634.041 1127.2488,633.7712 Q1127.8423,633.5015 1128.4731,632.9204 Z " fill="#000000"/><text fill="#000000" font-family="sans-serif" font-size="12" lengthAdjust="spacing" textLength="24" x="1140" y="634.0352">過去</text><line style="stroke:#A80036;stroke-width:1.5;" x1="1112" x2="1166" y1="645.5" y2="645.5"/><line style="stroke:#A80036;stroke-width:1.5;" x1="1112" x2="1166" y1="653.5" y2="653.5"/><!--MD5=[f10f4a097bf613c311d03bb3c8a1b28b]
class state.未来--><rect codeLine="96" fill="#FEFECE" filter="url(#fhhcnt2dycyxp)" height="48" id="state.未来" style="stroke:#A80036;stroke-width:1.5;" width="56" x="1202" y="613.5"/><ellipse cx="1217" cy="629.5" fill="#ADD1B2" rx="11" ry="11" style="stroke:#A80036;stroke-width:1.0;"/><path d="M1219.4731,635.6431 Q1218.8921,635.9419 1218.2529,636.0913 Q1217.6138,636.2407 1216.9082,636.2407 Q1214.4014,636.2407 1213.0815,634.5889 Q1211.7617,632.937 1211.7617,629.8159 Q1211.7617,626.6865 1213.0815,625.0347 Q1214.4014,623.3828 1216.9082,623.3828 Q1217.6138,623.3828 1218.2612,623.5322 Q1218.9087,623.6816 1219.4731,623.9805 L1219.4731,626.7031 Q1218.8423,626.1221 1218.2488,625.8523 Q1217.6553,625.5825 1217.0244,625.5825 Q1215.6797,625.5825 1214.9949,626.6492 Q1214.3101,627.7158 1214.3101,629.8159 Q1214.3101,631.9077 1214.9949,632.9744 Q1215.6797,634.041 1217.0244,634.041 Q1217.6553,634.041 1218.2488,633.7712 Q1218.8423,633.5015 1219.4731,632.9204 Z " fill="#000000"/><text fill="#000000" font-family="sans-serif" font-size="12" lengthAdjust="spacing" textLength="24" x="1231" y="634.0352">未来</text><line style="stroke:#A80036;stroke-width:1.5;" x1="1203" x2="1257" y1="645.5" y2="645.5"/><line style="stroke:#A80036;stroke-width:1.5;" x1="1203" x2="1257" y1="653.5" y2="653.5"/><!--MD5=[b32e0bbc710a5bef374e5f99c3245438]
class state.混乱--><rect codeLine="98" fill="#FEFECE" filter="url(#fhhcnt2dycyxp)" height="48" id="state.混乱" style="stroke:#A80036;stroke-width:1.5;" width="56" x="1020" y="728"/><ellipse cx="1035" cy="744" fill="#ADD1B2" rx="11" ry="11" style="stroke:#A80036;stroke-width:1.0;"/><path d="M1037.4731,750.1431 Q1036.8921,750.4419 1036.2529,750.5913 Q1035.6138,750.7407 1034.9082,750.7407 Q1032.4014,750.7407 1031.0815,749.0889 Q1029.7617,747.437 1029.7617,744.3159 Q1029.7617,741.1865 1031.0815,739.5347 Q1032.4014,737.8828 1034.9082,737.8828 Q1035.6138,737.8828 1036.2612,738.0322 Q1036.9087,738.1816 1037.4731,738.4805 L1037.4731,741.2031 Q1036.8423,740.6221 1036.2488,740.3523 Q1035.6553,740.0825 1035.0244,740.0825 Q1033.6797,740.0825 1032.9949,741.1492 Q1032.3101,742.2158 1032.3101,744.3159 Q1032.3101,746.4077 1032.9949,747.4744 Q1033.6797,748.541 1035.0244,748.541 Q1035.6553,748.541 1036.2488,748.2712 Q1036.8423,748.0015 1037.4731,747.4204 Z " fill="#000000"/><text fill="#000000" font-family="sans-serif" font-size="12" lengthAdjust="spacing" textLength="24" x="1049" y="748.5352">混乱</text><line style="stroke:#A80036;stroke-width:1.5;" x1="1021" x2="1075" y1="760" y2="760"/><line style="stroke:#A80036;stroke-width:1.5;" x1="1021" x2="1075" y1="768" y2="768"/><!--MD5=[08a5e1b82bf98714aab3a474fcf80276]
class state.緊張--><rect codeLine="99" fill="#FEFECE" filter="url(#fhhcnt2dycyxp)" height="48" id="state.緊張" style="stroke:#A80036;stroke-width:1.5;" width="56" x="1111" y="728"/><ellipse cx="1126" cy="744" fill="#ADD1B2" rx="11" ry="11" style="stroke:#A80036;stroke-width:1.0;"/><path d="M1128.4731,750.1431 Q1127.8921,750.4419 1127.2529,750.5913 Q1126.6138,750.7407 1125.9082,750.7407 Q1123.4014,750.7407 1122.0815,749.0889 Q1120.7617,747.437 1120.7617,744.3159 Q1120.7617,741.1865 1122.0815,739.5347 Q1123.4014,737.8828 1125.9082,737.8828 Q1126.6138,737.8828 1127.2612,738.0322 Q1127.9087,738.1816 1128.4731,738.4805 L1128.4731,741.2031 Q1127.8423,740.6221 1127.2488,740.3523 Q1126.6553,740.0825 1126.0244,740.0825 Q1124.6797,740.0825 1123.9949,741.1492 Q1123.3101,742.2158 1123.3101,744.3159 Q1123.3101,746.4077 1123.9949,747.4744 Q1124.6797,748.541 1126.0244,748.541 Q1126.6553,748.541 1127.2488,748.2712 Q1127.8423,748.0015 1128.4731,747.4204 Z " fill="#000000"/><text fill="#000000" font-family="sans-serif" font-size="12" lengthAdjust="spacing" textLength="24" x="1140" y="748.5352">緊張</text><line style="stroke:#A80036;stroke-width:1.5;" x1="1112" x2="1166" y1="760" y2="760"/><line style="stroke:#A80036;stroke-width:1.5;" x1="1112" x2="1166" y1="768" y2="768"/><!--MD5=[5e75cd6d72e3742fe767ff2275e248de]
class time.過去--><rect codeLine="103" fill="#FEFECE" filter="url(#fhhcnt2dycyxp)" height="48" id="time.過去" style="stroke:#A80036;stroke-width:1.5;" width="56" x="2206" y="84"/><ellipse cx="2221" cy="100" fill="#ADD1B2" rx="11" ry="11" style="stroke:#A80036;stroke-width:1.0;"/><path d="M2223.4731,106.1431 Q2222.8921,106.4419 2222.2529,106.5913 Q2221.6138,106.7407 2220.9082,106.7407 Q2218.4014,106.7407 2217.0815,105.0889 Q2215.7617,103.437 2215.7617,100.3159 Q2215.7617,97.1865 2217.0815,95.5347 Q2218.4014,93.8828 2220.9082,93.8828 Q2221.6138,93.8828 2222.2612,94.0322 Q2222.9087,94.1816 2223.4731,94.4805 L2223.4731,97.2031 Q2222.8423,96.6221 2222.2488,96.3523 Q2221.6553,96.0825 2221.0244,96.0825 Q2219.6797,96.0825 2218.9949,97.1492 Q2218.3101,98.2158 2218.3101,100.3159 Q2218.3101,102.4077 2218.9949,103.4744 Q2219.6797,104.541 2221.0244,104.541 Q2221.6553,104.541 2222.2488,104.2712 Q2222.8423,104.0015 2223.4731,103.4204 Z " fill="#000000"/><text fill="#000000" font-family="sans-serif" font-size="12" lengthAdjust="spacing" textLength="24" x="2235" y="104.5352">過去</text><line style="stroke:#A80036;stroke-width:1.5;" x1="2207" x2="2261" y1="116" y2="116"/><line style="stroke:#A80036;stroke-width:1.5;" x1="2207" x2="2261" y1="124" y2="124"/><!--MD5=[08d6c6fbd3c2d8e5bf03c190ac3da287]
class time.未来--><rect codeLine="105" fill="#FEFECE" filter="url(#fhhcnt2dycyxp)" height="48" id="time.未来" style="stroke:#A80036;stroke-width:1.5;" width="56" x="2115" y="84"/><ellipse cx="2130" cy="100" fill="#ADD1B2" rx="11" ry="11" style="stroke:#A80036;stroke-width:1.0;"/><path d="M2132.4731,106.1431 Q2131.8921,106.4419 2131.2529,106.5913 Q2130.6138,106.7407 2129.9082,106.7407 Q2127.4014,106.7407 2126.0815,105.0889 Q2124.7617,103.437 2124.7617,100.3159 Q2124.7617,97.1865 2126.0815,95.5347 Q2127.4014,93.8828 2129.9082,93.8828 Q2130.6138,93.8828 2131.2612,94.0322 Q2131.9087,94.1816 2132.4731,94.4805 L2132.4731,97.2031 Q2131.8423,96.6221 2131.2488,96.3523 Q2130.6553,96.0825 2130.0244,96.0825 Q2128.6797,96.0825 2127.9949,97.1492 Q2127.3101,98.2158 2127.3101,100.3159 Q2127.3101,102.4077 2127.9949,103.4744 Q2128.6797,104.541 2130.0244,104.541 Q2130.6553,104.541 2131.2488,104.2712 Q2131.8423,104.0015 2132.4731,103.4204 Z " fill="#000000"/><text fill="#000000" font-family="sans-serif" font-size="12" lengthAdjust="spacing" textLength="24" x="2144" y="104.5352">未来</text><line style="stroke:#A80036;stroke-width:1.5;" x1="2116" x2="2170" y1="116" y2="116"/><line style="stroke:#A80036;stroke-width:1.5;" x1="2116" x2="2170" y1="124" y2="124"/><!--MD5=[95c728fff8ee74ea59419b3a4da66ea3]
class parents.母親からの影響--><rect codeLine="109" fill="#FEFECE" filter="url(#fhhcnt2dycyxp)" height="48" id="parents.母親からの影響" style="stroke:#A80036;stroke-width:1.5;" width="116" x="2656" y="84"/><ellipse cx="2671" cy="100" fill="#ADD1B2" rx="11" ry="11" style="stroke:#A80036;stroke-width:1.0;"/><path d="M2673.4731,106.1431 Q2672.8921,106.4419 2672.2529,106.5913 Q2671.6138,106.7407 2670.9082,106.7407 Q2668.4014,106.7407 2667.0815,105.0889 Q2665.7617,103.437 2665.7617,100.3159 Q2665.7617,97.1865 2667.0815,95.5347 Q2668.4014,93.8828 2670.9082,93.8828 Q2671.6138,93.8828 2672.2612,94.0322 Q2672.9087,94.1816 2673.4731,94.4805 L2673.4731,97.2031 Q2672.8423,96.6221 2672.2488,96.3523 Q2671.6553,96.0825 2671.0244,96.0825 Q2669.6797,96.0825 2668.9949,97.1492 Q2668.3101,98.2158 2668.3101,100.3159 Q2668.3101,102.4077 2668.9949,103.4744 Q2669.6797,104.541 2671.0244,104.541 Q2671.6553,104.541 2672.2488,104.2712 Q2672.8423,104.0015 2673.4731,103.4204 Z " fill="#000000"/><text fill="#000000" font-family="sans-serif" font-size="12" lengthAdjust="spacing" textLength="84" x="2685" y="104.5352">母親からの影響</text><line style="stroke:#A80036;stroke-width:1.5;" x1="2657" x2="2771" y1="116" y2="116"/><line style="stroke:#A80036;stroke-width:1.5;" x1="2657" x2="2771" y1="124" y2="124"/><!--MD5=[3ece5616b20bc24d67c147e24668c060]
class parents.母親からの影響の克服--><rect codeLine="110" fill="#FEFECE" filter="url(#fhhcnt2dycyxp)" height="48" id="parents.母親からの影響の克服" style="stroke:#A80036;stroke-width:1.5;" width="152" x="2469" y="84"/><ellipse cx="2484" cy="100" fill="#ADD1B2" rx="11" ry="11" style="stroke:#A80036;stroke-width:1.0;"/><path d="M2486.4731,106.1431 Q2485.8921,106.4419 2485.2529,106.5913 Q2484.6138,106.7407 2483.9082,106.7407 Q2481.4014,106.7407 2480.0815,105.0889 Q2478.7617,103.437 2478.7617,100.3159 Q2478.7617,97.1865 2480.0815,95.5347 Q2481.4014,93.8828 2483.9082,93.8828 Q2484.6138,93.8828 2485.2612,94.0322 Q2485.9087,94.1816 2486.4731,94.4805 L2486.4731,97.2031 Q2485.8423,96.6221 2485.2488,96.3523 Q2484.6553,96.0825 2484.0244,96.0825 Q2482.6797,96.0825 2481.9949,97.1492 Q2481.3101,98.2158 2481.3101,100.3159 Q2481.3101,102.4077 2481.9949,103.4744 Q2482.6797,104.541 2484.0244,104.541 Q2484.6553,104.541 2485.2488,104.2712 Q2485.8423,104.0015 2486.4731,103.4204 Z " fill="#000000"/><text fill="#000000" font-family="sans-serif" font-size="12" lengthAdjust="spacing" textLength="120" x="2498" y="104.5352">母親からの影響の克服</text><line style="stroke:#A80036;stroke-width:1.5;" x1="2470" x2="2620" y1="116" y2="116"/><line style="stroke:#A80036;stroke-width:1.5;" x1="2470" x2="2620" y1="124" y2="124"/><!--MD5=[a9c19c57b80e7bb1f146470153448781]
class parents.父親からの影響--><rect codeLine="111" fill="#FEFECE" filter="url(#fhhcnt2dycyxp)" height="48" id="parents.父親からの影響" style="stroke:#A80036;stroke-width:1.5;" width="116" x="2318" y="84"/><ellipse cx="2333" cy="100" fill="#ADD1B2" rx="11" ry="11" style="stroke:#A80036;stroke-width:1.0;"/><path d="M2335.4731,106.1431 Q2334.8921,106.4419 2334.2529,106.5913 Q2333.6138,106.7407 2332.9082,106.7407 Q2330.4014,106.7407 2329.0815,105.0889 Q2327.7617,103.437 2327.7617,100.3159 Q2327.7617,97.1865 2329.0815,95.5347 Q2330.4014,93.8828 2332.9082,93.8828 Q2333.6138,93.8828 2334.2612,94.0322 Q2334.9087,94.1816 2335.4731,94.4805 L2335.4731,97.2031 Q2334.8423,96.6221 2334.2488,96.3523 Q2333.6553,96.0825 2333.0244,96.0825 Q2331.6797,96.0825 2330.9949,97.1492 Q2330.3101,98.2158 2330.3101,100.3159 Q2330.3101,102.4077 2330.9949,103.4744 Q2331.6797,104.541 2333.0244,104.541 Q2333.6553,104.541 2334.2488,104.2712 Q2334.8423,104.0015 2335.4731,103.4204 Z " fill="#000000"/><text fill="#000000" font-family="sans-serif" font-size="12" lengthAdjust="spacing" textLength="84" x="2347" y="104.5352">父親からの影響</text><line style="stroke:#A80036;stroke-width:1.5;" x1="2319" x2="2433" y1="116" y2="116"/><line style="stroke:#A80036;stroke-width:1.5;" x1="2319" x2="2433" y1="124" y2="124"/><!--MD5=[f321c95344578c6a5f01a9c7b8a93ead]
class parents.憧れと諦め--><rect codeLine="113" fill="#FEFECE" filter="url(#fhhcnt2dycyxp)" height="48" id="parents.憧れと諦め" style="stroke:#A80036;stroke-width:1.5;" width="92" x="2330" y="192"/><ellipse cx="2345" cy="208" fill="#ADD1B2" rx="11" ry="11" style="stroke:#A80036;stroke-width:1.0;"/><path d="M2347.4731,214.1431 Q2346.8921,214.4419 2346.2529,214.5913 Q2345.6138,214.7407 2344.9082,214.7407 Q2342.4014,214.7407 2341.0815,213.0889 Q2339.7617,211.437 2339.7617,208.3159 Q2339.7617,205.1865 2341.0815,203.5347 Q2342.4014,201.8828 2344.9082,201.8828 Q2345.6138,201.8828 2346.2612,202.0322 Q2346.9087,202.1816 2347.4731,202.4805 L2347.4731,205.2031 Q2346.8423,204.6221 2346.2488,204.3523 Q2345.6553,204.0825 2345.0244,204.0825 Q2343.6797,204.0825 2342.9949,205.1492 Q2342.3101,206.2158 2342.3101,208.3159 Q2342.3101,210.4077 2342.9949,211.4744 Q2343.6797,212.541 2345.0244,212.541 Q2345.6553,212.541 2346.2488,212.2712 Q2346.8423,212.0015 2347.4731,211.4204 Z " fill="#000000"/><text fill="#000000" font-family="sans-serif" font-size="12" lengthAdjust="spacing" textLength="60" x="2359" y="212.5352">憧れと諦め</text><line style="stroke:#A80036;stroke-width:1.5;" x1="2331" x2="2421" y1="224" y2="224"/><line style="stroke:#A80036;stroke-width:1.5;" x1="2331" x2="2421" y1="232" y2="232"/><!--MD5=[eb22ec15d31d10a6b25c9ebdffe3f7d7]
class towoman.軽蔑--><rect codeLine="117" fill="#FEFECE" filter="url(#fhhcnt2dycyxp)" height="48" id="towoman.軽蔑" style="stroke:#A80036;stroke-width:1.5;" width="56" x="2828" y="84"/><ellipse cx="2843" cy="100" fill="#ADD1B2" rx="11" ry="11" style="stroke:#A80036;stroke-width:1.0;"/><path d="M2845.4731,106.1431 Q2844.8921,106.4419 2844.2529,106.5913 Q2843.6138,106.7407 2842.9082,106.7407 Q2840.4014,106.7407 2839.0815,105.0889 Q2837.7617,103.437 2837.7617,100.3159 Q2837.7617,97.1865 2839.0815,95.5347 Q2840.4014,93.8828 2842.9082,93.8828 Q2843.6138,93.8828 2844.2612,94.0322 Q2844.9087,94.1816 2845.4731,94.4805 L2845.4731,97.2031 Q2844.8423,96.6221 2844.2488,96.3523 Q2843.6553,96.0825 2843.0244,96.0825 Q2841.6797,96.0825 2840.9949,97.1492 Q2840.3101,98.2158 2840.3101,100.3159 Q2840.3101,102.4077 2840.9949,103.4744 Q2841.6797,104.541 2843.0244,104.541 Q2843.6553,104.541 2844.2488,104.2712 Q2844.8423,104.0015 2845.4731,103.4204 Z " fill="#000000"/><text fill="#000000" font-family="sans-serif" font-size="12" lengthAdjust="spacing" textLength="24" x="2857" y="104.5352">軽蔑</text><line style="stroke:#A80036;stroke-width:1.5;" x1="2829" x2="2883" y1="116" y2="116"/><line style="stroke:#A80036;stroke-width:1.5;" x1="2829" x2="2883" y1="124" y2="124"/><!--MD5=[8ecd15b8a96d572ab911af03d05a6e1e]
class sexual.同性愛--><rect codeLine="121" fill="#FEFECE" filter="url(#fhhcnt2dycyxp)" height="48" id="sexual.同性愛" style="stroke:#A80036;stroke-width:1.5;" width="68" x="1314" y="453.5"/><ellipse cx="1329" cy="469.5" fill="#ADD1B2" rx="11" ry="11" style="stroke:#A80036;stroke-width:1.0;"/><path d="M1331.4731,475.6431 Q1330.8921,475.9419 1330.2529,476.0913 Q1329.6138,476.2407 1328.9082,476.2407 Q1326.4014,476.2407 1325.0815,474.5889 Q1323.7617,472.937 1323.7617,469.8159 Q1323.7617,466.6865 1325.0815,465.0347 Q1326.4014,463.3828 1328.9082,463.3828 Q1329.6138,463.3828 1330.2612,463.5322 Q1330.9087,463.6816 1331.4731,463.9805 L1331.4731,466.7031 Q1330.8423,466.1221 1330.2488,465.8523 Q1329.6553,465.5825 1329.0244,465.5825 Q1327.6797,465.5825 1326.9949,466.6492 Q1326.3101,467.7158 1326.3101,469.8159 Q1326.3101,471.9077 1326.9949,472.9744 Q1327.6797,474.041 1329.0244,474.041 Q1329.6553,474.041 1330.2488,473.7712 Q1330.8423,473.5015 1331.4731,472.9204 Z " fill="#000000"/><text fill="#000000" font-family="sans-serif" font-size="12" lengthAdjust="spacing" textLength="36" x="1343" y="474.0352">同性愛</text><line style="stroke:#A80036;stroke-width:1.5;" x1="1315" x2="1381" y1="485.5" y2="485.5"/><line style="stroke:#A80036;stroke-width:1.5;" x1="1315" x2="1381" y1="493.5" y2="493.5"/><!--MD5=[93fe8dbb0c06e7d5a43b24ec49e9c0b4]
class sexual.自己啓発--><rect codeLine="122" fill="#FEFECE" filter="url(#fhhcnt2dycyxp)" height="60.9551" id="sexual.自己啓発" style="stroke:#A80036;stroke-width:1.5;" width="122" x="1417" y="447"/><ellipse cx="1450.9" cy="463" fill="#ADD1B2" rx="11" ry="11" style="stroke:#A80036;stroke-width:1.0;"/><path d="M1453.3731,469.1431 Q1452.7921,469.4419 1452.1529,469.5913 Q1451.5138,469.7407 1450.8082,469.7407 Q1448.3014,469.7407 1446.9815,468.0889 Q1445.6617,466.437 1445.6617,463.3159 Q1445.6617,460.1865 1446.9815,458.5347 Q1448.3014,456.8828 1450.8082,456.8828 Q1451.5138,456.8828 1452.1612,457.0322 Q1452.8087,457.1816 1453.3731,457.4805 L1453.3731,460.2031 Q1452.7423,459.6221 1452.1488,459.3523 Q1451.5553,459.0825 1450.9244,459.0825 Q1449.5797,459.0825 1448.8949,460.1492 Q1448.2101,461.2158 1448.2101,463.3159 Q1448.2101,465.4077 1448.8949,466.4744 Q1449.5797,467.541 1450.9244,467.541 Q1451.5553,467.541 1452.1488,467.2712 Q1452.7423,467.0015 1453.3731,466.4204 Z " fill="#000000"/><text fill="#000000" font-family="sans-serif" font-size="12" lengthAdjust="spacing" textLength="48" x="1469.1" y="467.5352">自己啓発</text><line style="stroke:#A80036;stroke-width:1.5;" x1="1418" x2="1538" y1="479" y2="479"/><text fill="#000000" font-family="sans-serif" font-size="11" lengthAdjust="spacing" textLength="110" x="1423" y="493.6348">恋愛に対する自己啓発</text><line style="stroke:#A80036;stroke-width:1.5;" x1="1418" x2="1538" y1="499.9551" y2="499.9551"/><!--MD5=[ae4f08e4688a0111f9c6e955d7e82727]
class sexual.計画性--><rect codeLine="125" fill="#FEFECE" filter="url(#fhhcnt2dycyxp)" height="60.9551" id="sexual.計画性" style="stroke:#A80036;stroke-width:1.5;" width="111" x="1314.5" y="607"/><ellipse cx="1348.85" cy="623" fill="#ADD1B2" rx="11" ry="11" style="stroke:#A80036;stroke-width:1.0;"/><path d="M1351.3231,629.1431 Q1350.7421,629.4419 1350.1029,629.5913 Q1349.4638,629.7407 1348.7582,629.7407 Q1346.2514,629.7407 1344.9315,628.0889 Q1343.6117,626.437 1343.6117,623.3159 Q1343.6117,620.1865 1344.9315,618.5347 Q1346.2514,616.8828 1348.7582,616.8828 Q1349.4638,616.8828 1350.1112,617.0322 Q1350.7587,617.1816 1351.3231,617.4805 L1351.3231,620.2031 Q1350.6923,619.6221 1350.0988,619.3523 Q1349.5053,619.0825 1348.8744,619.0825 Q1347.5297,619.0825 1346.8449,620.1492 Q1346.1601,621.2158 1346.1601,623.3159 Q1346.1601,625.4077 1346.8449,626.4744 Q1347.5297,627.541 1348.8744,627.541 Q1349.5053,627.541 1350.0988,627.2712 Q1350.6923,627.0015 1351.3231,626.4204 Z " fill="#000000"/><text fill="#000000" font-family="sans-serif" font-size="12" lengthAdjust="spacing" textLength="36" x="1367.15" y="627.5352">計画性</text><line style="stroke:#A80036;stroke-width:1.5;" x1="1315.5" x2="1424.5" y1="639" y2="639"/><text fill="#000000" font-family="sans-serif" font-size="11" lengthAdjust="spacing" textLength="99" x="1320.5" y="653.6348">恋愛に値する計画性</text><line style="stroke:#A80036;stroke-width:1.5;" x1="1315.5" x2="1424.5" y1="659.9551" y2="659.9551"/><!--MD5=[a00949e067130f1609081a4b662ccac7]
class freedom.闘争--><rect codeLine="132" fill="#FEFECE" filter="url(#fhhcnt2dycyxp)" height="48" id="freedom.闘争" style="stroke:#A80036;stroke-width:1.5;" width="56" x="3031" y="84"/><ellipse cx="3046" cy="100" fill="#ADD1B2" rx="11" ry="11" style="stroke:#A80036;stroke-width:1.0;"/><path d="M3048.4731,106.1431 Q3047.8921,106.4419 3047.2529,106.5913 Q3046.6138,106.7407 3045.9082,106.7407 Q3043.4014,106.7407 3042.0815,105.0889 Q3040.7617,103.437 3040.7617,100.3159 Q3040.7617,97.1865 3042.0815,95.5347 Q3043.4014,93.8828 3045.9082,93.8828 Q3046.6138,93.8828 3047.2612,94.0322 Q3047.9087,94.1816 3048.4731,94.4805 L3048.4731,97.2031 Q3047.8423,96.6221 3047.2488,96.3523 Q3046.6553,96.0825 3046.0244,96.0825 Q3044.6797,96.0825 3043.9949,97.1492 Q3043.3101,98.2158 3043.3101,100.3159 Q3043.3101,102.4077 3043.9949,103.4744 Q3044.6797,104.541 3046.0244,104.541 Q3046.6553,104.541 3047.2488,104.2712 Q3047.8423,104.0015 3048.4731,103.4204 Z " fill="#000000"/><text fill="#000000" font-family="sans-serif" font-size="12" lengthAdjust="spacing" textLength="24" x="3060" y="104.5352">闘争</text><line style="stroke:#A80036;stroke-width:1.5;" x1="3032" x2="3086" y1="116" y2="116"/><line style="stroke:#A80036;stroke-width:1.5;" x1="3032" x2="3086" y1="124" y2="124"/><!--MD5=[eafb347996823219e03ca770c3b99e0c]
class freedom.服従--><rect codeLine="133" fill="#FEFECE" filter="url(#fhhcnt2dycyxp)" height="48" id="freedom.服従" style="stroke:#A80036;stroke-width:1.5;" width="56" x="2940" y="84"/><ellipse cx="2955" cy="100" fill="#ADD1B2" rx="11" ry="11" style="stroke:#A80036;stroke-width:1.0;"/><path d="M2957.4731,106.1431 Q2956.8921,106.4419 2956.2529,106.5913 Q2955.6138,106.7407 2954.9082,106.7407 Q2952.4014,106.7407 2951.0815,105.0889 Q2949.7617,103.437 2949.7617,100.3159 Q2949.7617,97.1865 2951.0815,95.5347 Q2952.4014,93.8828 2954.9082,93.8828 Q2955.6138,93.8828 2956.2612,94.0322 Q2956.9087,94.1816 2957.4731,94.4805 L2957.4731,97.2031 Q2956.8423,96.6221 2956.2488,96.3523 Q2955.6553,96.0825 2955.0244,96.0825 Q2953.6797,96.0825 2952.9949,97.1492 Q2952.3101,98.2158 2952.3101,100.3159 Q2952.3101,102.4077 2952.9949,103.4744 Q2953.6797,104.541 2955.0244,104.541 Q2955.6553,104.541 2956.2488,104.2712 Q2956.8423,104.0015 2957.4731,103.4204 Z " fill="#000000"/><text fill="#000000" font-family="sans-serif" font-size="12" lengthAdjust="spacing" textLength="24" x="2969" y="104.5352">服従</text><line style="stroke:#A80036;stroke-width:1.5;" x1="2941" x2="2995" y1="116" y2="116"/><line style="stroke:#A80036;stroke-width:1.5;" x1="2941" x2="2995" y1="124" y2="124"/><!--MD5=[c9ad840725d1eb9273ec2fd9458677e2]
class commonsense.非常識--><rect codeLine="137" fill="#FEFECE" filter="url(#fhhcnt2dycyxp)" height="48" id="commonsense.非常識" style="stroke:#A80036;stroke-width:1.5;" width="68" x="3246" y="84"/><ellipse cx="3261" cy="100" fill="#ADD1B2" rx="11" ry="11" style="stroke:#A80036;stroke-width:1.0;"/><path d="M3263.4731,106.1431 Q3262.8921,106.4419 3262.2529,106.5913 Q3261.6138,106.7407 3260.9082,106.7407 Q3258.4014,106.7407 3257.0815,105.0889 Q3255.7617,103.437 3255.7617,100.3159 Q3255.7617,97.1865 3257.0815,95.5347 Q3258.4014,93.8828 3260.9082,93.8828 Q3261.6138,93.8828 3262.2612,94.0322 Q3262.9087,94.1816 3263.4731,94.4805 L3263.4731,97.2031 Q3262.8423,96.6221 3262.2488,96.3523 Q3261.6553,96.0825 3261.0244,96.0825 Q3259.6797,96.0825 3258.9949,97.1492 Q3258.3101,98.2158 3258.3101,100.3159 Q3258.3101,102.4077 3258.9949,103.4744 Q3259.6797,104.541 3261.0244,104.541 Q3261.6553,104.541 3262.2488,104.2712 Q3262.8423,104.0015 3263.4731,103.4204 Z " fill="#000000"/><text fill="#000000" font-family="sans-serif" font-size="12" lengthAdjust="spacing" textLength="36" x="3275" y="104.5352">非常識</text><line style="stroke:#A80036;stroke-width:1.5;" x1="3247" x2="3313" y1="116" y2="116"/><line style="stroke:#A80036;stroke-width:1.5;" x1="3247" x2="3313" y1="124" y2="124"/><!--MD5=[e2e01635ae946ef80967a6a861159822]
class commonsense.常識的--><rect codeLine="138" fill="#FEFECE" filter="url(#fhhcnt2dycyxp)" height="48" id="commonsense.常識的" style="stroke:#A80036;stroke-width:1.5;" width="68" x="3143" y="84"/><ellipse cx="3158" cy="100" fill="#ADD1B2" rx="11" ry="11" style="stroke:#A80036;stroke-width:1.0;"/><path d="M3160.4731,106.1431 Q3159.8921,106.4419 3159.2529,106.5913 Q3158.6138,106.7407 3157.9082,106.7407 Q3155.4014,106.7407 3154.0815,105.0889 Q3152.7617,103.437 3152.7617,100.3159 Q3152.7617,97.1865 3154.0815,95.5347 Q3155.4014,93.8828 3157.9082,93.8828 Q3158.6138,93.8828 3159.2612,94.0322 Q3159.9087,94.1816 3160.4731,94.4805 L3160.4731,97.2031 Q3159.8423,96.6221 3159.2488,96.3523 Q3158.6553,96.0825 3158.0244,96.0825 Q3156.6797,96.0825 3155.9949,97.1492 Q3155.3101,98.2158 3155.3101,100.3159 Q3155.3101,102.4077 3155.9949,103.4744 Q3156.6797,104.541 3158.0244,104.541 Q3158.6553,104.541 3159.2488,104.2712 Q3159.8423,104.0015 3160.4731,103.4204 Z " fill="#000000"/><text fill="#000000" font-family="sans-serif" font-size="12" lengthAdjust="spacing" textLength="36" x="3172" y="104.5352">常識的</text><line style="stroke:#A80036;stroke-width:1.5;" x1="3144" x2="3210" y1="116" y2="116"/><line style="stroke:#A80036;stroke-width:1.5;" x1="3144" x2="3210" y1="124" y2="124"/><!--MD5=[e7487cfc0cf52f8abd37ba74c91eb638]
link type.防衛的 to type.濾過機能--><path codeLine="7" d="M464,132 C464,148 464,169.45 464,186.53 " fill="none" id="type.防衛的-to-type.濾過機能" style="stroke:#A80036;stroke-width:1.0;"/><polygon fill="#A80036" points="464,191.68,468,182.68,464,186.68,460,182.68,464,191.68" style="stroke:#A80036;stroke-width:1.0;"/><!--MD5=[85088c9184e3f0210ba38a4c96b78fc6]
link type.気質 to type.分裂気質--><path codeLine="28" d="M340.24,132.27 C314.9,187.03 250.74,325.74 212.03,409.41 " fill="none" id="type.気質-to-type.分裂気質" style="stroke:#A80036;stroke-width:1.0;"/><polygon fill="#A80036" points="209.75,414.35,217.1572,407.859,211.848,409.8115,209.8956,404.5022,209.75,414.35" style="stroke:#A80036;stroke-width:1.0;"/><!--MD5=[ada2a268b851bcc4bcfc0787cee473b9]
link type.気質 to type.躁鬱気質--><path codeLine="39" d="M348.71,132.19 C345.35,176.66 342.96,275.87 379,348 C389.22,368.45 404.08,387.4 420.24,404.12 " fill="none" id="type.気質-to-type.躁鬱気質" style="stroke:#A80036;stroke-width:1.0;"/><polygon fill="#A80036" points="423.93,407.88,420.4875,398.6524,420.4304,404.3089,414.7738,404.2518,423.93,407.88" style="stroke:#A80036;stroke-width:1.0;"/><!--MD5=[aa334b174f68e81fd8cf45a4163d2fa0]
link type.気質 to type.粘着気質--><path codeLine="47" d="M353.92,132.24 C359.16,165.19 372.98,225.71 407,264 C412.88,270.62 602.34,364.31 725.99,425.05 " fill="none" id="type.気質-to-type.粘着気質" style="stroke:#A80036;stroke-width:1.0;"/><polygon fill="#A80036" points="730.72,427.38,724.4203,419.8095,726.2365,425.1668,720.8791,426.9831,730.72,427.38" style="stroke:#A80036;stroke-width:1.0;"/><!--MD5=[0c1623c70659d1a56cfc86d4ae9a938c]
link type.ex.野心 to type.ex.物理学者--><path codeLine="50" d="M900,132 C900,148 900,169.45 900,186.53 " fill="none" id="type.ex.野心-to-type.ex.物理学者" style="stroke:#A80036;stroke-width:1.0;"/><polygon fill="#A80036" points="900,191.68,904,182.68,900,186.68,896,182.68,900,191.68" style="stroke:#A80036;stroke-width:1.0;"/><!--MD5=[e1d496c6697830632d10b091de5459f8]
link env.圧力下 to env.諦め--><path codeLine="70" d="M1053.35,132 C1052.9,148 1052.29,169.45 1051.81,186.53 " fill="none" id="env.圧力下-to-env.諦め" style="stroke:#A80036;stroke-width:1.0;"/><polygon fill="#A80036" points="1051.66,191.68,1055.9154,182.7979,1051.8028,186.682,1047.9187,182.5694,1051.66,191.68" style="stroke:#A80036;stroke-width:1.0;"/><!--MD5=[6bf901628a2c1a862b05cc073136d264]
link parents.父親からの影響 to parents.憧れと諦め--><path codeLine="112" d="M2376,132 C2376,148 2376,169.45 2376,186.53 " fill="none" id="parents.父親からの影響-to-parents.憧れと諦め" style="stroke:#A80036;stroke-width:1.0;"/><polygon fill="#A80036" points="2376,191.68,2380,182.68,2376,186.68,2372,182.68,2376,191.68" style="stroke:#A80036;stroke-width:1.0;"/><!--MD5=[536b9b071c8a5949cd5908353677b0ac]
link type.自己中心的 to type.頑固--><!--MD5=[e7432b08641dd47d9676589b01e802b5]
link type.頑固 to type.羞恥心--><!--MD5=[631826bb0950317a60b0d79eb4ef9bde]
link type.自己中心的 to type.優柔不断--><!--MD5=[8b9a59859729cef4f5a0167500aa522a]
link type.優柔不断 to type.より若い--><!--MD5=[f1d7e7ee57942128af00b0452165d4a9]
link type.より若い to type.平和--><!--MD5=[de0b5b0f937322ee1e41ede9be2ba2c0]
link type.優柔不断 to type.野心--><!--MD5=[6007ab110a926ebba21bd107ec8147e6]
link env.不満 to env.女性的要素からの圧力--><!--MD5=[2468c75953ad223985e1f1869a29a770]
link env.不満 to env.他者との接触の増加--><!--MD5=[e3b2f27c93e7c04a77a320a276939162]
link think.秘密主義 to think.伝統主義--><!--MD5=[2af0203a72adacbeed7fe4899b56e138]
link think.伝統主義 to think.理想主義--><!--MD5=[013a2d80e4e28dee2508233515063e53]
link think.秘密主義 to think.逃避--><!--MD5=[e35b2e9d5d4534dcbaf5d24cc3db8eff]
link think.逃避 to think.可逆性--><!--MD5=[8e154311ddd987103e8f2531bfdad518]
link state.喪失 to state.防衛--><!--MD5=[04188a5f41267f5450c623b05eacf52f]
link state.防衛 to state.空想--><!--MD5=[05b9fc896fc1e92a12d229a90587d1f0]
link state.喪失 to state.現実--><!--MD5=[af8238d0b57f0e41d587e9699cc73717]
link state.現実 to state.過去--><!--MD5=[9373a7771b46ed0aa1422e4f5048c266]
link state.過去 to state.未来--><!--MD5=[f634197c2a510171fcbce493d67b1cd4]
link state.現実 to state.混乱--><!--MD5=[d6b46cd9f3844a65ec95baf591af2d37]
link state.混乱 to state.緊張--><!--MD5=[c1a5cbb3fa6cb5b2b8464a4a984685a4]
link sexual.同性愛 to sexual.自己啓発--><!--MD5=[44b02108f4db488b83d487383b06e9f5]
link sexual.同性愛 to sexual.計画性--><!--MD5=[0a8d0878169f79d679e469bc617e24e5]
link type.羞恥心 to env.不満--><!--MD5=[3a38dbfd66551bdf912ffdb1a0a3ece7]
link env.女性的要素からの圧力 to think.秘密主義--><!--MD5=[3830ba9ad58200497c240d1ddc24aabb]
link type.野心 to state.喪失--><!--MD5=[d604f62d4476987ee724cb1d91860a3f]
link state.空想 to sexual.同性愛--><!--MD5=[e991e44d18b6376c46c53d9b1f4d2d4f]
@startuml 00target

namespace type {
    class 自己中心的 
    class 頑固 
    class 防衛的
    class 濾過機能
    防衛的 - -> 濾過機能
    class 羞恥心
    class 優柔不断
  
    class より若い

    class 平和
    class 野心
    
    class 平和

    class 気質

    class 分裂気質{
        やせ型
        【有名人】宮沢りえ・Mr.オクレ
        基本的に神経質で生真面目。
        自分の世界に閉じこもりがちで、社交的ではありません。
        他人が口にしたちょっとした言葉に過敏に反応する反面、
        他人の気持ちには無頓着で鈍感なところがあります。
    }
    気質 - - - -> 分裂気質

    class 躁鬱気質 {
        肥満型
        【有名人】森久美子・伊集院光
        基本的に社交的で温かく親切。
        明るくて活発でユーモア精神があり一緒にいて楽しい人。
        ただし感情にムラがあるため、
        時には激しく怒ったり泣いたりすることもあります。
        突然落ち込み、鬱状態になることがあります。
    }
    気質 - - - -> 躁鬱気質

    class 粘着気質 {
        【有名人】ケインコスギ・マイケル
        几帳面で秩序を好み、物事に熱中するタイプです。
        正義感が強く、礼儀正しいのはいいですが、
        融通がきかず頑固といわれることもあります
    }
    気質 - - - -> 粘着気質
    namespace ex {
        class 物理学者
        野心 - -> 物理学者
    }
}




namespace 思考傾向 {
    class 伝統志向
}



namespace env {
    class 不満
    class 圧力下
  
    class 女性的要素からの圧力
    
    class 諦め
    圧力下 - -> 諦め
  
    class 他者との接触の増加
}

namespace think {
    class 秘密主義
    class 伝統主義
    class 理想主義
    class 逃避
    class 可逆性
}

namespace living {
    class 死
    class 充実
}

namespace state {
    class 喪失
    class 防衛

    class 空想
    class 現実

    class 過去
    class 未来

    class 混乱
    class 緊張
}

namespace time {
    class 過去

    class 未来
}

namespace parents {
    class 母親からの影響
    class 母親からの影響の克服
    class 父親からの影響
    父親からの影響 - -> 憧れと諦め
    class 憧れと諦め
}

namespace towoman {
    class 軽蔑
}

namespace sexual {
    class 同性愛
    class 自己啓発 {
        恋愛に対する自己啓発
    }
    class 計画性 {
        恋愛に値する計画性
    }
}


namespace freedom {
    class 闘争
    class 服従
}

namespace commonsense {
    class 非常識
    class 常識的
}




@enduml

PlantUML version 1.2021.15(Wed Dec 01 01:45:34 JST 2021)
(GPL source distribution)
Java Runtime: OpenJDK Runtime Environment
JVM: OpenJDK 64-Bit Server VM
Default Encoding: UTF-8
Language: ja
Country: JP
--></g></svg>