<?xml version="1.0" encoding="UTF-8" standalone="no"?><svg xmlns="http://www.w3.org/2000/svg" xmlns:xlink="http://www.w3.org/1999/xlink" contentScriptType="application/ecmascript" contentStyleType="text/css" height="477px" preserveAspectRatio="none" style="width:2677px;height:477px;background:#FFFFFF;" version="1.1" viewBox="0 0 2677 477" width="2677px" zoomAndPan="magnify"><defs><filter height="300%" id="f61gztdqgm2ht" width="300%" x="-1" y="-1"><feGaussianBlur result="blurOut" stdDeviation="2.0"/><feColorMatrix in="blurOut" result="blurOut2" type="matrix" values="0 0 0 0 0 0 0 0 0 0 0 0 0 0 0 0 0 0 .4 0"/><feOffset dx="4.0" dy="4.0" in="blurOut2" result="blurOut3"/><feBlend in="SourceGraphic" in2="blurOut3" mode="normal"/></filter></defs><g><!--MD5=[3d755a8e79ee953feccbf2e6a25fa9eb]
cluster type--><polygon fill="#FFFFFF" filter="url(#f61gztdqgm2ht)" points="16,6,53,6,60,28.4883,425,28.4883,425,213,16,213,16,6" style="stroke:#000000;stroke-width:1.5;"/><line style="stroke:#000000;stroke-width:1.5;" x1="16" x2="60" y1="28.4883" y2="28.4883"/><text fill="#000000" font-family="sans-serif" font-size="14" font-weight="bold" lengthAdjust="spacing" textLength="31" x="20" y="21.5352">type</text><!--MD5=[3ac5bc1d849fdebadb9fc5e0e21f6cf5]
cluster 思考傾向--><polygon fill="#FFFFFF" filter="url(#f61gztdqgm2ht)" points="1102,6,1164,6,1171,28.4883,1214,28.4883,1214,105,1102,105,1102,6" style="stroke:#000000;stroke-width:1.5;"/><line style="stroke:#000000;stroke-width:1.5;" x1="1102" x2="1171" y1="28.4883" y2="28.4883"/><text fill="#000000" font-family="sans-serif" font-size="14" font-weight="bold" lengthAdjust="spacing" textLength="56" x="1106" y="21.5352">思考傾向</text><!--MD5=[a5f6d7e9f88b7365548164145cca9219]
cluster env--><polygon fill="#FFFFFF" filter="url(#f61gztdqgm2ht)" points="449,6,480,6,487,28.4883,827,28.4883,827,213,449,213,449,6" style="stroke:#000000;stroke-width:1.5;"/><line style="stroke:#000000;stroke-width:1.5;" x1="449" x2="487" y1="28.4883" y2="28.4883"/><text fill="#000000" font-family="sans-serif" font-size="14" font-weight="bold" lengthAdjust="spacing" textLength="25" x="453" y="21.5352">env</text><!--MD5=[24975937ae95dc6e3fd29564a246eb2e]
cluster think--><polygon fill="#FFFFFF" filter="url(#f61gztdqgm2ht)" points="851,6,895,6,902,28.4883,1078,28.4883,1078,213,851,213,851,6" style="stroke:#000000;stroke-width:1.5;"/><line style="stroke:#000000;stroke-width:1.5;" x1="851" x2="902" y1="28.4883" y2="28.4883"/><text fill="#000000" font-family="sans-serif" font-size="14" font-weight="bold" lengthAdjust="spacing" textLength="38" x="855" y="21.5352">think</text><!--MD5=[d63a90b188f4c70d363d464b00892cb4]
cluster living--><polygon fill="#FFFFFF" filter="url(#f61gztdqgm2ht)" points="1238,6,1285,6,1292,28.4883,1405,28.4883,1405,105,1238,105,1238,6" style="stroke:#000000;stroke-width:1.5;"/><line style="stroke:#000000;stroke-width:1.5;" x1="1238" x2="1292" y1="28.4883" y2="28.4883"/><text fill="#000000" font-family="sans-serif" font-size="14" font-weight="bold" lengthAdjust="spacing" textLength="41" x="1242" y="21.5352">living</text><!--MD5=[75ea3bd801f35bf9c6563570d027214a]
cluster state--><polygon fill="#FFFFFF" filter="url(#f61gztdqgm2ht)" points="133,243.5,175,243.5,182,265.9883,312,265.9883,312,463.5,133,463.5,133,243.5" style="stroke:#000000;stroke-width:1.5;"/><line style="stroke:#000000;stroke-width:1.5;" x1="133" x2="182" y1="265.9883" y2="265.9883"/><text fill="#000000" font-family="sans-serif" font-size="14" font-weight="bold" lengthAdjust="spacing" textLength="36" x="137" y="259.0352">state</text><!--MD5=[3dab47d3fc3e186ff10f67819eb99ff8]
cluster time--><polygon fill="#FFFFFF" filter="url(#f61gztdqgm2ht)" points="1429,6,1468,6,1475,28.4883,1608,28.4883,1608,105,1429,105,1429,6" style="stroke:#000000;stroke-width:1.5;"/><line style="stroke:#000000;stroke-width:1.5;" x1="1429" x2="1475" y1="28.4883" y2="28.4883"/><text fill="#000000" font-family="sans-serif" font-size="14" font-weight="bold" lengthAdjust="spacing" textLength="33" x="1433" y="21.5352">time</text><!--MD5=[88fa2f93c14291d48ff88be1aa3b6619]
cluster parents--><polygon fill="#FFFFFF" filter="url(#f61gztdqgm2ht)" points="1632,6,1692,6,1699,28.4883,2118,28.4883,2118,213,1632,213,1632,6" style="stroke:#000000;stroke-width:1.5;"/><line style="stroke:#000000;stroke-width:1.5;" x1="1632" x2="1699" y1="28.4883" y2="28.4883"/><text fill="#000000" font-family="sans-serif" font-size="14" font-weight="bold" lengthAdjust="spacing" textLength="54" x="1636" y="21.5352">parents</text><!--MD5=[d997e4a7cbe3f85cf7bb1498fc1fda56]
cluster towoman--><polygon fill="#FFFFFF" filter="url(#f61gztdqgm2ht)" points="2142,6,2215,6,2222,28.4883,2230,28.4883,2230,105,2142,105,2142,6" style="stroke:#000000;stroke-width:1.5;"/><line style="stroke:#000000;stroke-width:1.5;" x1="2142" x2="2222" y1="28.4883" y2="28.4883"/><text fill="#000000" font-family="sans-serif" font-size="14" font-weight="bold" lengthAdjust="spacing" textLength="67" x="2146" y="21.5352">towoman</text><!--MD5=[f5653ff7b3e7f0e91fa6f0a63a0f7584]
cluster sexual--><polygon fill="#FFFFFF" filter="url(#f61gztdqgm2ht)" points="472,237,524,237,531,259.4883,729,259.4883,729,470,472,470,472,237" style="stroke:#000000;stroke-width:1.5;"/><line style="stroke:#000000;stroke-width:1.5;" x1="472" x2="531" y1="259.4883" y2="259.4883"/><text fill="#000000" font-family="sans-serif" font-size="14" font-weight="bold" lengthAdjust="spacing" textLength="46" x="476" y="252.5352">sexual</text><!--MD5=[7d6847f696e7bb74234bd2651e61af1d]
cluster freedom--><polygon fill="#FFFFFF" filter="url(#f61gztdqgm2ht)" points="2254,6,2320,6,2327,28.4883,2433,28.4883,2433,105,2254,105,2254,6" style="stroke:#000000;stroke-width:1.5;"/><line style="stroke:#000000;stroke-width:1.5;" x1="2254" x2="2327" y1="28.4883" y2="28.4883"/><text fill="#000000" font-family="sans-serif" font-size="14" font-weight="bold" lengthAdjust="spacing" textLength="60" x="2258" y="21.5352">freedom</text><!--MD5=[8f24d0701dcb05dd6e6975b6669f8f05]
cluster commonsense--><polygon fill="#FFFFFF" filter="url(#f61gztdqgm2ht)" points="2457,6,2566,6,2573,28.4883,2660,28.4883,2660,105,2457,105,2457,6" style="stroke:#000000;stroke-width:1.5;"/><line style="stroke:#000000;stroke-width:1.5;" x1="2457" x2="2573" y1="28.4883" y2="28.4883"/><text fill="#000000" font-family="sans-serif" font-size="14" font-weight="bold" lengthAdjust="spacing" textLength="103" x="2461" y="21.5352">commonsense</text><!--MD5=[6f5ca303b11f66b6f76d1da6c5fb2617]
cluster ex--><polygon fill="#FFFFFF" filter="url(#f61gztdqgm2ht)" points="336,243.5,358,243.5,365,265.9883,448,265.9883,448,342.5,336,342.5,336,243.5" style="stroke:#000000;stroke-width:1.5;"/><line style="stroke:#000000;stroke-width:1.5;" x1="336" x2="365" y1="265.9883" y2="265.9883"/><text fill="#000000" font-family="sans-serif" font-size="14" font-weight="bold" lengthAdjust="spacing" textLength="16" x="340" y="259.0352">ex</text><!--MD5=[dbc067f70f3795a5b04036b866ba55ba]
class type.自己中心的--><rect codeLine="3" fill="#FEFECE" filter="url(#f61gztdqgm2ht)" height="48" id="type.自己中心的" style="stroke:#A80036;stroke-width:1.5;" width="92" x="135" y="41"/><ellipse cx="150" cy="57" fill="#ADD1B2" rx="11" ry="11" style="stroke:#A80036;stroke-width:1.0;"/><path d="M152.4731,63.1431 Q151.8921,63.4419 151.2529,63.5913 Q150.6138,63.7407 149.9082,63.7407 Q147.4014,63.7407 146.0815,62.0889 Q144.7617,60.437 144.7617,57.3159 Q144.7617,54.1865 146.0815,52.5347 Q147.4014,50.8828 149.9082,50.8828 Q150.6138,50.8828 151.2612,51.0322 Q151.9087,51.1816 152.4731,51.4805 L152.4731,54.2031 Q151.8423,53.6221 151.2488,53.3523 Q150.6553,53.0825 150.0244,53.0825 Q148.6797,53.0825 147.9949,54.1492 Q147.3101,55.2158 147.3101,57.3159 Q147.3101,59.4077 147.9949,60.4744 Q148.6797,61.541 150.0244,61.541 Q150.6553,61.541 151.2488,61.2712 Q151.8423,61.0015 152.4731,60.4204 Z " fill="#000000"/><text fill="#000000" font-family="sans-serif" font-size="12" lengthAdjust="spacing" textLength="60" x="164" y="61.5352">自己中心的</text><line style="stroke:#A80036;stroke-width:1.5;" x1="136" x2="226" y1="73" y2="73"/><line style="stroke:#A80036;stroke-width:1.5;" x1="136" x2="226" y1="81" y2="81"/><!--MD5=[84dec386c9d1977dcbb9f0451dd4ac42]
class type.頑固--><rect codeLine="4" fill="#FEFECE" filter="url(#f61gztdqgm2ht)" height="48" id="type.頑固" style="stroke:#A80036;stroke-width:1.5;" width="56" x="353" y="41"/><ellipse cx="368" cy="57" fill="#ADD1B2" rx="11" ry="11" style="stroke:#A80036;stroke-width:1.0;"/><path d="M370.4731,63.1431 Q369.8921,63.4419 369.2529,63.5913 Q368.6138,63.7407 367.9082,63.7407 Q365.4014,63.7407 364.0815,62.0889 Q362.7617,60.437 362.7617,57.3159 Q362.7617,54.1865 364.0815,52.5347 Q365.4014,50.8828 367.9082,50.8828 Q368.6138,50.8828 369.2612,51.0322 Q369.9087,51.1816 370.4731,51.4805 L370.4731,54.2031 Q369.8423,53.6221 369.2488,53.3523 Q368.6553,53.0825 368.0244,53.0825 Q366.6797,53.0825 365.9949,54.1492 Q365.3101,55.2158 365.3101,57.3159 Q365.3101,59.4077 365.9949,60.4744 Q366.6797,61.541 368.0244,61.541 Q368.6553,61.541 369.2488,61.2712 Q369.8423,61.0015 370.4731,60.4204 Z " fill="#000000"/><text fill="#000000" font-family="sans-serif" font-size="12" lengthAdjust="spacing" textLength="24" x="382" y="61.5352">頑固</text><line style="stroke:#A80036;stroke-width:1.5;" x1="354" x2="408" y1="73" y2="73"/><line style="stroke:#A80036;stroke-width:1.5;" x1="354" x2="408" y1="81" y2="81"/><!--MD5=[d69c1dce711abfc2d0d1d2734420493a]
class type.防衛的--><rect codeLine="5" fill="#FEFECE" filter="url(#f61gztdqgm2ht)" height="48" id="type.防衛的" style="stroke:#A80036;stroke-width:1.5;" width="68" x="32" y="41"/><ellipse cx="47" cy="57" fill="#ADD1B2" rx="11" ry="11" style="stroke:#A80036;stroke-width:1.0;"/><path d="M49.4731,63.1431 Q48.8921,63.4419 48.2529,63.5913 Q47.6138,63.7407 46.9082,63.7407 Q44.4014,63.7407 43.0815,62.0889 Q41.7617,60.437 41.7617,57.3159 Q41.7617,54.1865 43.0815,52.5347 Q44.4014,50.8828 46.9082,50.8828 Q47.6138,50.8828 48.2612,51.0322 Q48.9087,51.1816 49.4731,51.4805 L49.4731,54.2031 Q48.8423,53.6221 48.2488,53.3523 Q47.6553,53.0825 47.0244,53.0825 Q45.6797,53.0825 44.9949,54.1492 Q44.3101,55.2158 44.3101,57.3159 Q44.3101,59.4077 44.9949,60.4744 Q45.6797,61.541 47.0244,61.541 Q47.6553,61.541 48.2488,61.2712 Q48.8423,61.0015 49.4731,60.4204 Z " fill="#000000"/><text fill="#000000" font-family="sans-serif" font-size="12" lengthAdjust="spacing" textLength="36" x="61" y="61.5352">防衛的</text><line style="stroke:#A80036;stroke-width:1.5;" x1="33" x2="99" y1="73" y2="73"/><line style="stroke:#A80036;stroke-width:1.5;" x1="33" x2="99" y1="81" y2="81"/><!--MD5=[5d5fe8cc501f07ed9fb46b5587e42046]
class type.濾過機能--><rect codeLine="6" fill="#FEFECE" filter="url(#f61gztdqgm2ht)" height="48" id="type.濾過機能" style="stroke:#A80036;stroke-width:1.5;" width="80" x="32" y="149"/><ellipse cx="47" cy="165" fill="#ADD1B2" rx="11" ry="11" style="stroke:#A80036;stroke-width:1.0;"/><path d="M49.4731,171.1431 Q48.8921,171.4419 48.2529,171.5913 Q47.6138,171.7407 46.9082,171.7407 Q44.4014,171.7407 43.0815,170.0889 Q41.7617,168.437 41.7617,165.3159 Q41.7617,162.1865 43.0815,160.5347 Q44.4014,158.8828 46.9082,158.8828 Q47.6138,158.8828 48.2612,159.0322 Q48.9087,159.1816 49.4731,159.4805 L49.4731,162.2031 Q48.8423,161.6221 48.2488,161.3523 Q47.6553,161.0825 47.0244,161.0825 Q45.6797,161.0825 44.9949,162.1492 Q44.3101,163.2158 44.3101,165.3159 Q44.3101,167.4077 44.9949,168.4744 Q45.6797,169.541 47.0244,169.541 Q47.6553,169.541 48.2488,169.2712 Q48.8423,169.0015 49.4731,168.4204 Z " fill="#000000"/><text fill="#000000" font-family="sans-serif" font-size="12" lengthAdjust="spacing" textLength="48" x="61" y="169.5352">濾過機能</text><line style="stroke:#A80036;stroke-width:1.5;" x1="33" x2="111" y1="181" y2="181"/><line style="stroke:#A80036;stroke-width:1.5;" x1="33" x2="111" y1="189" y2="189"/><!--MD5=[af35fff8827c1ac27b9b4609b21b259b]
class type.羞恥心--><rect codeLine="8" fill="#FEFECE" filter="url(#f61gztdqgm2ht)" height="48" id="type.羞恥心" style="stroke:#A80036;stroke-width:1.5;" width="68" x="147" y="149"/><ellipse cx="162" cy="165" fill="#ADD1B2" rx="11" ry="11" style="stroke:#A80036;stroke-width:1.0;"/><path d="M164.4731,171.1431 Q163.8921,171.4419 163.2529,171.5913 Q162.6138,171.7407 161.9082,171.7407 Q159.4014,171.7407 158.0815,170.0889 Q156.7617,168.437 156.7617,165.3159 Q156.7617,162.1865 158.0815,160.5347 Q159.4014,158.8828 161.9082,158.8828 Q162.6138,158.8828 163.2612,159.0322 Q163.9087,159.1816 164.4731,159.4805 L164.4731,162.2031 Q163.8423,161.6221 163.2488,161.3523 Q162.6553,161.0825 162.0244,161.0825 Q160.6797,161.0825 159.9949,162.1492 Q159.3101,163.2158 159.3101,165.3159 Q159.3101,167.4077 159.9949,168.4744 Q160.6797,169.541 162.0244,169.541 Q162.6553,169.541 163.2488,169.2712 Q163.8423,169.0015 164.4731,168.4204 Z " fill="#000000"/><text fill="#000000" font-family="sans-serif" font-size="12" lengthAdjust="spacing" textLength="36" x="176" y="169.5352">羞恥心</text><line style="stroke:#A80036;stroke-width:1.5;" x1="148" x2="214" y1="181" y2="181"/><line style="stroke:#A80036;stroke-width:1.5;" x1="148" x2="214" y1="189" y2="189"/><!--MD5=[3a61ae0ac77faa8e06db7ce7cfefbad0]
class type.より若い--><rect codeLine="10" fill="#FEFECE" filter="url(#f61gztdqgm2ht)" height="48" id="type.より若い" style="stroke:#A80036;stroke-width:1.5;" width="80" x="250" y="149"/><ellipse cx="265" cy="165" fill="#ADD1B2" rx="11" ry="11" style="stroke:#A80036;stroke-width:1.0;"/><path d="M267.4731,171.1431 Q266.8921,171.4419 266.2529,171.5913 Q265.6138,171.7407 264.9082,171.7407 Q262.4014,171.7407 261.0815,170.0889 Q259.7617,168.437 259.7617,165.3159 Q259.7617,162.1865 261.0815,160.5347 Q262.4014,158.8828 264.9082,158.8828 Q265.6138,158.8828 266.2612,159.0322 Q266.9087,159.1816 267.4731,159.4805 L267.4731,162.2031 Q266.8423,161.6221 266.2488,161.3523 Q265.6553,161.0825 265.0244,161.0825 Q263.6797,161.0825 262.9949,162.1492 Q262.3101,163.2158 262.3101,165.3159 Q262.3101,167.4077 262.9949,168.4744 Q263.6797,169.541 265.0244,169.541 Q265.6553,169.541 266.2488,169.2712 Q266.8423,169.0015 267.4731,168.4204 Z " fill="#000000"/><text fill="#000000" font-family="sans-serif" font-size="12" lengthAdjust="spacing" textLength="48" x="279" y="169.5352">より若い</text><line style="stroke:#A80036;stroke-width:1.5;" x1="251" x2="329" y1="181" y2="181"/><line style="stroke:#A80036;stroke-width:1.5;" x1="251" x2="329" y1="189" y2="189"/><!--MD5=[a0fbafcc919696d1d2a17016666dc09b]
class type.野心--><rect codeLine="12" fill="#FEFECE" filter="url(#f61gztdqgm2ht)" height="48" id="type.野心" style="stroke:#A80036;stroke-width:1.5;" width="56" x="262" y="41"/><ellipse cx="277" cy="57" fill="#ADD1B2" rx="11" ry="11" style="stroke:#A80036;stroke-width:1.0;"/><path d="M279.4731,63.1431 Q278.8921,63.4419 278.2529,63.5913 Q277.6138,63.7407 276.9082,63.7407 Q274.4014,63.7407 273.0815,62.0889 Q271.7617,60.437 271.7617,57.3159 Q271.7617,54.1865 273.0815,52.5347 Q274.4014,50.8828 276.9082,50.8828 Q277.6138,50.8828 278.2612,51.0322 Q278.9087,51.1816 279.4731,51.4805 L279.4731,54.2031 Q278.8423,53.6221 278.2488,53.3523 Q277.6553,53.0825 277.0244,53.0825 Q275.6797,53.0825 274.9949,54.1492 Q274.3101,55.2158 274.3101,57.3159 Q274.3101,59.4077 274.9949,60.4744 Q275.6797,61.541 277.0244,61.541 Q277.6553,61.541 278.2488,61.2712 Q278.8423,61.0015 279.4731,60.4204 Z " fill="#000000"/><text fill="#000000" font-family="sans-serif" font-size="12" lengthAdjust="spacing" textLength="24" x="291" y="61.5352">野心</text><line style="stroke:#A80036;stroke-width:1.5;" x1="263" x2="317" y1="73" y2="73"/><line style="stroke:#A80036;stroke-width:1.5;" x1="263" x2="317" y1="81" y2="81"/><!--MD5=[f91ed0fda49237470cff63576de05b37]
class 思考傾向.伝統志向--><rect codeLine="16" fill="#FEFECE" filter="url(#f61gztdqgm2ht)" height="48" id="思考傾向.伝統志向" style="stroke:#A80036;stroke-width:1.5;" width="80" x="1118" y="41"/><ellipse cx="1133" cy="57" fill="#ADD1B2" rx="11" ry="11" style="stroke:#A80036;stroke-width:1.0;"/><path d="M1135.4731,63.1431 Q1134.8921,63.4419 1134.2529,63.5913 Q1133.6138,63.7407 1132.9082,63.7407 Q1130.4014,63.7407 1129.0815,62.0889 Q1127.7617,60.437 1127.7617,57.3159 Q1127.7617,54.1865 1129.0815,52.5347 Q1130.4014,50.8828 1132.9082,50.8828 Q1133.6138,50.8828 1134.2612,51.0322 Q1134.9087,51.1816 1135.4731,51.4805 L1135.4731,54.2031 Q1134.8423,53.6221 1134.2488,53.3523 Q1133.6553,53.0825 1133.0244,53.0825 Q1131.6797,53.0825 1130.9949,54.1492 Q1130.3101,55.2158 1130.3101,57.3159 Q1130.3101,59.4077 1130.9949,60.4744 Q1131.6797,61.541 1133.0244,61.541 Q1133.6553,61.541 1134.2488,61.2712 Q1134.8423,61.0015 1135.4731,60.4204 Z " fill="#000000"/><text fill="#000000" font-family="sans-serif" font-size="12" lengthAdjust="spacing" textLength="48" x="1147" y="61.5352">伝統志向</text><line style="stroke:#A80036;stroke-width:1.5;" x1="1119" x2="1197" y1="73" y2="73"/><line style="stroke:#A80036;stroke-width:1.5;" x1="1119" x2="1197" y1="81" y2="81"/><!--MD5=[b337f6de976b78452eba931cf2ed514e]
class env.不満--><rect codeLine="22" fill="#FEFECE" filter="url(#f61gztdqgm2ht)" height="48" id="env.不満" style="stroke:#A80036;stroke-width:1.5;" width="56" x="568" y="41"/><ellipse cx="583" cy="57" fill="#ADD1B2" rx="11" ry="11" style="stroke:#A80036;stroke-width:1.0;"/><path d="M585.4731,63.1431 Q584.8921,63.4419 584.2529,63.5913 Q583.6138,63.7407 582.9082,63.7407 Q580.4014,63.7407 579.0815,62.0889 Q577.7617,60.437 577.7617,57.3159 Q577.7617,54.1865 579.0815,52.5347 Q580.4014,50.8828 582.9082,50.8828 Q583.6138,50.8828 584.2612,51.0322 Q584.9087,51.1816 585.4731,51.4805 L585.4731,54.2031 Q584.8423,53.6221 584.2488,53.3523 Q583.6553,53.0825 583.0244,53.0825 Q581.6797,53.0825 580.9949,54.1492 Q580.3101,55.2158 580.3101,57.3159 Q580.3101,59.4077 580.9949,60.4744 Q581.6797,61.541 583.0244,61.541 Q583.6553,61.541 584.2488,61.2712 Q584.8423,61.0015 585.4731,60.4204 Z " fill="#000000"/><text fill="#000000" font-family="sans-serif" font-size="12" lengthAdjust="spacing" textLength="24" x="597" y="61.5352">不満</text><line style="stroke:#A80036;stroke-width:1.5;" x1="569" x2="623" y1="73" y2="73"/><line style="stroke:#A80036;stroke-width:1.5;" x1="569" x2="623" y1="81" y2="81"/><!--MD5=[6dbbccf62dd0eb5d0bae1abab68992fa]
class env.圧力下--><rect codeLine="23" fill="#FEFECE" filter="url(#f61gztdqgm2ht)" height="48" id="env.圧力下" style="stroke:#A80036;stroke-width:1.5;" width="68" x="465" y="41"/><ellipse cx="480" cy="57" fill="#ADD1B2" rx="11" ry="11" style="stroke:#A80036;stroke-width:1.0;"/><path d="M482.4731,63.1431 Q481.8921,63.4419 481.2529,63.5913 Q480.6138,63.7407 479.9082,63.7407 Q477.4014,63.7407 476.0815,62.0889 Q474.7617,60.437 474.7617,57.3159 Q474.7617,54.1865 476.0815,52.5347 Q477.4014,50.8828 479.9082,50.8828 Q480.6138,50.8828 481.2612,51.0322 Q481.9087,51.1816 482.4731,51.4805 L482.4731,54.2031 Q481.8423,53.6221 481.2488,53.3523 Q480.6553,53.0825 480.0244,53.0825 Q478.6797,53.0825 477.9949,54.1492 Q477.3101,55.2158 477.3101,57.3159 Q477.3101,59.4077 477.9949,60.4744 Q478.6797,61.541 480.0244,61.541 Q480.6553,61.541 481.2488,61.2712 Q481.8423,61.0015 482.4731,60.4204 Z " fill="#000000"/><text fill="#000000" font-family="sans-serif" font-size="12" lengthAdjust="spacing" textLength="36" x="494" y="61.5352">圧力下</text><line style="stroke:#A80036;stroke-width:1.5;" x1="466" x2="532" y1="73" y2="73"/><line style="stroke:#A80036;stroke-width:1.5;" x1="466" x2="532" y1="81" y2="81"/><!--MD5=[fb4c72aeb41dd212a15cf732f22aff08]
class env.女性的要素からの圧力--><rect codeLine="25" fill="#FEFECE" filter="url(#f61gztdqgm2ht)" height="48" id="env.女性的要素からの圧力" style="stroke:#A80036;stroke-width:1.5;" width="152" x="659" y="41"/><ellipse cx="674" cy="57" fill="#ADD1B2" rx="11" ry="11" style="stroke:#A80036;stroke-width:1.0;"/><path d="M676.4731,63.1431 Q675.8921,63.4419 675.2529,63.5913 Q674.6138,63.7407 673.9082,63.7407 Q671.4014,63.7407 670.0815,62.0889 Q668.7617,60.437 668.7617,57.3159 Q668.7617,54.1865 670.0815,52.5347 Q671.4014,50.8828 673.9082,50.8828 Q674.6138,50.8828 675.2612,51.0322 Q675.9087,51.1816 676.4731,51.4805 L676.4731,54.2031 Q675.8423,53.6221 675.2488,53.3523 Q674.6553,53.0825 674.0244,53.0825 Q672.6797,53.0825 671.9949,54.1492 Q671.3101,55.2158 671.3101,57.3159 Q671.3101,59.4077 671.9949,60.4744 Q672.6797,61.541 674.0244,61.541 Q674.6553,61.541 675.2488,61.2712 Q675.8423,61.0015 676.4731,60.4204 Z " fill="#000000"/><text fill="#000000" font-family="sans-serif" font-size="12" lengthAdjust="spacing" textLength="120" x="688" y="61.5352">女性的要素からの圧力</text><line style="stroke:#A80036;stroke-width:1.5;" x1="660" x2="810" y1="73" y2="73"/><line style="stroke:#A80036;stroke-width:1.5;" x1="660" x2="810" y1="81" y2="81"/><!--MD5=[186806f0922ff661b6b52ac89de76293]
class env.諦め--><rect codeLine="27" fill="#FEFECE" filter="url(#f61gztdqgm2ht)" height="48" id="env.諦め" style="stroke:#A80036;stroke-width:1.5;" width="56" x="468" y="149"/><ellipse cx="483" cy="165" fill="#ADD1B2" rx="11" ry="11" style="stroke:#A80036;stroke-width:1.0;"/><path d="M485.4731,171.1431 Q484.8921,171.4419 484.2529,171.5913 Q483.6138,171.7407 482.9082,171.7407 Q480.4014,171.7407 479.0815,170.0889 Q477.7617,168.437 477.7617,165.3159 Q477.7617,162.1865 479.0815,160.5347 Q480.4014,158.8828 482.9082,158.8828 Q483.6138,158.8828 484.2612,159.0322 Q484.9087,159.1816 485.4731,159.4805 L485.4731,162.2031 Q484.8423,161.6221 484.2488,161.3523 Q483.6553,161.0825 483.0244,161.0825 Q481.6797,161.0825 480.9949,162.1492 Q480.3101,163.2158 480.3101,165.3159 Q480.3101,167.4077 480.9949,168.4744 Q481.6797,169.541 483.0244,169.541 Q483.6553,169.541 484.2488,169.2712 Q484.8423,169.0015 485.4731,168.4204 Z " fill="#000000"/><text fill="#000000" font-family="sans-serif" font-size="12" lengthAdjust="spacing" textLength="24" x="497" y="169.5352">諦め</text><line style="stroke:#A80036;stroke-width:1.5;" x1="469" x2="523" y1="181" y2="181"/><line style="stroke:#A80036;stroke-width:1.5;" x1="469" x2="523" y1="189" y2="189"/><!--MD5=[c6b2ce260a9bc64887e3e62bdd14a8ec]
class env.他者との接触の増加--><rect codeLine="30" fill="#FEFECE" filter="url(#f61gztdqgm2ht)" height="48" id="env.他者との接触の増加" style="stroke:#A80036;stroke-width:1.5;" width="140" x="559" y="149"/><ellipse cx="574" cy="165" fill="#ADD1B2" rx="11" ry="11" style="stroke:#A80036;stroke-width:1.0;"/><path d="M576.4731,171.1431 Q575.8921,171.4419 575.2529,171.5913 Q574.6138,171.7407 573.9082,171.7407 Q571.4014,171.7407 570.0815,170.0889 Q568.7617,168.437 568.7617,165.3159 Q568.7617,162.1865 570.0815,160.5347 Q571.4014,158.8828 573.9082,158.8828 Q574.6138,158.8828 575.2612,159.0322 Q575.9087,159.1816 576.4731,159.4805 L576.4731,162.2031 Q575.8423,161.6221 575.2488,161.3523 Q574.6553,161.0825 574.0244,161.0825 Q572.6797,161.0825 571.9949,162.1492 Q571.3101,163.2158 571.3101,165.3159 Q571.3101,167.4077 571.9949,168.4744 Q572.6797,169.541 574.0244,169.541 Q574.6553,169.541 575.2488,169.2712 Q575.8423,169.0015 576.4731,168.4204 Z " fill="#000000"/><text fill="#000000" font-family="sans-serif" font-size="12" lengthAdjust="spacing" textLength="108" x="588" y="169.5352">他者との接触の増加</text><line style="stroke:#A80036;stroke-width:1.5;" x1="560" x2="698" y1="181" y2="181"/><line style="stroke:#A80036;stroke-width:1.5;" x1="560" x2="698" y1="189" y2="189"/><!--MD5=[f67090f2d05e59c8cd2106ae3b8ec4a9]
class think.秘密主義--><rect codeLine="34" fill="#FEFECE" filter="url(#f61gztdqgm2ht)" height="48" id="think.秘密主義" style="stroke:#A80036;stroke-width:1.5;" width="80" x="867" y="41"/><ellipse cx="882" cy="57" fill="#ADD1B2" rx="11" ry="11" style="stroke:#A80036;stroke-width:1.0;"/><path d="M884.4731,63.1431 Q883.8921,63.4419 883.2529,63.5913 Q882.6138,63.7407 881.9082,63.7407 Q879.4014,63.7407 878.0815,62.0889 Q876.7617,60.437 876.7617,57.3159 Q876.7617,54.1865 878.0815,52.5347 Q879.4014,50.8828 881.9082,50.8828 Q882.6138,50.8828 883.2612,51.0322 Q883.9087,51.1816 884.4731,51.4805 L884.4731,54.2031 Q883.8423,53.6221 883.2488,53.3523 Q882.6553,53.0825 882.0244,53.0825 Q880.6797,53.0825 879.9949,54.1492 Q879.3101,55.2158 879.3101,57.3159 Q879.3101,59.4077 879.9949,60.4744 Q880.6797,61.541 882.0244,61.541 Q882.6553,61.541 883.2488,61.2712 Q883.8423,61.0015 884.4731,60.4204 Z " fill="#000000"/><text fill="#000000" font-family="sans-serif" font-size="12" lengthAdjust="spacing" textLength="48" x="896" y="61.5352">秘密主義</text><line style="stroke:#A80036;stroke-width:1.5;" x1="868" x2="946" y1="73" y2="73"/><line style="stroke:#A80036;stroke-width:1.5;" x1="868" x2="946" y1="81" y2="81"/><!--MD5=[9b9b31b741db9cc35ec471c2b68a55ac]
class think.伝統主義--><rect codeLine="35" fill="#FEFECE" filter="url(#f61gztdqgm2ht)" height="48" id="think.伝統主義" style="stroke:#A80036;stroke-width:1.5;" width="80" x="982" y="41"/><ellipse cx="997" cy="57" fill="#ADD1B2" rx="11" ry="11" style="stroke:#A80036;stroke-width:1.0;"/><path d="M999.4731,63.1431 Q998.8921,63.4419 998.2529,63.5913 Q997.6138,63.7407 996.9082,63.7407 Q994.4014,63.7407 993.0815,62.0889 Q991.7617,60.437 991.7617,57.3159 Q991.7617,54.1865 993.0815,52.5347 Q994.4014,50.8828 996.9082,50.8828 Q997.6138,50.8828 998.2612,51.0322 Q998.9087,51.1816 999.4731,51.4805 L999.4731,54.2031 Q998.8423,53.6221 998.2488,53.3523 Q997.6553,53.0825 997.0244,53.0825 Q995.6797,53.0825 994.9949,54.1492 Q994.3101,55.2158 994.3101,57.3159 Q994.3101,59.4077 994.9949,60.4744 Q995.6797,61.541 997.0244,61.541 Q997.6553,61.541 998.2488,61.2712 Q998.8423,61.0015 999.4731,60.4204 Z " fill="#000000"/><text fill="#000000" font-family="sans-serif" font-size="12" lengthAdjust="spacing" textLength="48" x="1011" y="61.5352">伝統主義</text><line style="stroke:#A80036;stroke-width:1.5;" x1="983" x2="1061" y1="73" y2="73"/><line style="stroke:#A80036;stroke-width:1.5;" x1="983" x2="1061" y1="81" y2="81"/><!--MD5=[6209d979025a68e856ea4f551a5880c1]
class think.理想主義--><rect codeLine="36" fill="#FEFECE" filter="url(#f61gztdqgm2ht)" height="48" id="think.理想主義" style="stroke:#A80036;stroke-width:1.5;" width="80" x="867" y="149"/><ellipse cx="882" cy="165" fill="#ADD1B2" rx="11" ry="11" style="stroke:#A80036;stroke-width:1.0;"/><path d="M884.4731,171.1431 Q883.8921,171.4419 883.2529,171.5913 Q882.6138,171.7407 881.9082,171.7407 Q879.4014,171.7407 878.0815,170.0889 Q876.7617,168.437 876.7617,165.3159 Q876.7617,162.1865 878.0815,160.5347 Q879.4014,158.8828 881.9082,158.8828 Q882.6138,158.8828 883.2612,159.0322 Q883.9087,159.1816 884.4731,159.4805 L884.4731,162.2031 Q883.8423,161.6221 883.2488,161.3523 Q882.6553,161.0825 882.0244,161.0825 Q880.6797,161.0825 879.9949,162.1492 Q879.3101,163.2158 879.3101,165.3159 Q879.3101,167.4077 879.9949,168.4744 Q880.6797,169.541 882.0244,169.541 Q882.6553,169.541 883.2488,169.2712 Q883.8423,169.0015 884.4731,168.4204 Z " fill="#000000"/><text fill="#000000" font-family="sans-serif" font-size="12" lengthAdjust="spacing" textLength="48" x="896" y="169.5352">理想主義</text><line style="stroke:#A80036;stroke-width:1.5;" x1="868" x2="946" y1="181" y2="181"/><line style="stroke:#A80036;stroke-width:1.5;" x1="868" x2="946" y1="189" y2="189"/><!--MD5=[c52053fbb5ece2d33925a26c73482f85]
class think.逃避--><rect codeLine="37" fill="#FEFECE" filter="url(#f61gztdqgm2ht)" height="48" id="think.逃避" style="stroke:#A80036;stroke-width:1.5;" width="56" x="982" y="149"/><ellipse cx="997" cy="165" fill="#ADD1B2" rx="11" ry="11" style="stroke:#A80036;stroke-width:1.0;"/><path d="M999.4731,171.1431 Q998.8921,171.4419 998.2529,171.5913 Q997.6138,171.7407 996.9082,171.7407 Q994.4014,171.7407 993.0815,170.0889 Q991.7617,168.437 991.7617,165.3159 Q991.7617,162.1865 993.0815,160.5347 Q994.4014,158.8828 996.9082,158.8828 Q997.6138,158.8828 998.2612,159.0322 Q998.9087,159.1816 999.4731,159.4805 L999.4731,162.2031 Q998.8423,161.6221 998.2488,161.3523 Q997.6553,161.0825 997.0244,161.0825 Q995.6797,161.0825 994.9949,162.1492 Q994.3101,163.2158 994.3101,165.3159 Q994.3101,167.4077 994.9949,168.4744 Q995.6797,169.541 997.0244,169.541 Q997.6553,169.541 998.2488,169.2712 Q998.8423,169.0015 999.4731,168.4204 Z " fill="#000000"/><text fill="#000000" font-family="sans-serif" font-size="12" lengthAdjust="spacing" textLength="24" x="1011" y="169.5352">逃避</text><line style="stroke:#A80036;stroke-width:1.5;" x1="983" x2="1037" y1="181" y2="181"/><line style="stroke:#A80036;stroke-width:1.5;" x1="983" x2="1037" y1="189" y2="189"/><!--MD5=[be03a69dee268d605f6d6fbaa69865e7]
class living.死--><rect codeLine="41" fill="#FEFECE" filter="url(#f61gztdqgm2ht)" height="48" id="living.死" style="stroke:#A80036;stroke-width:1.5;" width="44" x="1345" y="41"/><ellipse cx="1360" cy="57" fill="#ADD1B2" rx="11" ry="11" style="stroke:#A80036;stroke-width:1.0;"/><path d="M1362.4731,63.1431 Q1361.8921,63.4419 1361.2529,63.5913 Q1360.6138,63.7407 1359.9082,63.7407 Q1357.4014,63.7407 1356.0815,62.0889 Q1354.7617,60.437 1354.7617,57.3159 Q1354.7617,54.1865 1356.0815,52.5347 Q1357.4014,50.8828 1359.9082,50.8828 Q1360.6138,50.8828 1361.2612,51.0322 Q1361.9087,51.1816 1362.4731,51.4805 L1362.4731,54.2031 Q1361.8423,53.6221 1361.2488,53.3523 Q1360.6553,53.0825 1360.0244,53.0825 Q1358.6797,53.0825 1357.9949,54.1492 Q1357.3101,55.2158 1357.3101,57.3159 Q1357.3101,59.4077 1357.9949,60.4744 Q1358.6797,61.541 1360.0244,61.541 Q1360.6553,61.541 1361.2488,61.2712 Q1361.8423,61.0015 1362.4731,60.4204 Z " fill="#000000"/><text fill="#000000" font-family="sans-serif" font-size="12" lengthAdjust="spacing" textLength="12" x="1374" y="61.5352">死</text><line style="stroke:#A80036;stroke-width:1.5;" x1="1346" x2="1388" y1="73" y2="73"/><line style="stroke:#A80036;stroke-width:1.5;" x1="1346" x2="1388" y1="81" y2="81"/><!--MD5=[18cad1a8e596fd5472f250e718d823ca]
class living.充実--><rect codeLine="42" fill="#FEFECE" filter="url(#f61gztdqgm2ht)" height="48" id="living.充実" style="stroke:#A80036;stroke-width:1.5;" width="56" x="1254" y="41"/><ellipse cx="1269" cy="57" fill="#ADD1B2" rx="11" ry="11" style="stroke:#A80036;stroke-width:1.0;"/><path d="M1271.4731,63.1431 Q1270.8921,63.4419 1270.2529,63.5913 Q1269.6138,63.7407 1268.9082,63.7407 Q1266.4014,63.7407 1265.0815,62.0889 Q1263.7617,60.437 1263.7617,57.3159 Q1263.7617,54.1865 1265.0815,52.5347 Q1266.4014,50.8828 1268.9082,50.8828 Q1269.6138,50.8828 1270.2612,51.0322 Q1270.9087,51.1816 1271.4731,51.4805 L1271.4731,54.2031 Q1270.8423,53.6221 1270.2488,53.3523 Q1269.6553,53.0825 1269.0244,53.0825 Q1267.6797,53.0825 1266.9949,54.1492 Q1266.3101,55.2158 1266.3101,57.3159 Q1266.3101,59.4077 1266.9949,60.4744 Q1267.6797,61.541 1269.0244,61.541 Q1269.6553,61.541 1270.2488,61.2712 Q1270.8423,61.0015 1271.4731,60.4204 Z " fill="#000000"/><text fill="#000000" font-family="sans-serif" font-size="12" lengthAdjust="spacing" textLength="24" x="1283" y="61.5352">充実</text><line style="stroke:#A80036;stroke-width:1.5;" x1="1255" x2="1309" y1="73" y2="73"/><line style="stroke:#A80036;stroke-width:1.5;" x1="1255" x2="1309" y1="81" y2="81"/><!--MD5=[e45ac958bfb7a40f67cd80ece99aeb6f]
class state.喪失--><rect codeLine="46" fill="#FEFECE" filter="url(#f61gztdqgm2ht)" height="48" id="state.喪失" style="stroke:#A80036;stroke-width:1.5;" width="56" x="149" y="278.5"/><ellipse cx="164" cy="294.5" fill="#ADD1B2" rx="11" ry="11" style="stroke:#A80036;stroke-width:1.0;"/><path d="M166.4731,300.6431 Q165.8921,300.9419 165.2529,301.0913 Q164.6138,301.2407 163.9082,301.2407 Q161.4014,301.2407 160.0815,299.5889 Q158.7617,297.937 158.7617,294.8159 Q158.7617,291.6865 160.0815,290.0347 Q161.4014,288.3828 163.9082,288.3828 Q164.6138,288.3828 165.2612,288.5322 Q165.9087,288.6816 166.4731,288.9805 L166.4731,291.7031 Q165.8423,291.1221 165.2488,290.8523 Q164.6553,290.5825 164.0244,290.5825 Q162.6797,290.5825 161.9949,291.6492 Q161.3101,292.7158 161.3101,294.8159 Q161.3101,296.9077 161.9949,297.9744 Q162.6797,299.041 164.0244,299.041 Q164.6553,299.041 165.2488,298.7712 Q165.8423,298.5015 166.4731,297.9204 Z " fill="#000000"/><text fill="#000000" font-family="sans-serif" font-size="12" lengthAdjust="spacing" textLength="24" x="178" y="299.0352">喪失</text><line style="stroke:#A80036;stroke-width:1.5;" x1="150" x2="204" y1="310.5" y2="310.5"/><line style="stroke:#A80036;stroke-width:1.5;" x1="150" x2="204" y1="318.5" y2="318.5"/><!--MD5=[a768ce815de24fe62eb746c3c9f7b47a]
class state.空想--><rect codeLine="48" fill="#FEFECE" filter="url(#f61gztdqgm2ht)" height="48" id="state.空想" style="stroke:#A80036;stroke-width:1.5;" width="56" x="240" y="278.5"/><ellipse cx="255" cy="294.5" fill="#ADD1B2" rx="11" ry="11" style="stroke:#A80036;stroke-width:1.0;"/><path d="M257.4731,300.6431 Q256.8921,300.9419 256.2529,301.0913 Q255.6138,301.2407 254.9082,301.2407 Q252.4014,301.2407 251.0815,299.5889 Q249.7617,297.937 249.7617,294.8159 Q249.7617,291.6865 251.0815,290.0347 Q252.4014,288.3828 254.9082,288.3828 Q255.6138,288.3828 256.2612,288.5322 Q256.9087,288.6816 257.4731,288.9805 L257.4731,291.7031 Q256.8423,291.1221 256.2488,290.8523 Q255.6553,290.5825 255.0244,290.5825 Q253.6797,290.5825 252.9949,291.6492 Q252.3101,292.7158 252.3101,294.8159 Q252.3101,296.9077 252.9949,297.9744 Q253.6797,299.041 255.0244,299.041 Q255.6553,299.041 256.2488,298.7712 Q256.8423,298.5015 257.4731,297.9204 Z " fill="#000000"/><text fill="#000000" font-family="sans-serif" font-size="12" lengthAdjust="spacing" textLength="24" x="269" y="299.0352">空想</text><line style="stroke:#A80036;stroke-width:1.5;" x1="241" x2="295" y1="310.5" y2="310.5"/><line style="stroke:#A80036;stroke-width:1.5;" x1="241" x2="295" y1="318.5" y2="318.5"/><!--MD5=[25e9c5294557a47419d23601d3bf55e0]
class state.現実--><rect codeLine="50" fill="#FEFECE" filter="url(#f61gztdqgm2ht)" height="48" id="state.現実" style="stroke:#A80036;stroke-width:1.5;" width="56" x="149" y="399.5"/><ellipse cx="164" cy="415.5" fill="#ADD1B2" rx="11" ry="11" style="stroke:#A80036;stroke-width:1.0;"/><path d="M166.4731,421.6431 Q165.8921,421.9419 165.2529,422.0913 Q164.6138,422.2407 163.9082,422.2407 Q161.4014,422.2407 160.0815,420.5889 Q158.7617,418.937 158.7617,415.8159 Q158.7617,412.6865 160.0815,411.0347 Q161.4014,409.3828 163.9082,409.3828 Q164.6138,409.3828 165.2612,409.5322 Q165.9087,409.6816 166.4731,409.9805 L166.4731,412.7031 Q165.8423,412.1221 165.2488,411.8523 Q164.6553,411.5825 164.0244,411.5825 Q162.6797,411.5825 161.9949,412.6492 Q161.3101,413.7158 161.3101,415.8159 Q161.3101,417.9077 161.9949,418.9744 Q162.6797,420.041 164.0244,420.041 Q164.6553,420.041 165.2488,419.7712 Q165.8423,419.5015 166.4731,418.9204 Z " fill="#000000"/><text fill="#000000" font-family="sans-serif" font-size="12" lengthAdjust="spacing" textLength="24" x="178" y="420.0352">現実</text><line style="stroke:#A80036;stroke-width:1.5;" x1="150" x2="204" y1="431.5" y2="431.5"/><line style="stroke:#A80036;stroke-width:1.5;" x1="150" x2="204" y1="439.5" y2="439.5"/><!--MD5=[062afe9b5d2e58a566a11929855daa8a]
class state.過去--><rect codeLine="52" fill="#FEFECE" filter="url(#f61gztdqgm2ht)" height="48" id="state.過去" style="stroke:#A80036;stroke-width:1.5;" width="56" x="240" y="399.5"/><ellipse cx="255" cy="415.5" fill="#ADD1B2" rx="11" ry="11" style="stroke:#A80036;stroke-width:1.0;"/><path d="M257.4731,421.6431 Q256.8921,421.9419 256.2529,422.0913 Q255.6138,422.2407 254.9082,422.2407 Q252.4014,422.2407 251.0815,420.5889 Q249.7617,418.937 249.7617,415.8159 Q249.7617,412.6865 251.0815,411.0347 Q252.4014,409.3828 254.9082,409.3828 Q255.6138,409.3828 256.2612,409.5322 Q256.9087,409.6816 257.4731,409.9805 L257.4731,412.7031 Q256.8423,412.1221 256.2488,411.8523 Q255.6553,411.5825 255.0244,411.5825 Q253.6797,411.5825 252.9949,412.6492 Q252.3101,413.7158 252.3101,415.8159 Q252.3101,417.9077 252.9949,418.9744 Q253.6797,420.041 255.0244,420.041 Q255.6553,420.041 256.2488,419.7712 Q256.8423,419.5015 257.4731,418.9204 Z " fill="#000000"/><text fill="#000000" font-family="sans-serif" font-size="12" lengthAdjust="spacing" textLength="24" x="269" y="420.0352">過去</text><line style="stroke:#A80036;stroke-width:1.5;" x1="241" x2="295" y1="431.5" y2="431.5"/><line style="stroke:#A80036;stroke-width:1.5;" x1="241" x2="295" y1="439.5" y2="439.5"/><!--MD5=[5e75cd6d72e3742fe767ff2275e248de]
class time.過去--><rect codeLine="56" fill="#FEFECE" filter="url(#f61gztdqgm2ht)" height="48" id="time.過去" style="stroke:#A80036;stroke-width:1.5;" width="56" x="1536" y="41"/><ellipse cx="1551" cy="57" fill="#ADD1B2" rx="11" ry="11" style="stroke:#A80036;stroke-width:1.0;"/><path d="M1553.4731,63.1431 Q1552.8921,63.4419 1552.2529,63.5913 Q1551.6138,63.7407 1550.9082,63.7407 Q1548.4014,63.7407 1547.0815,62.0889 Q1545.7617,60.437 1545.7617,57.3159 Q1545.7617,54.1865 1547.0815,52.5347 Q1548.4014,50.8828 1550.9082,50.8828 Q1551.6138,50.8828 1552.2612,51.0322 Q1552.9087,51.1816 1553.4731,51.4805 L1553.4731,54.2031 Q1552.8423,53.6221 1552.2488,53.3523 Q1551.6553,53.0825 1551.0244,53.0825 Q1549.6797,53.0825 1548.9949,54.1492 Q1548.3101,55.2158 1548.3101,57.3159 Q1548.3101,59.4077 1548.9949,60.4744 Q1549.6797,61.541 1551.0244,61.541 Q1551.6553,61.541 1552.2488,61.2712 Q1552.8423,61.0015 1553.4731,60.4204 Z " fill="#000000"/><text fill="#000000" font-family="sans-serif" font-size="12" lengthAdjust="spacing" textLength="24" x="1565" y="61.5352">過去</text><line style="stroke:#A80036;stroke-width:1.5;" x1="1537" x2="1591" y1="73" y2="73"/><line style="stroke:#A80036;stroke-width:1.5;" x1="1537" x2="1591" y1="81" y2="81"/><!--MD5=[08d6c6fbd3c2d8e5bf03c190ac3da287]
class time.未来--><rect codeLine="58" fill="#FEFECE" filter="url(#f61gztdqgm2ht)" height="48" id="time.未来" style="stroke:#A80036;stroke-width:1.5;" width="56" x="1445" y="41"/><ellipse cx="1460" cy="57" fill="#ADD1B2" rx="11" ry="11" style="stroke:#A80036;stroke-width:1.0;"/><path d="M1462.4731,63.1431 Q1461.8921,63.4419 1461.2529,63.5913 Q1460.6138,63.7407 1459.9082,63.7407 Q1457.4014,63.7407 1456.0815,62.0889 Q1454.7617,60.437 1454.7617,57.3159 Q1454.7617,54.1865 1456.0815,52.5347 Q1457.4014,50.8828 1459.9082,50.8828 Q1460.6138,50.8828 1461.2612,51.0322 Q1461.9087,51.1816 1462.4731,51.4805 L1462.4731,54.2031 Q1461.8423,53.6221 1461.2488,53.3523 Q1460.6553,53.0825 1460.0244,53.0825 Q1458.6797,53.0825 1457.9949,54.1492 Q1457.3101,55.2158 1457.3101,57.3159 Q1457.3101,59.4077 1457.9949,60.4744 Q1458.6797,61.541 1460.0244,61.541 Q1460.6553,61.541 1461.2488,61.2712 Q1461.8423,61.0015 1462.4731,60.4204 Z " fill="#000000"/><text fill="#000000" font-family="sans-serif" font-size="12" lengthAdjust="spacing" textLength="24" x="1474" y="61.5352">未来</text><line style="stroke:#A80036;stroke-width:1.5;" x1="1446" x2="1500" y1="73" y2="73"/><line style="stroke:#A80036;stroke-width:1.5;" x1="1446" x2="1500" y1="81" y2="81"/><!--MD5=[95c728fff8ee74ea59419b3a4da66ea3]
class parents.母親からの影響--><rect codeLine="62" fill="#FEFECE" filter="url(#f61gztdqgm2ht)" height="48" id="parents.母親からの影響" style="stroke:#A80036;stroke-width:1.5;" width="116" x="1986" y="41"/><ellipse cx="2001" cy="57" fill="#ADD1B2" rx="11" ry="11" style="stroke:#A80036;stroke-width:1.0;"/><path d="M2003.4731,63.1431 Q2002.8921,63.4419 2002.2529,63.5913 Q2001.6138,63.7407 2000.9082,63.7407 Q1998.4014,63.7407 1997.0815,62.0889 Q1995.7617,60.437 1995.7617,57.3159 Q1995.7617,54.1865 1997.0815,52.5347 Q1998.4014,50.8828 2000.9082,50.8828 Q2001.6138,50.8828 2002.2612,51.0322 Q2002.9087,51.1816 2003.4731,51.4805 L2003.4731,54.2031 Q2002.8423,53.6221 2002.2488,53.3523 Q2001.6553,53.0825 2001.0244,53.0825 Q1999.6797,53.0825 1998.9949,54.1492 Q1998.3101,55.2158 1998.3101,57.3159 Q1998.3101,59.4077 1998.9949,60.4744 Q1999.6797,61.541 2001.0244,61.541 Q2001.6553,61.541 2002.2488,61.2712 Q2002.8423,61.0015 2003.4731,60.4204 Z " fill="#000000"/><text fill="#000000" font-family="sans-serif" font-size="12" lengthAdjust="spacing" textLength="84" x="2015" y="61.5352">母親からの影響</text><line style="stroke:#A80036;stroke-width:1.5;" x1="1987" x2="2101" y1="73" y2="73"/><line style="stroke:#A80036;stroke-width:1.5;" x1="1987" x2="2101" y1="81" y2="81"/><!--MD5=[3ece5616b20bc24d67c147e24668c060]
class parents.母親からの影響の克服--><rect codeLine="63" fill="#FEFECE" filter="url(#f61gztdqgm2ht)" height="48" id="parents.母親からの影響の克服" style="stroke:#A80036;stroke-width:1.5;" width="152" x="1799" y="41"/><ellipse cx="1814" cy="57" fill="#ADD1B2" rx="11" ry="11" style="stroke:#A80036;stroke-width:1.0;"/><path d="M1816.4731,63.1431 Q1815.8921,63.4419 1815.2529,63.5913 Q1814.6138,63.7407 1813.9082,63.7407 Q1811.4014,63.7407 1810.0815,62.0889 Q1808.7617,60.437 1808.7617,57.3159 Q1808.7617,54.1865 1810.0815,52.5347 Q1811.4014,50.8828 1813.9082,50.8828 Q1814.6138,50.8828 1815.2612,51.0322 Q1815.9087,51.1816 1816.4731,51.4805 L1816.4731,54.2031 Q1815.8423,53.6221 1815.2488,53.3523 Q1814.6553,53.0825 1814.0244,53.0825 Q1812.6797,53.0825 1811.9949,54.1492 Q1811.3101,55.2158 1811.3101,57.3159 Q1811.3101,59.4077 1811.9949,60.4744 Q1812.6797,61.541 1814.0244,61.541 Q1814.6553,61.541 1815.2488,61.2712 Q1815.8423,61.0015 1816.4731,60.4204 Z " fill="#000000"/><text fill="#000000" font-family="sans-serif" font-size="12" lengthAdjust="spacing" textLength="120" x="1828" y="61.5352">母親からの影響の克服</text><line style="stroke:#A80036;stroke-width:1.5;" x1="1800" x2="1950" y1="73" y2="73"/><line style="stroke:#A80036;stroke-width:1.5;" x1="1800" x2="1950" y1="81" y2="81"/><!--MD5=[a9c19c57b80e7bb1f146470153448781]
class parents.父親からの影響--><rect codeLine="64" fill="#FEFECE" filter="url(#f61gztdqgm2ht)" height="48" id="parents.父親からの影響" style="stroke:#A80036;stroke-width:1.5;" width="116" x="1648" y="41"/><ellipse cx="1663" cy="57" fill="#ADD1B2" rx="11" ry="11" style="stroke:#A80036;stroke-width:1.0;"/><path d="M1665.4731,63.1431 Q1664.8921,63.4419 1664.2529,63.5913 Q1663.6138,63.7407 1662.9082,63.7407 Q1660.4014,63.7407 1659.0815,62.0889 Q1657.7617,60.437 1657.7617,57.3159 Q1657.7617,54.1865 1659.0815,52.5347 Q1660.4014,50.8828 1662.9082,50.8828 Q1663.6138,50.8828 1664.2612,51.0322 Q1664.9087,51.1816 1665.4731,51.4805 L1665.4731,54.2031 Q1664.8423,53.6221 1664.2488,53.3523 Q1663.6553,53.0825 1663.0244,53.0825 Q1661.6797,53.0825 1660.9949,54.1492 Q1660.3101,55.2158 1660.3101,57.3159 Q1660.3101,59.4077 1660.9949,60.4744 Q1661.6797,61.541 1663.0244,61.541 Q1663.6553,61.541 1664.2488,61.2712 Q1664.8423,61.0015 1665.4731,60.4204 Z " fill="#000000"/><text fill="#000000" font-family="sans-serif" font-size="12" lengthAdjust="spacing" textLength="84" x="1677" y="61.5352">父親からの影響</text><line style="stroke:#A80036;stroke-width:1.5;" x1="1649" x2="1763" y1="73" y2="73"/><line style="stroke:#A80036;stroke-width:1.5;" x1="1649" x2="1763" y1="81" y2="81"/><!--MD5=[f321c95344578c6a5f01a9c7b8a93ead]
class parents.憧れと諦め--><rect codeLine="66" fill="#FEFECE" filter="url(#f61gztdqgm2ht)" height="48" id="parents.憧れと諦め" style="stroke:#A80036;stroke-width:1.5;" width="92" x="1660" y="149"/><ellipse cx="1675" cy="165" fill="#ADD1B2" rx="11" ry="11" style="stroke:#A80036;stroke-width:1.0;"/><path d="M1677.4731,171.1431 Q1676.8921,171.4419 1676.2529,171.5913 Q1675.6138,171.7407 1674.9082,171.7407 Q1672.4014,171.7407 1671.0815,170.0889 Q1669.7617,168.437 1669.7617,165.3159 Q1669.7617,162.1865 1671.0815,160.5347 Q1672.4014,158.8828 1674.9082,158.8828 Q1675.6138,158.8828 1676.2612,159.0322 Q1676.9087,159.1816 1677.4731,159.4805 L1677.4731,162.2031 Q1676.8423,161.6221 1676.2488,161.3523 Q1675.6553,161.0825 1675.0244,161.0825 Q1673.6797,161.0825 1672.9949,162.1492 Q1672.3101,163.2158 1672.3101,165.3159 Q1672.3101,167.4077 1672.9949,168.4744 Q1673.6797,169.541 1675.0244,169.541 Q1675.6553,169.541 1676.2488,169.2712 Q1676.8423,169.0015 1677.4731,168.4204 Z " fill="#000000"/><text fill="#000000" font-family="sans-serif" font-size="12" lengthAdjust="spacing" textLength="60" x="1689" y="169.5352">憧れと諦め</text><line style="stroke:#A80036;stroke-width:1.5;" x1="1661" x2="1751" y1="181" y2="181"/><line style="stroke:#A80036;stroke-width:1.5;" x1="1661" x2="1751" y1="189" y2="189"/><!--MD5=[eb22ec15d31d10a6b25c9ebdffe3f7d7]
class towoman.軽蔑--><rect codeLine="70" fill="#FEFECE" filter="url(#f61gztdqgm2ht)" height="48" id="towoman.軽蔑" style="stroke:#A80036;stroke-width:1.5;" width="56" x="2158" y="41"/><ellipse cx="2173" cy="57" fill="#ADD1B2" rx="11" ry="11" style="stroke:#A80036;stroke-width:1.0;"/><path d="M2175.4731,63.1431 Q2174.8921,63.4419 2174.2529,63.5913 Q2173.6138,63.7407 2172.9082,63.7407 Q2170.4014,63.7407 2169.0815,62.0889 Q2167.7617,60.437 2167.7617,57.3159 Q2167.7617,54.1865 2169.0815,52.5347 Q2170.4014,50.8828 2172.9082,50.8828 Q2173.6138,50.8828 2174.2612,51.0322 Q2174.9087,51.1816 2175.4731,51.4805 L2175.4731,54.2031 Q2174.8423,53.6221 2174.2488,53.3523 Q2173.6553,53.0825 2173.0244,53.0825 Q2171.6797,53.0825 2170.9949,54.1492 Q2170.3101,55.2158 2170.3101,57.3159 Q2170.3101,59.4077 2170.9949,60.4744 Q2171.6797,61.541 2173.0244,61.541 Q2173.6553,61.541 2174.2488,61.2712 Q2174.8423,61.0015 2175.4731,60.4204 Z " fill="#000000"/><text fill="#000000" font-family="sans-serif" font-size="12" lengthAdjust="spacing" textLength="24" x="2187" y="61.5352">軽蔑</text><line style="stroke:#A80036;stroke-width:1.5;" x1="2159" x2="2213" y1="73" y2="73"/><line style="stroke:#A80036;stroke-width:1.5;" x1="2159" x2="2213" y1="81" y2="81"/><!--MD5=[8ecd15b8a96d572ab911af03d05a6e1e]
class sexual.同性愛--><rect codeLine="74" fill="#FEFECE" filter="url(#f61gztdqgm2ht)" height="48" id="sexual.同性愛" style="stroke:#A80036;stroke-width:1.5;" width="68" x="488" y="278.5"/><ellipse cx="503" cy="294.5" fill="#ADD1B2" rx="11" ry="11" style="stroke:#A80036;stroke-width:1.0;"/><path d="M505.4731,300.6431 Q504.8921,300.9419 504.2529,301.0913 Q503.6138,301.2407 502.9082,301.2407 Q500.4014,301.2407 499.0815,299.5889 Q497.7617,297.937 497.7617,294.8159 Q497.7617,291.6865 499.0815,290.0347 Q500.4014,288.3828 502.9082,288.3828 Q503.6138,288.3828 504.2612,288.5322 Q504.9087,288.6816 505.4731,288.9805 L505.4731,291.7031 Q504.8423,291.1221 504.2488,290.8523 Q503.6553,290.5825 503.0244,290.5825 Q501.6797,290.5825 500.9949,291.6492 Q500.3101,292.7158 500.3101,294.8159 Q500.3101,296.9077 500.9949,297.9744 Q501.6797,299.041 503.0244,299.041 Q503.6553,299.041 504.2488,298.7712 Q504.8423,298.5015 505.4731,297.9204 Z " fill="#000000"/><text fill="#000000" font-family="sans-serif" font-size="12" lengthAdjust="spacing" textLength="36" x="517" y="299.0352">同性愛</text><line style="stroke:#A80036;stroke-width:1.5;" x1="489" x2="555" y1="310.5" y2="310.5"/><line style="stroke:#A80036;stroke-width:1.5;" x1="489" x2="555" y1="318.5" y2="318.5"/><!--MD5=[93fe8dbb0c06e7d5a43b24ec49e9c0b4]
class sexual.自己啓発--><rect codeLine="75" fill="#FEFECE" filter="url(#f61gztdqgm2ht)" height="60.9551" id="sexual.自己啓発" style="stroke:#A80036;stroke-width:1.5;" width="122" x="591" y="272"/><ellipse cx="624.9" cy="288" fill="#ADD1B2" rx="11" ry="11" style="stroke:#A80036;stroke-width:1.0;"/><path d="M627.3731,294.1431 Q626.7921,294.4419 626.1529,294.5913 Q625.5138,294.7407 624.8082,294.7407 Q622.3014,294.7407 620.9815,293.0889 Q619.6617,291.437 619.6617,288.3159 Q619.6617,285.1865 620.9815,283.5347 Q622.3014,281.8828 624.8082,281.8828 Q625.5138,281.8828 626.1612,282.0322 Q626.8087,282.1816 627.3731,282.4805 L627.3731,285.2031 Q626.7423,284.6221 626.1488,284.3523 Q625.5553,284.0825 624.9244,284.0825 Q623.5797,284.0825 622.8949,285.1492 Q622.2101,286.2158 622.2101,288.3159 Q622.2101,290.4077 622.8949,291.4744 Q623.5797,292.541 624.9244,292.541 Q625.5553,292.541 626.1488,292.2712 Q626.7423,292.0015 627.3731,291.4204 Z " fill="#000000"/><text fill="#000000" font-family="sans-serif" font-size="12" lengthAdjust="spacing" textLength="48" x="643.1" y="292.5352">自己啓発</text><line style="stroke:#A80036;stroke-width:1.5;" x1="592" x2="712" y1="304" y2="304"/><text fill="#000000" font-family="sans-serif" font-size="11" lengthAdjust="spacing" textLength="110" x="597" y="318.6348">恋愛に対する自己啓発</text><line style="stroke:#A80036;stroke-width:1.5;" x1="592" x2="712" y1="324.9551" y2="324.9551"/><!--MD5=[ae4f08e4688a0111f9c6e955d7e82727]
class sexual.計画性--><rect codeLine="78" fill="#FEFECE" filter="url(#f61gztdqgm2ht)" height="60.9551" id="sexual.計画性" style="stroke:#A80036;stroke-width:1.5;" width="111" x="488.5" y="393"/><ellipse cx="522.85" cy="409" fill="#ADD1B2" rx="11" ry="11" style="stroke:#A80036;stroke-width:1.0;"/><path d="M525.3231,415.1431 Q524.7421,415.4419 524.1029,415.5913 Q523.4638,415.7407 522.7582,415.7407 Q520.2514,415.7407 518.9315,414.0889 Q517.6117,412.437 517.6117,409.3159 Q517.6117,406.1865 518.9315,404.5347 Q520.2514,402.8828 522.7582,402.8828 Q523.4638,402.8828 524.1112,403.0322 Q524.7587,403.1816 525.3231,403.4805 L525.3231,406.2031 Q524.6923,405.6221 524.0988,405.3523 Q523.5053,405.0825 522.8744,405.0825 Q521.5297,405.0825 520.8449,406.1492 Q520.1601,407.2158 520.1601,409.3159 Q520.1601,411.4077 520.8449,412.4744 Q521.5297,413.541 522.8744,413.541 Q523.5053,413.541 524.0988,413.2712 Q524.6923,413.0015 525.3231,412.4204 Z " fill="#000000"/><text fill="#000000" font-family="sans-serif" font-size="12" lengthAdjust="spacing" textLength="36" x="541.15" y="413.5352">計画性</text><line style="stroke:#A80036;stroke-width:1.5;" x1="489.5" x2="598.5" y1="425" y2="425"/><text fill="#000000" font-family="sans-serif" font-size="11" lengthAdjust="spacing" textLength="99" x="494.5" y="439.6348">恋愛に値する計画性</text><line style="stroke:#A80036;stroke-width:1.5;" x1="489.5" x2="598.5" y1="445.9551" y2="445.9551"/><!--MD5=[a00949e067130f1609081a4b662ccac7]
class freedom.闘争--><rect codeLine="85" fill="#FEFECE" filter="url(#f61gztdqgm2ht)" height="48" id="freedom.闘争" style="stroke:#A80036;stroke-width:1.5;" width="56" x="2361" y="41"/><ellipse cx="2376" cy="57" fill="#ADD1B2" rx="11" ry="11" style="stroke:#A80036;stroke-width:1.0;"/><path d="M2378.4731,63.1431 Q2377.8921,63.4419 2377.2529,63.5913 Q2376.6138,63.7407 2375.9082,63.7407 Q2373.4014,63.7407 2372.0815,62.0889 Q2370.7617,60.437 2370.7617,57.3159 Q2370.7617,54.1865 2372.0815,52.5347 Q2373.4014,50.8828 2375.9082,50.8828 Q2376.6138,50.8828 2377.2612,51.0322 Q2377.9087,51.1816 2378.4731,51.4805 L2378.4731,54.2031 Q2377.8423,53.6221 2377.2488,53.3523 Q2376.6553,53.0825 2376.0244,53.0825 Q2374.6797,53.0825 2373.9949,54.1492 Q2373.3101,55.2158 2373.3101,57.3159 Q2373.3101,59.4077 2373.9949,60.4744 Q2374.6797,61.541 2376.0244,61.541 Q2376.6553,61.541 2377.2488,61.2712 Q2377.8423,61.0015 2378.4731,60.4204 Z " fill="#000000"/><text fill="#000000" font-family="sans-serif" font-size="12" lengthAdjust="spacing" textLength="24" x="2390" y="61.5352">闘争</text><line style="stroke:#A80036;stroke-width:1.5;" x1="2362" x2="2416" y1="73" y2="73"/><line style="stroke:#A80036;stroke-width:1.5;" x1="2362" x2="2416" y1="81" y2="81"/><!--MD5=[eafb347996823219e03ca770c3b99e0c]
class freedom.服従--><rect codeLine="86" fill="#FEFECE" filter="url(#f61gztdqgm2ht)" height="48" id="freedom.服従" style="stroke:#A80036;stroke-width:1.5;" width="56" x="2270" y="41"/><ellipse cx="2285" cy="57" fill="#ADD1B2" rx="11" ry="11" style="stroke:#A80036;stroke-width:1.0;"/><path d="M2287.4731,63.1431 Q2286.8921,63.4419 2286.2529,63.5913 Q2285.6138,63.7407 2284.9082,63.7407 Q2282.4014,63.7407 2281.0815,62.0889 Q2279.7617,60.437 2279.7617,57.3159 Q2279.7617,54.1865 2281.0815,52.5347 Q2282.4014,50.8828 2284.9082,50.8828 Q2285.6138,50.8828 2286.2612,51.0322 Q2286.9087,51.1816 2287.4731,51.4805 L2287.4731,54.2031 Q2286.8423,53.6221 2286.2488,53.3523 Q2285.6553,53.0825 2285.0244,53.0825 Q2283.6797,53.0825 2282.9949,54.1492 Q2282.3101,55.2158 2282.3101,57.3159 Q2282.3101,59.4077 2282.9949,60.4744 Q2283.6797,61.541 2285.0244,61.541 Q2285.6553,61.541 2286.2488,61.2712 Q2286.8423,61.0015 2287.4731,60.4204 Z " fill="#000000"/><text fill="#000000" font-family="sans-serif" font-size="12" lengthAdjust="spacing" textLength="24" x="2299" y="61.5352">服従</text><line style="stroke:#A80036;stroke-width:1.5;" x1="2271" x2="2325" y1="73" y2="73"/><line style="stroke:#A80036;stroke-width:1.5;" x1="2271" x2="2325" y1="81" y2="81"/><!--MD5=[c9ad840725d1eb9273ec2fd9458677e2]
class commonsense.非常識--><rect codeLine="90" fill="#FEFECE" filter="url(#f61gztdqgm2ht)" height="48" id="commonsense.非常識" style="stroke:#A80036;stroke-width:1.5;" width="68" x="2576" y="41"/><ellipse cx="2591" cy="57" fill="#ADD1B2" rx="11" ry="11" style="stroke:#A80036;stroke-width:1.0;"/><path d="M2593.4731,63.1431 Q2592.8921,63.4419 2592.2529,63.5913 Q2591.6138,63.7407 2590.9082,63.7407 Q2588.4014,63.7407 2587.0815,62.0889 Q2585.7617,60.437 2585.7617,57.3159 Q2585.7617,54.1865 2587.0815,52.5347 Q2588.4014,50.8828 2590.9082,50.8828 Q2591.6138,50.8828 2592.2612,51.0322 Q2592.9087,51.1816 2593.4731,51.4805 L2593.4731,54.2031 Q2592.8423,53.6221 2592.2488,53.3523 Q2591.6553,53.0825 2591.0244,53.0825 Q2589.6797,53.0825 2588.9949,54.1492 Q2588.3101,55.2158 2588.3101,57.3159 Q2588.3101,59.4077 2588.9949,60.4744 Q2589.6797,61.541 2591.0244,61.541 Q2591.6553,61.541 2592.2488,61.2712 Q2592.8423,61.0015 2593.4731,60.4204 Z " fill="#000000"/><text fill="#000000" font-family="sans-serif" font-size="12" lengthAdjust="spacing" textLength="36" x="2605" y="61.5352">非常識</text><line style="stroke:#A80036;stroke-width:1.5;" x1="2577" x2="2643" y1="73" y2="73"/><line style="stroke:#A80036;stroke-width:1.5;" x1="2577" x2="2643" y1="81" y2="81"/><!--MD5=[e2e01635ae946ef80967a6a861159822]
class commonsense.常識的--><rect codeLine="91" fill="#FEFECE" filter="url(#f61gztdqgm2ht)" height="48" id="commonsense.常識的" style="stroke:#A80036;stroke-width:1.5;" width="68" x="2473" y="41"/><ellipse cx="2488" cy="57" fill="#ADD1B2" rx="11" ry="11" style="stroke:#A80036;stroke-width:1.0;"/><path d="M2490.4731,63.1431 Q2489.8921,63.4419 2489.2529,63.5913 Q2488.6138,63.7407 2487.9082,63.7407 Q2485.4014,63.7407 2484.0815,62.0889 Q2482.7617,60.437 2482.7617,57.3159 Q2482.7617,54.1865 2484.0815,52.5347 Q2485.4014,50.8828 2487.9082,50.8828 Q2488.6138,50.8828 2489.2612,51.0322 Q2489.9087,51.1816 2490.4731,51.4805 L2490.4731,54.2031 Q2489.8423,53.6221 2489.2488,53.3523 Q2488.6553,53.0825 2488.0244,53.0825 Q2486.6797,53.0825 2485.9949,54.1492 Q2485.3101,55.2158 2485.3101,57.3159 Q2485.3101,59.4077 2485.9949,60.4744 Q2486.6797,61.541 2488.0244,61.541 Q2488.6553,61.541 2489.2488,61.2712 Q2489.8423,61.0015 2490.4731,60.4204 Z " fill="#000000"/><text fill="#000000" font-family="sans-serif" font-size="12" lengthAdjust="spacing" textLength="36" x="2502" y="61.5352">常識的</text><line style="stroke:#A80036;stroke-width:1.5;" x1="2474" x2="2540" y1="73" y2="73"/><line style="stroke:#A80036;stroke-width:1.5;" x1="2474" x2="2540" y1="81" y2="81"/><!--MD5=[f6710ef2a18a6090544f94d09805eaac]
class ex.物理学者--><rect codeLine="95" fill="#FEFECE" filter="url(#f61gztdqgm2ht)" height="48" id="ex.物理学者" style="stroke:#A80036;stroke-width:1.5;" width="80" x="352" y="278.5"/><ellipse cx="367" cy="294.5" fill="#ADD1B2" rx="11" ry="11" style="stroke:#A80036;stroke-width:1.0;"/><path d="M369.4731,300.6431 Q368.8921,300.9419 368.2529,301.0913 Q367.6138,301.2407 366.9082,301.2407 Q364.4014,301.2407 363.0815,299.5889 Q361.7617,297.937 361.7617,294.8159 Q361.7617,291.6865 363.0815,290.0347 Q364.4014,288.3828 366.9082,288.3828 Q367.6138,288.3828 368.2612,288.5322 Q368.9087,288.6816 369.4731,288.9805 L369.4731,291.7031 Q368.8423,291.1221 368.2488,290.8523 Q367.6553,290.5825 367.0244,290.5825 Q365.6797,290.5825 364.9949,291.6492 Q364.3101,292.7158 364.3101,294.8159 Q364.3101,296.9077 364.9949,297.9744 Q365.6797,299.041 367.0244,299.041 Q367.6553,299.041 368.2488,298.7712 Q368.8423,298.5015 369.4731,297.9204 Z " fill="#000000"/><text fill="#000000" font-family="sans-serif" font-size="12" lengthAdjust="spacing" textLength="48" x="381" y="299.0352">物理学者</text><line style="stroke:#A80036;stroke-width:1.5;" x1="353" x2="431" y1="310.5" y2="310.5"/><line style="stroke:#A80036;stroke-width:1.5;" x1="353" x2="431" y1="318.5" y2="318.5"/><!--MD5=[e7487cfc0cf52f8abd37ba74c91eb638]
link type.防衛的 to type.濾過機能--><path codeLine="7" d="M67.3,89 C68.21,105 69.42,126.45 70.39,143.53 " fill="none" id="type.防衛的-to-type.濾過機能" style="stroke:#A80036;stroke-width:1.0;"/><polygon fill="#A80036" points="70.68,148.68,74.1585,139.4659,70.3939,143.6882,66.1716,139.9236,70.68,148.68" style="stroke:#A80036;stroke-width:1.0;"/><!--MD5=[e1d496c6697830632d10b091de5459f8]
link env.圧力下 to env.諦め--><path codeLine="28" d="M498.35,89 C497.9,105 497.29,126.45 496.81,143.53 " fill="none" id="env.圧力下-to-env.諦め" style="stroke:#A80036;stroke-width:1.0;"/><polygon fill="#A80036" points="496.66,148.68,500.9154,139.7979,496.8028,143.682,492.9187,139.5694,496.66,148.68" style="stroke:#A80036;stroke-width:1.0;"/><!--MD5=[6bf901628a2c1a862b05cc073136d264]
link parents.父親からの影響 to parents.憧れと諦め--><path codeLine="65" d="M1706,89 C1706,105 1706,126.45 1706,143.53 " fill="none" id="parents.父親からの影響-to-parents.憧れと諦め" style="stroke:#A80036;stroke-width:1.0;"/><polygon fill="#A80036" points="1706,148.68,1710,139.68,1706,143.68,1702,139.68,1706,148.68" style="stroke:#A80036;stroke-width:1.0;"/><!--MD5=[e649a89c2b40805fb778b2aa49aed64f]
link type.野心 to ex.物理学者--><path codeLine="96" d="M309.22,89.04 C321.74,105.02 337.62,127.27 348,149 C367.64,190.14 380.27,241.79 386.75,273.19 " fill="none" id="type.野心-to-ex.物理学者" style="stroke:#A80036;stroke-width:1.0;"/><polygon fill="#A80036" points="387.81,278.43,389.9296,268.8119,386.8102,273.531,382.0911,270.4116,387.81,278.43" style="stroke:#A80036;stroke-width:1.0;"/><!--MD5=[536b9b071c8a5949cd5908353677b0ac]
link type.自己中心的 to type.頑固--><!--MD5=[59dd5fc6fbc3a1b077a6caf111fefe56]
link type.自己中心的 to type.羞恥心--><!--MD5=[bd14269d94fbc1ee1cbffed331bd9df4]
link type.羞恥心 to type.より若い--><!--MD5=[6007ab110a926ebba21bd107ec8147e6]
link env.不満 to env.女性的要素からの圧力--><!--MD5=[2468c75953ad223985e1f1869a29a770]
link env.不満 to env.他者との接触の増加--><!--MD5=[e3b2f27c93e7c04a77a320a276939162]
link think.秘密主義 to think.伝統主義--><!--MD5=[32c9ee4bd65d79dab2c4405af26a0476]
link think.秘密主義 to think.理想主義--><!--MD5=[427857ee42362021f2544b10461869ae]
link think.理想主義 to think.逃避--><!--MD5=[3938378e64f4955febea89b93fca2d79]
link state.喪失 to state.空想--><!--MD5=[05b9fc896fc1e92a12d229a90587d1f0]
link state.喪失 to state.現実--><!--MD5=[af8238d0b57f0e41d587e9699cc73717]
link state.現実 to state.過去--><!--MD5=[c1a5cbb3fa6cb5b2b8464a4a984685a4]
link sexual.同性愛 to sexual.自己啓発--><!--MD5=[44b02108f4db488b83d487383b06e9f5]
link sexual.同性愛 to sexual.計画性--><!--MD5=[156e120c1eaf748291eb0e69fffb3829]
link type.頑固 to env.不満--><!--MD5=[3a38dbfd66551bdf912ffdb1a0a3ece7]
link env.女性的要素からの圧力 to think.秘密主義--><!--MD5=[e72bea2c184be54dcbd4913dad5de893]
link type.羞恥心 to state.喪失--><!--MD5=[d604f62d4476987ee724cb1d91860a3f]
link state.空想 to sexual.同性愛--><!--MD5=[4a0fc562a4505a96a187fb1d02263a94]
@startuml 00target

namespace type {
    class 自己中心的 
    class 頑固 
    class 防衛的
    class 濾過機能
    防衛的 - -> 濾過機能
    class 羞恥心
  
    class より若い

    class 野心
}

namespace 思考傾向 {
    class 伝統志向
}



namespace env {
    class 不満
    class 圧力下
  
    class 女性的要素からの圧力
    
    class 諦め
    圧力下 - -> 諦め
  
    class 他者との接触の増加
}

namespace think {
    class 秘密主義
    class 伝統主義
    class 理想主義
    class 逃避
}

namespace living {
    class 死
    class 充実
}

namespace state {
    class 喪失

    class 空想

    class 現実

    class 過去
}

namespace time {
    class 過去

    class 未来
}

namespace parents {
    class 母親からの影響
    class 母親からの影響の克服
    class 父親からの影響
    父親からの影響 - -> 憧れと諦め
    class 憧れと諦め
}

namespace towoman {
    class 軽蔑
}

namespace sexual {
    class 同性愛
    class 自己啓発 {
        恋愛に対する自己啓発
    }
    class 計画性 {
        恋愛に値する計画性
    }
}


namespace freedom {
    class 闘争
    class 服従
}

namespace commonsense {
    class 非常識
    class 常識的
}

namespace ex {
    class 物理学者
    type.野心 - - -> 物理学者
}

@enduml

PlantUML version 1.2021.15(Wed Dec 01 01:45:34 JST 2021)
(GPL source distribution)
Java Runtime: OpenJDK Runtime Environment
JVM: OpenJDK 64-Bit Server VM
Default Encoding: UTF-8
Language: ja
Country: JP
--></g></svg>