<?xml version="1.0" encoding="UTF-8" standalone="no"?><svg xmlns="http://www.w3.org/2000/svg" xmlns:xlink="http://www.w3.org/1999/xlink" contentScriptType="application/ecmascript" contentStyleType="text/css" height="567px" preserveAspectRatio="none" style="width:3067px;height:567px;background:#FFFFFF;" version="1.1" viewBox="0 0 3067 567" width="3067px" zoomAndPan="magnify"><defs><filter height="300%" id="fgdjuq77mlwwa" width="300%" x="-1" y="-1"><feGaussianBlur result="blurOut" stdDeviation="2.0"/><feColorMatrix in="blurOut" result="blurOut2" type="matrix" values="0 0 0 0 0 0 0 0 0 0 0 0 0 0 0 0 0 0 .4 0"/><feOffset dx="4.0" dy="4.0" in="blurOut2" result="blurOut3"/><feBlend in="SourceGraphic" in2="blurOut3" mode="normal"/></filter></defs><g><!--MD5=[3d755a8e79ee953feccbf2e6a25fa9eb]
cluster type--><polygon fill="#FFFFFF" filter="url(#fgdjuq77mlwwa)" points="16,6,53,6,60,28.4883,425,28.4883,425,232.5,16,232.5,16,6" style="stroke:#000000;stroke-width:1.5;"/><line style="stroke:#000000;stroke-width:1.5;" x1="16" x2="60" y1="28.4883" y2="28.4883"/><text fill="#000000" font-family="sans-serif" font-size="14" font-weight="bold" lengthAdjust="spacing" textLength="31" x="20" y="21.5352">type</text><!--MD5=[3ac5bc1d849fdebadb9fc5e0e21f6cf5]
cluster 思考傾向--><polygon fill="#FFFFFF" filter="url(#fgdjuq77mlwwa)" points="1468,6,1530,6,1537,28.4883,1580,28.4883,1580,105,1468,105,1468,6" style="stroke:#000000;stroke-width:1.5;"/><line style="stroke:#000000;stroke-width:1.5;" x1="1468" x2="1537" y1="28.4883" y2="28.4883"/><text fill="#000000" font-family="sans-serif" font-size="14" font-weight="bold" lengthAdjust="spacing" textLength="56" x="1472" y="21.5352">思考傾向</text><!--MD5=[a5f6d7e9f88b7365548164145cca9219]
cluster env--><polygon fill="#FFFFFF" filter="url(#fgdjuq77mlwwa)" points="449,6,480,6,487,28.4883,827,28.4883,827,232.5,449,232.5,449,6" style="stroke:#000000;stroke-width:1.5;"/><line style="stroke:#000000;stroke-width:1.5;" x1="449" x2="487" y1="28.4883" y2="28.4883"/><text fill="#000000" font-family="sans-serif" font-size="14" font-weight="bold" lengthAdjust="spacing" textLength="25" x="453" y="21.5352">env</text><!--MD5=[24975937ae95dc6e3fd29564a246eb2e]
cluster think--><polygon fill="#FFFFFF" filter="url(#fgdjuq77mlwwa)" points="1604,6,1648,6,1655,28.4883,1831,28.4883,1831,105,1604,105,1604,6" style="stroke:#000000;stroke-width:1.5;"/><line style="stroke:#000000;stroke-width:1.5;" x1="1604" x2="1655" y1="28.4883" y2="28.4883"/><text fill="#000000" font-family="sans-serif" font-size="14" font-weight="bold" lengthAdjust="spacing" textLength="38" x="1608" y="21.5352">think</text><!--MD5=[d63a90b188f4c70d363d464b00892cb4]
cluster living--><polygon fill="#FFFFFF" filter="url(#fgdjuq77mlwwa)" points="1855,6,1902,6,1909,28.4883,2022,28.4883,2022,105,1855,105,1855,6" style="stroke:#000000;stroke-width:1.5;"/><line style="stroke:#000000;stroke-width:1.5;" x1="1855" x2="1909" y1="28.4883" y2="28.4883"/><text fill="#000000" font-family="sans-serif" font-size="14" font-weight="bold" lengthAdjust="spacing" textLength="41" x="1859" y="21.5352">living</text><!--MD5=[75ea3bd801f35bf9c6563570d027214a]
cluster state--><polygon fill="#FFFFFF" filter="url(#fgdjuq77mlwwa)" points="858,461,900,461,907,483.4883,946,483.4883,946,560,858,560,858,461" style="stroke:#000000;stroke-width:1.5;"/><line style="stroke:#000000;stroke-width:1.5;" x1="858" x2="907" y1="483.4883" y2="483.4883"/><text fill="#000000" font-family="sans-serif" font-size="14" font-weight="bold" lengthAdjust="spacing" textLength="36" x="862" y="476.5352">state</text><!--MD5=[3dab47d3fc3e186ff10f67819eb99ff8]
cluster time--><polygon fill="#FFFFFF" filter="url(#fgdjuq77mlwwa)" points="2046,6,2085,6,2092,28.4883,2225,28.4883,2225,105,2046,105,2046,6" style="stroke:#000000;stroke-width:1.5;"/><line style="stroke:#000000;stroke-width:1.5;" x1="2046" x2="2092" y1="28.4883" y2="28.4883"/><text fill="#000000" font-family="sans-serif" font-size="14" font-weight="bold" lengthAdjust="spacing" textLength="33" x="2050" y="21.5352">time</text><!--MD5=[88fa2f93c14291d48ff88be1aa3b6619]
cluster parents--><polygon fill="#FFFFFF" filter="url(#fgdjuq77mlwwa)" points="2249,6,2309,6,2316,28.4883,2735,28.4883,2735,232.5,2249,232.5,2249,6" style="stroke:#000000;stroke-width:1.5;"/><line style="stroke:#000000;stroke-width:1.5;" x1="2249" x2="2316" y1="28.4883" y2="28.4883"/><text fill="#000000" font-family="sans-serif" font-size="14" font-weight="bold" lengthAdjust="spacing" textLength="54" x="2253" y="21.5352">parents</text><!--MD5=[d997e4a7cbe3f85cf7bb1498fc1fda56]
cluster towoman--><polygon fill="#FFFFFF" filter="url(#fgdjuq77mlwwa)" points="2759,6,2832,6,2839,28.4883,2847,28.4883,2847,105,2759,105,2759,6" style="stroke:#000000;stroke-width:1.5;"/><line style="stroke:#000000;stroke-width:1.5;" x1="2759" x2="2839" y1="28.4883" y2="28.4883"/><text fill="#000000" font-family="sans-serif" font-size="14" font-weight="bold" lengthAdjust="spacing" textLength="67" x="2763" y="21.5352">towoman</text><!--MD5=[f5653ff7b3e7f0e91fa6f0a63a0f7584]
cluster sexual--><polygon fill="#FFFFFF" filter="url(#fgdjuq77mlwwa)" points="1018,264.5,1070,264.5,1077,286.9883,1457,286.9883,1457,392.5,1018,392.5,1018,264.5" style="stroke:#000000;stroke-width:1.5;"/><line style="stroke:#000000;stroke-width:1.5;" x1="1018" x2="1077" y1="286.9883" y2="286.9883"/><text fill="#000000" font-family="sans-serif" font-size="14" font-weight="bold" lengthAdjust="spacing" textLength="46" x="1022" y="280.0352">sexual</text><!--MD5=[7d6847f696e7bb74234bd2651e61af1d]
cluster freedom--><polygon fill="#FFFFFF" filter="url(#fgdjuq77mlwwa)" points="2871,6,2937,6,2944,28.4883,3050,28.4883,3050,105,2871,105,2871,6" style="stroke:#000000;stroke-width:1.5;"/><line style="stroke:#000000;stroke-width:1.5;" x1="2871" x2="2944" y1="28.4883" y2="28.4883"/><text fill="#000000" font-family="sans-serif" font-size="14" font-weight="bold" lengthAdjust="spacing" textLength="60" x="2875" y="21.5352">freedom</text><!--MD5=[6f5ca303b11f66b6f76d1da6c5fb2617]
cluster ex--><polygon fill="#FFFFFF" filter="url(#fgdjuq77mlwwa)" points="327,279,349,279,356,301.4883,439,301.4883,439,378,327,378,327,279" style="stroke:#000000;stroke-width:1.5;"/><line style="stroke:#000000;stroke-width:1.5;" x1="327" x2="356" y1="301.4883" y2="301.4883"/><text fill="#000000" font-family="sans-serif" font-size="14" font-weight="bold" lengthAdjust="spacing" textLength="16" x="331" y="294.5352">ex</text><!--MD5=[dbc067f70f3795a5b04036b866ba55ba]
class type.自己中心的--><rect codeLine="3" fill="#FEFECE" filter="url(#fgdjuq77mlwwa)" height="48" id="type.自己中心的" style="stroke:#A80036;stroke-width:1.5;" width="92" x="135" y="41"/><ellipse cx="150" cy="57" fill="#ADD1B2" rx="11" ry="11" style="stroke:#A80036;stroke-width:1.0;"/><path d="M152.4731,63.1431 Q151.8921,63.4419 151.2529,63.5913 Q150.6138,63.7407 149.9082,63.7407 Q147.4014,63.7407 146.0815,62.0889 Q144.7617,60.437 144.7617,57.3159 Q144.7617,54.1865 146.0815,52.5347 Q147.4014,50.8828 149.9082,50.8828 Q150.6138,50.8828 151.2612,51.0322 Q151.9087,51.1816 152.4731,51.4805 L152.4731,54.2031 Q151.8423,53.6221 151.2488,53.3523 Q150.6553,53.0825 150.0244,53.0825 Q148.6797,53.0825 147.9949,54.1492 Q147.3101,55.2158 147.3101,57.3159 Q147.3101,59.4077 147.9949,60.4744 Q148.6797,61.541 150.0244,61.541 Q150.6553,61.541 151.2488,61.2712 Q151.8423,61.0015 152.4731,60.4204 Z " fill="#000000"/><text fill="#000000" font-family="sans-serif" font-size="12" lengthAdjust="spacing" textLength="60" x="164" y="61.5352">自己中心的</text><line style="stroke:#A80036;stroke-width:1.5;" x1="136" x2="226" y1="73" y2="73"/><line style="stroke:#A80036;stroke-width:1.5;" x1="136" x2="226" y1="81" y2="81"/><!--MD5=[84dec386c9d1977dcbb9f0451dd4ac42]
class type.頑固--><rect codeLine="4" fill="#FEFECE" filter="url(#fgdjuq77mlwwa)" height="48" id="type.頑固" style="stroke:#A80036;stroke-width:1.5;" width="56" x="353" y="41"/><ellipse cx="368" cy="57" fill="#ADD1B2" rx="11" ry="11" style="stroke:#A80036;stroke-width:1.0;"/><path d="M370.4731,63.1431 Q369.8921,63.4419 369.2529,63.5913 Q368.6138,63.7407 367.9082,63.7407 Q365.4014,63.7407 364.0815,62.0889 Q362.7617,60.437 362.7617,57.3159 Q362.7617,54.1865 364.0815,52.5347 Q365.4014,50.8828 367.9082,50.8828 Q368.6138,50.8828 369.2612,51.0322 Q369.9087,51.1816 370.4731,51.4805 L370.4731,54.2031 Q369.8423,53.6221 369.2488,53.3523 Q368.6553,53.0825 368.0244,53.0825 Q366.6797,53.0825 365.9949,54.1492 Q365.3101,55.2158 365.3101,57.3159 Q365.3101,59.4077 365.9949,60.4744 Q366.6797,61.541 368.0244,61.541 Q368.6553,61.541 369.2488,61.2712 Q369.8423,61.0015 370.4731,60.4204 Z " fill="#000000"/><text fill="#000000" font-family="sans-serif" font-size="12" lengthAdjust="spacing" textLength="24" x="382" y="61.5352">頑固</text><line style="stroke:#A80036;stroke-width:1.5;" x1="354" x2="408" y1="73" y2="73"/><line style="stroke:#A80036;stroke-width:1.5;" x1="354" x2="408" y1="81" y2="81"/><!--MD5=[d69c1dce711abfc2d0d1d2734420493a]
class type.防衛的--><rect codeLine="5" fill="#FEFECE" filter="url(#fgdjuq77mlwwa)" height="48" id="type.防衛的" style="stroke:#A80036;stroke-width:1.5;" width="68" x="32" y="41"/><ellipse cx="47" cy="57" fill="#ADD1B2" rx="11" ry="11" style="stroke:#A80036;stroke-width:1.0;"/><path d="M49.4731,63.1431 Q48.8921,63.4419 48.2529,63.5913 Q47.6138,63.7407 46.9082,63.7407 Q44.4014,63.7407 43.0815,62.0889 Q41.7617,60.437 41.7617,57.3159 Q41.7617,54.1865 43.0815,52.5347 Q44.4014,50.8828 46.9082,50.8828 Q47.6138,50.8828 48.2612,51.0322 Q48.9087,51.1816 49.4731,51.4805 L49.4731,54.2031 Q48.8423,53.6221 48.2488,53.3523 Q47.6553,53.0825 47.0244,53.0825 Q45.6797,53.0825 44.9949,54.1492 Q44.3101,55.2158 44.3101,57.3159 Q44.3101,59.4077 44.9949,60.4744 Q45.6797,61.541 47.0244,61.541 Q47.6553,61.541 48.2488,61.2712 Q48.8423,61.0015 49.4731,60.4204 Z " fill="#000000"/><text fill="#000000" font-family="sans-serif" font-size="12" lengthAdjust="spacing" textLength="36" x="61" y="61.5352">防衛的</text><line style="stroke:#A80036;stroke-width:1.5;" x1="33" x2="99" y1="73" y2="73"/><line style="stroke:#A80036;stroke-width:1.5;" x1="33" x2="99" y1="81" y2="81"/><!--MD5=[5d5fe8cc501f07ed9fb46b5587e42046]
class type.濾過機能--><rect codeLine="6" fill="#FEFECE" filter="url(#fgdjuq77mlwwa)" height="48" id="type.濾過機能" style="stroke:#A80036;stroke-width:1.5;" width="80" x="32" y="168.5"/><ellipse cx="47" cy="184.5" fill="#ADD1B2" rx="11" ry="11" style="stroke:#A80036;stroke-width:1.0;"/><path d="M49.4731,190.6431 Q48.8921,190.9419 48.2529,191.0913 Q47.6138,191.2407 46.9082,191.2407 Q44.4014,191.2407 43.0815,189.5889 Q41.7617,187.937 41.7617,184.8159 Q41.7617,181.6865 43.0815,180.0347 Q44.4014,178.3828 46.9082,178.3828 Q47.6138,178.3828 48.2612,178.5322 Q48.9087,178.6816 49.4731,178.9805 L49.4731,181.7031 Q48.8423,181.1221 48.2488,180.8523 Q47.6553,180.5825 47.0244,180.5825 Q45.6797,180.5825 44.9949,181.6492 Q44.3101,182.7158 44.3101,184.8159 Q44.3101,186.9077 44.9949,187.9744 Q45.6797,189.041 47.0244,189.041 Q47.6553,189.041 48.2488,188.7712 Q48.8423,188.5015 49.4731,187.9204 Z " fill="#000000"/><text fill="#000000" font-family="sans-serif" font-size="12" lengthAdjust="spacing" textLength="48" x="61" y="189.0352">濾過機能</text><line style="stroke:#A80036;stroke-width:1.5;" x1="33" x2="111" y1="200.5" y2="200.5"/><line style="stroke:#A80036;stroke-width:1.5;" x1="33" x2="111" y1="208.5" y2="208.5"/><!--MD5=[af35fff8827c1ac27b9b4609b21b259b]
class type.羞恥心--><rect codeLine="8" fill="#FEFECE" filter="url(#fgdjuq77mlwwa)" height="48" id="type.羞恥心" style="stroke:#A80036;stroke-width:1.5;" width="68" x="147" y="168.5"/><ellipse cx="162" cy="184.5" fill="#ADD1B2" rx="11" ry="11" style="stroke:#A80036;stroke-width:1.0;"/><path d="M164.4731,190.6431 Q163.8921,190.9419 163.2529,191.0913 Q162.6138,191.2407 161.9082,191.2407 Q159.4014,191.2407 158.0815,189.5889 Q156.7617,187.937 156.7617,184.8159 Q156.7617,181.6865 158.0815,180.0347 Q159.4014,178.3828 161.9082,178.3828 Q162.6138,178.3828 163.2612,178.5322 Q163.9087,178.6816 164.4731,178.9805 L164.4731,181.7031 Q163.8423,181.1221 163.2488,180.8523 Q162.6553,180.5825 162.0244,180.5825 Q160.6797,180.5825 159.9949,181.6492 Q159.3101,182.7158 159.3101,184.8159 Q159.3101,186.9077 159.9949,187.9744 Q160.6797,189.041 162.0244,189.041 Q162.6553,189.041 163.2488,188.7712 Q163.8423,188.5015 164.4731,187.9204 Z " fill="#000000"/><text fill="#000000" font-family="sans-serif" font-size="12" lengthAdjust="spacing" textLength="36" x="176" y="189.0352">羞恥心</text><line style="stroke:#A80036;stroke-width:1.5;" x1="148" x2="214" y1="200.5" y2="200.5"/><line style="stroke:#A80036;stroke-width:1.5;" x1="148" x2="214" y1="208.5" y2="208.5"/><!--MD5=[3a61ae0ac77faa8e06db7ce7cfefbad0]
class type.より若い--><rect codeLine="10" fill="#FEFECE" filter="url(#fgdjuq77mlwwa)" height="48" id="type.より若い" style="stroke:#A80036;stroke-width:1.5;" width="80" x="250" y="168.5"/><ellipse cx="265" cy="184.5" fill="#ADD1B2" rx="11" ry="11" style="stroke:#A80036;stroke-width:1.0;"/><path d="M267.4731,190.6431 Q266.8921,190.9419 266.2529,191.0913 Q265.6138,191.2407 264.9082,191.2407 Q262.4014,191.2407 261.0815,189.5889 Q259.7617,187.937 259.7617,184.8159 Q259.7617,181.6865 261.0815,180.0347 Q262.4014,178.3828 264.9082,178.3828 Q265.6138,178.3828 266.2612,178.5322 Q266.9087,178.6816 267.4731,178.9805 L267.4731,181.7031 Q266.8423,181.1221 266.2488,180.8523 Q265.6553,180.5825 265.0244,180.5825 Q263.6797,180.5825 262.9949,181.6492 Q262.3101,182.7158 262.3101,184.8159 Q262.3101,186.9077 262.9949,187.9744 Q263.6797,189.041 265.0244,189.041 Q265.6553,189.041 266.2488,188.7712 Q266.8423,188.5015 267.4731,187.9204 Z " fill="#000000"/><text fill="#000000" font-family="sans-serif" font-size="12" lengthAdjust="spacing" textLength="48" x="279" y="189.0352">より若い</text><line style="stroke:#A80036;stroke-width:1.5;" x1="251" x2="329" y1="200.5" y2="200.5"/><line style="stroke:#A80036;stroke-width:1.5;" x1="251" x2="329" y1="208.5" y2="208.5"/><!--MD5=[a0fbafcc919696d1d2a17016666dc09b]
class type.野心--><rect codeLine="12" fill="#FEFECE" filter="url(#fgdjuq77mlwwa)" height="48" id="type.野心" style="stroke:#A80036;stroke-width:1.5;" width="56" x="262" y="41"/><ellipse cx="277" cy="57" fill="#ADD1B2" rx="11" ry="11" style="stroke:#A80036;stroke-width:1.0;"/><path d="M279.4731,63.1431 Q278.8921,63.4419 278.2529,63.5913 Q277.6138,63.7407 276.9082,63.7407 Q274.4014,63.7407 273.0815,62.0889 Q271.7617,60.437 271.7617,57.3159 Q271.7617,54.1865 273.0815,52.5347 Q274.4014,50.8828 276.9082,50.8828 Q277.6138,50.8828 278.2612,51.0322 Q278.9087,51.1816 279.4731,51.4805 L279.4731,54.2031 Q278.8423,53.6221 278.2488,53.3523 Q277.6553,53.0825 277.0244,53.0825 Q275.6797,53.0825 274.9949,54.1492 Q274.3101,55.2158 274.3101,57.3159 Q274.3101,59.4077 274.9949,60.4744 Q275.6797,61.541 277.0244,61.541 Q277.6553,61.541 278.2488,61.2712 Q278.8423,61.0015 279.4731,60.4204 Z " fill="#000000"/><text fill="#000000" font-family="sans-serif" font-size="12" lengthAdjust="spacing" textLength="24" x="291" y="61.5352">野心</text><line style="stroke:#A80036;stroke-width:1.5;" x1="263" x2="317" y1="73" y2="73"/><line style="stroke:#A80036;stroke-width:1.5;" x1="263" x2="317" y1="81" y2="81"/><!--MD5=[f91ed0fda49237470cff63576de05b37]
class 思考傾向.伝統志向--><rect codeLine="16" fill="#FEFECE" filter="url(#fgdjuq77mlwwa)" height="48" id="思考傾向.伝統志向" style="stroke:#A80036;stroke-width:1.5;" width="80" x="1484" y="41"/><ellipse cx="1499" cy="57" fill="#ADD1B2" rx="11" ry="11" style="stroke:#A80036;stroke-width:1.0;"/><path d="M1501.4731,63.1431 Q1500.8921,63.4419 1500.2529,63.5913 Q1499.6138,63.7407 1498.9082,63.7407 Q1496.4014,63.7407 1495.0815,62.0889 Q1493.7617,60.437 1493.7617,57.3159 Q1493.7617,54.1865 1495.0815,52.5347 Q1496.4014,50.8828 1498.9082,50.8828 Q1499.6138,50.8828 1500.2612,51.0322 Q1500.9087,51.1816 1501.4731,51.4805 L1501.4731,54.2031 Q1500.8423,53.6221 1500.2488,53.3523 Q1499.6553,53.0825 1499.0244,53.0825 Q1497.6797,53.0825 1496.9949,54.1492 Q1496.3101,55.2158 1496.3101,57.3159 Q1496.3101,59.4077 1496.9949,60.4744 Q1497.6797,61.541 1499.0244,61.541 Q1499.6553,61.541 1500.2488,61.2712 Q1500.8423,61.0015 1501.4731,60.4204 Z " fill="#000000"/><text fill="#000000" font-family="sans-serif" font-size="12" lengthAdjust="spacing" textLength="48" x="1513" y="61.5352">伝統志向</text><line style="stroke:#A80036;stroke-width:1.5;" x1="1485" x2="1563" y1="73" y2="73"/><line style="stroke:#A80036;stroke-width:1.5;" x1="1485" x2="1563" y1="81" y2="81"/><!--MD5=[b337f6de976b78452eba931cf2ed514e]
class env.不満--><rect codeLine="20" fill="#FEFECE" filter="url(#fgdjuq77mlwwa)" height="48" id="env.不満" style="stroke:#A80036;stroke-width:1.5;" width="56" x="568" y="41"/><ellipse cx="583" cy="57" fill="#ADD1B2" rx="11" ry="11" style="stroke:#A80036;stroke-width:1.0;"/><path d="M585.4731,63.1431 Q584.8921,63.4419 584.2529,63.5913 Q583.6138,63.7407 582.9082,63.7407 Q580.4014,63.7407 579.0815,62.0889 Q577.7617,60.437 577.7617,57.3159 Q577.7617,54.1865 579.0815,52.5347 Q580.4014,50.8828 582.9082,50.8828 Q583.6138,50.8828 584.2612,51.0322 Q584.9087,51.1816 585.4731,51.4805 L585.4731,54.2031 Q584.8423,53.6221 584.2488,53.3523 Q583.6553,53.0825 583.0244,53.0825 Q581.6797,53.0825 580.9949,54.1492 Q580.3101,55.2158 580.3101,57.3159 Q580.3101,59.4077 580.9949,60.4744 Q581.6797,61.541 583.0244,61.541 Q583.6553,61.541 584.2488,61.2712 Q584.8423,61.0015 585.4731,60.4204 Z " fill="#000000"/><text fill="#000000" font-family="sans-serif" font-size="12" lengthAdjust="spacing" textLength="24" x="597" y="61.5352">不満</text><line style="stroke:#A80036;stroke-width:1.5;" x1="569" x2="623" y1="73" y2="73"/><line style="stroke:#A80036;stroke-width:1.5;" x1="569" x2="623" y1="81" y2="81"/><!--MD5=[6dbbccf62dd0eb5d0bae1abab68992fa]
class env.圧力下--><rect codeLine="21" fill="#FEFECE" filter="url(#fgdjuq77mlwwa)" height="48" id="env.圧力下" style="stroke:#A80036;stroke-width:1.5;" width="68" x="465" y="41"/><ellipse cx="480" cy="57" fill="#ADD1B2" rx="11" ry="11" style="stroke:#A80036;stroke-width:1.0;"/><path d="M482.4731,63.1431 Q481.8921,63.4419 481.2529,63.5913 Q480.6138,63.7407 479.9082,63.7407 Q477.4014,63.7407 476.0815,62.0889 Q474.7617,60.437 474.7617,57.3159 Q474.7617,54.1865 476.0815,52.5347 Q477.4014,50.8828 479.9082,50.8828 Q480.6138,50.8828 481.2612,51.0322 Q481.9087,51.1816 482.4731,51.4805 L482.4731,54.2031 Q481.8423,53.6221 481.2488,53.3523 Q480.6553,53.0825 480.0244,53.0825 Q478.6797,53.0825 477.9949,54.1492 Q477.3101,55.2158 477.3101,57.3159 Q477.3101,59.4077 477.9949,60.4744 Q478.6797,61.541 480.0244,61.541 Q480.6553,61.541 481.2488,61.2712 Q481.8423,61.0015 482.4731,60.4204 Z " fill="#000000"/><text fill="#000000" font-family="sans-serif" font-size="12" lengthAdjust="spacing" textLength="36" x="494" y="61.5352">圧力下</text><line style="stroke:#A80036;stroke-width:1.5;" x1="466" x2="532" y1="73" y2="73"/><line style="stroke:#A80036;stroke-width:1.5;" x1="466" x2="532" y1="81" y2="81"/><!--MD5=[fb4c72aeb41dd212a15cf732f22aff08]
class env.女性的要素からの圧力--><rect codeLine="23" fill="#FEFECE" filter="url(#fgdjuq77mlwwa)" height="48" id="env.女性的要素からの圧力" style="stroke:#A80036;stroke-width:1.5;" width="152" x="659" y="41"/><ellipse cx="674" cy="57" fill="#ADD1B2" rx="11" ry="11" style="stroke:#A80036;stroke-width:1.0;"/><path d="M676.4731,63.1431 Q675.8921,63.4419 675.2529,63.5913 Q674.6138,63.7407 673.9082,63.7407 Q671.4014,63.7407 670.0815,62.0889 Q668.7617,60.437 668.7617,57.3159 Q668.7617,54.1865 670.0815,52.5347 Q671.4014,50.8828 673.9082,50.8828 Q674.6138,50.8828 675.2612,51.0322 Q675.9087,51.1816 676.4731,51.4805 L676.4731,54.2031 Q675.8423,53.6221 675.2488,53.3523 Q674.6553,53.0825 674.0244,53.0825 Q672.6797,53.0825 671.9949,54.1492 Q671.3101,55.2158 671.3101,57.3159 Q671.3101,59.4077 671.9949,60.4744 Q672.6797,61.541 674.0244,61.541 Q674.6553,61.541 675.2488,61.2712 Q675.8423,61.0015 676.4731,60.4204 Z " fill="#000000"/><text fill="#000000" font-family="sans-serif" font-size="12" lengthAdjust="spacing" textLength="120" x="688" y="61.5352">女性的要素からの圧力</text><line style="stroke:#A80036;stroke-width:1.5;" x1="660" x2="810" y1="73" y2="73"/><line style="stroke:#A80036;stroke-width:1.5;" x1="660" x2="810" y1="81" y2="81"/><!--MD5=[186806f0922ff661b6b52ac89de76293]
class env.諦め--><rect codeLine="25" fill="#FEFECE" filter="url(#fgdjuq77mlwwa)" height="48" id="env.諦め" style="stroke:#A80036;stroke-width:1.5;" width="56" x="468" y="168.5"/><ellipse cx="483" cy="184.5" fill="#ADD1B2" rx="11" ry="11" style="stroke:#A80036;stroke-width:1.0;"/><path d="M485.4731,190.6431 Q484.8921,190.9419 484.2529,191.0913 Q483.6138,191.2407 482.9082,191.2407 Q480.4014,191.2407 479.0815,189.5889 Q477.7617,187.937 477.7617,184.8159 Q477.7617,181.6865 479.0815,180.0347 Q480.4014,178.3828 482.9082,178.3828 Q483.6138,178.3828 484.2612,178.5322 Q484.9087,178.6816 485.4731,178.9805 L485.4731,181.7031 Q484.8423,181.1221 484.2488,180.8523 Q483.6553,180.5825 483.0244,180.5825 Q481.6797,180.5825 480.9949,181.6492 Q480.3101,182.7158 480.3101,184.8159 Q480.3101,186.9077 480.9949,187.9744 Q481.6797,189.041 483.0244,189.041 Q483.6553,189.041 484.2488,188.7712 Q484.8423,188.5015 485.4731,187.9204 Z " fill="#000000"/><text fill="#000000" font-family="sans-serif" font-size="12" lengthAdjust="spacing" textLength="24" x="497" y="189.0352">諦め</text><line style="stroke:#A80036;stroke-width:1.5;" x1="469" x2="523" y1="200.5" y2="200.5"/><line style="stroke:#A80036;stroke-width:1.5;" x1="469" x2="523" y1="208.5" y2="208.5"/><!--MD5=[c6b2ce260a9bc64887e3e62bdd14a8ec]
class env.他者との接触の増加--><rect codeLine="28" fill="#FEFECE" filter="url(#fgdjuq77mlwwa)" height="48" id="env.他者との接触の増加" style="stroke:#A80036;stroke-width:1.5;" width="140" x="559" y="168.5"/><ellipse cx="574" cy="184.5" fill="#ADD1B2" rx="11" ry="11" style="stroke:#A80036;stroke-width:1.0;"/><path d="M576.4731,190.6431 Q575.8921,190.9419 575.2529,191.0913 Q574.6138,191.2407 573.9082,191.2407 Q571.4014,191.2407 570.0815,189.5889 Q568.7617,187.937 568.7617,184.8159 Q568.7617,181.6865 570.0815,180.0347 Q571.4014,178.3828 573.9082,178.3828 Q574.6138,178.3828 575.2612,178.5322 Q575.9087,178.6816 576.4731,178.9805 L576.4731,181.7031 Q575.8423,181.1221 575.2488,180.8523 Q574.6553,180.5825 574.0244,180.5825 Q572.6797,180.5825 571.9949,181.6492 Q571.3101,182.7158 571.3101,184.8159 Q571.3101,186.9077 571.9949,187.9744 Q572.6797,189.041 574.0244,189.041 Q574.6553,189.041 575.2488,188.7712 Q575.8423,188.5015 576.4731,187.9204 Z " fill="#000000"/><text fill="#000000" font-family="sans-serif" font-size="12" lengthAdjust="spacing" textLength="108" x="588" y="189.0352">他者との接触の増加</text><line style="stroke:#A80036;stroke-width:1.5;" x1="560" x2="698" y1="200.5" y2="200.5"/><line style="stroke:#A80036;stroke-width:1.5;" x1="560" x2="698" y1="208.5" y2="208.5"/><!--MD5=[f67090f2d05e59c8cd2106ae3b8ec4a9]
class think.秘密主義--><rect codeLine="32" fill="#FEFECE" filter="url(#fgdjuq77mlwwa)" height="48" id="think.秘密主義" style="stroke:#A80036;stroke-width:1.5;" width="80" x="1735" y="41"/><ellipse cx="1750" cy="57" fill="#ADD1B2" rx="11" ry="11" style="stroke:#A80036;stroke-width:1.0;"/><path d="M1752.4731,63.1431 Q1751.8921,63.4419 1751.2529,63.5913 Q1750.6138,63.7407 1749.9082,63.7407 Q1747.4014,63.7407 1746.0815,62.0889 Q1744.7617,60.437 1744.7617,57.3159 Q1744.7617,54.1865 1746.0815,52.5347 Q1747.4014,50.8828 1749.9082,50.8828 Q1750.6138,50.8828 1751.2612,51.0322 Q1751.9087,51.1816 1752.4731,51.4805 L1752.4731,54.2031 Q1751.8423,53.6221 1751.2488,53.3523 Q1750.6553,53.0825 1750.0244,53.0825 Q1748.6797,53.0825 1747.9949,54.1492 Q1747.3101,55.2158 1747.3101,57.3159 Q1747.3101,59.4077 1747.9949,60.4744 Q1748.6797,61.541 1750.0244,61.541 Q1750.6553,61.541 1751.2488,61.2712 Q1751.8423,61.0015 1752.4731,60.4204 Z " fill="#000000"/><text fill="#000000" font-family="sans-serif" font-size="12" lengthAdjust="spacing" textLength="48" x="1764" y="61.5352">秘密主義</text><line style="stroke:#A80036;stroke-width:1.5;" x1="1736" x2="1814" y1="73" y2="73"/><line style="stroke:#A80036;stroke-width:1.5;" x1="1736" x2="1814" y1="81" y2="81"/><!--MD5=[9b9b31b741db9cc35ec471c2b68a55ac]
class think.伝統主義--><rect codeLine="33" fill="#FEFECE" filter="url(#fgdjuq77mlwwa)" height="48" id="think.伝統主義" style="stroke:#A80036;stroke-width:1.5;" width="80" x="1620" y="41"/><ellipse cx="1635" cy="57" fill="#ADD1B2" rx="11" ry="11" style="stroke:#A80036;stroke-width:1.0;"/><path d="M1637.4731,63.1431 Q1636.8921,63.4419 1636.2529,63.5913 Q1635.6138,63.7407 1634.9082,63.7407 Q1632.4014,63.7407 1631.0815,62.0889 Q1629.7617,60.437 1629.7617,57.3159 Q1629.7617,54.1865 1631.0815,52.5347 Q1632.4014,50.8828 1634.9082,50.8828 Q1635.6138,50.8828 1636.2612,51.0322 Q1636.9087,51.1816 1637.4731,51.4805 L1637.4731,54.2031 Q1636.8423,53.6221 1636.2488,53.3523 Q1635.6553,53.0825 1635.0244,53.0825 Q1633.6797,53.0825 1632.9949,54.1492 Q1632.3101,55.2158 1632.3101,57.3159 Q1632.3101,59.4077 1632.9949,60.4744 Q1633.6797,61.541 1635.0244,61.541 Q1635.6553,61.541 1636.2488,61.2712 Q1636.8423,61.0015 1637.4731,60.4204 Z " fill="#000000"/><text fill="#000000" font-family="sans-serif" font-size="12" lengthAdjust="spacing" textLength="48" x="1649" y="61.5352">伝統主義</text><line style="stroke:#A80036;stroke-width:1.5;" x1="1621" x2="1699" y1="73" y2="73"/><line style="stroke:#A80036;stroke-width:1.5;" x1="1621" x2="1699" y1="81" y2="81"/><!--MD5=[be03a69dee268d605f6d6fbaa69865e7]
class living.死--><rect codeLine="37" fill="#FEFECE" filter="url(#fgdjuq77mlwwa)" height="48" id="living.死" style="stroke:#A80036;stroke-width:1.5;" width="44" x="1962" y="41"/><ellipse cx="1977" cy="57" fill="#ADD1B2" rx="11" ry="11" style="stroke:#A80036;stroke-width:1.0;"/><path d="M1979.4731,63.1431 Q1978.8921,63.4419 1978.2529,63.5913 Q1977.6138,63.7407 1976.9082,63.7407 Q1974.4014,63.7407 1973.0815,62.0889 Q1971.7617,60.437 1971.7617,57.3159 Q1971.7617,54.1865 1973.0815,52.5347 Q1974.4014,50.8828 1976.9082,50.8828 Q1977.6138,50.8828 1978.2612,51.0322 Q1978.9087,51.1816 1979.4731,51.4805 L1979.4731,54.2031 Q1978.8423,53.6221 1978.2488,53.3523 Q1977.6553,53.0825 1977.0244,53.0825 Q1975.6797,53.0825 1974.9949,54.1492 Q1974.3101,55.2158 1974.3101,57.3159 Q1974.3101,59.4077 1974.9949,60.4744 Q1975.6797,61.541 1977.0244,61.541 Q1977.6553,61.541 1978.2488,61.2712 Q1978.8423,61.0015 1979.4731,60.4204 Z " fill="#000000"/><text fill="#000000" font-family="sans-serif" font-size="12" lengthAdjust="spacing" textLength="12" x="1991" y="61.5352">死</text><line style="stroke:#A80036;stroke-width:1.5;" x1="1963" x2="2005" y1="73" y2="73"/><line style="stroke:#A80036;stroke-width:1.5;" x1="1963" x2="2005" y1="81" y2="81"/><!--MD5=[18cad1a8e596fd5472f250e718d823ca]
class living.充実--><rect codeLine="38" fill="#FEFECE" filter="url(#fgdjuq77mlwwa)" height="48" id="living.充実" style="stroke:#A80036;stroke-width:1.5;" width="56" x="1871" y="41"/><ellipse cx="1886" cy="57" fill="#ADD1B2" rx="11" ry="11" style="stroke:#A80036;stroke-width:1.0;"/><path d="M1888.4731,63.1431 Q1887.8921,63.4419 1887.2529,63.5913 Q1886.6138,63.7407 1885.9082,63.7407 Q1883.4014,63.7407 1882.0815,62.0889 Q1880.7617,60.437 1880.7617,57.3159 Q1880.7617,54.1865 1882.0815,52.5347 Q1883.4014,50.8828 1885.9082,50.8828 Q1886.6138,50.8828 1887.2612,51.0322 Q1887.9087,51.1816 1888.4731,51.4805 L1888.4731,54.2031 Q1887.8423,53.6221 1887.2488,53.3523 Q1886.6553,53.0825 1886.0244,53.0825 Q1884.6797,53.0825 1883.9949,54.1492 Q1883.3101,55.2158 1883.3101,57.3159 Q1883.3101,59.4077 1883.9949,60.4744 Q1884.6797,61.541 1886.0244,61.541 Q1886.6553,61.541 1887.2488,61.2712 Q1887.8423,61.0015 1888.4731,60.4204 Z " fill="#000000"/><text fill="#000000" font-family="sans-serif" font-size="12" lengthAdjust="spacing" textLength="24" x="1900" y="61.5352">充実</text><line style="stroke:#A80036;stroke-width:1.5;" x1="1872" x2="1926" y1="73" y2="73"/><line style="stroke:#A80036;stroke-width:1.5;" x1="1872" x2="1926" y1="81" y2="81"/><!--MD5=[e45ac958bfb7a40f67cd80ece99aeb6f]
class state.喪失--><rect codeLine="42" fill="#FEFECE" filter="url(#fgdjuq77mlwwa)" height="48" id="state.喪失" style="stroke:#A80036;stroke-width:1.5;" width="56" x="874" y="496"/><ellipse cx="889" cy="512" fill="#ADD1B2" rx="11" ry="11" style="stroke:#A80036;stroke-width:1.0;"/><path d="M891.4731,518.1431 Q890.8921,518.4419 890.2529,518.5913 Q889.6138,518.7407 888.9082,518.7407 Q886.4014,518.7407 885.0815,517.0889 Q883.7617,515.437 883.7617,512.3159 Q883.7617,509.1865 885.0815,507.5347 Q886.4014,505.8828 888.9082,505.8828 Q889.6138,505.8828 890.2612,506.0322 Q890.9087,506.1816 891.4731,506.4805 L891.4731,509.2031 Q890.8423,508.6221 890.2488,508.3523 Q889.6553,508.0825 889.0244,508.0825 Q887.6797,508.0825 886.9949,509.1492 Q886.3101,510.2158 886.3101,512.3159 Q886.3101,514.4077 886.9949,515.4744 Q887.6797,516.541 889.0244,516.541 Q889.6553,516.541 890.2488,516.2712 Q890.8423,516.0015 891.4731,515.4204 Z " fill="#000000"/><text fill="#000000" font-family="sans-serif" font-size="12" lengthAdjust="spacing" textLength="24" x="903" y="516.5352">喪失</text><line style="stroke:#A80036;stroke-width:1.5;" x1="875" x2="929" y1="528" y2="528"/><line style="stroke:#A80036;stroke-width:1.5;" x1="875" x2="929" y1="536" y2="536"/><!--MD5=[5e75cd6d72e3742fe767ff2275e248de]
class time.過去--><rect codeLine="46" fill="#FEFECE" filter="url(#fgdjuq77mlwwa)" height="48" id="time.過去" style="stroke:#A80036;stroke-width:1.5;" width="56" x="2153" y="41"/><ellipse cx="2168" cy="57" fill="#ADD1B2" rx="11" ry="11" style="stroke:#A80036;stroke-width:1.0;"/><path d="M2170.4731,63.1431 Q2169.8921,63.4419 2169.2529,63.5913 Q2168.6138,63.7407 2167.9082,63.7407 Q2165.4014,63.7407 2164.0815,62.0889 Q2162.7617,60.437 2162.7617,57.3159 Q2162.7617,54.1865 2164.0815,52.5347 Q2165.4014,50.8828 2167.9082,50.8828 Q2168.6138,50.8828 2169.2612,51.0322 Q2169.9087,51.1816 2170.4731,51.4805 L2170.4731,54.2031 Q2169.8423,53.6221 2169.2488,53.3523 Q2168.6553,53.0825 2168.0244,53.0825 Q2166.6797,53.0825 2165.9949,54.1492 Q2165.3101,55.2158 2165.3101,57.3159 Q2165.3101,59.4077 2165.9949,60.4744 Q2166.6797,61.541 2168.0244,61.541 Q2168.6553,61.541 2169.2488,61.2712 Q2169.8423,61.0015 2170.4731,60.4204 Z " fill="#000000"/><text fill="#000000" font-family="sans-serif" font-size="12" lengthAdjust="spacing" textLength="24" x="2182" y="61.5352">過去</text><line style="stroke:#A80036;stroke-width:1.5;" x1="2154" x2="2208" y1="73" y2="73"/><line style="stroke:#A80036;stroke-width:1.5;" x1="2154" x2="2208" y1="81" y2="81"/><!--MD5=[08d6c6fbd3c2d8e5bf03c190ac3da287]
class time.未来--><rect codeLine="48" fill="#FEFECE" filter="url(#fgdjuq77mlwwa)" height="48" id="time.未来" style="stroke:#A80036;stroke-width:1.5;" width="56" x="2062" y="41"/><ellipse cx="2077" cy="57" fill="#ADD1B2" rx="11" ry="11" style="stroke:#A80036;stroke-width:1.0;"/><path d="M2079.4731,63.1431 Q2078.8921,63.4419 2078.2529,63.5913 Q2077.6138,63.7407 2076.9082,63.7407 Q2074.4014,63.7407 2073.0815,62.0889 Q2071.7617,60.437 2071.7617,57.3159 Q2071.7617,54.1865 2073.0815,52.5347 Q2074.4014,50.8828 2076.9082,50.8828 Q2077.6138,50.8828 2078.2612,51.0322 Q2078.9087,51.1816 2079.4731,51.4805 L2079.4731,54.2031 Q2078.8423,53.6221 2078.2488,53.3523 Q2077.6553,53.0825 2077.0244,53.0825 Q2075.6797,53.0825 2074.9949,54.1492 Q2074.3101,55.2158 2074.3101,57.3159 Q2074.3101,59.4077 2074.9949,60.4744 Q2075.6797,61.541 2077.0244,61.541 Q2077.6553,61.541 2078.2488,61.2712 Q2078.8423,61.0015 2079.4731,60.4204 Z " fill="#000000"/><text fill="#000000" font-family="sans-serif" font-size="12" lengthAdjust="spacing" textLength="24" x="2091" y="61.5352">未来</text><line style="stroke:#A80036;stroke-width:1.5;" x1="2063" x2="2117" y1="73" y2="73"/><line style="stroke:#A80036;stroke-width:1.5;" x1="2063" x2="2117" y1="81" y2="81"/><!--MD5=[95c728fff8ee74ea59419b3a4da66ea3]
class parents.母親からの影響--><rect codeLine="52" fill="#FEFECE" filter="url(#fgdjuq77mlwwa)" height="48" id="parents.母親からの影響" style="stroke:#A80036;stroke-width:1.5;" width="116" x="2603" y="41"/><ellipse cx="2618" cy="57" fill="#ADD1B2" rx="11" ry="11" style="stroke:#A80036;stroke-width:1.0;"/><path d="M2620.4731,63.1431 Q2619.8921,63.4419 2619.2529,63.5913 Q2618.6138,63.7407 2617.9082,63.7407 Q2615.4014,63.7407 2614.0815,62.0889 Q2612.7617,60.437 2612.7617,57.3159 Q2612.7617,54.1865 2614.0815,52.5347 Q2615.4014,50.8828 2617.9082,50.8828 Q2618.6138,50.8828 2619.2612,51.0322 Q2619.9087,51.1816 2620.4731,51.4805 L2620.4731,54.2031 Q2619.8423,53.6221 2619.2488,53.3523 Q2618.6553,53.0825 2618.0244,53.0825 Q2616.6797,53.0825 2615.9949,54.1492 Q2615.3101,55.2158 2615.3101,57.3159 Q2615.3101,59.4077 2615.9949,60.4744 Q2616.6797,61.541 2618.0244,61.541 Q2618.6553,61.541 2619.2488,61.2712 Q2619.8423,61.0015 2620.4731,60.4204 Z " fill="#000000"/><text fill="#000000" font-family="sans-serif" font-size="12" lengthAdjust="spacing" textLength="84" x="2632" y="61.5352">母親からの影響</text><line style="stroke:#A80036;stroke-width:1.5;" x1="2604" x2="2718" y1="73" y2="73"/><line style="stroke:#A80036;stroke-width:1.5;" x1="2604" x2="2718" y1="81" y2="81"/><!--MD5=[3ece5616b20bc24d67c147e24668c060]
class parents.母親からの影響の克服--><rect codeLine="53" fill="#FEFECE" filter="url(#fgdjuq77mlwwa)" height="48" id="parents.母親からの影響の克服" style="stroke:#A80036;stroke-width:1.5;" width="152" x="2416" y="41"/><ellipse cx="2431" cy="57" fill="#ADD1B2" rx="11" ry="11" style="stroke:#A80036;stroke-width:1.0;"/><path d="M2433.4731,63.1431 Q2432.8921,63.4419 2432.2529,63.5913 Q2431.6138,63.7407 2430.9082,63.7407 Q2428.4014,63.7407 2427.0815,62.0889 Q2425.7617,60.437 2425.7617,57.3159 Q2425.7617,54.1865 2427.0815,52.5347 Q2428.4014,50.8828 2430.9082,50.8828 Q2431.6138,50.8828 2432.2612,51.0322 Q2432.9087,51.1816 2433.4731,51.4805 L2433.4731,54.2031 Q2432.8423,53.6221 2432.2488,53.3523 Q2431.6553,53.0825 2431.0244,53.0825 Q2429.6797,53.0825 2428.9949,54.1492 Q2428.3101,55.2158 2428.3101,57.3159 Q2428.3101,59.4077 2428.9949,60.4744 Q2429.6797,61.541 2431.0244,61.541 Q2431.6553,61.541 2432.2488,61.2712 Q2432.8423,61.0015 2433.4731,60.4204 Z " fill="#000000"/><text fill="#000000" font-family="sans-serif" font-size="12" lengthAdjust="spacing" textLength="120" x="2445" y="61.5352">母親からの影響の克服</text><line style="stroke:#A80036;stroke-width:1.5;" x1="2417" x2="2567" y1="73" y2="73"/><line style="stroke:#A80036;stroke-width:1.5;" x1="2417" x2="2567" y1="81" y2="81"/><!--MD5=[a9c19c57b80e7bb1f146470153448781]
class parents.父親からの影響--><rect codeLine="54" fill="#FEFECE" filter="url(#fgdjuq77mlwwa)" height="48" id="parents.父親からの影響" style="stroke:#A80036;stroke-width:1.5;" width="116" x="2265" y="41"/><ellipse cx="2280" cy="57" fill="#ADD1B2" rx="11" ry="11" style="stroke:#A80036;stroke-width:1.0;"/><path d="M2282.4731,63.1431 Q2281.8921,63.4419 2281.2529,63.5913 Q2280.6138,63.7407 2279.9082,63.7407 Q2277.4014,63.7407 2276.0815,62.0889 Q2274.7617,60.437 2274.7617,57.3159 Q2274.7617,54.1865 2276.0815,52.5347 Q2277.4014,50.8828 2279.9082,50.8828 Q2280.6138,50.8828 2281.2612,51.0322 Q2281.9087,51.1816 2282.4731,51.4805 L2282.4731,54.2031 Q2281.8423,53.6221 2281.2488,53.3523 Q2280.6553,53.0825 2280.0244,53.0825 Q2278.6797,53.0825 2277.9949,54.1492 Q2277.3101,55.2158 2277.3101,57.3159 Q2277.3101,59.4077 2277.9949,60.4744 Q2278.6797,61.541 2280.0244,61.541 Q2280.6553,61.541 2281.2488,61.2712 Q2281.8423,61.0015 2282.4731,60.4204 Z " fill="#000000"/><text fill="#000000" font-family="sans-serif" font-size="12" lengthAdjust="spacing" textLength="84" x="2294" y="61.5352">父親からの影響</text><line style="stroke:#A80036;stroke-width:1.5;" x1="2266" x2="2380" y1="73" y2="73"/><line style="stroke:#A80036;stroke-width:1.5;" x1="2266" x2="2380" y1="81" y2="81"/><!--MD5=[f321c95344578c6a5f01a9c7b8a93ead]
class parents.憧れと諦め--><rect codeLine="56" fill="#FEFECE" filter="url(#fgdjuq77mlwwa)" height="48" id="parents.憧れと諦め" style="stroke:#A80036;stroke-width:1.5;" width="92" x="2277" y="168.5"/><ellipse cx="2292" cy="184.5" fill="#ADD1B2" rx="11" ry="11" style="stroke:#A80036;stroke-width:1.0;"/><path d="M2294.4731,190.6431 Q2293.8921,190.9419 2293.2529,191.0913 Q2292.6138,191.2407 2291.9082,191.2407 Q2289.4014,191.2407 2288.0815,189.5889 Q2286.7617,187.937 2286.7617,184.8159 Q2286.7617,181.6865 2288.0815,180.0347 Q2289.4014,178.3828 2291.9082,178.3828 Q2292.6138,178.3828 2293.2612,178.5322 Q2293.9087,178.6816 2294.4731,178.9805 L2294.4731,181.7031 Q2293.8423,181.1221 2293.2488,180.8523 Q2292.6553,180.5825 2292.0244,180.5825 Q2290.6797,180.5825 2289.9949,181.6492 Q2289.3101,182.7158 2289.3101,184.8159 Q2289.3101,186.9077 2289.9949,187.9744 Q2290.6797,189.041 2292.0244,189.041 Q2292.6553,189.041 2293.2488,188.7712 Q2293.8423,188.5015 2294.4731,187.9204 Z " fill="#000000"/><text fill="#000000" font-family="sans-serif" font-size="12" lengthAdjust="spacing" textLength="60" x="2306" y="189.0352">憧れと諦め</text><line style="stroke:#A80036;stroke-width:1.5;" x1="2278" x2="2368" y1="200.5" y2="200.5"/><line style="stroke:#A80036;stroke-width:1.5;" x1="2278" x2="2368" y1="208.5" y2="208.5"/><!--MD5=[eb22ec15d31d10a6b25c9ebdffe3f7d7]
class towoman.軽蔑--><rect codeLine="60" fill="#FEFECE" filter="url(#fgdjuq77mlwwa)" height="48" id="towoman.軽蔑" style="stroke:#A80036;stroke-width:1.5;" width="56" x="2775" y="41"/><ellipse cx="2790" cy="57" fill="#ADD1B2" rx="11" ry="11" style="stroke:#A80036;stroke-width:1.0;"/><path d="M2792.4731,63.1431 Q2791.8921,63.4419 2791.2529,63.5913 Q2790.6138,63.7407 2789.9082,63.7407 Q2787.4014,63.7407 2786.0815,62.0889 Q2784.7617,60.437 2784.7617,57.3159 Q2784.7617,54.1865 2786.0815,52.5347 Q2787.4014,50.8828 2789.9082,50.8828 Q2790.6138,50.8828 2791.2612,51.0322 Q2791.9087,51.1816 2792.4731,51.4805 L2792.4731,54.2031 Q2791.8423,53.6221 2791.2488,53.3523 Q2790.6553,53.0825 2790.0244,53.0825 Q2788.6797,53.0825 2787.9949,54.1492 Q2787.3101,55.2158 2787.3101,57.3159 Q2787.3101,59.4077 2787.9949,60.4744 Q2788.6797,61.541 2790.0244,61.541 Q2790.6553,61.541 2791.2488,61.2712 Q2791.8423,61.0015 2792.4731,60.4204 Z " fill="#000000"/><text fill="#000000" font-family="sans-serif" font-size="12" lengthAdjust="spacing" textLength="24" x="2804" y="61.5352">軽蔑</text><line style="stroke:#A80036;stroke-width:1.5;" x1="2776" x2="2830" y1="73" y2="73"/><line style="stroke:#A80036;stroke-width:1.5;" x1="2776" x2="2830" y1="81" y2="81"/><!--MD5=[8ecd15b8a96d572ab911af03d05a6e1e]
class sexual.同性愛--><rect codeLine="64" fill="#FEFECE" filter="url(#fgdjuq77mlwwa)" height="48" id="sexual.同性愛" style="stroke:#A80036;stroke-width:1.5;" width="68" x="1365" y="314"/><ellipse cx="1380" cy="330" fill="#ADD1B2" rx="11" ry="11" style="stroke:#A80036;stroke-width:1.0;"/><path d="M1382.4731,336.1431 Q1381.8921,336.4419 1381.2529,336.5913 Q1380.6138,336.7407 1379.9082,336.7407 Q1377.4014,336.7407 1376.0815,335.0889 Q1374.7617,333.437 1374.7617,330.3159 Q1374.7617,327.1865 1376.0815,325.5347 Q1377.4014,323.8828 1379.9082,323.8828 Q1380.6138,323.8828 1381.2612,324.0322 Q1381.9087,324.1816 1382.4731,324.4805 L1382.4731,327.2031 Q1381.8423,326.6221 1381.2488,326.3523 Q1380.6553,326.0825 1380.0244,326.0825 Q1378.6797,326.0825 1377.9949,327.1492 Q1377.3101,328.2158 1377.3101,330.3159 Q1377.3101,332.4077 1377.9949,333.4744 Q1378.6797,334.541 1380.0244,334.541 Q1380.6553,334.541 1381.2488,334.2712 Q1381.8423,334.0015 1382.4731,333.4204 Z " fill="#000000"/><text fill="#000000" font-family="sans-serif" font-size="12" lengthAdjust="spacing" textLength="36" x="1394" y="334.5352">同性愛</text><line style="stroke:#A80036;stroke-width:1.5;" x1="1366" x2="1432" y1="346" y2="346"/><line style="stroke:#A80036;stroke-width:1.5;" x1="1366" x2="1432" y1="354" y2="354"/><!--MD5=[93fe8dbb0c06e7d5a43b24ec49e9c0b4]
class sexual.自己啓発--><rect codeLine="65" fill="#FEFECE" filter="url(#fgdjuq77mlwwa)" height="60.9551" id="sexual.自己啓発" style="stroke:#A80036;stroke-width:1.5;" width="122" x="1061" y="307.5"/><ellipse cx="1094.9" cy="323.5" fill="#ADD1B2" rx="11" ry="11" style="stroke:#A80036;stroke-width:1.0;"/><path d="M1097.3731,329.6431 Q1096.7921,329.9419 1096.1529,330.0913 Q1095.5138,330.2407 1094.8082,330.2407 Q1092.3014,330.2407 1090.9815,328.5889 Q1089.6617,326.937 1089.6617,323.8159 Q1089.6617,320.6865 1090.9815,319.0347 Q1092.3014,317.3828 1094.8082,317.3828 Q1095.5138,317.3828 1096.1612,317.5322 Q1096.8087,317.6816 1097.3731,317.9805 L1097.3731,320.7031 Q1096.7423,320.1221 1096.1488,319.8523 Q1095.5553,319.5825 1094.9244,319.5825 Q1093.5797,319.5825 1092.8949,320.6492 Q1092.2101,321.7158 1092.2101,323.8159 Q1092.2101,325.9077 1092.8949,326.9744 Q1093.5797,328.041 1094.9244,328.041 Q1095.5553,328.041 1096.1488,327.7712 Q1096.7423,327.5015 1097.3731,326.9204 Z " fill="#000000"/><text fill="#000000" font-family="sans-serif" font-size="12" lengthAdjust="spacing" textLength="48" x="1113.1" y="328.0352">自己啓発</text><line style="stroke:#A80036;stroke-width:1.5;" x1="1062" x2="1182" y1="339.5" y2="339.5"/><text fill="#000000" font-family="sans-serif" font-size="11" lengthAdjust="spacing" textLength="110" x="1067" y="354.1348">恋愛に対する自己啓発</text><line style="stroke:#A80036;stroke-width:1.5;" x1="1062" x2="1182" y1="360.4551" y2="360.4551"/><!--MD5=[ae4f08e4688a0111f9c6e955d7e82727]
class sexual.計画性--><rect codeLine="68" fill="#FEFECE" filter="url(#fgdjuq77mlwwa)" height="60.9551" id="sexual.計画性" style="stroke:#A80036;stroke-width:1.5;" width="111" x="1218.5" y="307.5"/><ellipse cx="1252.85" cy="323.5" fill="#ADD1B2" rx="11" ry="11" style="stroke:#A80036;stroke-width:1.0;"/><path d="M1255.3231,329.6431 Q1254.7421,329.9419 1254.1029,330.0913 Q1253.4638,330.2407 1252.7582,330.2407 Q1250.2514,330.2407 1248.9315,328.5889 Q1247.6117,326.937 1247.6117,323.8159 Q1247.6117,320.6865 1248.9315,319.0347 Q1250.2514,317.3828 1252.7582,317.3828 Q1253.4638,317.3828 1254.1112,317.5322 Q1254.7587,317.6816 1255.3231,317.9805 L1255.3231,320.7031 Q1254.6923,320.1221 1254.0988,319.8523 Q1253.5053,319.5825 1252.8744,319.5825 Q1251.5297,319.5825 1250.8449,320.6492 Q1250.1601,321.7158 1250.1601,323.8159 Q1250.1601,325.9077 1250.8449,326.9744 Q1251.5297,328.041 1252.8744,328.041 Q1253.5053,328.041 1254.0988,327.7712 Q1254.6923,327.5015 1255.3231,326.9204 Z " fill="#000000"/><text fill="#000000" font-family="sans-serif" font-size="12" lengthAdjust="spacing" textLength="36" x="1271.15" y="328.0352">計画性</text><line style="stroke:#A80036;stroke-width:1.5;" x1="1219.5" x2="1328.5" y1="339.5" y2="339.5"/><text fill="#000000" font-family="sans-serif" font-size="11" lengthAdjust="spacing" textLength="99" x="1224.5" y="354.1348">恋愛に値する計画性</text><line style="stroke:#A80036;stroke-width:1.5;" x1="1219.5" x2="1328.5" y1="360.4551" y2="360.4551"/><!--MD5=[a00949e067130f1609081a4b662ccac7]
class freedom.闘争--><rect codeLine="75" fill="#FEFECE" filter="url(#fgdjuq77mlwwa)" height="48" id="freedom.闘争" style="stroke:#A80036;stroke-width:1.5;" width="56" x="2978" y="41"/><ellipse cx="2993" cy="57" fill="#ADD1B2" rx="11" ry="11" style="stroke:#A80036;stroke-width:1.0;"/><path d="M2995.4731,63.1431 Q2994.8921,63.4419 2994.2529,63.5913 Q2993.6138,63.7407 2992.9082,63.7407 Q2990.4014,63.7407 2989.0815,62.0889 Q2987.7617,60.437 2987.7617,57.3159 Q2987.7617,54.1865 2989.0815,52.5347 Q2990.4014,50.8828 2992.9082,50.8828 Q2993.6138,50.8828 2994.2612,51.0322 Q2994.9087,51.1816 2995.4731,51.4805 L2995.4731,54.2031 Q2994.8423,53.6221 2994.2488,53.3523 Q2993.6553,53.0825 2993.0244,53.0825 Q2991.6797,53.0825 2990.9949,54.1492 Q2990.3101,55.2158 2990.3101,57.3159 Q2990.3101,59.4077 2990.9949,60.4744 Q2991.6797,61.541 2993.0244,61.541 Q2993.6553,61.541 2994.2488,61.2712 Q2994.8423,61.0015 2995.4731,60.4204 Z " fill="#000000"/><text fill="#000000" font-family="sans-serif" font-size="12" lengthAdjust="spacing" textLength="24" x="3007" y="61.5352">闘争</text><line style="stroke:#A80036;stroke-width:1.5;" x1="2979" x2="3033" y1="73" y2="73"/><line style="stroke:#A80036;stroke-width:1.5;" x1="2979" x2="3033" y1="81" y2="81"/><!--MD5=[eafb347996823219e03ca770c3b99e0c]
class freedom.服従--><rect codeLine="76" fill="#FEFECE" filter="url(#fgdjuq77mlwwa)" height="48" id="freedom.服従" style="stroke:#A80036;stroke-width:1.5;" width="56" x="2887" y="41"/><ellipse cx="2902" cy="57" fill="#ADD1B2" rx="11" ry="11" style="stroke:#A80036;stroke-width:1.0;"/><path d="M2904.4731,63.1431 Q2903.8921,63.4419 2903.2529,63.5913 Q2902.6138,63.7407 2901.9082,63.7407 Q2899.4014,63.7407 2898.0815,62.0889 Q2896.7617,60.437 2896.7617,57.3159 Q2896.7617,54.1865 2898.0815,52.5347 Q2899.4014,50.8828 2901.9082,50.8828 Q2902.6138,50.8828 2903.2612,51.0322 Q2903.9087,51.1816 2904.4731,51.4805 L2904.4731,54.2031 Q2903.8423,53.6221 2903.2488,53.3523 Q2902.6553,53.0825 2902.0244,53.0825 Q2900.6797,53.0825 2899.9949,54.1492 Q2899.3101,55.2158 2899.3101,57.3159 Q2899.3101,59.4077 2899.9949,60.4744 Q2900.6797,61.541 2902.0244,61.541 Q2902.6553,61.541 2903.2488,61.2712 Q2903.8423,61.0015 2904.4731,60.4204 Z " fill="#000000"/><text fill="#000000" font-family="sans-serif" font-size="12" lengthAdjust="spacing" textLength="24" x="2916" y="61.5352">服従</text><line style="stroke:#A80036;stroke-width:1.5;" x1="2888" x2="2942" y1="73" y2="73"/><line style="stroke:#A80036;stroke-width:1.5;" x1="2888" x2="2942" y1="81" y2="81"/><!--MD5=[f6710ef2a18a6090544f94d09805eaac]
class ex.物理学者--><rect codeLine="80" fill="#FEFECE" filter="url(#fgdjuq77mlwwa)" height="48" id="ex.物理学者" style="stroke:#A80036;stroke-width:1.5;" width="80" x="343" y="314"/><ellipse cx="358" cy="330" fill="#ADD1B2" rx="11" ry="11" style="stroke:#A80036;stroke-width:1.0;"/><path d="M360.4731,336.1431 Q359.8921,336.4419 359.2529,336.5913 Q358.6138,336.7407 357.9082,336.7407 Q355.4014,336.7407 354.0815,335.0889 Q352.7617,333.437 352.7617,330.3159 Q352.7617,327.1865 354.0815,325.5347 Q355.4014,323.8828 357.9082,323.8828 Q358.6138,323.8828 359.2612,324.0322 Q359.9087,324.1816 360.4731,324.4805 L360.4731,327.2031 Q359.8423,326.6221 359.2488,326.3523 Q358.6553,326.0825 358.0244,326.0825 Q356.6797,326.0825 355.9949,327.1492 Q355.3101,328.2158 355.3101,330.3159 Q355.3101,332.4077 355.9949,333.4744 Q356.6797,334.541 358.0244,334.541 Q358.6553,334.541 359.2488,334.2712 Q359.8423,334.0015 360.4731,333.4204 Z " fill="#000000"/><text fill="#000000" font-family="sans-serif" font-size="12" lengthAdjust="spacing" textLength="48" x="372" y="334.5352">物理学者</text><line style="stroke:#A80036;stroke-width:1.5;" x1="344" x2="422" y1="346" y2="346"/><line style="stroke:#A80036;stroke-width:1.5;" x1="344" x2="422" y1="354" y2="354"/><!--MD5=[bab831d72d13895cdbafb0fd9ae63eac]
class RightBottom--><rect codeLine="7" fill="#FEFECE" filter="url(#fgdjuq77mlwwa)" height="86.8652" id="RightBottom" style="stroke:#A80036;stroke-width:1.5;" width="254" x="846" y="21.5"/><ellipse cx="934.25" cy="37.5" fill="#ADD1B2" rx="11" ry="11" style="stroke:#A80036;stroke-width:1.0;"/><path d="M936.7231,43.6431 Q936.1421,43.9419 935.5029,44.0913 Q934.8638,44.2407 934.1582,44.2407 Q931.6514,44.2407 930.3315,42.5889 Q929.0117,40.937 929.0117,37.8159 Q929.0117,34.6865 930.3315,33.0347 Q931.6514,31.3828 934.1582,31.3828 Q934.8638,31.3828 935.5112,31.5322 Q936.1587,31.6816 936.7231,31.9805 L936.7231,34.7031 Q936.0923,34.1221 935.4988,33.8523 Q934.9053,33.5825 934.2744,33.5825 Q932.9297,33.5825 932.2449,34.6492 Q931.5601,35.7158 931.5601,37.8159 Q931.5601,39.9077 932.2449,40.9744 Q932.9297,42.041 934.2744,42.041 Q934.9053,42.041 935.4988,41.7712 Q936.0923,41.5015 936.7231,40.9204 Z " fill="#000000"/><text fill="#000000" font-family="sans-serif" font-size="12" lengthAdjust="spacing" textLength="69" x="954.75" y="42.0352">RightBottom</text><line style="stroke:#A80036;stroke-width:1.5;" x1="847" x2="1099" y1="53.5" y2="53.5"/><text fill="#000000" font-family="sans-serif" font-size="11" lengthAdjust="spacing" textLength="77" x="852" y="68.1348">右側際下段の枝</text><text fill="#000000" font-family="sans-serif" font-size="11" lengthAdjust="spacing" textLength="231" x="852" y="81.0898">分岐した枝が上方向を向くか下方向に向くかで</text><text fill="#000000" font-family="sans-serif" font-size="11" lengthAdjust="spacing" textLength="242" x="852" y="94.0449">作者の支配している意識を汲み取ることができる</text><line style="stroke:#A80036;stroke-width:1.5;" x1="847" x2="1099" y1="100.3652" y2="100.3652"/><!--MD5=[0545127d172ef3c717056a79632d6191]
class SecondDown--><rect codeLine="15" fill="#FEFECE" filter="url(#fgdjuq77mlwwa)" height="73.9102" id="SecondDown" style="stroke:#A80036;stroke-width:1.5;" width="177" x="813.5" y="301"/><ellipse cx="861.25" cy="317" fill="#ADD1B2" rx="11" ry="11" style="stroke:#A80036;stroke-width:1.0;"/><path d="M863.7231,323.1431 Q863.1421,323.4419 862.5029,323.5913 Q861.8638,323.7407 861.1582,323.7407 Q858.6514,323.7407 857.3315,322.0889 Q856.0117,320.437 856.0117,317.3159 Q856.0117,314.1865 857.3315,312.5347 Q858.6514,310.8828 861.1582,310.8828 Q861.8638,310.8828 862.5112,311.0322 Q863.1587,311.1816 863.7231,311.4805 L863.7231,314.2031 Q863.0923,313.6221 862.4988,313.3523 Q861.9053,313.0825 861.2744,313.0825 Q859.9297,313.0825 859.2449,314.1492 Q858.5601,315.2158 858.5601,317.3159 Q858.5601,319.4077 859.2449,320.4744 Q859.9297,321.541 861.2744,321.541 Q861.9053,321.541 862.4988,321.2712 Q863.0923,321.0015 863.7231,320.4204 Z " fill="#000000"/><text fill="#000000" font-family="sans-serif" font-size="12" lengthAdjust="spacing" textLength="73" x="881.75" y="321.5352">SecondDown</text><line style="stroke:#A80036;stroke-width:1.5;" x1="814.5" x2="989.5" y1="333" y2="333"/><text fill="#000000" font-family="sans-serif" font-size="11" lengthAdjust="spacing" textLength="110" x="819.5" y="347.6348">樹冠の右下にある枝で</text><text fill="#000000" font-family="sans-serif" font-size="11" lengthAdjust="spacing" textLength="165" x="819.5" y="360.5898">下側に分岐された枝は喪失を表す</text><line style="stroke:#A80036;stroke-width:1.5;" x1="814.5" x2="989.5" y1="366.9102" y2="366.9102"/><!--MD5=[fca95bcaa851ee2afb0a08e4ea5e518e]
class RightUp--><rect codeLine="23" fill="#FEFECE" filter="url(#fgdjuq77mlwwa)" height="86.8652" id="RightUp" style="stroke:#A80036;stroke-width:1.5;" width="133" x="1153.5" y="21.5"/><ellipse cx="1193.7" cy="37.5" fill="#ADD1B2" rx="11" ry="11" style="stroke:#A80036;stroke-width:1.0;"/><path d="M1196.1731,43.6431 Q1195.5921,43.9419 1194.9529,44.0913 Q1194.3138,44.2407 1193.6082,44.2407 Q1191.1014,44.2407 1189.7815,42.5889 Q1188.4617,40.937 1188.4617,37.8159 Q1188.4617,34.6865 1189.7815,33.0347 Q1191.1014,31.3828 1193.6082,31.3828 Q1194.3138,31.3828 1194.9612,31.5322 Q1195.6087,31.6816 1196.1731,31.9805 L1196.1731,34.7031 Q1195.5423,34.1221 1194.9488,33.8523 Q1194.3553,33.5825 1193.7244,33.5825 Q1192.3797,33.5825 1191.6949,34.6492 Q1191.0101,35.7158 1191.0101,37.8159 Q1191.0101,39.9077 1191.6949,40.9744 Q1192.3797,42.041 1193.7244,42.041 Q1194.3553,42.041 1194.9488,41.7712 Q1195.5423,41.5015 1196.1731,40.9204 Z " fill="#000000"/><text fill="#000000" font-family="sans-serif" font-size="12" lengthAdjust="spacing" textLength="45" x="1213.3" y="42.0352">RightUp</text><line style="stroke:#A80036;stroke-width:1.5;" x1="1154.5" x2="1285.5" y1="53.5" y2="53.5"/><text fill="#000000" font-family="sans-serif" font-size="11" lengthAdjust="spacing" textLength="88" x="1159.5" y="68.1348">最近の恋愛などで</text><text fill="#000000" font-family="sans-serif" font-size="11" lengthAdjust="spacing" textLength="121" x="1159.5" y="81.0898">自己開発や計画を行う際</text><text fill="#000000" font-family="sans-serif" font-size="11" lengthAdjust="spacing" textLength="121" x="1159.5" y="94.0449">樹冠の右上の枝に現れる</text><line style="stroke:#A80036;stroke-width:1.5;" x1="1154.5" x2="1285.5" y1="100.3652" y2="100.3652"/><!--MD5=[9b24a9518abc982bc1e2c69399f12103]
class CrowRoot--><rect codeLine="32" fill="#FEFECE" filter="url(#fgdjuq77mlwwa)" height="73.9102" id="CrowRoot" style="stroke:#A80036;stroke-width:1.5;" width="100" x="1349" y="28"/><ellipse cx="1369.85" cy="44" fill="#ADD1B2" rx="11" ry="11" style="stroke:#A80036;stroke-width:1.0;"/><path d="M1372.3231,50.1431 Q1371.7421,50.4419 1371.1029,50.5913 Q1370.4638,50.7407 1369.7582,50.7407 Q1367.2514,50.7407 1365.9315,49.0889 Q1364.6117,47.437 1364.6117,44.3159 Q1364.6117,41.1865 1365.9315,39.5347 Q1367.2514,37.8828 1369.7582,37.8828 Q1370.4638,37.8828 1371.1112,38.0322 Q1371.7587,38.1816 1372.3231,38.4805 L1372.3231,41.2031 Q1371.6923,40.6221 1371.0988,40.3523 Q1370.5053,40.0825 1369.8744,40.0825 Q1368.5297,40.0825 1367.8449,41.1492 Q1367.1601,42.2158 1367.1601,44.3159 Q1367.1601,46.4077 1367.8449,47.4744 Q1368.5297,48.541 1369.8744,48.541 Q1370.5053,48.541 1371.0988,48.2712 Q1371.6923,48.0015 1372.3231,47.4204 Z " fill="#000000"/><text fill="#000000" font-family="sans-serif" font-size="12" lengthAdjust="spacing" textLength="55" x="1385.15" y="48.5352">CrowRoot</text><line style="stroke:#A80036;stroke-width:1.5;" x1="1350" x2="1448" y1="60" y2="60"/><text fill="#000000" font-family="sans-serif" font-size="11" lengthAdjust="spacing" textLength="88" x="1355" y="74.6348">樹冠の付け根には</text><text fill="#000000" font-family="sans-serif" font-size="11" lengthAdjust="spacing" textLength="88" x="1355" y="87.5898">同性愛の印が出る</text><line style="stroke:#A80036;stroke-width:1.5;" x1="1350" x2="1448" y1="93.9102" y2="93.9102"/><!--MD5=[e7487cfc0cf52f8abd37ba74c91eb638]
link type.防衛的 to type.濾過機能--><path codeLine="7" d="M67.1,89.02 C68.1,109.85 69.57,140.61 70.64,162.99 " fill="none" id="type.防衛的-to-type.濾過機能" style="stroke:#A80036;stroke-width:1.0;"/><polygon fill="#A80036" points="70.89,168.2,74.4487,159.0165,70.6474,163.2059,66.4581,159.4047,70.89,168.2" style="stroke:#A80036;stroke-width:1.0;"/><!--MD5=[e1d496c6697830632d10b091de5459f8]
link env.圧力下 to env.諦め--><path codeLine="26" d="M498.45,89.02 C497.95,109.85 497.22,140.61 496.68,162.99 " fill="none" id="env.圧力下-to-env.諦め" style="stroke:#A80036;stroke-width:1.0;"/><polygon fill="#A80036" points="496.56,168.2,500.79,159.3058,496.6885,163.2017,492.7927,159.1002,496.56,168.2" style="stroke:#A80036;stroke-width:1.0;"/><!--MD5=[6bf901628a2c1a862b05cc073136d264]
link parents.父親からの影響 to parents.憧れと諦め--><path codeLine="55" d="M2323,89.02 C2323,109.85 2323,140.61 2323,162.99 " fill="none" id="parents.父親からの影響-to-parents.憧れと諦め" style="stroke:#A80036;stroke-width:1.0;"/><polygon fill="#A80036" points="2323,168.2,2327,159.2,2323,163.2,2319,159.2,2323,168.2" style="stroke:#A80036;stroke-width:1.0;"/><!--MD5=[e649a89c2b40805fb778b2aa49aed64f]
link type.野心 to ex.物理学者--><path codeLine="81" d="M305.45,89.06 C318.31,109.23 336.2,139.71 347,168.5 C364.81,215.95 374.81,274.4 379.54,308.51 " fill="none" id="type.野心-to-ex.物理学者" style="stroke:#A80036;stroke-width:1.0;"/><polygon fill="#A80036" points="380.26,313.77,383.0158,304.3146,379.5889,308.8152,375.0882,305.3883,380.26,313.77" style="stroke:#A80036;stroke-width:1.0;"/><!--MD5=[04d1d1185a995d88dafb2f049126fb13]
link RightBottom to sexual--><path codeLine="13" d="M981.34,108.64 C988.685,146.205 999.6175,202.1125 1008.8275,249.2062 C1011.13,260.9797 1013.3248,272.2023 1015.3291,282.4497 C1015.8301,285.0115 1016.3193,287.5124 1016.7952,289.9457 C1017.0332,291.1624 1017.2678,292.3622 1017.499,293.5442 C1017.6146,294.1352 1017.7293,294.7218 1017.8432,295.3039 " fill="none" id="RightBottom-to-sexual" style="stroke:#A80036;stroke-width:1.0;"/><polygon fill="#A80036" points="1017.8432,295.3039,1020.0412,285.7034,1016.8834,290.3969,1012.19,287.2391,1017.8432,295.3039" style="stroke:#A80036;stroke-width:1.0;"/><!--MD5=[52a4f9027c15b48c69b067e1cd127cb0]
link RightBottom to SecondDown--><path codeLine="19" d="M961.83,108.64 C948.43,159.8 926.11,244.99 912.85,295.59 " fill="none" id="RightBottom-to-SecondDown" style="stroke:#A80036;stroke-width:1.0;"/><polygon fill="#A80036" points="911.52,300.68,917.6743,292.9907,912.7897,295.8439,909.9365,290.9593,911.52,300.68" style="stroke:#A80036;stroke-width:1.0;"/><!--MD5=[496eca9832b87763a998e3d91684e205]
link SecondDown to state.喪失--><path codeLine="20" d="M902,375.43 C902,409.41 902,459.43 902,490.57 " fill="none" id="SecondDown-to-state.喪失" style="stroke:#A80036;stroke-width:1.0;"/><polygon fill="#A80036" points="902,495.77,906,486.77,902,490.77,898,486.77,902,495.77" style="stroke:#A80036;stroke-width:1.0;"/><!--MD5=[2e9f14f16e8a9cb4c026a1c442ed8282]
link RightUp to sexual.自己啓発--><path codeLine="28" d="M1204.58,108.64 C1185.25,162.11 1152.47,252.73 1134.58,302.22 " fill="none" id="RightUp-to-sexual.自己啓発" style="stroke:#A80036;stroke-width:1.0;"/><polygon fill="#A80036" points="1132.79,307.16,1139.6058,300.0505,1134.4861,302.4565,1132.0802,297.3368,1132.79,307.16" style="stroke:#A80036;stroke-width:1.0;"/><!--MD5=[8a88ec40cd1caa7771fc27394ca551b3]
link RightUp to sexual.計画性--><path codeLine="29" d="M1228.5,108.64 C1239.15,162.11 1257.21,252.73 1267.07,302.22 " fill="none" id="RightUp-to-sexual.計画性" style="stroke:#A80036;stroke-width:1.0;"/><polygon fill="#A80036" points="1268.05,307.16,1270.2234,297.554,1267.0777,302.2555,1262.3762,299.1097,1268.05,307.16" style="stroke:#A80036;stroke-width:1.0;"/><!--MD5=[e031f069ca84a56a7ea9e2396db59952]
link CrowRoot to sexual.同性愛--><path codeLine="36" d="M1399,102.27 C1399,156.82 1399,258.87 1399,308.47 " fill="none" id="CrowRoot-to-sexual.同性愛" style="stroke:#A80036;stroke-width:1.0;"/><polygon fill="#A80036" points="1399,313.68,1403,304.68,1399,308.68,1395,304.68,1399,313.68" style="stroke:#A80036;stroke-width:1.0;"/><!--MD5=[536b9b071c8a5949cd5908353677b0ac]
link type.自己中心的 to type.頑固--><!--MD5=[59dd5fc6fbc3a1b077a6caf111fefe56]
link type.自己中心的 to type.羞恥心--><!--MD5=[bd14269d94fbc1ee1cbffed331bd9df4]
link type.羞恥心 to type.より若い--><!--MD5=[6007ab110a926ebba21bd107ec8147e6]
link env.不満 to env.女性的要素からの圧力--><!--MD5=[2468c75953ad223985e1f1869a29a770]
link env.不満 to env.他者との接触の増加--><!--MD5=[e43e3ed219625917e3d796a48297f006]
@startuml branch



!include 00target.pu


class RightBottom{
右側際下段の枝
分岐した枝が上方向を向くか下方向に向くかで
作者の支配している意識を汲み取ることができる
}

RightBottom - - -> sexual

class SecondDown {
樹冠の右下にある枝で
下側に分岐された枝は喪失を表す
}
RightBottom - - -> SecondDown
SecondDown - - -> state.喪失


class RightUp {
最近の恋愛などで
自己開発や計画を行う際
樹冠の右上の枝に現れる
}
RightUp - - -> sexual.自己啓発
RightUp - - -> sexual.計画性


class CrowRoot {
樹冠の付け根には
同性愛の印が出る
}
CrowRoot - - -> sexual.同性愛


@enduml

@startuml branch




namespace type {
    class 自己中心的 
    class 頑固 
    class 防衛的
    class 濾過機能
    防衛的 - -> 濾過機能
    class 羞恥心
  
    class より若い

    class 野心
}

namespace 思考傾向 {
    class 伝統志向
}

namespace env {
    class 不満
    class 圧力下
  
    class 女性的要素からの圧力
    
    class 諦め
    圧力下 - -> 諦め
  
    class 他者との接触の増加
}

namespace think {
    class 秘密主義
    class 伝統主義
}

namespace living {
    class 死
    class 充実
}

namespace state {
    class 喪失
}

namespace time {
    class 過去

    class 未来
}

namespace parents {
    class 母親からの影響
    class 母親からの影響の克服
    class 父親からの影響
    父親からの影響 - -> 憧れと諦め
    class 憧れと諦め
}

namespace towoman {
    class 軽蔑
}

namespace sexual {
    class 同性愛
    class 自己啓発 {
        恋愛に対する自己啓発
    }
    class 計画性 {
        恋愛に値する計画性
    }
}


namespace freedom {
    class 闘争
    class 服従
}

namespace ex {
    class 物理学者
    type.野心 - - -> 物理学者
}



class RightBottom{
右側際下段の枝
分岐した枝が上方向を向くか下方向に向くかで
作者の支配している意識を汲み取ることができる
}

RightBottom - - -> sexual

class SecondDown {
樹冠の右下にある枝で
下側に分岐された枝は喪失を表す
}
RightBottom - - -> SecondDown
SecondDown - - -> state.喪失


class RightUp {
最近の恋愛などで
自己開発や計画を行う際
樹冠の右上の枝に現れる
}
RightUp - - -> sexual.自己啓発
RightUp - - -> sexual.計画性


class CrowRoot {
樹冠の付け根には
同性愛の印が出る
}
CrowRoot - - -> sexual.同性愛


@enduml

PlantUML version 1.2021.15(Wed Dec 01 01:45:34 JST 2021)
(GPL source distribution)
Java Runtime: OpenJDK Runtime Environment
JVM: OpenJDK 64-Bit Server VM
Default Encoding: UTF-8
Language: ja
Country: JP
--></g></svg>