<?xml version="1.0" encoding="UTF-8" standalone="no"?><svg xmlns="http://www.w3.org/2000/svg" xmlns:xlink="http://www.w3.org/1999/xlink" contentScriptType="application/ecmascript" contentStyleType="text/css" height="667px" preserveAspectRatio="none" style="width:3983px;height:667px;background:#FFFFFF;" version="1.1" viewBox="0 0 3983 667" width="3983px" zoomAndPan="magnify"><defs><filter height="300%" id="fx1dc7p7fdx67" width="300%" x="-1" y="-1"><feGaussianBlur result="blurOut" stdDeviation="2.0"/><feColorMatrix in="blurOut" result="blurOut2" type="matrix" values="0 0 0 0 0 0 0 0 0 0 0 0 0 0 0 0 0 0 .4 0"/><feOffset dx="4.0" dy="4.0" in="blurOut2" result="blurOut3"/><feBlend in="SourceGraphic" in2="blurOut3" mode="normal"/></filter></defs><g><!--MD5=[3d755a8e79ee953feccbf2e6a25fa9eb]
cluster type--><polygon fill="#FFFFFF" filter="url(#fx1dc7p7fdx67)" points="606,315,643,315,650,337.4883,1233,337.4883,1233,537,606,537,606,315" style="stroke:#000000;stroke-width:1.5;"/><line style="stroke:#000000;stroke-width:1.5;" x1="606" x2="650" y1="337.4883" y2="337.4883"/><text fill="#000000" font-family="sans-serif" font-size="14" font-weight="bold" lengthAdjust="spacing" textLength="31" x="610" y="330.5352">type</text><!--MD5=[3ac5bc1d849fdebadb9fc5e0e21f6cf5]
cluster 思考傾向--><polygon fill="#FFFFFF" filter="url(#fx1dc7p7fdx67)" points="2826,38.5,2888,38.5,2895,60.9883,2938,60.9883,2938,137.5,2826,137.5,2826,38.5" style="stroke:#000000;stroke-width:1.5;"/><line style="stroke:#000000;stroke-width:1.5;" x1="2826" x2="2895" y1="60.9883" y2="60.9883"/><text fill="#000000" font-family="sans-serif" font-size="14" font-weight="bold" lengthAdjust="spacing" textLength="56" x="2830" y="54.0352">思考傾向</text><!--MD5=[a5f6d7e9f88b7365548164145cca9219]
cluster env--><polygon fill="#FFFFFF" filter="url(#fx1dc7p7fdx67)" points="1914,315,1945,315,1952,337.4883,2467,337.4883,2467,537,1914,537,1914,315" style="stroke:#000000;stroke-width:1.5;"/><line style="stroke:#000000;stroke-width:1.5;" x1="1914" x2="1952" y1="337.4883" y2="337.4883"/><text fill="#000000" font-family="sans-serif" font-size="14" font-weight="bold" lengthAdjust="spacing" textLength="25" x="1918" y="330.5352">env</text><!--MD5=[24975937ae95dc6e3fd29564a246eb2e]
cluster think--><polygon fill="#FFFFFF" filter="url(#fx1dc7p7fdx67)" points="1407,315,1451,315,1458,337.4883,1840,337.4883,1840,414,1407,414,1407,315" style="stroke:#000000;stroke-width:1.5;"/><line style="stroke:#000000;stroke-width:1.5;" x1="1407" x2="1458" y1="337.4883" y2="337.4883"/><text fill="#000000" font-family="sans-serif" font-size="14" font-weight="bold" lengthAdjust="spacing" textLength="38" x="1411" y="330.5352">think</text><!--MD5=[d63a90b188f4c70d363d464b00892cb4]
cluster living--><polygon fill="#FFFFFF" filter="url(#fx1dc7p7fdx67)" points="1524,438,1571,438,1578,460.4883,1691,460.4883,1691,537,1524,537,1524,438" style="stroke:#000000;stroke-width:1.5;"/><line style="stroke:#000000;stroke-width:1.5;" x1="1524" x2="1578" y1="460.4883" y2="460.4883"/><text fill="#000000" font-family="sans-serif" font-size="14" font-weight="bold" lengthAdjust="spacing" textLength="41" x="1528" y="453.5352">living</text><!--MD5=[75ea3bd801f35bf9c6563570d027214a]
cluster state--><polygon fill="#FFFFFF" filter="url(#fx1dc7p7fdx67)" points="16,315,58,315,65,337.4883,310,337.4883,310,537,16,537,16,315" style="stroke:#000000;stroke-width:1.5;"/><line style="stroke:#000000;stroke-width:1.5;" x1="16" x2="65" y1="337.4883" y2="337.4883"/><text fill="#000000" font-family="sans-serif" font-size="14" font-weight="bold" lengthAdjust="spacing" textLength="36" x="20" y="330.5352">state</text><!--MD5=[3dab47d3fc3e186ff10f67819eb99ff8]
cluster time--><polygon fill="#FFFFFF" filter="url(#fx1dc7p7fdx67)" points="2962,38.5,3001,38.5,3008,60.9883,3141,60.9883,3141,137.5,2962,137.5,2962,38.5" style="stroke:#000000;stroke-width:1.5;"/><line style="stroke:#000000;stroke-width:1.5;" x1="2962" x2="3008" y1="60.9883" y2="60.9883"/><text fill="#000000" font-family="sans-serif" font-size="14" font-weight="bold" lengthAdjust="spacing" textLength="33" x="2966" y="54.0352">time</text><!--MD5=[88fa2f93c14291d48ff88be1aa3b6619]
cluster parents--><polygon fill="#FFFFFF" filter="url(#fx1dc7p7fdx67)" points="3165,38.5,3225,38.5,3232,60.9883,3651,60.9883,3651,284.5,3165,284.5,3165,38.5" style="stroke:#000000;stroke-width:1.5;"/><line style="stroke:#000000;stroke-width:1.5;" x1="3165" x2="3232" y1="60.9883" y2="60.9883"/><text fill="#000000" font-family="sans-serif" font-size="14" font-weight="bold" lengthAdjust="spacing" textLength="54" x="3169" y="54.0352">parents</text><!--MD5=[d997e4a7cbe3f85cf7bb1498fc1fda56]
cluster towoman--><polygon fill="#FFFFFF" filter="url(#fx1dc7p7fdx67)" points="3675,38.5,3748,38.5,3755,60.9883,3763,60.9883,3763,137.5,3675,137.5,3675,38.5" style="stroke:#000000;stroke-width:1.5;"/><line style="stroke:#000000;stroke-width:1.5;" x1="3675" x2="3755" y1="60.9883" y2="60.9883"/><text fill="#000000" font-family="sans-serif" font-size="14" font-weight="bold" lengthAdjust="spacing" textLength="67" x="3679" y="54.0352">towoman</text><!--MD5=[f5653ff7b3e7f0e91fa6f0a63a0f7584]
cluster sexual--><polygon fill="#FFFFFF" filter="url(#fx1dc7p7fdx67)" points="2545,32,2597,32,2604,54.4883,2802,54.4883,2802,291,2545,291,2545,32" style="stroke:#000000;stroke-width:1.5;"/><line style="stroke:#000000;stroke-width:1.5;" x1="2545" x2="2604" y1="54.4883" y2="54.4883"/><text fill="#000000" font-family="sans-serif" font-size="14" font-weight="bold" lengthAdjust="spacing" textLength="46" x="2549" y="47.5352">sexual</text><!--MD5=[7d6847f696e7bb74234bd2651e61af1d]
cluster freedom--><polygon fill="#FFFFFF" filter="url(#fx1dc7p7fdx67)" points="3787,38.5,3853,38.5,3860,60.9883,3966,60.9883,3966,137.5,3787,137.5,3787,38.5" style="stroke:#000000;stroke-width:1.5;"/><line style="stroke:#000000;stroke-width:1.5;" x1="3787" x2="3860" y1="60.9883" y2="60.9883"/><text fill="#000000" font-family="sans-serif" font-size="14" font-weight="bold" lengthAdjust="spacing" textLength="60" x="3791" y="54.0352">freedom</text><!--MD5=[8f24d0701dcb05dd6e6975b6669f8f05]
cluster commonsense--><polygon fill="#FFFFFF" filter="url(#fx1dc7p7fdx67)" points="334,315,443,315,450,337.4883,537,337.4883,537,414,334,414,334,315" style="stroke:#000000;stroke-width:1.5;"/><line style="stroke:#000000;stroke-width:1.5;" x1="334" x2="450" y1="337.4883" y2="337.4883"/><text fill="#000000" font-family="sans-serif" font-size="14" font-weight="bold" lengthAdjust="spacing" textLength="103" x="338" y="330.5352">commonsense</text><!--MD5=[6f5ca303b11f66b6f76d1da6c5fb2617]
cluster ex--><polygon fill="#FFFFFF" filter="url(#fx1dc7p7fdx67)" points="594,561,616,561,623,583.4883,706,583.4883,706,660,594,660,594,561" style="stroke:#000000;stroke-width:1.5;"/><line style="stroke:#000000;stroke-width:1.5;" x1="594" x2="623" y1="583.4883" y2="583.4883"/><text fill="#000000" font-family="sans-serif" font-size="14" font-weight="bold" lengthAdjust="spacing" textLength="16" x="598" y="576.5352">ex</text><!--MD5=[87a5563a49d25ef3d1b2556132da47bc]
cluster 樹冠線--><polygon fill="#FFFFFF" filter="url(#fx1dc7p7fdx67)" points="1772,38.5,1820,38.5,1827,60.9883,2211,60.9883,2211,284.5,1772,284.5,1772,38.5" style="stroke:#000000;stroke-width:1.5;"/><line style="stroke:#000000;stroke-width:1.5;" x1="1772" x2="1827" y1="60.9883" y2="60.9883"/><text fill="#000000" font-family="sans-serif" font-size="14" font-weight="bold" lengthAdjust="spacing" textLength="42" x="1776" y="54.0352">樹冠線</text><!--MD5=[1e84e5802cdd6fd33a0bd9b4ec563a41]
cluster 樹冠形--><polygon fill="#FFFFFF" filter="url(#fx1dc7p7fdx67)" points="267,6,315,6,322,28.4883,1184,28.4883,1184,170,267,170,267,6" style="stroke:#000000;stroke-width:1.5;"/><line style="stroke:#000000;stroke-width:1.5;" x1="267" x2="322" y1="28.4883" y2="28.4883"/><text fill="#000000" font-family="sans-serif" font-size="14" font-weight="bold" lengthAdjust="spacing" textLength="42" x="271" y="21.5352">樹冠形</text><!--MD5=[16a6f315ffe1c89684e096c39ef6c31c]
cluster wing--><polygon fill="#FFFFFF" filter="url(#fx1dc7p7fdx67)" points="2235,32,2276,32,2283,54.4883,2521,54.4883,2521,144,2235,144,2235,32" style="stroke:#000000;stroke-width:1.5;"/><line style="stroke:#000000;stroke-width:1.5;" x1="2235" x2="2283" y1="54.4883" y2="54.4883"/><text fill="#000000" font-family="sans-serif" font-size="14" font-weight="bold" lengthAdjust="spacing" textLength="35" x="2239" y="47.5352">wing</text><!--MD5=[8f496a9a598562a6c8a5b7eaaa5c4048]
cluster 樹冠内部--><polygon fill="#FFFFFF" filter="url(#fx1dc7p7fdx67)" points="1208,25.5,1270,25.5,1277,47.9883,1748,47.9883,1748,150.5,1208,150.5,1208,25.5" style="stroke:#000000;stroke-width:1.5;"/><line style="stroke:#000000;stroke-width:1.5;" x1="1208" x2="1277" y1="47.9883" y2="47.9883"/><text fill="#000000" font-family="sans-serif" font-size="14" font-weight="bold" lengthAdjust="spacing" textLength="56" x="1212" y="41.0352">樹冠内部</text><!--MD5=[dbc067f70f3795a5b04036b866ba55ba]
class type.自己中心的--><rect codeLine="3" fill="#FEFECE" filter="url(#fx1dc7p7fdx67)" height="48" id="type.自己中心的" style="stroke:#A80036;stroke-width:1.5;" width="92" x="1125" y="350"/><ellipse cx="1140" cy="366" fill="#ADD1B2" rx="11" ry="11" style="stroke:#A80036;stroke-width:1.0;"/><path d="M1142.4731,372.1431 Q1141.8921,372.4419 1141.2529,372.5913 Q1140.6138,372.7407 1139.9082,372.7407 Q1137.4014,372.7407 1136.0815,371.0889 Q1134.7617,369.437 1134.7617,366.3159 Q1134.7617,363.1865 1136.0815,361.5347 Q1137.4014,359.8828 1139.9082,359.8828 Q1140.6138,359.8828 1141.2612,360.0322 Q1141.9087,360.1816 1142.4731,360.4805 L1142.4731,363.2031 Q1141.8423,362.6221 1141.2488,362.3523 Q1140.6553,362.0825 1140.0244,362.0825 Q1138.6797,362.0825 1137.9949,363.1492 Q1137.3101,364.2158 1137.3101,366.3159 Q1137.3101,368.4077 1137.9949,369.4744 Q1138.6797,370.541 1140.0244,370.541 Q1140.6553,370.541 1141.2488,370.2712 Q1141.8423,370.0015 1142.4731,369.4204 Z " fill="#000000"/><text fill="#000000" font-family="sans-serif" font-size="12" lengthAdjust="spacing" textLength="60" x="1154" y="370.5352">自己中心的</text><line style="stroke:#A80036;stroke-width:1.5;" x1="1126" x2="1216" y1="382" y2="382"/><line style="stroke:#A80036;stroke-width:1.5;" x1="1126" x2="1216" y1="390" y2="390"/><!--MD5=[84dec386c9d1977dcbb9f0451dd4ac42]
class type.頑固--><rect codeLine="4" fill="#FEFECE" filter="url(#fx1dc7p7fdx67)" height="48" id="type.頑固" style="stroke:#A80036;stroke-width:1.5;" width="56" x="919" y="350"/><ellipse cx="934" cy="366" fill="#ADD1B2" rx="11" ry="11" style="stroke:#A80036;stroke-width:1.0;"/><path d="M936.4731,372.1431 Q935.8921,372.4419 935.2529,372.5913 Q934.6138,372.7407 933.9082,372.7407 Q931.4014,372.7407 930.0815,371.0889 Q928.7617,369.437 928.7617,366.3159 Q928.7617,363.1865 930.0815,361.5347 Q931.4014,359.8828 933.9082,359.8828 Q934.6138,359.8828 935.2612,360.0322 Q935.9087,360.1816 936.4731,360.4805 L936.4731,363.2031 Q935.8423,362.6221 935.2488,362.3523 Q934.6553,362.0825 934.0244,362.0825 Q932.6797,362.0825 931.9949,363.1492 Q931.3101,364.2158 931.3101,366.3159 Q931.3101,368.4077 931.9949,369.4744 Q932.6797,370.541 934.0244,370.541 Q934.6553,370.541 935.2488,370.2712 Q935.8423,370.0015 936.4731,369.4204 Z " fill="#000000"/><text fill="#000000" font-family="sans-serif" font-size="12" lengthAdjust="spacing" textLength="24" x="948" y="370.5352">頑固</text><line style="stroke:#A80036;stroke-width:1.5;" x1="920" x2="974" y1="382" y2="382"/><line style="stroke:#A80036;stroke-width:1.5;" x1="920" x2="974" y1="390" y2="390"/><!--MD5=[d69c1dce711abfc2d0d1d2734420493a]
class type.防衛的--><rect codeLine="5" fill="#FEFECE" filter="url(#fx1dc7p7fdx67)" height="48" id="type.防衛的" style="stroke:#A80036;stroke-width:1.5;" width="68" x="713" y="350"/><ellipse cx="728" cy="366" fill="#ADD1B2" rx="11" ry="11" style="stroke:#A80036;stroke-width:1.0;"/><path d="M730.4731,372.1431 Q729.8921,372.4419 729.2529,372.5913 Q728.6138,372.7407 727.9082,372.7407 Q725.4014,372.7407 724.0815,371.0889 Q722.7617,369.437 722.7617,366.3159 Q722.7617,363.1865 724.0815,361.5347 Q725.4014,359.8828 727.9082,359.8828 Q728.6138,359.8828 729.2612,360.0322 Q729.9087,360.1816 730.4731,360.4805 L730.4731,363.2031 Q729.8423,362.6221 729.2488,362.3523 Q728.6553,362.0825 728.0244,362.0825 Q726.6797,362.0825 725.9949,363.1492 Q725.3101,364.2158 725.3101,366.3159 Q725.3101,368.4077 725.9949,369.4744 Q726.6797,370.541 728.0244,370.541 Q728.6553,370.541 729.2488,370.2712 Q729.8423,370.0015 730.4731,369.4204 Z " fill="#000000"/><text fill="#000000" font-family="sans-serif" font-size="12" lengthAdjust="spacing" textLength="36" x="742" y="370.5352">防衛的</text><line style="stroke:#A80036;stroke-width:1.5;" x1="714" x2="780" y1="382" y2="382"/><line style="stroke:#A80036;stroke-width:1.5;" x1="714" x2="780" y1="390" y2="390"/><!--MD5=[5d5fe8cc501f07ed9fb46b5587e42046]
class type.濾過機能--><rect codeLine="6" fill="#FEFECE" filter="url(#fx1dc7p7fdx67)" height="48" id="type.濾過機能" style="stroke:#A80036;stroke-width:1.5;" width="80" x="922" y="473"/><ellipse cx="937" cy="489" fill="#ADD1B2" rx="11" ry="11" style="stroke:#A80036;stroke-width:1.0;"/><path d="M939.4731,495.1431 Q938.8921,495.4419 938.2529,495.5913 Q937.6138,495.7407 936.9082,495.7407 Q934.4014,495.7407 933.0815,494.0889 Q931.7617,492.437 931.7617,489.3159 Q931.7617,486.1865 933.0815,484.5347 Q934.4014,482.8828 936.9082,482.8828 Q937.6138,482.8828 938.2612,483.0322 Q938.9087,483.1816 939.4731,483.4805 L939.4731,486.2031 Q938.8423,485.6221 938.2488,485.3523 Q937.6553,485.0825 937.0244,485.0825 Q935.6797,485.0825 934.9949,486.1492 Q934.3101,487.2158 934.3101,489.3159 Q934.3101,491.4077 934.9949,492.4744 Q935.6797,493.541 937.0244,493.541 Q937.6553,493.541 938.2488,493.2712 Q938.8423,493.0015 939.4731,492.4204 Z " fill="#000000"/><text fill="#000000" font-family="sans-serif" font-size="12" lengthAdjust="spacing" textLength="48" x="951" y="493.5352">濾過機能</text><line style="stroke:#A80036;stroke-width:1.5;" x1="923" x2="1001" y1="505" y2="505"/><line style="stroke:#A80036;stroke-width:1.5;" x1="923" x2="1001" y1="513" y2="513"/><!--MD5=[af35fff8827c1ac27b9b4609b21b259b]
class type.羞恥心--><rect codeLine="8" fill="#FEFECE" filter="url(#fx1dc7p7fdx67)" height="48" id="type.羞恥心" style="stroke:#A80036;stroke-width:1.5;" width="68" x="816" y="350"/><ellipse cx="831" cy="366" fill="#ADD1B2" rx="11" ry="11" style="stroke:#A80036;stroke-width:1.0;"/><path d="M833.4731,372.1431 Q832.8921,372.4419 832.2529,372.5913 Q831.6138,372.7407 830.9082,372.7407 Q828.4014,372.7407 827.0815,371.0889 Q825.7617,369.437 825.7617,366.3159 Q825.7617,363.1865 827.0815,361.5347 Q828.4014,359.8828 830.9082,359.8828 Q831.6138,359.8828 832.2612,360.0322 Q832.9087,360.1816 833.4731,360.4805 L833.4731,363.2031 Q832.8423,362.6221 832.2488,362.3523 Q831.6553,362.0825 831.0244,362.0825 Q829.6797,362.0825 828.9949,363.1492 Q828.3101,364.2158 828.3101,366.3159 Q828.3101,368.4077 828.9949,369.4744 Q829.6797,370.541 831.0244,370.541 Q831.6553,370.541 832.2488,370.2712 Q832.8423,370.0015 833.4731,369.4204 Z " fill="#000000"/><text fill="#000000" font-family="sans-serif" font-size="12" lengthAdjust="spacing" textLength="36" x="845" y="370.5352">羞恥心</text><line style="stroke:#A80036;stroke-width:1.5;" x1="817" x2="883" y1="382" y2="382"/><line style="stroke:#A80036;stroke-width:1.5;" x1="817" x2="883" y1="390" y2="390"/><!--MD5=[3a61ae0ac77faa8e06db7ce7cfefbad0]
class type.より若い--><rect codeLine="10" fill="#FEFECE" filter="url(#fx1dc7p7fdx67)" height="48" id="type.より若い" style="stroke:#A80036;stroke-width:1.5;" width="80" x="1010" y="350"/><ellipse cx="1025" cy="366" fill="#ADD1B2" rx="11" ry="11" style="stroke:#A80036;stroke-width:1.0;"/><path d="M1027.4731,372.1431 Q1026.8921,372.4419 1026.2529,372.5913 Q1025.6138,372.7407 1024.9082,372.7407 Q1022.4014,372.7407 1021.0815,371.0889 Q1019.7617,369.437 1019.7617,366.3159 Q1019.7617,363.1865 1021.0815,361.5347 Q1022.4014,359.8828 1024.9082,359.8828 Q1025.6138,359.8828 1026.2612,360.0322 Q1026.9087,360.1816 1027.4731,360.4805 L1027.4731,363.2031 Q1026.8423,362.6221 1026.2488,362.3523 Q1025.6553,362.0825 1025.0244,362.0825 Q1023.6797,362.0825 1022.9949,363.1492 Q1022.3101,364.2158 1022.3101,366.3159 Q1022.3101,368.4077 1022.9949,369.4744 Q1023.6797,370.541 1025.0244,370.541 Q1025.6553,370.541 1026.2488,370.2712 Q1026.8423,370.0015 1027.4731,369.4204 Z " fill="#000000"/><text fill="#000000" font-family="sans-serif" font-size="12" lengthAdjust="spacing" textLength="48" x="1039" y="370.5352">より若い</text><line style="stroke:#A80036;stroke-width:1.5;" x1="1011" x2="1089" y1="382" y2="382"/><line style="stroke:#A80036;stroke-width:1.5;" x1="1011" x2="1089" y1="390" y2="390"/><!--MD5=[a0fbafcc919696d1d2a17016666dc09b]
class type.野心--><rect codeLine="12" fill="#FEFECE" filter="url(#fx1dc7p7fdx67)" height="48" id="type.野心" style="stroke:#A80036;stroke-width:1.5;" width="56" x="622" y="350"/><ellipse cx="637" cy="366" fill="#ADD1B2" rx="11" ry="11" style="stroke:#A80036;stroke-width:1.0;"/><path d="M639.4731,372.1431 Q638.8921,372.4419 638.2529,372.5913 Q637.6138,372.7407 636.9082,372.7407 Q634.4014,372.7407 633.0815,371.0889 Q631.7617,369.437 631.7617,366.3159 Q631.7617,363.1865 633.0815,361.5347 Q634.4014,359.8828 636.9082,359.8828 Q637.6138,359.8828 638.2612,360.0322 Q638.9087,360.1816 639.4731,360.4805 L639.4731,363.2031 Q638.8423,362.6221 638.2488,362.3523 Q637.6553,362.0825 637.0244,362.0825 Q635.6797,362.0825 634.9949,363.1492 Q634.3101,364.2158 634.3101,366.3159 Q634.3101,368.4077 634.9949,369.4744 Q635.6797,370.541 637.0244,370.541 Q637.6553,370.541 638.2488,370.2712 Q638.8423,370.0015 639.4731,369.4204 Z " fill="#000000"/><text fill="#000000" font-family="sans-serif" font-size="12" lengthAdjust="spacing" textLength="24" x="651" y="370.5352">野心</text><line style="stroke:#A80036;stroke-width:1.5;" x1="623" x2="677" y1="382" y2="382"/><line style="stroke:#A80036;stroke-width:1.5;" x1="623" x2="677" y1="390" y2="390"/><!--MD5=[f91ed0fda49237470cff63576de05b37]
class 思考傾向.伝統志向--><rect codeLine="16" fill="#FEFECE" filter="url(#fx1dc7p7fdx67)" height="48" id="思考傾向.伝統志向" style="stroke:#A80036;stroke-width:1.5;" width="80" x="2842" y="73.5"/><ellipse cx="2857" cy="89.5" fill="#ADD1B2" rx="11" ry="11" style="stroke:#A80036;stroke-width:1.0;"/><path d="M2859.4731,95.6431 Q2858.8921,95.9419 2858.2529,96.0913 Q2857.6138,96.2407 2856.9082,96.2407 Q2854.4014,96.2407 2853.0815,94.5889 Q2851.7617,92.937 2851.7617,89.8159 Q2851.7617,86.6865 2853.0815,85.0347 Q2854.4014,83.3828 2856.9082,83.3828 Q2857.6138,83.3828 2858.2612,83.5322 Q2858.9087,83.6816 2859.4731,83.9805 L2859.4731,86.7031 Q2858.8423,86.1221 2858.2488,85.8523 Q2857.6553,85.5825 2857.0244,85.5825 Q2855.6797,85.5825 2854.9949,86.6492 Q2854.3101,87.7158 2854.3101,89.8159 Q2854.3101,91.9077 2854.9949,92.9744 Q2855.6797,94.041 2857.0244,94.041 Q2857.6553,94.041 2858.2488,93.7712 Q2858.8423,93.5015 2859.4731,92.9204 Z " fill="#000000"/><text fill="#000000" font-family="sans-serif" font-size="12" lengthAdjust="spacing" textLength="48" x="2871" y="94.0352">伝統志向</text><line style="stroke:#A80036;stroke-width:1.5;" x1="2843" x2="2921" y1="105.5" y2="105.5"/><line style="stroke:#A80036;stroke-width:1.5;" x1="2843" x2="2921" y1="113.5" y2="113.5"/><!--MD5=[b337f6de976b78452eba931cf2ed514e]
class env.不満--><rect codeLine="22" fill="#FEFECE" filter="url(#fx1dc7p7fdx67)" height="48" id="env.不満" style="stroke:#A80036;stroke-width:1.5;" width="56" x="2208" y="350"/><ellipse cx="2223" cy="366" fill="#ADD1B2" rx="11" ry="11" style="stroke:#A80036;stroke-width:1.0;"/><path d="M2225.4731,372.1431 Q2224.8921,372.4419 2224.2529,372.5913 Q2223.6138,372.7407 2222.9082,372.7407 Q2220.4014,372.7407 2219.0815,371.0889 Q2217.7617,369.437 2217.7617,366.3159 Q2217.7617,363.1865 2219.0815,361.5347 Q2220.4014,359.8828 2222.9082,359.8828 Q2223.6138,359.8828 2224.2612,360.0322 Q2224.9087,360.1816 2225.4731,360.4805 L2225.4731,363.2031 Q2224.8423,362.6221 2224.2488,362.3523 Q2223.6553,362.0825 2223.0244,362.0825 Q2221.6797,362.0825 2220.9949,363.1492 Q2220.3101,364.2158 2220.3101,366.3159 Q2220.3101,368.4077 2220.9949,369.4744 Q2221.6797,370.541 2223.0244,370.541 Q2223.6553,370.541 2224.2488,370.2712 Q2224.8423,370.0015 2225.4731,369.4204 Z " fill="#000000"/><text fill="#000000" font-family="sans-serif" font-size="12" lengthAdjust="spacing" textLength="24" x="2237" y="370.5352">不満</text><line style="stroke:#A80036;stroke-width:1.5;" x1="2209" x2="2263" y1="382" y2="382"/><line style="stroke:#A80036;stroke-width:1.5;" x1="2209" x2="2263" y1="390" y2="390"/><!--MD5=[6dbbccf62dd0eb5d0bae1abab68992fa]
class env.圧力下--><rect codeLine="23" fill="#FEFECE" filter="url(#fx1dc7p7fdx67)" height="48" id="env.圧力下" style="stroke:#A80036;stroke-width:1.5;" width="68" x="1930" y="350"/><ellipse cx="1945" cy="366" fill="#ADD1B2" rx="11" ry="11" style="stroke:#A80036;stroke-width:1.0;"/><path d="M1947.4731,372.1431 Q1946.8921,372.4419 1946.2529,372.5913 Q1945.6138,372.7407 1944.9082,372.7407 Q1942.4014,372.7407 1941.0815,371.0889 Q1939.7617,369.437 1939.7617,366.3159 Q1939.7617,363.1865 1941.0815,361.5347 Q1942.4014,359.8828 1944.9082,359.8828 Q1945.6138,359.8828 1946.2612,360.0322 Q1946.9087,360.1816 1947.4731,360.4805 L1947.4731,363.2031 Q1946.8423,362.6221 1946.2488,362.3523 Q1945.6553,362.0825 1945.0244,362.0825 Q1943.6797,362.0825 1942.9949,363.1492 Q1942.3101,364.2158 1942.3101,366.3159 Q1942.3101,368.4077 1942.9949,369.4744 Q1943.6797,370.541 1945.0244,370.541 Q1945.6553,370.541 1946.2488,370.2712 Q1946.8423,370.0015 1947.4731,369.4204 Z " fill="#000000"/><text fill="#000000" font-family="sans-serif" font-size="12" lengthAdjust="spacing" textLength="36" x="1959" y="370.5352">圧力下</text><line style="stroke:#A80036;stroke-width:1.5;" x1="1931" x2="1997" y1="382" y2="382"/><line style="stroke:#A80036;stroke-width:1.5;" x1="1931" x2="1997" y1="390" y2="390"/><!--MD5=[fb4c72aeb41dd212a15cf732f22aff08]
class env.女性的要素からの圧力--><rect codeLine="25" fill="#FEFECE" filter="url(#fx1dc7p7fdx67)" height="48" id="env.女性的要素からの圧力" style="stroke:#A80036;stroke-width:1.5;" width="152" x="2299" y="350"/><ellipse cx="2314" cy="366" fill="#ADD1B2" rx="11" ry="11" style="stroke:#A80036;stroke-width:1.0;"/><path d="M2316.4731,372.1431 Q2315.8921,372.4419 2315.2529,372.5913 Q2314.6138,372.7407 2313.9082,372.7407 Q2311.4014,372.7407 2310.0815,371.0889 Q2308.7617,369.437 2308.7617,366.3159 Q2308.7617,363.1865 2310.0815,361.5347 Q2311.4014,359.8828 2313.9082,359.8828 Q2314.6138,359.8828 2315.2612,360.0322 Q2315.9087,360.1816 2316.4731,360.4805 L2316.4731,363.2031 Q2315.8423,362.6221 2315.2488,362.3523 Q2314.6553,362.0825 2314.0244,362.0825 Q2312.6797,362.0825 2311.9949,363.1492 Q2311.3101,364.2158 2311.3101,366.3159 Q2311.3101,368.4077 2311.9949,369.4744 Q2312.6797,370.541 2314.0244,370.541 Q2314.6553,370.541 2315.2488,370.2712 Q2315.8423,370.0015 2316.4731,369.4204 Z " fill="#000000"/><text fill="#000000" font-family="sans-serif" font-size="12" lengthAdjust="spacing" textLength="120" x="2328" y="370.5352">女性的要素からの圧力</text><line style="stroke:#A80036;stroke-width:1.5;" x1="2300" x2="2450" y1="382" y2="382"/><line style="stroke:#A80036;stroke-width:1.5;" x1="2300" x2="2450" y1="390" y2="390"/><!--MD5=[186806f0922ff661b6b52ac89de76293]
class env.諦め--><rect codeLine="27" fill="#FEFECE" filter="url(#fx1dc7p7fdx67)" height="48" id="env.諦め" style="stroke:#A80036;stroke-width:1.5;" width="56" x="1936" y="473"/><ellipse cx="1951" cy="489" fill="#ADD1B2" rx="11" ry="11" style="stroke:#A80036;stroke-width:1.0;"/><path d="M1953.4731,495.1431 Q1952.8921,495.4419 1952.2529,495.5913 Q1951.6138,495.7407 1950.9082,495.7407 Q1948.4014,495.7407 1947.0815,494.0889 Q1945.7617,492.437 1945.7617,489.3159 Q1945.7617,486.1865 1947.0815,484.5347 Q1948.4014,482.8828 1950.9082,482.8828 Q1951.6138,482.8828 1952.2612,483.0322 Q1952.9087,483.1816 1953.4731,483.4805 L1953.4731,486.2031 Q1952.8423,485.6221 1952.2488,485.3523 Q1951.6553,485.0825 1951.0244,485.0825 Q1949.6797,485.0825 1948.9949,486.1492 Q1948.3101,487.2158 1948.3101,489.3159 Q1948.3101,491.4077 1948.9949,492.4744 Q1949.6797,493.541 1951.0244,493.541 Q1951.6553,493.541 1952.2488,493.2712 Q1952.8423,493.0015 1953.4731,492.4204 Z " fill="#000000"/><text fill="#000000" font-family="sans-serif" font-size="12" lengthAdjust="spacing" textLength="24" x="1965" y="493.5352">諦め</text><line style="stroke:#A80036;stroke-width:1.5;" x1="1937" x2="1991" y1="505" y2="505"/><line style="stroke:#A80036;stroke-width:1.5;" x1="1937" x2="1991" y1="513" y2="513"/><!--MD5=[c6b2ce260a9bc64887e3e62bdd14a8ec]
class env.他者との接触の増加--><rect codeLine="30" fill="#FEFECE" filter="url(#fx1dc7p7fdx67)" height="48" id="env.他者との接触の増加" style="stroke:#A80036;stroke-width:1.5;" width="140" x="2033" y="350"/><ellipse cx="2048" cy="366" fill="#ADD1B2" rx="11" ry="11" style="stroke:#A80036;stroke-width:1.0;"/><path d="M2050.4731,372.1431 Q2049.8921,372.4419 2049.2529,372.5913 Q2048.6138,372.7407 2047.9082,372.7407 Q2045.4014,372.7407 2044.0815,371.0889 Q2042.7617,369.437 2042.7617,366.3159 Q2042.7617,363.1865 2044.0815,361.5347 Q2045.4014,359.8828 2047.9082,359.8828 Q2048.6138,359.8828 2049.2612,360.0322 Q2049.9087,360.1816 2050.4731,360.4805 L2050.4731,363.2031 Q2049.8423,362.6221 2049.2488,362.3523 Q2048.6553,362.0825 2048.0244,362.0825 Q2046.6797,362.0825 2045.9949,363.1492 Q2045.3101,364.2158 2045.3101,366.3159 Q2045.3101,368.4077 2045.9949,369.4744 Q2046.6797,370.541 2048.0244,370.541 Q2048.6553,370.541 2049.2488,370.2712 Q2049.8423,370.0015 2050.4731,369.4204 Z " fill="#000000"/><text fill="#000000" font-family="sans-serif" font-size="12" lengthAdjust="spacing" textLength="108" x="2062" y="370.5352">他者との接触の増加</text><line style="stroke:#A80036;stroke-width:1.5;" x1="2034" x2="2172" y1="382" y2="382"/><line style="stroke:#A80036;stroke-width:1.5;" x1="2034" x2="2172" y1="390" y2="390"/><!--MD5=[f67090f2d05e59c8cd2106ae3b8ec4a9]
class think.秘密主義--><rect codeLine="34" fill="#FEFECE" filter="url(#fx1dc7p7fdx67)" height="48" id="think.秘密主義" style="stroke:#A80036;stroke-width:1.5;" width="80" x="1744" y="350"/><ellipse cx="1759" cy="366" fill="#ADD1B2" rx="11" ry="11" style="stroke:#A80036;stroke-width:1.0;"/><path d="M1761.4731,372.1431 Q1760.8921,372.4419 1760.2529,372.5913 Q1759.6138,372.7407 1758.9082,372.7407 Q1756.4014,372.7407 1755.0815,371.0889 Q1753.7617,369.437 1753.7617,366.3159 Q1753.7617,363.1865 1755.0815,361.5347 Q1756.4014,359.8828 1758.9082,359.8828 Q1759.6138,359.8828 1760.2612,360.0322 Q1760.9087,360.1816 1761.4731,360.4805 L1761.4731,363.2031 Q1760.8423,362.6221 1760.2488,362.3523 Q1759.6553,362.0825 1759.0244,362.0825 Q1757.6797,362.0825 1756.9949,363.1492 Q1756.3101,364.2158 1756.3101,366.3159 Q1756.3101,368.4077 1756.9949,369.4744 Q1757.6797,370.541 1759.0244,370.541 Q1759.6553,370.541 1760.2488,370.2712 Q1760.8423,370.0015 1761.4731,369.4204 Z " fill="#000000"/><text fill="#000000" font-family="sans-serif" font-size="12" lengthAdjust="spacing" textLength="48" x="1773" y="370.5352">秘密主義</text><line style="stroke:#A80036;stroke-width:1.5;" x1="1745" x2="1823" y1="382" y2="382"/><line style="stroke:#A80036;stroke-width:1.5;" x1="1745" x2="1823" y1="390" y2="390"/><!--MD5=[9b9b31b741db9cc35ec471c2b68a55ac]
class think.伝統主義--><rect codeLine="35" fill="#FEFECE" filter="url(#fx1dc7p7fdx67)" height="48" id="think.伝統主義" style="stroke:#A80036;stroke-width:1.5;" width="80" x="1629" y="350"/><ellipse cx="1644" cy="366" fill="#ADD1B2" rx="11" ry="11" style="stroke:#A80036;stroke-width:1.0;"/><path d="M1646.4731,372.1431 Q1645.8921,372.4419 1645.2529,372.5913 Q1644.6138,372.7407 1643.9082,372.7407 Q1641.4014,372.7407 1640.0815,371.0889 Q1638.7617,369.437 1638.7617,366.3159 Q1638.7617,363.1865 1640.0815,361.5347 Q1641.4014,359.8828 1643.9082,359.8828 Q1644.6138,359.8828 1645.2612,360.0322 Q1645.9087,360.1816 1646.4731,360.4805 L1646.4731,363.2031 Q1645.8423,362.6221 1645.2488,362.3523 Q1644.6553,362.0825 1644.0244,362.0825 Q1642.6797,362.0825 1641.9949,363.1492 Q1641.3101,364.2158 1641.3101,366.3159 Q1641.3101,368.4077 1641.9949,369.4744 Q1642.6797,370.541 1644.0244,370.541 Q1644.6553,370.541 1645.2488,370.2712 Q1645.8423,370.0015 1646.4731,369.4204 Z " fill="#000000"/><text fill="#000000" font-family="sans-serif" font-size="12" lengthAdjust="spacing" textLength="48" x="1658" y="370.5352">伝統主義</text><line style="stroke:#A80036;stroke-width:1.5;" x1="1630" x2="1708" y1="382" y2="382"/><line style="stroke:#A80036;stroke-width:1.5;" x1="1630" x2="1708" y1="390" y2="390"/><!--MD5=[6209d979025a68e856ea4f551a5880c1]
class think.理想主義--><rect codeLine="36" fill="#FEFECE" filter="url(#fx1dc7p7fdx67)" height="48" id="think.理想主義" style="stroke:#A80036;stroke-width:1.5;" width="80" x="1423" y="350"/><ellipse cx="1438" cy="366" fill="#ADD1B2" rx="11" ry="11" style="stroke:#A80036;stroke-width:1.0;"/><path d="M1440.4731,372.1431 Q1439.8921,372.4419 1439.2529,372.5913 Q1438.6138,372.7407 1437.9082,372.7407 Q1435.4014,372.7407 1434.0815,371.0889 Q1432.7617,369.437 1432.7617,366.3159 Q1432.7617,363.1865 1434.0815,361.5347 Q1435.4014,359.8828 1437.9082,359.8828 Q1438.6138,359.8828 1439.2612,360.0322 Q1439.9087,360.1816 1440.4731,360.4805 L1440.4731,363.2031 Q1439.8423,362.6221 1439.2488,362.3523 Q1438.6553,362.0825 1438.0244,362.0825 Q1436.6797,362.0825 1435.9949,363.1492 Q1435.3101,364.2158 1435.3101,366.3159 Q1435.3101,368.4077 1435.9949,369.4744 Q1436.6797,370.541 1438.0244,370.541 Q1438.6553,370.541 1439.2488,370.2712 Q1439.8423,370.0015 1440.4731,369.4204 Z " fill="#000000"/><text fill="#000000" font-family="sans-serif" font-size="12" lengthAdjust="spacing" textLength="48" x="1452" y="370.5352">理想主義</text><line style="stroke:#A80036;stroke-width:1.5;" x1="1424" x2="1502" y1="382" y2="382"/><line style="stroke:#A80036;stroke-width:1.5;" x1="1424" x2="1502" y1="390" y2="390"/><!--MD5=[c52053fbb5ece2d33925a26c73482f85]
class think.逃避--><rect codeLine="37" fill="#FEFECE" filter="url(#fx1dc7p7fdx67)" height="48" id="think.逃避" style="stroke:#A80036;stroke-width:1.5;" width="56" x="1538" y="350"/><ellipse cx="1553" cy="366" fill="#ADD1B2" rx="11" ry="11" style="stroke:#A80036;stroke-width:1.0;"/><path d="M1555.4731,372.1431 Q1554.8921,372.4419 1554.2529,372.5913 Q1553.6138,372.7407 1552.9082,372.7407 Q1550.4014,372.7407 1549.0815,371.0889 Q1547.7617,369.437 1547.7617,366.3159 Q1547.7617,363.1865 1549.0815,361.5347 Q1550.4014,359.8828 1552.9082,359.8828 Q1553.6138,359.8828 1554.2612,360.0322 Q1554.9087,360.1816 1555.4731,360.4805 L1555.4731,363.2031 Q1554.8423,362.6221 1554.2488,362.3523 Q1553.6553,362.0825 1553.0244,362.0825 Q1551.6797,362.0825 1550.9949,363.1492 Q1550.3101,364.2158 1550.3101,366.3159 Q1550.3101,368.4077 1550.9949,369.4744 Q1551.6797,370.541 1553.0244,370.541 Q1553.6553,370.541 1554.2488,370.2712 Q1554.8423,370.0015 1555.4731,369.4204 Z " fill="#000000"/><text fill="#000000" font-family="sans-serif" font-size="12" lengthAdjust="spacing" textLength="24" x="1567" y="370.5352">逃避</text><line style="stroke:#A80036;stroke-width:1.5;" x1="1539" x2="1593" y1="382" y2="382"/><line style="stroke:#A80036;stroke-width:1.5;" x1="1539" x2="1593" y1="390" y2="390"/><!--MD5=[be03a69dee268d605f6d6fbaa69865e7]
class living.死--><rect codeLine="41" fill="#FEFECE" filter="url(#fx1dc7p7fdx67)" height="48" id="living.死" style="stroke:#A80036;stroke-width:1.5;" width="44" x="1631" y="473"/><ellipse cx="1646" cy="489" fill="#ADD1B2" rx="11" ry="11" style="stroke:#A80036;stroke-width:1.0;"/><path d="M1648.4731,495.1431 Q1647.8921,495.4419 1647.2529,495.5913 Q1646.6138,495.7407 1645.9082,495.7407 Q1643.4014,495.7407 1642.0815,494.0889 Q1640.7617,492.437 1640.7617,489.3159 Q1640.7617,486.1865 1642.0815,484.5347 Q1643.4014,482.8828 1645.9082,482.8828 Q1646.6138,482.8828 1647.2612,483.0322 Q1647.9087,483.1816 1648.4731,483.4805 L1648.4731,486.2031 Q1647.8423,485.6221 1647.2488,485.3523 Q1646.6553,485.0825 1646.0244,485.0825 Q1644.6797,485.0825 1643.9949,486.1492 Q1643.3101,487.2158 1643.3101,489.3159 Q1643.3101,491.4077 1643.9949,492.4744 Q1644.6797,493.541 1646.0244,493.541 Q1646.6553,493.541 1647.2488,493.2712 Q1647.8423,493.0015 1648.4731,492.4204 Z " fill="#000000"/><text fill="#000000" font-family="sans-serif" font-size="12" lengthAdjust="spacing" textLength="12" x="1660" y="493.5352">死</text><line style="stroke:#A80036;stroke-width:1.5;" x1="1632" x2="1674" y1="505" y2="505"/><line style="stroke:#A80036;stroke-width:1.5;" x1="1632" x2="1674" y1="513" y2="513"/><!--MD5=[18cad1a8e596fd5472f250e718d823ca]
class living.充実--><rect codeLine="42" fill="#FEFECE" filter="url(#fx1dc7p7fdx67)" height="48" id="living.充実" style="stroke:#A80036;stroke-width:1.5;" width="56" x="1540" y="473"/><ellipse cx="1555" cy="489" fill="#ADD1B2" rx="11" ry="11" style="stroke:#A80036;stroke-width:1.0;"/><path d="M1557.4731,495.1431 Q1556.8921,495.4419 1556.2529,495.5913 Q1555.6138,495.7407 1554.9082,495.7407 Q1552.4014,495.7407 1551.0815,494.0889 Q1549.7617,492.437 1549.7617,489.3159 Q1549.7617,486.1865 1551.0815,484.5347 Q1552.4014,482.8828 1554.9082,482.8828 Q1555.6138,482.8828 1556.2612,483.0322 Q1556.9087,483.1816 1557.4731,483.4805 L1557.4731,486.2031 Q1556.8423,485.6221 1556.2488,485.3523 Q1555.6553,485.0825 1555.0244,485.0825 Q1553.6797,485.0825 1552.9949,486.1492 Q1552.3101,487.2158 1552.3101,489.3159 Q1552.3101,491.4077 1552.9949,492.4744 Q1553.6797,493.541 1555.0244,493.541 Q1555.6553,493.541 1556.2488,493.2712 Q1556.8423,493.0015 1557.4731,492.4204 Z " fill="#000000"/><text fill="#000000" font-family="sans-serif" font-size="12" lengthAdjust="spacing" textLength="24" x="1569" y="493.5352">充実</text><line style="stroke:#A80036;stroke-width:1.5;" x1="1541" x2="1595" y1="505" y2="505"/><line style="stroke:#A80036;stroke-width:1.5;" x1="1541" x2="1595" y1="513" y2="513"/><!--MD5=[e45ac958bfb7a40f67cd80ece99aeb6f]
class state.喪失--><rect codeLine="46" fill="#FEFECE" filter="url(#fx1dc7p7fdx67)" height="48" id="state.喪失" style="stroke:#A80036;stroke-width:1.5;" width="56" x="147" y="350"/><ellipse cx="162" cy="366" fill="#ADD1B2" rx="11" ry="11" style="stroke:#A80036;stroke-width:1.0;"/><path d="M164.4731,372.1431 Q163.8921,372.4419 163.2529,372.5913 Q162.6138,372.7407 161.9082,372.7407 Q159.4014,372.7407 158.0815,371.0889 Q156.7617,369.437 156.7617,366.3159 Q156.7617,363.1865 158.0815,361.5347 Q159.4014,359.8828 161.9082,359.8828 Q162.6138,359.8828 163.2612,360.0322 Q163.9087,360.1816 164.4731,360.4805 L164.4731,363.2031 Q163.8423,362.6221 163.2488,362.3523 Q162.6553,362.0825 162.0244,362.0825 Q160.6797,362.0825 159.9949,363.1492 Q159.3101,364.2158 159.3101,366.3159 Q159.3101,368.4077 159.9949,369.4744 Q160.6797,370.541 162.0244,370.541 Q162.6553,370.541 163.2488,370.2712 Q163.8423,370.0015 164.4731,369.4204 Z " fill="#000000"/><text fill="#000000" font-family="sans-serif" font-size="12" lengthAdjust="spacing" textLength="24" x="176" y="370.5352">喪失</text><line style="stroke:#A80036;stroke-width:1.5;" x1="148" x2="202" y1="382" y2="382"/><line style="stroke:#A80036;stroke-width:1.5;" x1="148" x2="202" y1="390" y2="390"/><!--MD5=[a768ce815de24fe62eb746c3c9f7b47a]
class state.空想--><rect codeLine="48" fill="#FEFECE" filter="url(#fx1dc7p7fdx67)" height="48" id="state.空想" style="stroke:#A80036;stroke-width:1.5;" width="56" x="238" y="350"/><ellipse cx="253" cy="366" fill="#ADD1B2" rx="11" ry="11" style="stroke:#A80036;stroke-width:1.0;"/><path d="M255.4731,372.1431 Q254.8921,372.4419 254.2529,372.5913 Q253.6138,372.7407 252.9082,372.7407 Q250.4014,372.7407 249.0815,371.0889 Q247.7617,369.437 247.7617,366.3159 Q247.7617,363.1865 249.0815,361.5347 Q250.4014,359.8828 252.9082,359.8828 Q253.6138,359.8828 254.2612,360.0322 Q254.9087,360.1816 255.4731,360.4805 L255.4731,363.2031 Q254.8423,362.6221 254.2488,362.3523 Q253.6553,362.0825 253.0244,362.0825 Q251.6797,362.0825 250.9949,363.1492 Q250.3101,364.2158 250.3101,366.3159 Q250.3101,368.4077 250.9949,369.4744 Q251.6797,370.541 253.0244,370.541 Q253.6553,370.541 254.2488,370.2712 Q254.8423,370.0015 255.4731,369.4204 Z " fill="#000000"/><text fill="#000000" font-family="sans-serif" font-size="12" lengthAdjust="spacing" textLength="24" x="267" y="370.5352">空想</text><line style="stroke:#A80036;stroke-width:1.5;" x1="239" x2="293" y1="382" y2="382"/><line style="stroke:#A80036;stroke-width:1.5;" x1="239" x2="293" y1="390" y2="390"/><!--MD5=[25e9c5294557a47419d23601d3bf55e0]
class state.現実--><rect codeLine="50" fill="#FEFECE" filter="url(#fx1dc7p7fdx67)" height="48" id="state.現実" style="stroke:#A80036;stroke-width:1.5;" width="56" x="147" y="473"/><ellipse cx="162" cy="489" fill="#ADD1B2" rx="11" ry="11" style="stroke:#A80036;stroke-width:1.0;"/><path d="M164.4731,495.1431 Q163.8921,495.4419 163.2529,495.5913 Q162.6138,495.7407 161.9082,495.7407 Q159.4014,495.7407 158.0815,494.0889 Q156.7617,492.437 156.7617,489.3159 Q156.7617,486.1865 158.0815,484.5347 Q159.4014,482.8828 161.9082,482.8828 Q162.6138,482.8828 163.2612,483.0322 Q163.9087,483.1816 164.4731,483.4805 L164.4731,486.2031 Q163.8423,485.6221 163.2488,485.3523 Q162.6553,485.0825 162.0244,485.0825 Q160.6797,485.0825 159.9949,486.1492 Q159.3101,487.2158 159.3101,489.3159 Q159.3101,491.4077 159.9949,492.4744 Q160.6797,493.541 162.0244,493.541 Q162.6553,493.541 163.2488,493.2712 Q163.8423,493.0015 164.4731,492.4204 Z " fill="#000000"/><text fill="#000000" font-family="sans-serif" font-size="12" lengthAdjust="spacing" textLength="24" x="176" y="493.5352">現実</text><line style="stroke:#A80036;stroke-width:1.5;" x1="148" x2="202" y1="505" y2="505"/><line style="stroke:#A80036;stroke-width:1.5;" x1="148" x2="202" y1="513" y2="513"/><!--MD5=[062afe9b5d2e58a566a11929855daa8a]
class state.過去--><rect codeLine="52" fill="#FEFECE" filter="url(#fx1dc7p7fdx67)" height="48" id="state.過去" style="stroke:#A80036;stroke-width:1.5;" width="56" x="238" y="473"/><ellipse cx="253" cy="489" fill="#ADD1B2" rx="11" ry="11" style="stroke:#A80036;stroke-width:1.0;"/><path d="M255.4731,495.1431 Q254.8921,495.4419 254.2529,495.5913 Q253.6138,495.7407 252.9082,495.7407 Q250.4014,495.7407 249.0815,494.0889 Q247.7617,492.437 247.7617,489.3159 Q247.7617,486.1865 249.0815,484.5347 Q250.4014,482.8828 252.9082,482.8828 Q253.6138,482.8828 254.2612,483.0322 Q254.9087,483.1816 255.4731,483.4805 L255.4731,486.2031 Q254.8423,485.6221 254.2488,485.3523 Q253.6553,485.0825 253.0244,485.0825 Q251.6797,485.0825 250.9949,486.1492 Q250.3101,487.2158 250.3101,489.3159 Q250.3101,491.4077 250.9949,492.4744 Q251.6797,493.541 253.0244,493.541 Q253.6553,493.541 254.2488,493.2712 Q254.8423,493.0015 255.4731,492.4204 Z " fill="#000000"/><text fill="#000000" font-family="sans-serif" font-size="12" lengthAdjust="spacing" textLength="24" x="267" y="493.5352">過去</text><line style="stroke:#A80036;stroke-width:1.5;" x1="239" x2="293" y1="505" y2="505"/><line style="stroke:#A80036;stroke-width:1.5;" x1="239" x2="293" y1="513" y2="513"/><!--MD5=[2b6809958c87f6d8e947a0ca656e57ee]
class state.現実主義--><rect fill="#FEFECE" filter="url(#fx1dc7p7fdx67)" height="48" id="state.現実主義" style="stroke:#A80036;stroke-width:1.5;" width="80" x="32" y="350"/><ellipse cx="47" cy="366" fill="#ADD1B2" rx="11" ry="11" style="stroke:#A80036;stroke-width:1.0;"/><path d="M49.4731,372.1431 Q48.8921,372.4419 48.2529,372.5913 Q47.6138,372.7407 46.9082,372.7407 Q44.4014,372.7407 43.0815,371.0889 Q41.7617,369.437 41.7617,366.3159 Q41.7617,363.1865 43.0815,361.5347 Q44.4014,359.8828 46.9082,359.8828 Q47.6138,359.8828 48.2612,360.0322 Q48.9087,360.1816 49.4731,360.4805 L49.4731,363.2031 Q48.8423,362.6221 48.2488,362.3523 Q47.6553,362.0825 47.0244,362.0825 Q45.6797,362.0825 44.9949,363.1492 Q44.3101,364.2158 44.3101,366.3159 Q44.3101,368.4077 44.9949,369.4744 Q45.6797,370.541 47.0244,370.541 Q47.6553,370.541 48.2488,370.2712 Q48.8423,370.0015 49.4731,369.4204 Z " fill="#000000"/><text fill="#000000" font-family="sans-serif" font-size="12" lengthAdjust="spacing" textLength="48" x="61" y="370.5352">現実主義</text><line style="stroke:#A80036;stroke-width:1.5;" x1="33" x2="111" y1="382" y2="382"/><line style="stroke:#A80036;stroke-width:1.5;" x1="33" x2="111" y1="390" y2="390"/><!--MD5=[5e75cd6d72e3742fe767ff2275e248de]
class time.過去--><rect codeLine="56" fill="#FEFECE" filter="url(#fx1dc7p7fdx67)" height="48" id="time.過去" style="stroke:#A80036;stroke-width:1.5;" width="56" x="3069" y="73.5"/><ellipse cx="3084" cy="89.5" fill="#ADD1B2" rx="11" ry="11" style="stroke:#A80036;stroke-width:1.0;"/><path d="M3086.4731,95.6431 Q3085.8921,95.9419 3085.2529,96.0913 Q3084.6138,96.2407 3083.9082,96.2407 Q3081.4014,96.2407 3080.0815,94.5889 Q3078.7617,92.937 3078.7617,89.8159 Q3078.7617,86.6865 3080.0815,85.0347 Q3081.4014,83.3828 3083.9082,83.3828 Q3084.6138,83.3828 3085.2612,83.5322 Q3085.9087,83.6816 3086.4731,83.9805 L3086.4731,86.7031 Q3085.8423,86.1221 3085.2488,85.8523 Q3084.6553,85.5825 3084.0244,85.5825 Q3082.6797,85.5825 3081.9949,86.6492 Q3081.3101,87.7158 3081.3101,89.8159 Q3081.3101,91.9077 3081.9949,92.9744 Q3082.6797,94.041 3084.0244,94.041 Q3084.6553,94.041 3085.2488,93.7712 Q3085.8423,93.5015 3086.4731,92.9204 Z " fill="#000000"/><text fill="#000000" font-family="sans-serif" font-size="12" lengthAdjust="spacing" textLength="24" x="3098" y="94.0352">過去</text><line style="stroke:#A80036;stroke-width:1.5;" x1="3070" x2="3124" y1="105.5" y2="105.5"/><line style="stroke:#A80036;stroke-width:1.5;" x1="3070" x2="3124" y1="113.5" y2="113.5"/><!--MD5=[08d6c6fbd3c2d8e5bf03c190ac3da287]
class time.未来--><rect codeLine="58" fill="#FEFECE" filter="url(#fx1dc7p7fdx67)" height="48" id="time.未来" style="stroke:#A80036;stroke-width:1.5;" width="56" x="2978" y="73.5"/><ellipse cx="2993" cy="89.5" fill="#ADD1B2" rx="11" ry="11" style="stroke:#A80036;stroke-width:1.0;"/><path d="M2995.4731,95.6431 Q2994.8921,95.9419 2994.2529,96.0913 Q2993.6138,96.2407 2992.9082,96.2407 Q2990.4014,96.2407 2989.0815,94.5889 Q2987.7617,92.937 2987.7617,89.8159 Q2987.7617,86.6865 2989.0815,85.0347 Q2990.4014,83.3828 2992.9082,83.3828 Q2993.6138,83.3828 2994.2612,83.5322 Q2994.9087,83.6816 2995.4731,83.9805 L2995.4731,86.7031 Q2994.8423,86.1221 2994.2488,85.8523 Q2993.6553,85.5825 2993.0244,85.5825 Q2991.6797,85.5825 2990.9949,86.6492 Q2990.3101,87.7158 2990.3101,89.8159 Q2990.3101,91.9077 2990.9949,92.9744 Q2991.6797,94.041 2993.0244,94.041 Q2993.6553,94.041 2994.2488,93.7712 Q2994.8423,93.5015 2995.4731,92.9204 Z " fill="#000000"/><text fill="#000000" font-family="sans-serif" font-size="12" lengthAdjust="spacing" textLength="24" x="3007" y="94.0352">未来</text><line style="stroke:#A80036;stroke-width:1.5;" x1="2979" x2="3033" y1="105.5" y2="105.5"/><line style="stroke:#A80036;stroke-width:1.5;" x1="2979" x2="3033" y1="113.5" y2="113.5"/><!--MD5=[95c728fff8ee74ea59419b3a4da66ea3]
class parents.母親からの影響--><rect codeLine="62" fill="#FEFECE" filter="url(#fx1dc7p7fdx67)" height="48" id="parents.母親からの影響" style="stroke:#A80036;stroke-width:1.5;" width="116" x="3519" y="73.5"/><ellipse cx="3534" cy="89.5" fill="#ADD1B2" rx="11" ry="11" style="stroke:#A80036;stroke-width:1.0;"/><path d="M3536.4731,95.6431 Q3535.8921,95.9419 3535.2529,96.0913 Q3534.6138,96.2407 3533.9082,96.2407 Q3531.4014,96.2407 3530.0815,94.5889 Q3528.7617,92.937 3528.7617,89.8159 Q3528.7617,86.6865 3530.0815,85.0347 Q3531.4014,83.3828 3533.9082,83.3828 Q3534.6138,83.3828 3535.2612,83.5322 Q3535.9087,83.6816 3536.4731,83.9805 L3536.4731,86.7031 Q3535.8423,86.1221 3535.2488,85.8523 Q3534.6553,85.5825 3534.0244,85.5825 Q3532.6797,85.5825 3531.9949,86.6492 Q3531.3101,87.7158 3531.3101,89.8159 Q3531.3101,91.9077 3531.9949,92.9744 Q3532.6797,94.041 3534.0244,94.041 Q3534.6553,94.041 3535.2488,93.7712 Q3535.8423,93.5015 3536.4731,92.9204 Z " fill="#000000"/><text fill="#000000" font-family="sans-serif" font-size="12" lengthAdjust="spacing" textLength="84" x="3548" y="94.0352">母親からの影響</text><line style="stroke:#A80036;stroke-width:1.5;" x1="3520" x2="3634" y1="105.5" y2="105.5"/><line style="stroke:#A80036;stroke-width:1.5;" x1="3520" x2="3634" y1="113.5" y2="113.5"/><!--MD5=[3ece5616b20bc24d67c147e24668c060]
class parents.母親からの影響の克服--><rect codeLine="63" fill="#FEFECE" filter="url(#fx1dc7p7fdx67)" height="48" id="parents.母親からの影響の克服" style="stroke:#A80036;stroke-width:1.5;" width="152" x="3332" y="73.5"/><ellipse cx="3347" cy="89.5" fill="#ADD1B2" rx="11" ry="11" style="stroke:#A80036;stroke-width:1.0;"/><path d="M3349.4731,95.6431 Q3348.8921,95.9419 3348.2529,96.0913 Q3347.6138,96.2407 3346.9082,96.2407 Q3344.4014,96.2407 3343.0815,94.5889 Q3341.7617,92.937 3341.7617,89.8159 Q3341.7617,86.6865 3343.0815,85.0347 Q3344.4014,83.3828 3346.9082,83.3828 Q3347.6138,83.3828 3348.2612,83.5322 Q3348.9087,83.6816 3349.4731,83.9805 L3349.4731,86.7031 Q3348.8423,86.1221 3348.2488,85.8523 Q3347.6553,85.5825 3347.0244,85.5825 Q3345.6797,85.5825 3344.9949,86.6492 Q3344.3101,87.7158 3344.3101,89.8159 Q3344.3101,91.9077 3344.9949,92.9744 Q3345.6797,94.041 3347.0244,94.041 Q3347.6553,94.041 3348.2488,93.7712 Q3348.8423,93.5015 3349.4731,92.9204 Z " fill="#000000"/><text fill="#000000" font-family="sans-serif" font-size="12" lengthAdjust="spacing" textLength="120" x="3361" y="94.0352">母親からの影響の克服</text><line style="stroke:#A80036;stroke-width:1.5;" x1="3333" x2="3483" y1="105.5" y2="105.5"/><line style="stroke:#A80036;stroke-width:1.5;" x1="3333" x2="3483" y1="113.5" y2="113.5"/><!--MD5=[a9c19c57b80e7bb1f146470153448781]
class parents.父親からの影響--><rect codeLine="64" fill="#FEFECE" filter="url(#fx1dc7p7fdx67)" height="48" id="parents.父親からの影響" style="stroke:#A80036;stroke-width:1.5;" width="116" x="3181" y="73.5"/><ellipse cx="3196" cy="89.5" fill="#ADD1B2" rx="11" ry="11" style="stroke:#A80036;stroke-width:1.0;"/><path d="M3198.4731,95.6431 Q3197.8921,95.9419 3197.2529,96.0913 Q3196.6138,96.2407 3195.9082,96.2407 Q3193.4014,96.2407 3192.0815,94.5889 Q3190.7617,92.937 3190.7617,89.8159 Q3190.7617,86.6865 3192.0815,85.0347 Q3193.4014,83.3828 3195.9082,83.3828 Q3196.6138,83.3828 3197.2612,83.5322 Q3197.9087,83.6816 3198.4731,83.9805 L3198.4731,86.7031 Q3197.8423,86.1221 3197.2488,85.8523 Q3196.6553,85.5825 3196.0244,85.5825 Q3194.6797,85.5825 3193.9949,86.6492 Q3193.3101,87.7158 3193.3101,89.8159 Q3193.3101,91.9077 3193.9949,92.9744 Q3194.6797,94.041 3196.0244,94.041 Q3196.6553,94.041 3197.2488,93.7712 Q3197.8423,93.5015 3198.4731,92.9204 Z " fill="#000000"/><text fill="#000000" font-family="sans-serif" font-size="12" lengthAdjust="spacing" textLength="84" x="3210" y="94.0352">父親からの影響</text><line style="stroke:#A80036;stroke-width:1.5;" x1="3182" x2="3296" y1="105.5" y2="105.5"/><line style="stroke:#A80036;stroke-width:1.5;" x1="3182" x2="3296" y1="113.5" y2="113.5"/><!--MD5=[f321c95344578c6a5f01a9c7b8a93ead]
class parents.憧れと諦め--><rect codeLine="66" fill="#FEFECE" filter="url(#fx1dc7p7fdx67)" height="48" id="parents.憧れと諦め" style="stroke:#A80036;stroke-width:1.5;" width="92" x="3193" y="220.5"/><ellipse cx="3208" cy="236.5" fill="#ADD1B2" rx="11" ry="11" style="stroke:#A80036;stroke-width:1.0;"/><path d="M3210.4731,242.6431 Q3209.8921,242.9419 3209.2529,243.0913 Q3208.6138,243.2407 3207.9082,243.2407 Q3205.4014,243.2407 3204.0815,241.5889 Q3202.7617,239.937 3202.7617,236.8159 Q3202.7617,233.6865 3204.0815,232.0347 Q3205.4014,230.3828 3207.9082,230.3828 Q3208.6138,230.3828 3209.2612,230.5322 Q3209.9087,230.6816 3210.4731,230.9805 L3210.4731,233.7031 Q3209.8423,233.1221 3209.2488,232.8523 Q3208.6553,232.5825 3208.0244,232.5825 Q3206.6797,232.5825 3205.9949,233.6492 Q3205.3101,234.7158 3205.3101,236.8159 Q3205.3101,238.9077 3205.9949,239.9744 Q3206.6797,241.041 3208.0244,241.041 Q3208.6553,241.041 3209.2488,240.7712 Q3209.8423,240.5015 3210.4731,239.9204 Z " fill="#000000"/><text fill="#000000" font-family="sans-serif" font-size="12" lengthAdjust="spacing" textLength="60" x="3222" y="241.0352">憧れと諦め</text><line style="stroke:#A80036;stroke-width:1.5;" x1="3194" x2="3284" y1="252.5" y2="252.5"/><line style="stroke:#A80036;stroke-width:1.5;" x1="3194" x2="3284" y1="260.5" y2="260.5"/><!--MD5=[eb22ec15d31d10a6b25c9ebdffe3f7d7]
class towoman.軽蔑--><rect codeLine="70" fill="#FEFECE" filter="url(#fx1dc7p7fdx67)" height="48" id="towoman.軽蔑" style="stroke:#A80036;stroke-width:1.5;" width="56" x="3691" y="73.5"/><ellipse cx="3706" cy="89.5" fill="#ADD1B2" rx="11" ry="11" style="stroke:#A80036;stroke-width:1.0;"/><path d="M3708.4731,95.6431 Q3707.8921,95.9419 3707.2529,96.0913 Q3706.6138,96.2407 3705.9082,96.2407 Q3703.4014,96.2407 3702.0815,94.5889 Q3700.7617,92.937 3700.7617,89.8159 Q3700.7617,86.6865 3702.0815,85.0347 Q3703.4014,83.3828 3705.9082,83.3828 Q3706.6138,83.3828 3707.2612,83.5322 Q3707.9087,83.6816 3708.4731,83.9805 L3708.4731,86.7031 Q3707.8423,86.1221 3707.2488,85.8523 Q3706.6553,85.5825 3706.0244,85.5825 Q3704.6797,85.5825 3703.9949,86.6492 Q3703.3101,87.7158 3703.3101,89.8159 Q3703.3101,91.9077 3703.9949,92.9744 Q3704.6797,94.041 3706.0244,94.041 Q3706.6553,94.041 3707.2488,93.7712 Q3707.8423,93.5015 3708.4731,92.9204 Z " fill="#000000"/><text fill="#000000" font-family="sans-serif" font-size="12" lengthAdjust="spacing" textLength="24" x="3720" y="94.0352">軽蔑</text><line style="stroke:#A80036;stroke-width:1.5;" x1="3692" x2="3746" y1="105.5" y2="105.5"/><line style="stroke:#A80036;stroke-width:1.5;" x1="3692" x2="3746" y1="113.5" y2="113.5"/><!--MD5=[8ecd15b8a96d572ab911af03d05a6e1e]
class sexual.同性愛--><rect codeLine="74" fill="#FEFECE" filter="url(#fx1dc7p7fdx67)" height="48" id="sexual.同性愛" style="stroke:#A80036;stroke-width:1.5;" width="68" x="2561" y="73.5"/><ellipse cx="2576" cy="89.5" fill="#ADD1B2" rx="11" ry="11" style="stroke:#A80036;stroke-width:1.0;"/><path d="M2578.4731,95.6431 Q2577.8921,95.9419 2577.2529,96.0913 Q2576.6138,96.2407 2575.9082,96.2407 Q2573.4014,96.2407 2572.0815,94.5889 Q2570.7617,92.937 2570.7617,89.8159 Q2570.7617,86.6865 2572.0815,85.0347 Q2573.4014,83.3828 2575.9082,83.3828 Q2576.6138,83.3828 2577.2612,83.5322 Q2577.9087,83.6816 2578.4731,83.9805 L2578.4731,86.7031 Q2577.8423,86.1221 2577.2488,85.8523 Q2576.6553,85.5825 2576.0244,85.5825 Q2574.6797,85.5825 2573.9949,86.6492 Q2573.3101,87.7158 2573.3101,89.8159 Q2573.3101,91.9077 2573.9949,92.9744 Q2574.6797,94.041 2576.0244,94.041 Q2576.6553,94.041 2577.2488,93.7712 Q2577.8423,93.5015 2578.4731,92.9204 Z " fill="#000000"/><text fill="#000000" font-family="sans-serif" font-size="12" lengthAdjust="spacing" textLength="36" x="2590" y="94.0352">同性愛</text><line style="stroke:#A80036;stroke-width:1.5;" x1="2562" x2="2628" y1="105.5" y2="105.5"/><line style="stroke:#A80036;stroke-width:1.5;" x1="2562" x2="2628" y1="113.5" y2="113.5"/><!--MD5=[93fe8dbb0c06e7d5a43b24ec49e9c0b4]
class sexual.自己啓発--><rect codeLine="75" fill="#FEFECE" filter="url(#fx1dc7p7fdx67)" height="60.9551" id="sexual.自己啓発" style="stroke:#A80036;stroke-width:1.5;" width="122" x="2664" y="67"/><ellipse cx="2697.9" cy="83" fill="#ADD1B2" rx="11" ry="11" style="stroke:#A80036;stroke-width:1.0;"/><path d="M2700.3731,89.1431 Q2699.7921,89.4419 2699.1529,89.5913 Q2698.5138,89.7407 2697.8082,89.7407 Q2695.3014,89.7407 2693.9815,88.0889 Q2692.6617,86.437 2692.6617,83.3159 Q2692.6617,80.1865 2693.9815,78.5347 Q2695.3014,76.8828 2697.8082,76.8828 Q2698.5138,76.8828 2699.1612,77.0322 Q2699.8087,77.1816 2700.3731,77.4805 L2700.3731,80.2031 Q2699.7423,79.6221 2699.1488,79.3523 Q2698.5553,79.0825 2697.9244,79.0825 Q2696.5797,79.0825 2695.8949,80.1492 Q2695.2101,81.2158 2695.2101,83.3159 Q2695.2101,85.4077 2695.8949,86.4744 Q2696.5797,87.541 2697.9244,87.541 Q2698.5553,87.541 2699.1488,87.2712 Q2699.7423,87.0015 2700.3731,86.4204 Z " fill="#000000"/><text fill="#000000" font-family="sans-serif" font-size="12" lengthAdjust="spacing" textLength="48" x="2716.1" y="87.5352">自己啓発</text><line style="stroke:#A80036;stroke-width:1.5;" x1="2665" x2="2785" y1="99" y2="99"/><text fill="#000000" font-family="sans-serif" font-size="11" lengthAdjust="spacing" textLength="110" x="2670" y="113.6348">恋愛に対する自己啓発</text><line style="stroke:#A80036;stroke-width:1.5;" x1="2665" x2="2785" y1="119.9551" y2="119.9551"/><!--MD5=[ae4f08e4688a0111f9c6e955d7e82727]
class sexual.計画性--><rect codeLine="78" fill="#FEFECE" filter="url(#fx1dc7p7fdx67)" height="60.9551" id="sexual.計画性" style="stroke:#A80036;stroke-width:1.5;" width="111" x="2561.5" y="214"/><ellipse cx="2595.85" cy="230" fill="#ADD1B2" rx="11" ry="11" style="stroke:#A80036;stroke-width:1.0;"/><path d="M2598.3231,236.1431 Q2597.7421,236.4419 2597.1029,236.5913 Q2596.4638,236.7407 2595.7582,236.7407 Q2593.2514,236.7407 2591.9315,235.0889 Q2590.6117,233.437 2590.6117,230.3159 Q2590.6117,227.1865 2591.9315,225.5347 Q2593.2514,223.8828 2595.7582,223.8828 Q2596.4638,223.8828 2597.1112,224.0322 Q2597.7587,224.1816 2598.3231,224.4805 L2598.3231,227.2031 Q2597.6923,226.6221 2597.0988,226.3523 Q2596.5053,226.0825 2595.8744,226.0825 Q2594.5297,226.0825 2593.8449,227.1492 Q2593.1601,228.2158 2593.1601,230.3159 Q2593.1601,232.4077 2593.8449,233.4744 Q2594.5297,234.541 2595.8744,234.541 Q2596.5053,234.541 2597.0988,234.2712 Q2597.6923,234.0015 2598.3231,233.4204 Z " fill="#000000"/><text fill="#000000" font-family="sans-serif" font-size="12" lengthAdjust="spacing" textLength="36" x="2614.15" y="234.5352">計画性</text><line style="stroke:#A80036;stroke-width:1.5;" x1="2562.5" x2="2671.5" y1="246" y2="246"/><text fill="#000000" font-family="sans-serif" font-size="11" lengthAdjust="spacing" textLength="99" x="2567.5" y="260.6348">恋愛に値する計画性</text><line style="stroke:#A80036;stroke-width:1.5;" x1="2562.5" x2="2671.5" y1="266.9551" y2="266.9551"/><!--MD5=[a00949e067130f1609081a4b662ccac7]
class freedom.闘争--><rect codeLine="85" fill="#FEFECE" filter="url(#fx1dc7p7fdx67)" height="48" id="freedom.闘争" style="stroke:#A80036;stroke-width:1.5;" width="56" x="3894" y="73.5"/><ellipse cx="3909" cy="89.5" fill="#ADD1B2" rx="11" ry="11" style="stroke:#A80036;stroke-width:1.0;"/><path d="M3911.4731,95.6431 Q3910.8921,95.9419 3910.2529,96.0913 Q3909.6138,96.2407 3908.9082,96.2407 Q3906.4014,96.2407 3905.0815,94.5889 Q3903.7617,92.937 3903.7617,89.8159 Q3903.7617,86.6865 3905.0815,85.0347 Q3906.4014,83.3828 3908.9082,83.3828 Q3909.6138,83.3828 3910.2612,83.5322 Q3910.9087,83.6816 3911.4731,83.9805 L3911.4731,86.7031 Q3910.8423,86.1221 3910.2488,85.8523 Q3909.6553,85.5825 3909.0244,85.5825 Q3907.6797,85.5825 3906.9949,86.6492 Q3906.3101,87.7158 3906.3101,89.8159 Q3906.3101,91.9077 3906.9949,92.9744 Q3907.6797,94.041 3909.0244,94.041 Q3909.6553,94.041 3910.2488,93.7712 Q3910.8423,93.5015 3911.4731,92.9204 Z " fill="#000000"/><text fill="#000000" font-family="sans-serif" font-size="12" lengthAdjust="spacing" textLength="24" x="3923" y="94.0352">闘争</text><line style="stroke:#A80036;stroke-width:1.5;" x1="3895" x2="3949" y1="105.5" y2="105.5"/><line style="stroke:#A80036;stroke-width:1.5;" x1="3895" x2="3949" y1="113.5" y2="113.5"/><!--MD5=[eafb347996823219e03ca770c3b99e0c]
class freedom.服従--><rect codeLine="86" fill="#FEFECE" filter="url(#fx1dc7p7fdx67)" height="48" id="freedom.服従" style="stroke:#A80036;stroke-width:1.5;" width="56" x="3803" y="73.5"/><ellipse cx="3818" cy="89.5" fill="#ADD1B2" rx="11" ry="11" style="stroke:#A80036;stroke-width:1.0;"/><path d="M3820.4731,95.6431 Q3819.8921,95.9419 3819.2529,96.0913 Q3818.6138,96.2407 3817.9082,96.2407 Q3815.4014,96.2407 3814.0815,94.5889 Q3812.7617,92.937 3812.7617,89.8159 Q3812.7617,86.6865 3814.0815,85.0347 Q3815.4014,83.3828 3817.9082,83.3828 Q3818.6138,83.3828 3819.2612,83.5322 Q3819.9087,83.6816 3820.4731,83.9805 L3820.4731,86.7031 Q3819.8423,86.1221 3819.2488,85.8523 Q3818.6553,85.5825 3818.0244,85.5825 Q3816.6797,85.5825 3815.9949,86.6492 Q3815.3101,87.7158 3815.3101,89.8159 Q3815.3101,91.9077 3815.9949,92.9744 Q3816.6797,94.041 3818.0244,94.041 Q3818.6553,94.041 3819.2488,93.7712 Q3819.8423,93.5015 3820.4731,92.9204 Z " fill="#000000"/><text fill="#000000" font-family="sans-serif" font-size="12" lengthAdjust="spacing" textLength="24" x="3832" y="94.0352">服従</text><line style="stroke:#A80036;stroke-width:1.5;" x1="3804" x2="3858" y1="105.5" y2="105.5"/><line style="stroke:#A80036;stroke-width:1.5;" x1="3804" x2="3858" y1="113.5" y2="113.5"/><!--MD5=[c9ad840725d1eb9273ec2fd9458677e2]
class commonsense.非常識--><rect codeLine="90" fill="#FEFECE" filter="url(#fx1dc7p7fdx67)" height="48" id="commonsense.非常識" style="stroke:#A80036;stroke-width:1.5;" width="68" x="453" y="350"/><ellipse cx="468" cy="366" fill="#ADD1B2" rx="11" ry="11" style="stroke:#A80036;stroke-width:1.0;"/><path d="M470.4731,372.1431 Q469.8921,372.4419 469.2529,372.5913 Q468.6138,372.7407 467.9082,372.7407 Q465.4014,372.7407 464.0815,371.0889 Q462.7617,369.437 462.7617,366.3159 Q462.7617,363.1865 464.0815,361.5347 Q465.4014,359.8828 467.9082,359.8828 Q468.6138,359.8828 469.2612,360.0322 Q469.9087,360.1816 470.4731,360.4805 L470.4731,363.2031 Q469.8423,362.6221 469.2488,362.3523 Q468.6553,362.0825 468.0244,362.0825 Q466.6797,362.0825 465.9949,363.1492 Q465.3101,364.2158 465.3101,366.3159 Q465.3101,368.4077 465.9949,369.4744 Q466.6797,370.541 468.0244,370.541 Q468.6553,370.541 469.2488,370.2712 Q469.8423,370.0015 470.4731,369.4204 Z " fill="#000000"/><text fill="#000000" font-family="sans-serif" font-size="12" lengthAdjust="spacing" textLength="36" x="482" y="370.5352">非常識</text><line style="stroke:#A80036;stroke-width:1.5;" x1="454" x2="520" y1="382" y2="382"/><line style="stroke:#A80036;stroke-width:1.5;" x1="454" x2="520" y1="390" y2="390"/><!--MD5=[e2e01635ae946ef80967a6a861159822]
class commonsense.常識的--><rect codeLine="91" fill="#FEFECE" filter="url(#fx1dc7p7fdx67)" height="48" id="commonsense.常識的" style="stroke:#A80036;stroke-width:1.5;" width="68" x="350" y="350"/><ellipse cx="365" cy="366" fill="#ADD1B2" rx="11" ry="11" style="stroke:#A80036;stroke-width:1.0;"/><path d="M367.4731,372.1431 Q366.8921,372.4419 366.2529,372.5913 Q365.6138,372.7407 364.9082,372.7407 Q362.4014,372.7407 361.0815,371.0889 Q359.7617,369.437 359.7617,366.3159 Q359.7617,363.1865 361.0815,361.5347 Q362.4014,359.8828 364.9082,359.8828 Q365.6138,359.8828 366.2612,360.0322 Q366.9087,360.1816 367.4731,360.4805 L367.4731,363.2031 Q366.8423,362.6221 366.2488,362.3523 Q365.6553,362.0825 365.0244,362.0825 Q363.6797,362.0825 362.9949,363.1492 Q362.3101,364.2158 362.3101,366.3159 Q362.3101,368.4077 362.9949,369.4744 Q363.6797,370.541 365.0244,370.541 Q365.6553,370.541 366.2488,370.2712 Q366.8423,370.0015 367.4731,369.4204 Z " fill="#000000"/><text fill="#000000" font-family="sans-serif" font-size="12" lengthAdjust="spacing" textLength="36" x="379" y="370.5352">常識的</text><line style="stroke:#A80036;stroke-width:1.5;" x1="351" x2="417" y1="382" y2="382"/><line style="stroke:#A80036;stroke-width:1.5;" x1="351" x2="417" y1="390" y2="390"/><!--MD5=[f6710ef2a18a6090544f94d09805eaac]
class ex.物理学者--><rect codeLine="95" fill="#FEFECE" filter="url(#fx1dc7p7fdx67)" height="48" id="ex.物理学者" style="stroke:#A80036;stroke-width:1.5;" width="80" x="610" y="596"/><ellipse cx="625" cy="612" fill="#ADD1B2" rx="11" ry="11" style="stroke:#A80036;stroke-width:1.0;"/><path d="M627.4731,618.1431 Q626.8921,618.4419 626.2529,618.5913 Q625.6138,618.7407 624.9082,618.7407 Q622.4014,618.7407 621.0815,617.0889 Q619.7617,615.437 619.7617,612.3159 Q619.7617,609.1865 621.0815,607.5347 Q622.4014,605.8828 624.9082,605.8828 Q625.6138,605.8828 626.2612,606.0322 Q626.9087,606.1816 627.4731,606.4805 L627.4731,609.2031 Q626.8423,608.6221 626.2488,608.3523 Q625.6553,608.0825 625.0244,608.0825 Q623.6797,608.0825 622.9949,609.1492 Q622.3101,610.2158 622.3101,612.3159 Q622.3101,614.4077 622.9949,615.4744 Q623.6797,616.541 625.0244,616.541 Q625.6553,616.541 626.2488,616.2712 Q626.8423,616.0015 627.4731,615.4204 Z " fill="#000000"/><text fill="#000000" font-family="sans-serif" font-size="12" lengthAdjust="spacing" textLength="48" x="639" y="616.5352">物理学者</text><line style="stroke:#A80036;stroke-width:1.5;" x1="611" x2="689" y1="628" y2="628"/><line style="stroke:#A80036;stroke-width:1.5;" x1="611" x2="689" y1="636" y2="636"/><!--MD5=[0895a44ee3765aaf25fc27d0db736b9e]
class 樹冠線.Circle--><rect codeLine="12" fill="#FEFECE" filter="url(#fx1dc7p7fdx67)" height="48" id="樹冠線.Circle" style="stroke:#A80036;stroke-width:1.5;" width="64" x="1788" y="73.5"/><ellipse cx="1803" cy="89.5" fill="#ADD1B2" rx="11" ry="11" style="stroke:#A80036;stroke-width:1.0;"/><path d="M1805.4731,95.6431 Q1804.8921,95.9419 1804.2529,96.0913 Q1803.6138,96.2407 1802.9082,96.2407 Q1800.4014,96.2407 1799.0815,94.5889 Q1797.7617,92.937 1797.7617,89.8159 Q1797.7617,86.6865 1799.0815,85.0347 Q1800.4014,83.3828 1802.9082,83.3828 Q1803.6138,83.3828 1804.2612,83.5322 Q1804.9087,83.6816 1805.4731,83.9805 L1805.4731,86.7031 Q1804.8423,86.1221 1804.2488,85.8523 Q1803.6553,85.5825 1803.0244,85.5825 Q1801.6797,85.5825 1800.9949,86.6492 Q1800.3101,87.7158 1800.3101,89.8159 Q1800.3101,91.9077 1800.9949,92.9744 Q1801.6797,94.041 1803.0244,94.041 Q1803.6553,94.041 1804.2488,93.7712 Q1804.8423,93.5015 1805.4731,92.9204 Z " fill="#000000"/><text fill="#000000" font-family="sans-serif" font-size="12" lengthAdjust="spacing" textLength="32" x="1817" y="94.0352">Circle</text><line style="stroke:#A80036;stroke-width:1.5;" x1="1789" x2="1851" y1="105.5" y2="105.5"/><line style="stroke:#A80036;stroke-width:1.5;" x1="1789" x2="1851" y1="113.5" y2="113.5"/><!--MD5=[f632ad8799e985030c1298f9ddab2955]
class 樹冠線.SideToSide--><rect codeLine="15" fill="#FEFECE" filter="url(#fx1dc7p7fdx67)" height="48" id="樹冠線.SideToSide" style="stroke:#A80036;stroke-width:1.5;" width="95" x="2099.5" y="73.5"/><ellipse cx="2114.5" cy="89.5" fill="#ADD1B2" rx="11" ry="11" style="stroke:#A80036;stroke-width:1.0;"/><path d="M2116.9731,95.6431 Q2116.3921,95.9419 2115.7529,96.0913 Q2115.1138,96.2407 2114.4082,96.2407 Q2111.9014,96.2407 2110.5815,94.5889 Q2109.2617,92.937 2109.2617,89.8159 Q2109.2617,86.6865 2110.5815,85.0347 Q2111.9014,83.3828 2114.4082,83.3828 Q2115.1138,83.3828 2115.7612,83.5322 Q2116.4087,83.6816 2116.9731,83.9805 L2116.9731,86.7031 Q2116.3423,86.1221 2115.7488,85.8523 Q2115.1553,85.5825 2114.5244,85.5825 Q2113.1797,85.5825 2112.4949,86.6492 Q2111.8101,87.7158 2111.8101,89.8159 Q2111.8101,91.9077 2112.4949,92.9744 Q2113.1797,94.041 2114.5244,94.041 Q2115.1553,94.041 2115.7488,93.7712 Q2116.3423,93.5015 2116.9731,92.9204 Z " fill="#000000"/><text fill="#000000" font-family="sans-serif" font-size="12" lengthAdjust="spacing" textLength="63" x="2128.5" y="94.0352">SideToSide</text><line style="stroke:#A80036;stroke-width:1.5;" x1="2100.5" x2="2193.5" y1="105.5" y2="105.5"/><line style="stroke:#A80036;stroke-width:1.5;" x1="2100.5" x2="2193.5" y1="113.5" y2="113.5"/><!--MD5=[d3c076796703dea12462b08ac5affa7c]
class 樹冠線.UpToDown--><rect codeLine="18" fill="#FEFECE" filter="url(#fx1dc7p7fdx67)" height="48" id="樹冠線.UpToDown" style="stroke:#A80036;stroke-width:1.5;" width="95" x="1887.5" y="73.5"/><ellipse cx="1902.5" cy="89.5" fill="#ADD1B2" rx="11" ry="11" style="stroke:#A80036;stroke-width:1.0;"/><path d="M1904.9731,95.6431 Q1904.3921,95.9419 1903.7529,96.0913 Q1903.1138,96.2407 1902.4082,96.2407 Q1899.9014,96.2407 1898.5815,94.5889 Q1897.2617,92.937 1897.2617,89.8159 Q1897.2617,86.6865 1898.5815,85.0347 Q1899.9014,83.3828 1902.4082,83.3828 Q1903.1138,83.3828 1903.7612,83.5322 Q1904.4087,83.6816 1904.9731,83.9805 L1904.9731,86.7031 Q1904.3423,86.1221 1903.7488,85.8523 Q1903.1553,85.5825 1902.5244,85.5825 Q1901.1797,85.5825 1900.4949,86.6492 Q1899.8101,87.7158 1899.8101,89.8159 Q1899.8101,91.9077 1900.4949,92.9744 Q1901.1797,94.041 1902.5244,94.041 Q1903.1553,94.041 1903.7488,93.7712 Q1904.3423,93.5015 1904.9731,92.9204 Z " fill="#000000"/><text fill="#000000" font-family="sans-serif" font-size="12" lengthAdjust="spacing" textLength="63" x="1916.5" y="94.0352">UpToDown</text><line style="stroke:#A80036;stroke-width:1.5;" x1="1888.5" x2="1981.5" y1="105.5" y2="105.5"/><line style="stroke:#A80036;stroke-width:1.5;" x1="1888.5" x2="1981.5" y1="113.5" y2="113.5"/><!--MD5=[a8a032b81587a1287f16d04e87070fe5]
class 樹冠線.Fill--><rect codeLine="21" fill="#FEFECE" filter="url(#fx1dc7p7fdx67)" height="48" id="樹冠線.Fill" style="stroke:#A80036;stroke-width:1.5;" width="47" x="2017.5" y="73.5"/><ellipse cx="2032.5" cy="89.5" fill="#ADD1B2" rx="11" ry="11" style="stroke:#A80036;stroke-width:1.0;"/><path d="M2034.9731,95.6431 Q2034.3921,95.9419 2033.7529,96.0913 Q2033.1138,96.2407 2032.4082,96.2407 Q2029.9014,96.2407 2028.5815,94.5889 Q2027.2617,92.937 2027.2617,89.8159 Q2027.2617,86.6865 2028.5815,85.0347 Q2029.9014,83.3828 2032.4082,83.3828 Q2033.1138,83.3828 2033.7612,83.5322 Q2034.4087,83.6816 2034.9731,83.9805 L2034.9731,86.7031 Q2034.3423,86.1221 2033.7488,85.8523 Q2033.1553,85.5825 2032.5244,85.5825 Q2031.1797,85.5825 2030.4949,86.6492 Q2029.8101,87.7158 2029.8101,89.8159 Q2029.8101,91.9077 2030.4949,92.9744 Q2031.1797,94.041 2032.5244,94.041 Q2033.1553,94.041 2033.7488,93.7712 Q2034.3423,93.5015 2034.9731,92.9204 Z " fill="#000000"/><text fill="#000000" font-family="sans-serif" font-size="12" lengthAdjust="spacing" textLength="15" x="2046.5" y="94.0352">Fill</text><line style="stroke:#A80036;stroke-width:1.5;" x1="2018.5" x2="2063.5" y1="105.5" y2="105.5"/><line style="stroke:#A80036;stroke-width:1.5;" x1="2018.5" x2="2063.5" y1="113.5" y2="113.5"/><!--MD5=[1f051c5f298e588395429e7bb0f6187d]
class 樹冠線.Dark--><rect codeLine="24" fill="#FEFECE" filter="url(#fx1dc7p7fdx67)" height="48" id="樹冠線.Dark" style="stroke:#A80036;stroke-width:1.5;" width="60" x="2008" y="220.5"/><ellipse cx="2023" cy="236.5" fill="#ADD1B2" rx="11" ry="11" style="stroke:#A80036;stroke-width:1.0;"/><path d="M2025.4731,242.6431 Q2024.8921,242.9419 2024.2529,243.0913 Q2023.6138,243.2407 2022.9082,243.2407 Q2020.4014,243.2407 2019.0815,241.5889 Q2017.7617,239.937 2017.7617,236.8159 Q2017.7617,233.6865 2019.0815,232.0347 Q2020.4014,230.3828 2022.9082,230.3828 Q2023.6138,230.3828 2024.2612,230.5322 Q2024.9087,230.6816 2025.4731,230.9805 L2025.4731,233.7031 Q2024.8423,233.1221 2024.2488,232.8523 Q2023.6553,232.5825 2023.0244,232.5825 Q2021.6797,232.5825 2020.9949,233.6492 Q2020.3101,234.7158 2020.3101,236.8159 Q2020.3101,238.9077 2020.9949,239.9744 Q2021.6797,241.041 2023.0244,241.041 Q2023.6553,241.041 2024.2488,240.7712 Q2024.8423,240.5015 2025.4731,239.9204 Z " fill="#000000"/><text fill="#000000" font-family="sans-serif" font-size="12" lengthAdjust="spacing" textLength="28" x="2037" y="241.0352">Dark</text><line style="stroke:#A80036;stroke-width:1.5;" x1="2009" x2="2067" y1="252.5" y2="252.5"/><line style="stroke:#A80036;stroke-width:1.5;" x1="2009" x2="2067" y1="260.5" y2="260.5"/><!--MD5=[ee7f8449c4b20ed26e1a60b40e0ee89f]
class 樹冠形.Square--><rect codeLine="30" fill="#FEFECE" filter="url(#fx1dc7p7fdx67)" height="48" id="樹冠形.Square" style="stroke:#A80036;stroke-width:1.5;" width="72" x="786" y="73.5"/><ellipse cx="801" cy="89.5" fill="#ADD1B2" rx="11" ry="11" style="stroke:#A80036;stroke-width:1.0;"/><path d="M803.4731,95.6431 Q802.8921,95.9419 802.2529,96.0913 Q801.6138,96.2407 800.9082,96.2407 Q798.4014,96.2407 797.0815,94.5889 Q795.7617,92.937 795.7617,89.8159 Q795.7617,86.6865 797.0815,85.0347 Q798.4014,83.3828 800.9082,83.3828 Q801.6138,83.3828 802.2612,83.5322 Q802.9087,83.6816 803.4731,83.9805 L803.4731,86.7031 Q802.8423,86.1221 802.2488,85.8523 Q801.6553,85.5825 801.0244,85.5825 Q799.6797,85.5825 798.9949,86.6492 Q798.3101,87.7158 798.3101,89.8159 Q798.3101,91.9077 798.9949,92.9744 Q799.6797,94.041 801.0244,94.041 Q801.6553,94.041 802.2488,93.7712 Q802.8423,93.5015 803.4731,92.9204 Z " fill="#000000"/><text fill="#000000" font-family="sans-serif" font-size="12" lengthAdjust="spacing" textLength="40" x="815" y="94.0352">Square</text><line style="stroke:#A80036;stroke-width:1.5;" x1="787" x2="857" y1="105.5" y2="105.5"/><line style="stroke:#A80036;stroke-width:1.5;" x1="787" x2="857" y1="113.5" y2="113.5"/><!--MD5=[1ba4d921f1bfded5d70a000a4c817bfd]
class 樹冠形.SideEclipse--><rect codeLine="33" fill="#FEFECE" filter="url(#fx1dc7p7fdx67)" height="48" id="樹冠形.SideEclipse" style="stroke:#A80036;stroke-width:1.5;" width="96" x="1072" y="73.5"/><ellipse cx="1087" cy="89.5" fill="#ADD1B2" rx="11" ry="11" style="stroke:#A80036;stroke-width:1.0;"/><path d="M1089.4731,95.6431 Q1088.8921,95.9419 1088.2529,96.0913 Q1087.6138,96.2407 1086.9082,96.2407 Q1084.4014,96.2407 1083.0815,94.5889 Q1081.7617,92.937 1081.7617,89.8159 Q1081.7617,86.6865 1083.0815,85.0347 Q1084.4014,83.3828 1086.9082,83.3828 Q1087.6138,83.3828 1088.2612,83.5322 Q1088.9087,83.6816 1089.4731,83.9805 L1089.4731,86.7031 Q1088.8423,86.1221 1088.2488,85.8523 Q1087.6553,85.5825 1087.0244,85.5825 Q1085.6797,85.5825 1084.9949,86.6492 Q1084.3101,87.7158 1084.3101,89.8159 Q1084.3101,91.9077 1084.9949,92.9744 Q1085.6797,94.041 1087.0244,94.041 Q1087.6553,94.041 1088.2488,93.7712 Q1088.8423,93.5015 1089.4731,92.9204 Z " fill="#000000"/><text fill="#000000" font-family="sans-serif" font-size="12" lengthAdjust="spacing" textLength="64" x="1101" y="94.0352">SideEclipse</text><line style="stroke:#A80036;stroke-width:1.5;" x1="1073" x2="1167" y1="105.5" y2="105.5"/><line style="stroke:#A80036;stroke-width:1.5;" x1="1073" x2="1167" y1="113.5" y2="113.5"/><!--MD5=[6792f367d7bf97dfe4154233f9919ff6]
class 樹冠形.FirstQuarterMoon--><rect codeLine="36" fill="#FEFECE" filter="url(#fx1dc7p7fdx67)" height="48" id="樹冠形.FirstQuarterMoon" style="stroke:#A80036;stroke-width:1.5;" width="131" x="619.5" y="73.5"/><ellipse cx="634.5" cy="89.5" fill="#ADD1B2" rx="11" ry="11" style="stroke:#A80036;stroke-width:1.0;"/><path d="M636.9731,95.6431 Q636.3921,95.9419 635.7529,96.0913 Q635.1138,96.2407 634.4082,96.2407 Q631.9014,96.2407 630.5815,94.5889 Q629.2617,92.937 629.2617,89.8159 Q629.2617,86.6865 630.5815,85.0347 Q631.9014,83.3828 634.4082,83.3828 Q635.1138,83.3828 635.7612,83.5322 Q636.4087,83.6816 636.9731,83.9805 L636.9731,86.7031 Q636.3423,86.1221 635.7488,85.8523 Q635.1553,85.5825 634.5244,85.5825 Q633.1797,85.5825 632.4949,86.6492 Q631.8101,87.7158 631.8101,89.8159 Q631.8101,91.9077 632.4949,92.9744 Q633.1797,94.041 634.5244,94.041 Q635.1553,94.041 635.7488,93.7712 Q636.3423,93.5015 636.9731,92.9204 Z " fill="#000000"/><text fill="#000000" font-family="sans-serif" font-size="12" lengthAdjust="spacing" textLength="99" x="648.5" y="94.0352">FirstQuarterMoon</text><line style="stroke:#A80036;stroke-width:1.5;" x1="620.5" x2="749.5" y1="105.5" y2="105.5"/><line style="stroke:#A80036;stroke-width:1.5;" x1="620.5" x2="749.5" y1="113.5" y2="113.5"/><!--MD5=[6cf8677e974593ca4bd6a8a7a6815d32]
class 樹冠形.ToRightUp--><rect codeLine="40" fill="#FEFECE" filter="url(#fx1dc7p7fdx67)" height="112.7754" id="樹冠形.ToRightUp" style="stroke:#A80036;stroke-width:1.5;" width="301" x="283.5" y="41"/><ellipse cx="399.75" cy="57" fill="#ADD1B2" rx="11" ry="11" style="stroke:#A80036;stroke-width:1.0;"/><path d="M402.2231,63.1431 Q401.6421,63.4419 401.0029,63.5913 Q400.3638,63.7407 399.6582,63.7407 Q397.1514,63.7407 395.8315,62.0889 Q394.5117,60.437 394.5117,57.3159 Q394.5117,54.1865 395.8315,52.5347 Q397.1514,50.8828 399.6582,50.8828 Q400.3638,50.8828 401.0112,51.0322 Q401.6587,51.1816 402.2231,51.4805 L402.2231,54.2031 Q401.5923,53.6221 400.9988,53.3523 Q400.4053,53.0825 399.7744,53.0825 Q398.4297,53.0825 397.7449,54.1492 Q397.0601,55.2158 397.0601,57.3159 Q397.0601,59.4077 397.7449,60.4744 Q398.4297,61.541 399.7744,61.541 Q400.4053,61.541 400.9988,61.2712 Q401.5923,61.0015 402.2231,60.4204 Z " fill="#000000"/><text fill="#000000" font-family="sans-serif" font-size="12" lengthAdjust="spacing" textLength="60" x="420.25" y="61.5352">ToRightUp</text><line style="stroke:#A80036;stroke-width:1.5;" x1="284.5" x2="583.5" y1="73" y2="73"/><text fill="#000000" font-family="sans-serif" font-size="11" lengthAdjust="spacing" textLength="132" x="303.5" y="87.6348">樹冠が右上に伸びている木</text><text fill="#000000" font-family="sans-serif" font-size="11" lengthAdjust="spacing" textLength="113" x="303.5" y="100.5898">批判的,現実主義であり</text><rect fill="none" height="6" style="stroke:#C82930;stroke-width:1.0;" width="6" x="291.5" y="106.9102"/><text fill="#000000" font-family="sans-serif" font-size="11" lengthAdjust="spacing" textLength="143" x="303.5" y="113.5449">科学的で高度に理性的な研究</text><rect fill="none" height="6" style="stroke:#C82930;stroke-width:1.0;" width="6" x="291.5" y="119.8652"/><text fill="#000000" font-family="sans-serif" font-size="11" lengthAdjust="spacing" textLength="66" x="303.5" y="126.5">実際的な仕事</text><text fill="#000000" font-family="sans-serif" font-size="11" lengthAdjust="spacing" textLength="275" x="303.5" y="139.4551">一つの面にしか興味がなく、言ってしまえば常識がない</text><line style="stroke:#A80036;stroke-width:1.5;" x1="284.5" x2="583.5" y1="145.7754" y2="145.7754"/><!--MD5=[ae0c9625568e4f264f0f38289fa41579]
class 樹冠形.ToLeftUp--><rect codeLine="50" fill="#FEFECE" filter="url(#fx1dc7p7fdx67)" height="60.9551" id="樹冠形.ToLeftUp" style="stroke:#A80036;stroke-width:1.5;" width="144" x="893" y="67"/><ellipse cx="935" cy="83" fill="#ADD1B2" rx="11" ry="11" style="stroke:#A80036;stroke-width:1.0;"/><path d="M937.4731,89.1431 Q936.8921,89.4419 936.2529,89.5913 Q935.6138,89.7407 934.9082,89.7407 Q932.4014,89.7407 931.0815,88.0889 Q929.7617,86.437 929.7617,83.3159 Q929.7617,80.1865 931.0815,78.5347 Q932.4014,76.8828 934.9082,76.8828 Q935.6138,76.8828 936.2612,77.0322 Q936.9087,77.1816 937.4731,77.4805 L937.4731,80.2031 Q936.8423,79.6221 936.2488,79.3523 Q935.6553,79.0825 935.0244,79.0825 Q933.6797,79.0825 932.9949,80.1492 Q932.3101,81.2158 932.3101,83.3159 Q932.3101,85.4077 932.9949,86.4744 Q933.6797,87.541 935.0244,87.541 Q935.6553,87.541 936.2488,87.2712 Q936.8423,87.0015 937.4731,86.4204 Z " fill="#000000"/><text fill="#000000" font-family="sans-serif" font-size="12" lengthAdjust="spacing" textLength="52" x="955" y="87.5352">ToLeftUp</text><line style="stroke:#A80036;stroke-width:1.5;" x1="894" x2="1036" y1="99" y2="99"/><text fill="#000000" font-family="sans-serif" font-size="11" lengthAdjust="spacing" textLength="132" x="899" y="113.6348">樹冠が左上に伸びている木</text><line style="stroke:#A80036;stroke-width:1.5;" x1="894" x2="1036" y1="119.9551" y2="119.9551"/><!--MD5=[80b52e2cfd864c20c8e5709f0ed85c5a]
class wing.LeftToRight--><rect codeLine="59" fill="#FEFECE" filter="url(#fx1dc7p7fdx67)" height="60.9551" id="wing.LeftToRight" style="stroke:#A80036;stroke-width:1.5;" width="254" x="2251" y="67"/><ellipse cx="2341.25" cy="83" fill="#ADD1B2" rx="11" ry="11" style="stroke:#A80036;stroke-width:1.0;"/><path d="M2343.7231,89.1431 Q2343.1421,89.4419 2342.5029,89.5913 Q2341.8638,89.7407 2341.1582,89.7407 Q2338.6514,89.7407 2337.3315,88.0889 Q2336.0117,86.437 2336.0117,83.3159 Q2336.0117,80.1865 2337.3315,78.5347 Q2338.6514,76.8828 2341.1582,76.8828 Q2341.8638,76.8828 2342.5112,77.0322 Q2343.1587,77.1816 2343.7231,77.4805 L2343.7231,80.2031 Q2343.0923,79.6221 2342.4988,79.3523 Q2341.9053,79.0825 2341.2744,79.0825 Q2339.9297,79.0825 2339.2449,80.1492 Q2338.5601,81.2158 2338.5601,83.3159 Q2338.5601,85.4077 2339.2449,86.4744 Q2339.9297,87.541 2341.2744,87.541 Q2341.9053,87.541 2342.4988,87.2712 Q2343.0923,87.0015 2343.7231,86.4204 Z " fill="#000000"/><text fill="#000000" font-family="sans-serif" font-size="12" lengthAdjust="spacing" textLength="65" x="2361.75" y="87.5352">LeftToRight</text><line style="stroke:#A80036;stroke-width:1.5;" x1="2252" x2="2504" y1="99" y2="99"/><text fill="#000000" font-family="sans-serif" font-size="11" lengthAdjust="spacing" textLength="242" x="2257" y="113.6348">右から左への風を書いた人は過去に一人もいない</text><line style="stroke:#A80036;stroke-width:1.5;" x1="2252" x2="2504" y1="119.9551" y2="119.9551"/><!--MD5=[e323cb144c20b6c0e4f90c326ffdd9dd]
class 樹冠内部.Bushes--><rect codeLine="66" fill="#FEFECE" filter="url(#fx1dc7p7fdx67)" height="48" id="樹冠内部.Bushes" style="stroke:#A80036;stroke-width:1.5;" width="72" x="1513" y="73.5"/><ellipse cx="1528" cy="89.5" fill="#ADD1B2" rx="11" ry="11" style="stroke:#A80036;stroke-width:1.0;"/><path d="M1530.4731,95.6431 Q1529.8921,95.9419 1529.2529,96.0913 Q1528.6138,96.2407 1527.9082,96.2407 Q1525.4014,96.2407 1524.0815,94.5889 Q1522.7617,92.937 1522.7617,89.8159 Q1522.7617,86.6865 1524.0815,85.0347 Q1525.4014,83.3828 1527.9082,83.3828 Q1528.6138,83.3828 1529.2612,83.5322 Q1529.9087,83.6816 1530.4731,83.9805 L1530.4731,86.7031 Q1529.8423,86.1221 1529.2488,85.8523 Q1528.6553,85.5825 1528.0244,85.5825 Q1526.6797,85.5825 1525.9949,86.6492 Q1525.3101,87.7158 1525.3101,89.8159 Q1525.3101,91.9077 1525.9949,92.9744 Q1526.6797,94.041 1528.0244,94.041 Q1528.6553,94.041 1529.2488,93.7712 Q1529.8423,93.5015 1530.4731,92.9204 Z " fill="#000000"/><text fill="#000000" font-family="sans-serif" font-size="12" lengthAdjust="spacing" textLength="40" x="1542" y="94.0352">Bushes</text><line style="stroke:#A80036;stroke-width:1.5;" x1="1514" x2="1584" y1="105.5" y2="105.5"/><line style="stroke:#A80036;stroke-width:1.5;" x1="1514" x2="1584" y1="113.5" y2="113.5"/><!--MD5=[0a3edc0d06345cc6d96e35306b10fa47]
class 樹冠内部.BranchBushes--><rect codeLine="69" fill="#FEFECE" filter="url(#fx1dc7p7fdx67)" height="48" id="樹冠内部.BranchBushes" style="stroke:#A80036;stroke-width:1.5;" width="111" x="1620.5" y="73.5"/><ellipse cx="1635.5" cy="89.5" fill="#ADD1B2" rx="11" ry="11" style="stroke:#A80036;stroke-width:1.0;"/><path d="M1637.9731,95.6431 Q1637.3921,95.9419 1636.7529,96.0913 Q1636.1138,96.2407 1635.4082,96.2407 Q1632.9014,96.2407 1631.5815,94.5889 Q1630.2617,92.937 1630.2617,89.8159 Q1630.2617,86.6865 1631.5815,85.0347 Q1632.9014,83.3828 1635.4082,83.3828 Q1636.1138,83.3828 1636.7612,83.5322 Q1637.4087,83.6816 1637.9731,83.9805 L1637.9731,86.7031 Q1637.3423,86.1221 1636.7488,85.8523 Q1636.1553,85.5825 1635.5244,85.5825 Q1634.1797,85.5825 1633.4949,86.6492 Q1632.8101,87.7158 1632.8101,89.8159 Q1632.8101,91.9077 1633.4949,92.9744 Q1634.1797,94.041 1635.5244,94.041 Q1636.1553,94.041 1636.7488,93.7712 Q1637.3423,93.5015 1637.9731,92.9204 Z " fill="#000000"/><text fill="#000000" font-family="sans-serif" font-size="12" lengthAdjust="spacing" textLength="79" x="1649.5" y="94.0352">BranchBushes</text><line style="stroke:#A80036;stroke-width:1.5;" x1="1621.5" x2="1730.5" y1="105.5" y2="105.5"/><line style="stroke:#A80036;stroke-width:1.5;" x1="1621.5" x2="1730.5" y1="113.5" y2="113.5"/><!--MD5=[f46681d154d41e8a4abefe712eba75e9]
class 樹冠内部.BranchLeaf--><rect codeLine="72" fill="#FEFECE" filter="url(#fx1dc7p7fdx67)" height="73.9102" id="樹冠内部.BranchLeaf" style="stroke:#A80036;stroke-width:1.5;" width="254" x="1224" y="60.5"/><ellipse cx="1315.25" cy="76.5" fill="#ADD1B2" rx="11" ry="11" style="stroke:#A80036;stroke-width:1.0;"/><path d="M1317.7231,82.6431 Q1317.1421,82.9419 1316.5029,83.0913 Q1315.8638,83.2407 1315.1582,83.2407 Q1312.6514,83.2407 1311.3315,81.5889 Q1310.0117,79.937 1310.0117,76.8159 Q1310.0117,73.6865 1311.3315,72.0347 Q1312.6514,70.3828 1315.1582,70.3828 Q1315.8638,70.3828 1316.5112,70.5322 Q1317.1587,70.6816 1317.7231,70.9805 L1317.7231,73.7031 Q1317.0923,73.1221 1316.4988,72.8523 Q1315.9053,72.5825 1315.2744,72.5825 Q1313.9297,72.5825 1313.2449,73.6492 Q1312.5601,74.7158 1312.5601,76.8159 Q1312.5601,78.9077 1313.2449,79.9744 Q1313.9297,81.041 1315.2744,81.041 Q1315.9053,81.041 1316.4988,80.7712 Q1317.0923,80.5015 1317.7231,79.9204 Z " fill="#000000"/><text fill="#000000" font-family="sans-serif" font-size="12" lengthAdjust="spacing" textLength="63" x="1335.75" y="81.0352">BranchLeaf</text><line style="stroke:#A80036;stroke-width:1.5;" x1="1225" x2="1477" y1="92.5" y2="92.5"/><text fill="#000000" font-family="sans-serif" font-size="11" lengthAdjust="spacing" textLength="242" x="1230" y="107.1348">葉の数が多くなればなるほど濾過機能が強くなり</text><text fill="#000000" font-family="sans-serif" font-size="11" lengthAdjust="spacing" textLength="88" x="1230" y="120.0898">精神年齢は上がる</text><line style="stroke:#A80036;stroke-width:1.5;" x1="1225" x2="1477" y1="126.4102" y2="126.4102"/><!--MD5=[e7487cfc0cf52f8abd37ba74c91eb638]
link type.防衛的 to type.濾過機能--><path codeLine="7" d="M769.55,398.17 C778.26,406.35 788.62,415.19 799,422 C836.28,446.45 882.96,466.74 916.8,479.84 " fill="none" id="type.防衛的-to-type.濾過機能" style="stroke:#A80036;stroke-width:1.0;"/><polygon fill="#A80036" points="921.69,481.73,914.7115,474.7801,917.0196,479.9447,911.855,482.2527,921.69,481.73" style="stroke:#A80036;stroke-width:1.0;"/><!--MD5=[e1d496c6697830632d10b091de5459f8]
link env.圧力下 to env.諦め--><path codeLine="28" d="M1964,398.04 C1964,417.77 1964,446.24 1964,467.41 " fill="none" id="env.圧力下-to-env.諦め" style="stroke:#A80036;stroke-width:1.0;"/><polygon fill="#A80036" points="1964,472.63,1968,463.63,1964,467.63,1960,463.63,1964,472.63" style="stroke:#A80036;stroke-width:1.0;"/><!--MD5=[6bf901628a2c1a862b05cc073136d264]
link parents.父親からの影響 to parents.憧れと諦め--><path codeLine="65" d="M3239,121.8 C3239,147.16 3239,187.75 3239,215 " fill="none" id="parents.父親からの影響-to-parents.憧れと諦め" style="stroke:#A80036;stroke-width:1.0;"/><polygon fill="#A80036" points="3239,220.26,3243,211.26,3239,215.26,3235,211.26,3239,220.26" style="stroke:#A80036;stroke-width:1.0;"/><!--MD5=[e649a89c2b40805fb778b2aa49aed64f]
link type.野心 to ex.物理学者--><path codeLine="96" d="M650,398.4 C650,443.39 650,541.85 650,590.55 " fill="none" id="type.野心-to-ex.物理学者" style="stroke:#A80036;stroke-width:1.0;"/><polygon fill="#A80036" points="650,595.68,654,586.68,650,590.68,646,586.68,650,595.68" style="stroke:#A80036;stroke-width:1.0;"/><!--MD5=[7e19568b5ba92b1ee1d755c7c95f9dc7]
link 樹冠線.Circle to type.自己中心的--><path codeLine="13" d="M1804.14,121.66 C1790.96,139.33 1770.74,163.09 1748,178 C1657.95,237.05 1345.95,325.57 1222.17,359.29 " fill="none" id="樹冠線.Circle-to-type.自己中心的" style="stroke:#A80036;stroke-width:1.0;"/><polygon fill="#A80036" points="1217.14,360.66,1226.8746,362.1559,1221.9645,359.3468,1224.7735,354.4367,1217.14,360.66" style="stroke:#A80036;stroke-width:1.0;"/><!--MD5=[f11fcfb187327e6b7336394eddda8b14]
link 樹冠線.SideToSide to env.不満--><path codeLine="16" d="M2154.59,121.9 C2170.88,172.14 2209.14,290.17 2226.79,344.59 " fill="none" id="樹冠線.SideToSide-to-env.不満" style="stroke:#A80036;stroke-width:1.0;"/><polygon fill="#A80036" points="2228.43,349.66,2229.4583,339.865,2226.8875,344.9039,2221.8486,342.333,2228.43,349.66" style="stroke:#A80036;stroke-width:1.0;"/><!--MD5=[ce59437ed69ab162e9e395419a943cf0]
link 樹冠線.UpToDown to think.秘密主義--><path codeLine="19" d="M1922.13,121.9 C1894.38,172.35 1829.04,291.12 1799.27,345.25 " fill="none" id="樹冠線.UpToDown-to-think.秘密主義" style="stroke:#A80036;stroke-width:1.0;"/><polygon fill="#A80036" points="1796.84,349.66,1804.6926,343.7155,1799.2573,345.2832,1797.6896,339.8479,1796.84,349.66" style="stroke:#A80036;stroke-width:1.0;"/><!--MD5=[6dacdcc20e1cf06bf4fd7fd449c9d842]
link 樹冠線.Fill to think.秘密主義--><path codeLine="22" d="M2031.54,121.59 C2024.2,138.11 2013.09,160.45 2000,178 C1953.58,240.23 1940.19,258.42 1874,299 C1864.77,304.66 1860.19,301.28 1851,307 C1834.29,317.39 1818.46,332.63 1806.39,345.85 " fill="none" id="樹冠線.Fill-to-think.秘密主義" style="stroke:#A80036;stroke-width:1.0;"/><polygon fill="#A80036" points="1802.77,349.87,1811.7639,345.8562,1806.1148,346.1535,1805.8175,340.5045,1802.77,349.87" style="stroke:#A80036;stroke-width:1.0;"/><!--MD5=[ef908beb5cc16fffc3555ee438e431a0]
link 樹冠線.Fill to 樹冠線.Dark--><path codeLine="25" d="M2040.52,121.8 C2039.99,147.16 2039.15,187.75 2038.59,215 " fill="none" id="樹冠線.Fill-to-樹冠線.Dark" style="stroke:#A80036;stroke-width:1.0;"/><polygon fill="#A80036" points="2038.48,220.26,2042.6592,211.3418,2038.58,215.261,2034.6608,211.1818,2038.48,220.26" style="stroke:#A80036;stroke-width:1.0;"/><!--MD5=[750f80491b94a6dd34aba3d09c25a55c]
link 樹冠線.Dark to living.死--><path codeLine="26" d="M2007.97,266.51 C1991.02,277.54 1969.07,290.49 1948,299 C1933.61,304.81 1926.68,298.04 1914,307 C1864.36,342.07 1886.96,383.41 1840,422 C1791.6,461.78 1719.17,482.15 1680.18,490.78 " fill="none" id="樹冠線.Dark-to-living.死" style="stroke:#A80036;stroke-width:1.0;"/><polygon fill="#A80036" points="1675.14,491.87,1684.7824,493.8762,1680.0269,490.8126,1683.0905,486.0571,1675.14,491.87" style="stroke:#A80036;stroke-width:1.0;"/><!--MD5=[ec95a0bccdbef5a8933f40a7303e9a1f]
link 樹冠形.Square to type.頑固--><path codeLine="31" d="M832.66,121.9 C855.58,172.25 909.5,290.64 934.21,344.92 " fill="none" id="樹冠形.Square-to-type.頑固" style="stroke:#A80036;stroke-width:1.0;"/><polygon fill="#A80036" points="936.37,349.66,936.2872,339.8115,934.301,345.1082,929.0043,343.1219,936.37,349.66" style="stroke:#A80036;stroke-width:1.0;"/><!--MD5=[1deb3c5ff881ac09c2fba5a0b1fafaaf]
link 樹冠形.SideEclipse to env.圧力下--><path codeLine="34" d="M1139.74,121.74 C1156.22,139.7 1181.27,163.81 1208,178 C1406.5,283.41 1476.74,265.6 1699,299 C1761.07,308.33 1779.56,290.08 1840,307 C1870.73,315.6 1902.44,332.65 1926.11,347.27 " fill="none" id="樹冠形.SideEclipse-to-env.圧力下" style="stroke:#A80036;stroke-width:1.0;"/><polygon fill="#A80036" points="1930.43,349.97,1924.9057,341.8164,1926.186,347.3264,1920.6759,348.6068,1930.43,349.97" style="stroke:#A80036;stroke-width:1.0;"/><!--MD5=[bf73d0843c1021b11b794d6d3604222f]
link 樹冠形.FirstQuarterMoon to type.防衛的--><path codeLine="37" d="M690.29,121.9 C701.63,172.14 728.29,290.17 740.58,344.59 " fill="none" id="樹冠形.FirstQuarterMoon-to-type.防衛的" style="stroke:#A80036;stroke-width:1.0;"/><polygon fill="#A80036" points="741.73,349.66,743.6494,340,740.6287,344.7828,735.8459,341.7621,741.73,349.66" style="stroke:#A80036;stroke-width:1.0;"/><!--MD5=[41ff553b9fa3567fa37309b4c7edecb5]
link 樹冠形.FirstQuarterMoon to type.羞恥心--><path codeLine="38" d="M699.07,121.9 C729.39,172.35 800.78,291.12 833.32,345.25 " fill="none" id="樹冠形.FirstQuarterMoon-to-type.羞恥心" style="stroke:#A80036;stroke-width:1.0;"/><polygon fill="#A80036" points="835.97,349.66,834.7695,339.8846,833.3975,345.3725,827.9096,344.0005,835.97,349.66" style="stroke:#A80036;stroke-width:1.0;"/><!--MD5=[82b0a42e4ae954651dd9e66a40e03f75]
link 樹冠形.ToRightUp to state.現実主義--><path codeLine="47" d="M339.7,154.04 C276.98,193.07 194.42,248.57 129,307 C115.91,318.69 102.99,333.32 92.77,345.84 " fill="none" id="樹冠形.ToRightUp-to-state.現実主義" style="stroke:#A80036;stroke-width:1.0;"/><polygon fill="#A80036" points="89.41,349.99,98.1718,345.4922,92.5474,346.0968,91.9427,340.4724,89.41,349.99" style="stroke:#A80036;stroke-width:1.0;"/><!--MD5=[b795f9b2876537cdffdc39f156537af2]
link 樹冠形.ToRightUp to commonsense.非常識--><path codeLine="48" d="M444.73,154.05 C455.88,211.82 472.9,299.96 481.55,344.75 " fill="none" id="樹冠形.ToRightUp-to-commonsense.非常識" style="stroke:#A80036;stroke-width:1.0;"/><polygon fill="#A80036" points="482.51,349.73,484.7156,340.1313,481.5541,344.8222,476.8632,341.6607,482.51,349.73" style="stroke:#A80036;stroke-width:1.0;"/><!--MD5=[009872a4353e1a53cfc53a4d4b4809ef]
link 樹冠形.ToLeftUp to think.理想主義--><path codeLine="53" d="M963.08,128.09 C961.98,173.11 967.4,257.9 1019,299 C1028.31,306.41 1221.25,305.12 1233,307 C1298.7,317.5 1372.22,340.69 1418.06,356.59 " fill="none" id="樹冠形.ToLeftUp-to-think.理想主義" style="stroke:#A80036;stroke-width:1.0;"/><polygon fill="#A80036" points="1422.96,358.3,1415.7776,351.5611,1418.2385,356.6546,1413.145,359.1155,1422.96,358.3" style="stroke:#A80036;stroke-width:1.0;"/><!--MD5=[35ecd1b552427f31751f756caaa78790]
link 樹冠形.ToLeftUp to think.逃避--><path codeLine="54" d="M979.95,128.2 C1006.31,179.23 1061.53,279.92 1096,299 C1137.32,321.87 1479.45,284.54 1521,307 C1536.24,315.24 1547.32,331.14 1554.67,345.28 " fill="none" id="樹冠形.ToLeftUp-to-think.逃避" style="stroke:#A80036;stroke-width:1.0;"/><polygon fill="#A80036" points="1557.02,349.99,1556.5602,340.1519,1554.7782,345.5207,1549.4094,343.7387,1557.02,349.99" style="stroke:#A80036;stroke-width:1.0;"/><!--MD5=[f2c8b9230b06da416a4ad09e68fd4dbd]
link wing.LeftToRight to env.女性的要素からの圧力--><path codeLine="62" d="M2377.68,128.14 C2377.09,181.35 2375.88,292.38 2375.31,344.65 " fill="none" id="wing.LeftToRight-to-env.女性的要素からの圧力" style="stroke:#A80036;stroke-width:1.0;"/><polygon fill="#A80036" points="2375.25,349.82,2379.3526,340.8663,2375.3071,344.8203,2371.3531,340.7749,2375.25,349.82" style="stroke:#A80036;stroke-width:1.0;"/><!--MD5=[0998b02a208c4686f43c9d4406538579]
link 樹冠内部.Bushes to living.充実--><path codeLine="67" d="M1533.79,121.53 C1523.25,137.43 1508.85,159.05 1496,178 C1431.21,273.53 1344.71,324.82 1407,422 C1435.12,465.87 1496.52,484.08 1534.84,491.39 " fill="none" id="樹冠内部.Bushes-to-living.充実" style="stroke:#A80036;stroke-width:1.0;"/><polygon fill="#A80036" points="1539.86,492.3,1531.725,486.7483,1534.9413,491.4018,1530.2879,494.6182,1539.86,492.3" style="stroke:#A80036;stroke-width:1.0;"/><!--MD5=[5798140b84c335bedd81877ebcdbd373]
link 樹冠内部.BranchBushes to env.他者との接触の増加--><path codeLine="70" d="M1679.25,121.55 C1686.74,165 1709.64,258.27 1772,299 C1794.71,313.83 1990.44,297.93 2016,307 C2038.9,315.12 2060.67,331.65 2076.71,346.13 " fill="none" id="樹冠内部.BranchBushes-to-env.他者との接触の増加" style="stroke:#A80036;stroke-width:1.0;"/><polygon fill="#A80036" points="2080.66,349.76,2076.738,340.7257,2076.9778,346.3775,2071.326,346.6173,2080.66,349.76" style="stroke:#A80036;stroke-width:1.0;"/><!--MD5=[0f30df4a909a9b1999e2c95d096c5733]
link 樹冠内部.BranchLeaf to type.濾過機能--><path codeLine="76" d="M1348.63,134.74 C1342.27,201.55 1319.05,344.38 1235,422 C1171.79,480.37 1067.22,493.51 1007.52,495.98 " fill="none" id="樹冠内部.BranchLeaf-to-type.濾過機能" style="stroke:#A80036;stroke-width:1.0;"/><polygon fill="#A80036" points="1002.24,496.18,1011.3823,499.8432,1007.2366,495.9944,1011.0853,491.8487,1002.24,496.18" style="stroke:#A80036;stroke-width:1.0;"/><!--MD5=[11e97a1e4ae4a7cbffe1045b4240fbd2]
link 樹冠内部.BranchLeaf to type.より若い--><path codeLine="77" d="M1304.99,134.73 C1254.83,174.96 1173.04,242.72 1108,307 C1095.62,319.23 1082.75,333.67 1072.29,345.92 " fill="none" id="樹冠内部.BranchLeaf-to-type.より若い" style="stroke:#A80036;stroke-width:1.0;"/><polygon fill="#A80036" points="1068.84,349.99,1077.7249,345.7406,1072.0857,346.1867,1071.6396,340.5474,1068.84,349.99" style="stroke:#A80036;stroke-width:1.0;"/><!--MD5=[3938378e64f4955febea89b93fca2d79]
link state.喪失 to state.空想--><!--MD5=[05b9fc896fc1e92a12d229a90587d1f0]
link state.喪失 to state.現実--><!--MD5=[af8238d0b57f0e41d587e9699cc73717]
link state.現実 to state.過去--><!--MD5=[c1a5cbb3fa6cb5b2b8464a4a984685a4]
link sexual.同性愛 to sexual.自己啓発--><!--MD5=[44b02108f4db488b83d487383b06e9f5]
link sexual.同性愛 to sexual.計画性--><!--MD5=[b6e98ac6c95d01ba91ff73e0cea31987]
@startuml crown



!include 00target.pu






namespace 樹冠線 {
    class Circle
    Circle - - -> type.自己中心的
  
    class SideToSide
    SideToSide - - -> env.不満
  
    class UpToDown
    UpToDown - - -> think.秘密主義
  
    class Fill
    Fill - - -> think.秘密主義
  
    class Dark
    Fill - -> Dark
    Dark - - -> living.死
}

namespace 樹冠形 {
    class Square
    Square - - -> type.頑固
  
    class SideEclipse
    SideEclipse - - -> env.圧力下

    class FirstQuarterMoon
    FirstQuarterMoon - - -> type.防衛的
    FirstQuarterMoon - - -> type.羞恥心

    class ToRightUp{
      樹冠が右上に伸びている木
      批判的,現実主義であり
      - 科学的で高度に理性的な研究
      - 実際的な仕事
      一つの面にしか興味がなく、言ってしまえば常識がない
    }
    ToRightUp - - -> state.現実主義
    ToRightUp - - -> commonsense.非常識

    class ToLeftUp {
      樹冠が左上に伸びている木
    }
    ToLeftUp - - -> think.理想主義
    ToLeftUp - - -> think.逃避
}


namespace wing {
  class LeftToRight {
       右から左への風を書いた人は過去に一人もいない
  }
  LeftToRight - - -> env.女性的要素からの圧力
}

namespace 樹冠内部 {
    class Bushes
    Bushes - -> living.充実
    
    class BranchBushes 
    BranchBushes - - -> env.他者との接触の増加
    
    class BranchLeaf {
        葉の数が多くなればなるほど濾過機能が強くなり
        精神年齢は上がる
    }
    BranchLeaf - - -> type.濾過機能
    BranchLeaf - - -> type.より若い
    
}




@enduml

@startuml crown




namespace type {
    class 自己中心的 
    class 頑固 
    class 防衛的
    class 濾過機能
    防衛的 - -> 濾過機能
    class 羞恥心
  
    class より若い

    class 野心
}

namespace 思考傾向 {
    class 伝統志向
}



namespace env {
    class 不満
    class 圧力下
  
    class 女性的要素からの圧力
    
    class 諦め
    圧力下 - -> 諦め
  
    class 他者との接触の増加
}

namespace think {
    class 秘密主義
    class 伝統主義
    class 理想主義
    class 逃避
}

namespace living {
    class 死
    class 充実
}

namespace state {
    class 喪失

    class 空想

    class 現実

    class 過去
}

namespace time {
    class 過去

    class 未来
}

namespace parents {
    class 母親からの影響
    class 母親からの影響の克服
    class 父親からの影響
    父親からの影響 - -> 憧れと諦め
    class 憧れと諦め
}

namespace towoman {
    class 軽蔑
}

namespace sexual {
    class 同性愛
    class 自己啓発 {
        恋愛に対する自己啓発
    }
    class 計画性 {
        恋愛に値する計画性
    }
}


namespace freedom {
    class 闘争
    class 服従
}

namespace commonsense {
    class 非常識
    class 常識的
}

namespace ex {
    class 物理学者
    type.野心 - - -> 物理学者
}







namespace 樹冠線 {
    class Circle
    Circle - - -> type.自己中心的
  
    class SideToSide
    SideToSide - - -> env.不満
  
    class UpToDown
    UpToDown - - -> think.秘密主義
  
    class Fill
    Fill - - -> think.秘密主義
  
    class Dark
    Fill - -> Dark
    Dark - - -> living.死
}

namespace 樹冠形 {
    class Square
    Square - - -> type.頑固
  
    class SideEclipse
    SideEclipse - - -> env.圧力下

    class FirstQuarterMoon
    FirstQuarterMoon - - -> type.防衛的
    FirstQuarterMoon - - -> type.羞恥心

    class ToRightUp{
      樹冠が右上に伸びている木
      批判的,現実主義であり
      - 科学的で高度に理性的な研究
      - 実際的な仕事
      一つの面にしか興味がなく、言ってしまえば常識がない
    }
    ToRightUp - - -> state.現実主義
    ToRightUp - - -> commonsense.非常識

    class ToLeftUp {
      樹冠が左上に伸びている木
    }
    ToLeftUp - - -> think.理想主義
    ToLeftUp - - -> think.逃避
}


namespace wing {
  class LeftToRight {
       右から左への風を書いた人は過去に一人もいない
  }
  LeftToRight - - -> env.女性的要素からの圧力
}

namespace 樹冠内部 {
    class Bushes
    Bushes - -> living.充実
    
    class BranchBushes 
    BranchBushes - - -> env.他者との接触の増加
    
    class BranchLeaf {
        葉の数が多くなればなるほど濾過機能が強くなり
        精神年齢は上がる
    }
    BranchLeaf - - -> type.濾過機能
    BranchLeaf - - -> type.より若い
    
}




@enduml

PlantUML version 1.2021.15(Wed Dec 01 01:45:34 JST 2021)
(GPL source distribution)
Java Runtime: OpenJDK Runtime Environment
JVM: OpenJDK 64-Bit Server VM
Default Encoding: UTF-8
Language: ja
Country: JP
--></g></svg>