<?xml version="1.0" encoding="UTF-8" standalone="no"?><svg xmlns="http://www.w3.org/2000/svg" xmlns:xlink="http://www.w3.org/1999/xlink" contentScriptType="application/ecmascript" contentStyleType="text/css" height="1047px" preserveAspectRatio="none" style="width:2640px;height:1047px;background:#FFFFFF;" version="1.1" viewBox="0 0 2640 1047" width="2640px" zoomAndPan="magnify"><defs><filter height="300%" id="f1rzyqxrcso49e" width="300%" x="-1" y="-1"><feGaussianBlur result="blurOut" stdDeviation="2.0"/><feColorMatrix in="blurOut" result="blurOut2" type="matrix" values="0 0 0 0 0 0 0 0 0 0 0 0 0 0 0 0 0 0 .4 0"/><feOffset dx="4.0" dy="4.0" in="blurOut2" result="blurOut3"/><feBlend in="SourceGraphic" in2="blurOut3" mode="normal"/></filter></defs><g><!--MD5=[3d755a8e79ee953feccbf2e6a25fa9eb]
cluster type--><polygon fill="#FFFFFF" filter="url(#f1rzyqxrcso49e)" points="16,576.5,53,576.5,60,598.9883,425,598.9883,425,783.5,16,783.5,16,576.5" style="stroke:#000000;stroke-width:1.5;"/><line style="stroke:#000000;stroke-width:1.5;" x1="16" x2="60" y1="598.9883" y2="598.9883"/><text fill="#000000" font-family="sans-serif" font-size="14" font-weight="bold" lengthAdjust="spacing" textLength="31" x="20" y="592.0352">type</text><!--MD5=[3ac5bc1d849fdebadb9fc5e0e21f6cf5]
cluster 思考傾向--><polygon fill="#FFFFFF" filter="url(#f1rzyqxrcso49e)" points="2093,6,2155,6,2162,28.4883,2205,28.4883,2205,105,2093,105,2093,6" style="stroke:#000000;stroke-width:1.5;"/><line style="stroke:#000000;stroke-width:1.5;" x1="2093" x2="2162" y1="28.4883" y2="28.4883"/><text fill="#000000" font-family="sans-serif" font-size="14" font-weight="bold" lengthAdjust="spacing" textLength="56" x="2097" y="21.5352">思考傾向</text><!--MD5=[a5f6d7e9f88b7365548164145cca9219]
cluster env--><polygon fill="#FFFFFF" filter="url(#f1rzyqxrcso49e)" points="1210,576.5,1241,576.5,1248,598.9883,1588,598.9883,1588,783.5,1210,783.5,1210,576.5" style="stroke:#000000;stroke-width:1.5;"/><line style="stroke:#000000;stroke-width:1.5;" x1="1210" x2="1248" y1="598.9883" y2="598.9883"/><text fill="#000000" font-family="sans-serif" font-size="14" font-weight="bold" lengthAdjust="spacing" textLength="25" x="1214" y="592.0352">env</text><!--MD5=[24975937ae95dc6e3fd29564a246eb2e]
cluster think--><polygon fill="#FFFFFF" filter="url(#f1rzyqxrcso49e)" points="449,576.5,493,576.5,500,598.9883,676,598.9883,676,675.5,449,675.5,449,576.5" style="stroke:#000000;stroke-width:1.5;"/><line style="stroke:#000000;stroke-width:1.5;" x1="449" x2="500" y1="598.9883" y2="598.9883"/><text fill="#000000" font-family="sans-serif" font-size="14" font-weight="bold" lengthAdjust="spacing" textLength="38" x="453" y="592.0352">think</text><!--MD5=[d63a90b188f4c70d363d464b00892cb4]
cluster living--><polygon fill="#FFFFFF" filter="url(#f1rzyqxrcso49e)" points="2229,6,2276,6,2283,28.4883,2396,28.4883,2396,105,2229,105,2229,6" style="stroke:#000000;stroke-width:1.5;"/><line style="stroke:#000000;stroke-width:1.5;" x1="2229" x2="2283" y1="28.4883" y2="28.4883"/><text fill="#000000" font-family="sans-serif" font-size="14" font-weight="bold" lengthAdjust="spacing" textLength="41" x="2233" y="21.5352">living</text><!--MD5=[75ea3bd801f35bf9c6563570d027214a]
cluster state--><polygon fill="#FFFFFF" filter="url(#f1rzyqxrcso49e)" points="1747,293.5,1789,293.5,1796,315.9883,2199,315.9883,2199,392.5,1747,392.5,1747,293.5" style="stroke:#000000;stroke-width:1.5;"/><line style="stroke:#000000;stroke-width:1.5;" x1="1747" x2="1796" y1="315.9883" y2="315.9883"/><text fill="#000000" font-family="sans-serif" font-size="14" font-weight="bold" lengthAdjust="spacing" textLength="36" x="1751" y="309.0352">state</text><!--MD5=[3dab47d3fc3e186ff10f67819eb99ff8]
cluster time--><polygon fill="#FFFFFF" filter="url(#f1rzyqxrcso49e)" points="1252,453.5,1291,453.5,1298,475.9883,1431,475.9883,1431,552.5,1252,552.5,1252,453.5" style="stroke:#000000;stroke-width:1.5;"/><line style="stroke:#000000;stroke-width:1.5;" x1="1252" x2="1298" y1="475.9883" y2="475.9883"/><text fill="#000000" font-family="sans-serif" font-size="14" font-weight="bold" lengthAdjust="spacing" textLength="33" x="1256" y="469.0352">time</text><!--MD5=[88fa2f93c14291d48ff88be1aa3b6619]
cluster parents--><polygon fill="#FFFFFF" filter="url(#f1rzyqxrcso49e)" points="700,453.5,760,453.5,767,475.9883,1186,475.9883,1186,675.5,700,675.5,700,453.5" style="stroke:#000000;stroke-width:1.5;"/><line style="stroke:#000000;stroke-width:1.5;" x1="700" x2="767" y1="475.9883" y2="475.9883"/><text fill="#000000" font-family="sans-serif" font-size="14" font-weight="bold" lengthAdjust="spacing" textLength="54" x="704" y="469.0352">parents</text><!--MD5=[d997e4a7cbe3f85cf7bb1498fc1fda56]
cluster towoman--><polygon fill="#FFFFFF" filter="url(#f1rzyqxrcso49e)" points="588,453.5,661,453.5,668,475.9883,676,475.9883,676,552.5,588,552.5,588,453.5" style="stroke:#000000;stroke-width:1.5;"/><line style="stroke:#000000;stroke-width:1.5;" x1="588" x2="668" y1="475.9883" y2="475.9883"/><text fill="#000000" font-family="sans-serif" font-size="14" font-weight="bold" lengthAdjust="spacing" textLength="67" x="592" y="469.0352">towoman</text><!--MD5=[f5653ff7b3e7f0e91fa6f0a63a0f7584]
cluster sexual--><polygon fill="#FFFFFF" filter="url(#f1rzyqxrcso49e)" points="109,807.5,161,807.5,168,829.9883,366,829.9883,366,1040.5,109,1040.5,109,807.5" style="stroke:#000000;stroke-width:1.5;"/><line style="stroke:#000000;stroke-width:1.5;" x1="109" x2="168" y1="829.9883" y2="829.9883"/><text fill="#000000" font-family="sans-serif" font-size="14" font-weight="bold" lengthAdjust="spacing" textLength="46" x="113" y="823.0352">sexual</text><!--MD5=[7d6847f696e7bb74234bd2651e61af1d]
cluster freedom--><polygon fill="#FFFFFF" filter="url(#f1rzyqxrcso49e)" points="1544,293.5,1610,293.5,1617,315.9883,1723,315.9883,1723,392.5,1544,392.5,1544,293.5" style="stroke:#000000;stroke-width:1.5;"/><line style="stroke:#000000;stroke-width:1.5;" x1="1544" x2="1617" y1="315.9883" y2="315.9883"/><text fill="#000000" font-family="sans-serif" font-size="14" font-weight="bold" lengthAdjust="spacing" textLength="60" x="1548" y="309.0352">freedom</text><!--MD5=[8f24d0701dcb05dd6e6975b6669f8f05]
cluster commonsense--><polygon fill="#FFFFFF" filter="url(#f1rzyqxrcso49e)" points="2420,6,2529,6,2536,28.4883,2623,28.4883,2623,105,2420,105,2420,6" style="stroke:#000000;stroke-width:1.5;"/><line style="stroke:#000000;stroke-width:1.5;" x1="2420" x2="2536" y1="28.4883" y2="28.4883"/><text fill="#000000" font-family="sans-serif" font-size="14" font-weight="bold" lengthAdjust="spacing" textLength="103" x="2424" y="21.5352">commonsense</text><!--MD5=[6f5ca303b11f66b6f76d1da6c5fb2617]
cluster ex--><polygon fill="#FFFFFF" filter="url(#f1rzyqxrcso49e)" points="390,814,412,814,419,836.4883,502,836.4883,502,913,390,913,390,814" style="stroke:#000000;stroke-width:1.5;"/><line style="stroke:#000000;stroke-width:1.5;" x1="390" x2="419" y1="836.4883" y2="836.4883"/><text fill="#000000" font-family="sans-serif" font-size="14" font-weight="bold" lengthAdjust="spacing" textLength="16" x="394" y="829.5352">ex</text><!--MD5=[dbc067f70f3795a5b04036b866ba55ba]
class type.自己中心的--><rect codeLine="3" fill="#FEFECE" filter="url(#f1rzyqxrcso49e)" height="48" id="type.自己中心的" style="stroke:#A80036;stroke-width:1.5;" width="92" x="135" y="611.5"/><ellipse cx="150" cy="627.5" fill="#ADD1B2" rx="11" ry="11" style="stroke:#A80036;stroke-width:1.0;"/><path d="M152.4731,633.6431 Q151.8921,633.9419 151.2529,634.0913 Q150.6138,634.2407 149.9082,634.2407 Q147.4014,634.2407 146.0815,632.5889 Q144.7617,630.937 144.7617,627.8159 Q144.7617,624.6865 146.0815,623.0347 Q147.4014,621.3828 149.9082,621.3828 Q150.6138,621.3828 151.2612,621.5322 Q151.9087,621.6816 152.4731,621.9805 L152.4731,624.7031 Q151.8423,624.1221 151.2488,623.8523 Q150.6553,623.5825 150.0244,623.5825 Q148.6797,623.5825 147.9949,624.6492 Q147.3101,625.7158 147.3101,627.8159 Q147.3101,629.9077 147.9949,630.9744 Q148.6797,632.041 150.0244,632.041 Q150.6553,632.041 151.2488,631.7712 Q151.8423,631.5015 152.4731,630.9204 Z " fill="#000000"/><text fill="#000000" font-family="sans-serif" font-size="12" lengthAdjust="spacing" textLength="60" x="164" y="632.0352">自己中心的</text><line style="stroke:#A80036;stroke-width:1.5;" x1="136" x2="226" y1="643.5" y2="643.5"/><line style="stroke:#A80036;stroke-width:1.5;" x1="136" x2="226" y1="651.5" y2="651.5"/><!--MD5=[84dec386c9d1977dcbb9f0451dd4ac42]
class type.頑固--><rect codeLine="4" fill="#FEFECE" filter="url(#f1rzyqxrcso49e)" height="48" id="type.頑固" style="stroke:#A80036;stroke-width:1.5;" width="56" x="262" y="611.5"/><ellipse cx="277" cy="627.5" fill="#ADD1B2" rx="11" ry="11" style="stroke:#A80036;stroke-width:1.0;"/><path d="M279.4731,633.6431 Q278.8921,633.9419 278.2529,634.0913 Q277.6138,634.2407 276.9082,634.2407 Q274.4014,634.2407 273.0815,632.5889 Q271.7617,630.937 271.7617,627.8159 Q271.7617,624.6865 273.0815,623.0347 Q274.4014,621.3828 276.9082,621.3828 Q277.6138,621.3828 278.2612,621.5322 Q278.9087,621.6816 279.4731,621.9805 L279.4731,624.7031 Q278.8423,624.1221 278.2488,623.8523 Q277.6553,623.5825 277.0244,623.5825 Q275.6797,623.5825 274.9949,624.6492 Q274.3101,625.7158 274.3101,627.8159 Q274.3101,629.9077 274.9949,630.9744 Q275.6797,632.041 277.0244,632.041 Q277.6553,632.041 278.2488,631.7712 Q278.8423,631.5015 279.4731,630.9204 Z " fill="#000000"/><text fill="#000000" font-family="sans-serif" font-size="12" lengthAdjust="spacing" textLength="24" x="291" y="632.0352">頑固</text><line style="stroke:#A80036;stroke-width:1.5;" x1="263" x2="317" y1="643.5" y2="643.5"/><line style="stroke:#A80036;stroke-width:1.5;" x1="263" x2="317" y1="651.5" y2="651.5"/><!--MD5=[d69c1dce711abfc2d0d1d2734420493a]
class type.防衛的--><rect codeLine="5" fill="#FEFECE" filter="url(#f1rzyqxrcso49e)" height="48" id="type.防衛的" style="stroke:#A80036;stroke-width:1.5;" width="68" x="32" y="611.5"/><ellipse cx="47" cy="627.5" fill="#ADD1B2" rx="11" ry="11" style="stroke:#A80036;stroke-width:1.0;"/><path d="M49.4731,633.6431 Q48.8921,633.9419 48.2529,634.0913 Q47.6138,634.2407 46.9082,634.2407 Q44.4014,634.2407 43.0815,632.5889 Q41.7617,630.937 41.7617,627.8159 Q41.7617,624.6865 43.0815,623.0347 Q44.4014,621.3828 46.9082,621.3828 Q47.6138,621.3828 48.2612,621.5322 Q48.9087,621.6816 49.4731,621.9805 L49.4731,624.7031 Q48.8423,624.1221 48.2488,623.8523 Q47.6553,623.5825 47.0244,623.5825 Q45.6797,623.5825 44.9949,624.6492 Q44.3101,625.7158 44.3101,627.8159 Q44.3101,629.9077 44.9949,630.9744 Q45.6797,632.041 47.0244,632.041 Q47.6553,632.041 48.2488,631.7712 Q48.8423,631.5015 49.4731,630.9204 Z " fill="#000000"/><text fill="#000000" font-family="sans-serif" font-size="12" lengthAdjust="spacing" textLength="36" x="61" y="632.0352">防衛的</text><line style="stroke:#A80036;stroke-width:1.5;" x1="33" x2="99" y1="643.5" y2="643.5"/><line style="stroke:#A80036;stroke-width:1.5;" x1="33" x2="99" y1="651.5" y2="651.5"/><!--MD5=[5d5fe8cc501f07ed9fb46b5587e42046]
class type.濾過機能--><rect codeLine="6" fill="#FEFECE" filter="url(#f1rzyqxrcso49e)" height="48" id="type.濾過機能" style="stroke:#A80036;stroke-width:1.5;" width="80" x="32" y="719.5"/><ellipse cx="47" cy="735.5" fill="#ADD1B2" rx="11" ry="11" style="stroke:#A80036;stroke-width:1.0;"/><path d="M49.4731,741.6431 Q48.8921,741.9419 48.2529,742.0913 Q47.6138,742.2407 46.9082,742.2407 Q44.4014,742.2407 43.0815,740.5889 Q41.7617,738.937 41.7617,735.8159 Q41.7617,732.6865 43.0815,731.0347 Q44.4014,729.3828 46.9082,729.3828 Q47.6138,729.3828 48.2612,729.5322 Q48.9087,729.6816 49.4731,729.9805 L49.4731,732.7031 Q48.8423,732.1221 48.2488,731.8523 Q47.6553,731.5825 47.0244,731.5825 Q45.6797,731.5825 44.9949,732.6492 Q44.3101,733.7158 44.3101,735.8159 Q44.3101,737.9077 44.9949,738.9744 Q45.6797,740.041 47.0244,740.041 Q47.6553,740.041 48.2488,739.7712 Q48.8423,739.5015 49.4731,738.9204 Z " fill="#000000"/><text fill="#000000" font-family="sans-serif" font-size="12" lengthAdjust="spacing" textLength="48" x="61" y="740.0352">濾過機能</text><line style="stroke:#A80036;stroke-width:1.5;" x1="33" x2="111" y1="751.5" y2="751.5"/><line style="stroke:#A80036;stroke-width:1.5;" x1="33" x2="111" y1="759.5" y2="759.5"/><!--MD5=[af35fff8827c1ac27b9b4609b21b259b]
class type.羞恥心--><rect codeLine="8" fill="#FEFECE" filter="url(#f1rzyqxrcso49e)" height="48" id="type.羞恥心" style="stroke:#A80036;stroke-width:1.5;" width="68" x="147" y="719.5"/><ellipse cx="162" cy="735.5" fill="#ADD1B2" rx="11" ry="11" style="stroke:#A80036;stroke-width:1.0;"/><path d="M164.4731,741.6431 Q163.8921,741.9419 163.2529,742.0913 Q162.6138,742.2407 161.9082,742.2407 Q159.4014,742.2407 158.0815,740.5889 Q156.7617,738.937 156.7617,735.8159 Q156.7617,732.6865 158.0815,731.0347 Q159.4014,729.3828 161.9082,729.3828 Q162.6138,729.3828 163.2612,729.5322 Q163.9087,729.6816 164.4731,729.9805 L164.4731,732.7031 Q163.8423,732.1221 163.2488,731.8523 Q162.6553,731.5825 162.0244,731.5825 Q160.6797,731.5825 159.9949,732.6492 Q159.3101,733.7158 159.3101,735.8159 Q159.3101,737.9077 159.9949,738.9744 Q160.6797,740.041 162.0244,740.041 Q162.6553,740.041 163.2488,739.7712 Q163.8423,739.5015 164.4731,738.9204 Z " fill="#000000"/><text fill="#000000" font-family="sans-serif" font-size="12" lengthAdjust="spacing" textLength="36" x="176" y="740.0352">羞恥心</text><line style="stroke:#A80036;stroke-width:1.5;" x1="148" x2="214" y1="751.5" y2="751.5"/><line style="stroke:#A80036;stroke-width:1.5;" x1="148" x2="214" y1="759.5" y2="759.5"/><!--MD5=[3a61ae0ac77faa8e06db7ce7cfefbad0]
class type.より若い--><rect codeLine="10" fill="#FEFECE" filter="url(#f1rzyqxrcso49e)" height="48" id="type.より若い" style="stroke:#A80036;stroke-width:1.5;" width="80" x="250" y="719.5"/><ellipse cx="265" cy="735.5" fill="#ADD1B2" rx="11" ry="11" style="stroke:#A80036;stroke-width:1.0;"/><path d="M267.4731,741.6431 Q266.8921,741.9419 266.2529,742.0913 Q265.6138,742.2407 264.9082,742.2407 Q262.4014,742.2407 261.0815,740.5889 Q259.7617,738.937 259.7617,735.8159 Q259.7617,732.6865 261.0815,731.0347 Q262.4014,729.3828 264.9082,729.3828 Q265.6138,729.3828 266.2612,729.5322 Q266.9087,729.6816 267.4731,729.9805 L267.4731,732.7031 Q266.8423,732.1221 266.2488,731.8523 Q265.6553,731.5825 265.0244,731.5825 Q263.6797,731.5825 262.9949,732.6492 Q262.3101,733.7158 262.3101,735.8159 Q262.3101,737.9077 262.9949,738.9744 Q263.6797,740.041 265.0244,740.041 Q265.6553,740.041 266.2488,739.7712 Q266.8423,739.5015 267.4731,738.9204 Z " fill="#000000"/><text fill="#000000" font-family="sans-serif" font-size="12" lengthAdjust="spacing" textLength="48" x="279" y="740.0352">より若い</text><line style="stroke:#A80036;stroke-width:1.5;" x1="251" x2="329" y1="751.5" y2="751.5"/><line style="stroke:#A80036;stroke-width:1.5;" x1="251" x2="329" y1="759.5" y2="759.5"/><!--MD5=[a0fbafcc919696d1d2a17016666dc09b]
class type.野心--><rect codeLine="12" fill="#FEFECE" filter="url(#f1rzyqxrcso49e)" height="48" id="type.野心" style="stroke:#A80036;stroke-width:1.5;" width="56" x="353" y="611.5"/><ellipse cx="368" cy="627.5" fill="#ADD1B2" rx="11" ry="11" style="stroke:#A80036;stroke-width:1.0;"/><path d="M370.4731,633.6431 Q369.8921,633.9419 369.2529,634.0913 Q368.6138,634.2407 367.9082,634.2407 Q365.4014,634.2407 364.0815,632.5889 Q362.7617,630.937 362.7617,627.8159 Q362.7617,624.6865 364.0815,623.0347 Q365.4014,621.3828 367.9082,621.3828 Q368.6138,621.3828 369.2612,621.5322 Q369.9087,621.6816 370.4731,621.9805 L370.4731,624.7031 Q369.8423,624.1221 369.2488,623.8523 Q368.6553,623.5825 368.0244,623.5825 Q366.6797,623.5825 365.9949,624.6492 Q365.3101,625.7158 365.3101,627.8159 Q365.3101,629.9077 365.9949,630.9744 Q366.6797,632.041 368.0244,632.041 Q368.6553,632.041 369.2488,631.7712 Q369.8423,631.5015 370.4731,630.9204 Z " fill="#000000"/><text fill="#000000" font-family="sans-serif" font-size="12" lengthAdjust="spacing" textLength="24" x="382" y="632.0352">野心</text><line style="stroke:#A80036;stroke-width:1.5;" x1="354" x2="408" y1="643.5" y2="643.5"/><line style="stroke:#A80036;stroke-width:1.5;" x1="354" x2="408" y1="651.5" y2="651.5"/><!--MD5=[f91ed0fda49237470cff63576de05b37]
class 思考傾向.伝統志向--><rect codeLine="16" fill="#FEFECE" filter="url(#f1rzyqxrcso49e)" height="48" id="思考傾向.伝統志向" style="stroke:#A80036;stroke-width:1.5;" width="80" x="2109" y="41"/><ellipse cx="2124" cy="57" fill="#ADD1B2" rx="11" ry="11" style="stroke:#A80036;stroke-width:1.0;"/><path d="M2126.4731,63.1431 Q2125.8921,63.4419 2125.2529,63.5913 Q2124.6138,63.7407 2123.9082,63.7407 Q2121.4014,63.7407 2120.0815,62.0889 Q2118.7617,60.437 2118.7617,57.3159 Q2118.7617,54.1865 2120.0815,52.5347 Q2121.4014,50.8828 2123.9082,50.8828 Q2124.6138,50.8828 2125.2612,51.0322 Q2125.9087,51.1816 2126.4731,51.4805 L2126.4731,54.2031 Q2125.8423,53.6221 2125.2488,53.3523 Q2124.6553,53.0825 2124.0244,53.0825 Q2122.6797,53.0825 2121.9949,54.1492 Q2121.3101,55.2158 2121.3101,57.3159 Q2121.3101,59.4077 2121.9949,60.4744 Q2122.6797,61.541 2124.0244,61.541 Q2124.6553,61.541 2125.2488,61.2712 Q2125.8423,61.0015 2126.4731,60.4204 Z " fill="#000000"/><text fill="#000000" font-family="sans-serif" font-size="12" lengthAdjust="spacing" textLength="48" x="2138" y="61.5352">伝統志向</text><line style="stroke:#A80036;stroke-width:1.5;" x1="2110" x2="2188" y1="73" y2="73"/><line style="stroke:#A80036;stroke-width:1.5;" x1="2110" x2="2188" y1="81" y2="81"/><!--MD5=[b337f6de976b78452eba931cf2ed514e]
class env.不満--><rect codeLine="22" fill="#FEFECE" filter="url(#f1rzyqxrcso49e)" height="48" id="env.不満" style="stroke:#A80036;stroke-width:1.5;" width="56" x="1329" y="611.5"/><ellipse cx="1344" cy="627.5" fill="#ADD1B2" rx="11" ry="11" style="stroke:#A80036;stroke-width:1.0;"/><path d="M1346.4731,633.6431 Q1345.8921,633.9419 1345.2529,634.0913 Q1344.6138,634.2407 1343.9082,634.2407 Q1341.4014,634.2407 1340.0815,632.5889 Q1338.7617,630.937 1338.7617,627.8159 Q1338.7617,624.6865 1340.0815,623.0347 Q1341.4014,621.3828 1343.9082,621.3828 Q1344.6138,621.3828 1345.2612,621.5322 Q1345.9087,621.6816 1346.4731,621.9805 L1346.4731,624.7031 Q1345.8423,624.1221 1345.2488,623.8523 Q1344.6553,623.5825 1344.0244,623.5825 Q1342.6797,623.5825 1341.9949,624.6492 Q1341.3101,625.7158 1341.3101,627.8159 Q1341.3101,629.9077 1341.9949,630.9744 Q1342.6797,632.041 1344.0244,632.041 Q1344.6553,632.041 1345.2488,631.7712 Q1345.8423,631.5015 1346.4731,630.9204 Z " fill="#000000"/><text fill="#000000" font-family="sans-serif" font-size="12" lengthAdjust="spacing" textLength="24" x="1358" y="632.0352">不満</text><line style="stroke:#A80036;stroke-width:1.5;" x1="1330" x2="1384" y1="643.5" y2="643.5"/><line style="stroke:#A80036;stroke-width:1.5;" x1="1330" x2="1384" y1="651.5" y2="651.5"/><!--MD5=[6dbbccf62dd0eb5d0bae1abab68992fa]
class env.圧力下--><rect codeLine="23" fill="#FEFECE" filter="url(#f1rzyqxrcso49e)" height="48" id="env.圧力下" style="stroke:#A80036;stroke-width:1.5;" width="68" x="1226" y="611.5"/><ellipse cx="1241" cy="627.5" fill="#ADD1B2" rx="11" ry="11" style="stroke:#A80036;stroke-width:1.0;"/><path d="M1243.4731,633.6431 Q1242.8921,633.9419 1242.2529,634.0913 Q1241.6138,634.2407 1240.9082,634.2407 Q1238.4014,634.2407 1237.0815,632.5889 Q1235.7617,630.937 1235.7617,627.8159 Q1235.7617,624.6865 1237.0815,623.0347 Q1238.4014,621.3828 1240.9082,621.3828 Q1241.6138,621.3828 1242.2612,621.5322 Q1242.9087,621.6816 1243.4731,621.9805 L1243.4731,624.7031 Q1242.8423,624.1221 1242.2488,623.8523 Q1241.6553,623.5825 1241.0244,623.5825 Q1239.6797,623.5825 1238.9949,624.6492 Q1238.3101,625.7158 1238.3101,627.8159 Q1238.3101,629.9077 1238.9949,630.9744 Q1239.6797,632.041 1241.0244,632.041 Q1241.6553,632.041 1242.2488,631.7712 Q1242.8423,631.5015 1243.4731,630.9204 Z " fill="#000000"/><text fill="#000000" font-family="sans-serif" font-size="12" lengthAdjust="spacing" textLength="36" x="1255" y="632.0352">圧力下</text><line style="stroke:#A80036;stroke-width:1.5;" x1="1227" x2="1293" y1="643.5" y2="643.5"/><line style="stroke:#A80036;stroke-width:1.5;" x1="1227" x2="1293" y1="651.5" y2="651.5"/><!--MD5=[fb4c72aeb41dd212a15cf732f22aff08]
class env.女性的要素からの圧力--><rect codeLine="25" fill="#FEFECE" filter="url(#f1rzyqxrcso49e)" height="48" id="env.女性的要素からの圧力" style="stroke:#A80036;stroke-width:1.5;" width="152" x="1420" y="611.5"/><ellipse cx="1435" cy="627.5" fill="#ADD1B2" rx="11" ry="11" style="stroke:#A80036;stroke-width:1.0;"/><path d="M1437.4731,633.6431 Q1436.8921,633.9419 1436.2529,634.0913 Q1435.6138,634.2407 1434.9082,634.2407 Q1432.4014,634.2407 1431.0815,632.5889 Q1429.7617,630.937 1429.7617,627.8159 Q1429.7617,624.6865 1431.0815,623.0347 Q1432.4014,621.3828 1434.9082,621.3828 Q1435.6138,621.3828 1436.2612,621.5322 Q1436.9087,621.6816 1437.4731,621.9805 L1437.4731,624.7031 Q1436.8423,624.1221 1436.2488,623.8523 Q1435.6553,623.5825 1435.0244,623.5825 Q1433.6797,623.5825 1432.9949,624.6492 Q1432.3101,625.7158 1432.3101,627.8159 Q1432.3101,629.9077 1432.9949,630.9744 Q1433.6797,632.041 1435.0244,632.041 Q1435.6553,632.041 1436.2488,631.7712 Q1436.8423,631.5015 1437.4731,630.9204 Z " fill="#000000"/><text fill="#000000" font-family="sans-serif" font-size="12" lengthAdjust="spacing" textLength="120" x="1449" y="632.0352">女性的要素からの圧力</text><line style="stroke:#A80036;stroke-width:1.5;" x1="1421" x2="1571" y1="643.5" y2="643.5"/><line style="stroke:#A80036;stroke-width:1.5;" x1="1421" x2="1571" y1="651.5" y2="651.5"/><!--MD5=[186806f0922ff661b6b52ac89de76293]
class env.諦め--><rect codeLine="27" fill="#FEFECE" filter="url(#f1rzyqxrcso49e)" height="48" id="env.諦め" style="stroke:#A80036;stroke-width:1.5;" width="56" x="1229" y="719.5"/><ellipse cx="1244" cy="735.5" fill="#ADD1B2" rx="11" ry="11" style="stroke:#A80036;stroke-width:1.0;"/><path d="M1246.4731,741.6431 Q1245.8921,741.9419 1245.2529,742.0913 Q1244.6138,742.2407 1243.9082,742.2407 Q1241.4014,742.2407 1240.0815,740.5889 Q1238.7617,738.937 1238.7617,735.8159 Q1238.7617,732.6865 1240.0815,731.0347 Q1241.4014,729.3828 1243.9082,729.3828 Q1244.6138,729.3828 1245.2612,729.5322 Q1245.9087,729.6816 1246.4731,729.9805 L1246.4731,732.7031 Q1245.8423,732.1221 1245.2488,731.8523 Q1244.6553,731.5825 1244.0244,731.5825 Q1242.6797,731.5825 1241.9949,732.6492 Q1241.3101,733.7158 1241.3101,735.8159 Q1241.3101,737.9077 1241.9949,738.9744 Q1242.6797,740.041 1244.0244,740.041 Q1244.6553,740.041 1245.2488,739.7712 Q1245.8423,739.5015 1246.4731,738.9204 Z " fill="#000000"/><text fill="#000000" font-family="sans-serif" font-size="12" lengthAdjust="spacing" textLength="24" x="1258" y="740.0352">諦め</text><line style="stroke:#A80036;stroke-width:1.5;" x1="1230" x2="1284" y1="751.5" y2="751.5"/><line style="stroke:#A80036;stroke-width:1.5;" x1="1230" x2="1284" y1="759.5" y2="759.5"/><!--MD5=[c6b2ce260a9bc64887e3e62bdd14a8ec]
class env.他者との接触の増加--><rect codeLine="30" fill="#FEFECE" filter="url(#f1rzyqxrcso49e)" height="48" id="env.他者との接触の増加" style="stroke:#A80036;stroke-width:1.5;" width="140" x="1320" y="719.5"/><ellipse cx="1335" cy="735.5" fill="#ADD1B2" rx="11" ry="11" style="stroke:#A80036;stroke-width:1.0;"/><path d="M1337.4731,741.6431 Q1336.8921,741.9419 1336.2529,742.0913 Q1335.6138,742.2407 1334.9082,742.2407 Q1332.4014,742.2407 1331.0815,740.5889 Q1329.7617,738.937 1329.7617,735.8159 Q1329.7617,732.6865 1331.0815,731.0347 Q1332.4014,729.3828 1334.9082,729.3828 Q1335.6138,729.3828 1336.2612,729.5322 Q1336.9087,729.6816 1337.4731,729.9805 L1337.4731,732.7031 Q1336.8423,732.1221 1336.2488,731.8523 Q1335.6553,731.5825 1335.0244,731.5825 Q1333.6797,731.5825 1332.9949,732.6492 Q1332.3101,733.7158 1332.3101,735.8159 Q1332.3101,737.9077 1332.9949,738.9744 Q1333.6797,740.041 1335.0244,740.041 Q1335.6553,740.041 1336.2488,739.7712 Q1336.8423,739.5015 1337.4731,738.9204 Z " fill="#000000"/><text fill="#000000" font-family="sans-serif" font-size="12" lengthAdjust="spacing" textLength="108" x="1349" y="740.0352">他者との接触の増加</text><line style="stroke:#A80036;stroke-width:1.5;" x1="1321" x2="1459" y1="751.5" y2="751.5"/><line style="stroke:#A80036;stroke-width:1.5;" x1="1321" x2="1459" y1="759.5" y2="759.5"/><!--MD5=[f67090f2d05e59c8cd2106ae3b8ec4a9]
class think.秘密主義--><rect codeLine="34" fill="#FEFECE" filter="url(#f1rzyqxrcso49e)" height="48" id="think.秘密主義" style="stroke:#A80036;stroke-width:1.5;" width="80" x="580" y="611.5"/><ellipse cx="595" cy="627.5" fill="#ADD1B2" rx="11" ry="11" style="stroke:#A80036;stroke-width:1.0;"/><path d="M597.4731,633.6431 Q596.8921,633.9419 596.2529,634.0913 Q595.6138,634.2407 594.9082,634.2407 Q592.4014,634.2407 591.0815,632.5889 Q589.7617,630.937 589.7617,627.8159 Q589.7617,624.6865 591.0815,623.0347 Q592.4014,621.3828 594.9082,621.3828 Q595.6138,621.3828 596.2612,621.5322 Q596.9087,621.6816 597.4731,621.9805 L597.4731,624.7031 Q596.8423,624.1221 596.2488,623.8523 Q595.6553,623.5825 595.0244,623.5825 Q593.6797,623.5825 592.9949,624.6492 Q592.3101,625.7158 592.3101,627.8159 Q592.3101,629.9077 592.9949,630.9744 Q593.6797,632.041 595.0244,632.041 Q595.6553,632.041 596.2488,631.7712 Q596.8423,631.5015 597.4731,630.9204 Z " fill="#000000"/><text fill="#000000" font-family="sans-serif" font-size="12" lengthAdjust="spacing" textLength="48" x="609" y="632.0352">秘密主義</text><line style="stroke:#A80036;stroke-width:1.5;" x1="581" x2="659" y1="643.5" y2="643.5"/><line style="stroke:#A80036;stroke-width:1.5;" x1="581" x2="659" y1="651.5" y2="651.5"/><!--MD5=[9b9b31b741db9cc35ec471c2b68a55ac]
class think.伝統主義--><rect codeLine="35" fill="#FEFECE" filter="url(#f1rzyqxrcso49e)" height="48" id="think.伝統主義" style="stroke:#A80036;stroke-width:1.5;" width="80" x="465" y="611.5"/><ellipse cx="480" cy="627.5" fill="#ADD1B2" rx="11" ry="11" style="stroke:#A80036;stroke-width:1.0;"/><path d="M482.4731,633.6431 Q481.8921,633.9419 481.2529,634.0913 Q480.6138,634.2407 479.9082,634.2407 Q477.4014,634.2407 476.0815,632.5889 Q474.7617,630.937 474.7617,627.8159 Q474.7617,624.6865 476.0815,623.0347 Q477.4014,621.3828 479.9082,621.3828 Q480.6138,621.3828 481.2612,621.5322 Q481.9087,621.6816 482.4731,621.9805 L482.4731,624.7031 Q481.8423,624.1221 481.2488,623.8523 Q480.6553,623.5825 480.0244,623.5825 Q478.6797,623.5825 477.9949,624.6492 Q477.3101,625.7158 477.3101,627.8159 Q477.3101,629.9077 477.9949,630.9744 Q478.6797,632.041 480.0244,632.041 Q480.6553,632.041 481.2488,631.7712 Q481.8423,631.5015 482.4731,630.9204 Z " fill="#000000"/><text fill="#000000" font-family="sans-serif" font-size="12" lengthAdjust="spacing" textLength="48" x="494" y="632.0352">伝統主義</text><line style="stroke:#A80036;stroke-width:1.5;" x1="466" x2="544" y1="643.5" y2="643.5"/><line style="stroke:#A80036;stroke-width:1.5;" x1="466" x2="544" y1="651.5" y2="651.5"/><!--MD5=[be03a69dee268d605f6d6fbaa69865e7]
class living.死--><rect codeLine="39" fill="#FEFECE" filter="url(#f1rzyqxrcso49e)" height="48" id="living.死" style="stroke:#A80036;stroke-width:1.5;" width="44" x="2336" y="41"/><ellipse cx="2351" cy="57" fill="#ADD1B2" rx="11" ry="11" style="stroke:#A80036;stroke-width:1.0;"/><path d="M2353.4731,63.1431 Q2352.8921,63.4419 2352.2529,63.5913 Q2351.6138,63.7407 2350.9082,63.7407 Q2348.4014,63.7407 2347.0815,62.0889 Q2345.7617,60.437 2345.7617,57.3159 Q2345.7617,54.1865 2347.0815,52.5347 Q2348.4014,50.8828 2350.9082,50.8828 Q2351.6138,50.8828 2352.2612,51.0322 Q2352.9087,51.1816 2353.4731,51.4805 L2353.4731,54.2031 Q2352.8423,53.6221 2352.2488,53.3523 Q2351.6553,53.0825 2351.0244,53.0825 Q2349.6797,53.0825 2348.9949,54.1492 Q2348.3101,55.2158 2348.3101,57.3159 Q2348.3101,59.4077 2348.9949,60.4744 Q2349.6797,61.541 2351.0244,61.541 Q2351.6553,61.541 2352.2488,61.2712 Q2352.8423,61.0015 2353.4731,60.4204 Z " fill="#000000"/><text fill="#000000" font-family="sans-serif" font-size="12" lengthAdjust="spacing" textLength="12" x="2365" y="61.5352">死</text><line style="stroke:#A80036;stroke-width:1.5;" x1="2337" x2="2379" y1="73" y2="73"/><line style="stroke:#A80036;stroke-width:1.5;" x1="2337" x2="2379" y1="81" y2="81"/><!--MD5=[18cad1a8e596fd5472f250e718d823ca]
class living.充実--><rect codeLine="40" fill="#FEFECE" filter="url(#f1rzyqxrcso49e)" height="48" id="living.充実" style="stroke:#A80036;stroke-width:1.5;" width="56" x="2245" y="41"/><ellipse cx="2260" cy="57" fill="#ADD1B2" rx="11" ry="11" style="stroke:#A80036;stroke-width:1.0;"/><path d="M2262.4731,63.1431 Q2261.8921,63.4419 2261.2529,63.5913 Q2260.6138,63.7407 2259.9082,63.7407 Q2257.4014,63.7407 2256.0815,62.0889 Q2254.7617,60.437 2254.7617,57.3159 Q2254.7617,54.1865 2256.0815,52.5347 Q2257.4014,50.8828 2259.9082,50.8828 Q2260.6138,50.8828 2261.2612,51.0322 Q2261.9087,51.1816 2262.4731,51.4805 L2262.4731,54.2031 Q2261.8423,53.6221 2261.2488,53.3523 Q2260.6553,53.0825 2260.0244,53.0825 Q2258.6797,53.0825 2257.9949,54.1492 Q2257.3101,55.2158 2257.3101,57.3159 Q2257.3101,59.4077 2257.9949,60.4744 Q2258.6797,61.541 2260.0244,61.541 Q2260.6553,61.541 2261.2488,61.2712 Q2261.8423,61.0015 2262.4731,60.4204 Z " fill="#000000"/><text fill="#000000" font-family="sans-serif" font-size="12" lengthAdjust="spacing" textLength="24" x="2274" y="61.5352">充実</text><line style="stroke:#A80036;stroke-width:1.5;" x1="2246" x2="2300" y1="73" y2="73"/><line style="stroke:#A80036;stroke-width:1.5;" x1="2246" x2="2300" y1="81" y2="81"/><!--MD5=[e45ac958bfb7a40f67cd80ece99aeb6f]
class state.喪失--><rect codeLine="44" fill="#FEFECE" filter="url(#f1rzyqxrcso49e)" height="48" id="state.喪失" style="stroke:#A80036;stroke-width:1.5;" width="56" x="2127" y="328.5"/><ellipse cx="2142" cy="344.5" fill="#ADD1B2" rx="11" ry="11" style="stroke:#A80036;stroke-width:1.0;"/><path d="M2144.4731,350.6431 Q2143.8921,350.9419 2143.2529,351.0913 Q2142.6138,351.2407 2141.9082,351.2407 Q2139.4014,351.2407 2138.0815,349.5889 Q2136.7617,347.937 2136.7617,344.8159 Q2136.7617,341.6865 2138.0815,340.0347 Q2139.4014,338.3828 2141.9082,338.3828 Q2142.6138,338.3828 2143.2612,338.5322 Q2143.9087,338.6816 2144.4731,338.9805 L2144.4731,341.7031 Q2143.8423,341.1221 2143.2488,340.8523 Q2142.6553,340.5825 2142.0244,340.5825 Q2140.6797,340.5825 2139.9949,341.6492 Q2139.3101,342.7158 2139.3101,344.8159 Q2139.3101,346.9077 2139.9949,347.9744 Q2140.6797,349.041 2142.0244,349.041 Q2142.6553,349.041 2143.2488,348.7712 Q2143.8423,348.5015 2144.4731,347.9204 Z " fill="#000000"/><text fill="#000000" font-family="sans-serif" font-size="12" lengthAdjust="spacing" textLength="24" x="2156" y="349.0352">喪失</text><line style="stroke:#A80036;stroke-width:1.5;" x1="2128" x2="2182" y1="360.5" y2="360.5"/><line style="stroke:#A80036;stroke-width:1.5;" x1="2128" x2="2182" y1="368.5" y2="368.5"/><!--MD5=[a768ce815de24fe62eb746c3c9f7b47a]
class state.空想--><rect codeLine="46" fill="#FEFECE" filter="url(#f1rzyqxrcso49e)" height="48" id="state.空想" style="stroke:#A80036;stroke-width:1.5;" width="56" x="2036" y="328.5"/><ellipse cx="2051" cy="344.5" fill="#ADD1B2" rx="11" ry="11" style="stroke:#A80036;stroke-width:1.0;"/><path d="M2053.4731,350.6431 Q2052.8921,350.9419 2052.2529,351.0913 Q2051.6138,351.2407 2050.9082,351.2407 Q2048.4014,351.2407 2047.0815,349.5889 Q2045.7617,347.937 2045.7617,344.8159 Q2045.7617,341.6865 2047.0815,340.0347 Q2048.4014,338.3828 2050.9082,338.3828 Q2051.6138,338.3828 2052.2612,338.5322 Q2052.9087,338.6816 2053.4731,338.9805 L2053.4731,341.7031 Q2052.8423,341.1221 2052.2488,340.8523 Q2051.6553,340.5825 2051.0244,340.5825 Q2049.6797,340.5825 2048.9949,341.6492 Q2048.3101,342.7158 2048.3101,344.8159 Q2048.3101,346.9077 2048.9949,347.9744 Q2049.6797,349.041 2051.0244,349.041 Q2051.6553,349.041 2052.2488,348.7712 Q2052.8423,348.5015 2053.4731,347.9204 Z " fill="#000000"/><text fill="#000000" font-family="sans-serif" font-size="12" lengthAdjust="spacing" textLength="24" x="2065" y="349.0352">空想</text><line style="stroke:#A80036;stroke-width:1.5;" x1="2037" x2="2091" y1="360.5" y2="360.5"/><line style="stroke:#A80036;stroke-width:1.5;" x1="2037" x2="2091" y1="368.5" y2="368.5"/><!--MD5=[25e9c5294557a47419d23601d3bf55e0]
class state.現実--><rect codeLine="48" fill="#FEFECE" filter="url(#f1rzyqxrcso49e)" height="48" id="state.現実" style="stroke:#A80036;stroke-width:1.5;" width="56" x="1854" y="328.5"/><ellipse cx="1869" cy="344.5" fill="#ADD1B2" rx="11" ry="11" style="stroke:#A80036;stroke-width:1.0;"/><path d="M1871.4731,350.6431 Q1870.8921,350.9419 1870.2529,351.0913 Q1869.6138,351.2407 1868.9082,351.2407 Q1866.4014,351.2407 1865.0815,349.5889 Q1863.7617,347.937 1863.7617,344.8159 Q1863.7617,341.6865 1865.0815,340.0347 Q1866.4014,338.3828 1868.9082,338.3828 Q1869.6138,338.3828 1870.2612,338.5322 Q1870.9087,338.6816 1871.4731,338.9805 L1871.4731,341.7031 Q1870.8423,341.1221 1870.2488,340.8523 Q1869.6553,340.5825 1869.0244,340.5825 Q1867.6797,340.5825 1866.9949,341.6492 Q1866.3101,342.7158 1866.3101,344.8159 Q1866.3101,346.9077 1866.9949,347.9744 Q1867.6797,349.041 1869.0244,349.041 Q1869.6553,349.041 1870.2488,348.7712 Q1870.8423,348.5015 1871.4731,347.9204 Z " fill="#000000"/><text fill="#000000" font-family="sans-serif" font-size="12" lengthAdjust="spacing" textLength="24" x="1883" y="349.0352">現実</text><line style="stroke:#A80036;stroke-width:1.5;" x1="1855" x2="1909" y1="360.5" y2="360.5"/><line style="stroke:#A80036;stroke-width:1.5;" x1="1855" x2="1909" y1="368.5" y2="368.5"/><!--MD5=[062afe9b5d2e58a566a11929855daa8a]
class state.過去--><rect codeLine="50" fill="#FEFECE" filter="url(#f1rzyqxrcso49e)" height="48" id="state.過去" style="stroke:#A80036;stroke-width:1.5;" width="56" x="1945" y="328.5"/><ellipse cx="1960" cy="344.5" fill="#ADD1B2" rx="11" ry="11" style="stroke:#A80036;stroke-width:1.0;"/><path d="M1962.4731,350.6431 Q1961.8921,350.9419 1961.2529,351.0913 Q1960.6138,351.2407 1959.9082,351.2407 Q1957.4014,351.2407 1956.0815,349.5889 Q1954.7617,347.937 1954.7617,344.8159 Q1954.7617,341.6865 1956.0815,340.0347 Q1957.4014,338.3828 1959.9082,338.3828 Q1960.6138,338.3828 1961.2612,338.5322 Q1961.9087,338.6816 1962.4731,338.9805 L1962.4731,341.7031 Q1961.8423,341.1221 1961.2488,340.8523 Q1960.6553,340.5825 1960.0244,340.5825 Q1958.6797,340.5825 1957.9949,341.6492 Q1957.3101,342.7158 1957.3101,344.8159 Q1957.3101,346.9077 1957.9949,347.9744 Q1958.6797,349.041 1960.0244,349.041 Q1960.6553,349.041 1961.2488,348.7712 Q1961.8423,348.5015 1962.4731,347.9204 Z " fill="#000000"/><text fill="#000000" font-family="sans-serif" font-size="12" lengthAdjust="spacing" textLength="24" x="1974" y="349.0352">過去</text><line style="stroke:#A80036;stroke-width:1.5;" x1="1946" x2="2000" y1="360.5" y2="360.5"/><line style="stroke:#A80036;stroke-width:1.5;" x1="1946" x2="2000" y1="368.5" y2="368.5"/><!--MD5=[f425df11dc05c9b81ffa8c09583cabfb]
class state.想像--><rect fill="#FEFECE" filter="url(#f1rzyqxrcso49e)" height="48" id="state.想像" style="stroke:#A80036;stroke-width:1.5;" width="56" x="1763" y="328.5"/><ellipse cx="1778" cy="344.5" fill="#ADD1B2" rx="11" ry="11" style="stroke:#A80036;stroke-width:1.0;"/><path d="M1780.4731,350.6431 Q1779.8921,350.9419 1779.2529,351.0913 Q1778.6138,351.2407 1777.9082,351.2407 Q1775.4014,351.2407 1774.0815,349.5889 Q1772.7617,347.937 1772.7617,344.8159 Q1772.7617,341.6865 1774.0815,340.0347 Q1775.4014,338.3828 1777.9082,338.3828 Q1778.6138,338.3828 1779.2612,338.5322 Q1779.9087,338.6816 1780.4731,338.9805 L1780.4731,341.7031 Q1779.8423,341.1221 1779.2488,340.8523 Q1778.6553,340.5825 1778.0244,340.5825 Q1776.6797,340.5825 1775.9949,341.6492 Q1775.3101,342.7158 1775.3101,344.8159 Q1775.3101,346.9077 1775.9949,347.9744 Q1776.6797,349.041 1778.0244,349.041 Q1778.6553,349.041 1779.2488,348.7712 Q1779.8423,348.5015 1780.4731,347.9204 Z " fill="#000000"/><text fill="#000000" font-family="sans-serif" font-size="12" lengthAdjust="spacing" textLength="24" x="1792" y="349.0352">想像</text><line style="stroke:#A80036;stroke-width:1.5;" x1="1764" x2="1818" y1="360.5" y2="360.5"/><line style="stroke:#A80036;stroke-width:1.5;" x1="1764" x2="1818" y1="368.5" y2="368.5"/><!--MD5=[5e75cd6d72e3742fe767ff2275e248de]
class time.過去--><rect codeLine="54" fill="#FEFECE" filter="url(#f1rzyqxrcso49e)" height="48" id="time.過去" style="stroke:#A80036;stroke-width:1.5;" width="56" x="1359" y="488.5"/><ellipse cx="1374" cy="504.5" fill="#ADD1B2" rx="11" ry="11" style="stroke:#A80036;stroke-width:1.0;"/><path d="M1376.4731,510.6431 Q1375.8921,510.9419 1375.2529,511.0913 Q1374.6138,511.2407 1373.9082,511.2407 Q1371.4014,511.2407 1370.0815,509.5889 Q1368.7617,507.937 1368.7617,504.8159 Q1368.7617,501.6865 1370.0815,500.0347 Q1371.4014,498.3828 1373.9082,498.3828 Q1374.6138,498.3828 1375.2612,498.5322 Q1375.9087,498.6816 1376.4731,498.9805 L1376.4731,501.7031 Q1375.8423,501.1221 1375.2488,500.8523 Q1374.6553,500.5825 1374.0244,500.5825 Q1372.6797,500.5825 1371.9949,501.6492 Q1371.3101,502.7158 1371.3101,504.8159 Q1371.3101,506.9077 1371.9949,507.9744 Q1372.6797,509.041 1374.0244,509.041 Q1374.6553,509.041 1375.2488,508.7712 Q1375.8423,508.5015 1376.4731,507.9204 Z " fill="#000000"/><text fill="#000000" font-family="sans-serif" font-size="12" lengthAdjust="spacing" textLength="24" x="1388" y="509.0352">過去</text><line style="stroke:#A80036;stroke-width:1.5;" x1="1360" x2="1414" y1="520.5" y2="520.5"/><line style="stroke:#A80036;stroke-width:1.5;" x1="1360" x2="1414" y1="528.5" y2="528.5"/><!--MD5=[08d6c6fbd3c2d8e5bf03c190ac3da287]
class time.未来--><rect codeLine="56" fill="#FEFECE" filter="url(#f1rzyqxrcso49e)" height="48" id="time.未来" style="stroke:#A80036;stroke-width:1.5;" width="56" x="1268" y="488.5"/><ellipse cx="1283" cy="504.5" fill="#ADD1B2" rx="11" ry="11" style="stroke:#A80036;stroke-width:1.0;"/><path d="M1285.4731,510.6431 Q1284.8921,510.9419 1284.2529,511.0913 Q1283.6138,511.2407 1282.9082,511.2407 Q1280.4014,511.2407 1279.0815,509.5889 Q1277.7617,507.937 1277.7617,504.8159 Q1277.7617,501.6865 1279.0815,500.0347 Q1280.4014,498.3828 1282.9082,498.3828 Q1283.6138,498.3828 1284.2612,498.5322 Q1284.9087,498.6816 1285.4731,498.9805 L1285.4731,501.7031 Q1284.8423,501.1221 1284.2488,500.8523 Q1283.6553,500.5825 1283.0244,500.5825 Q1281.6797,500.5825 1280.9949,501.6492 Q1280.3101,502.7158 1280.3101,504.8159 Q1280.3101,506.9077 1280.9949,507.9744 Q1281.6797,509.041 1283.0244,509.041 Q1283.6553,509.041 1284.2488,508.7712 Q1284.8423,508.5015 1285.4731,507.9204 Z " fill="#000000"/><text fill="#000000" font-family="sans-serif" font-size="12" lengthAdjust="spacing" textLength="24" x="1297" y="509.0352">未来</text><line style="stroke:#A80036;stroke-width:1.5;" x1="1269" x2="1323" y1="520.5" y2="520.5"/><line style="stroke:#A80036;stroke-width:1.5;" x1="1269" x2="1323" y1="528.5" y2="528.5"/><!--MD5=[95c728fff8ee74ea59419b3a4da66ea3]
class parents.母親からの影響--><rect codeLine="60" fill="#FEFECE" filter="url(#f1rzyqxrcso49e)" height="48" id="parents.母親からの影響" style="stroke:#A80036;stroke-width:1.5;" width="116" x="1054" y="488.5"/><ellipse cx="1069" cy="504.5" fill="#ADD1B2" rx="11" ry="11" style="stroke:#A80036;stroke-width:1.0;"/><path d="M1071.4731,510.6431 Q1070.8921,510.9419 1070.2529,511.0913 Q1069.6138,511.2407 1068.9082,511.2407 Q1066.4014,511.2407 1065.0815,509.5889 Q1063.7617,507.937 1063.7617,504.8159 Q1063.7617,501.6865 1065.0815,500.0347 Q1066.4014,498.3828 1068.9082,498.3828 Q1069.6138,498.3828 1070.2612,498.5322 Q1070.9087,498.6816 1071.4731,498.9805 L1071.4731,501.7031 Q1070.8423,501.1221 1070.2488,500.8523 Q1069.6553,500.5825 1069.0244,500.5825 Q1067.6797,500.5825 1066.9949,501.6492 Q1066.3101,502.7158 1066.3101,504.8159 Q1066.3101,506.9077 1066.9949,507.9744 Q1067.6797,509.041 1069.0244,509.041 Q1069.6553,509.041 1070.2488,508.7712 Q1070.8423,508.5015 1071.4731,507.9204 Z " fill="#000000"/><text fill="#000000" font-family="sans-serif" font-size="12" lengthAdjust="spacing" textLength="84" x="1083" y="509.0352">母親からの影響</text><line style="stroke:#A80036;stroke-width:1.5;" x1="1055" x2="1169" y1="520.5" y2="520.5"/><line style="stroke:#A80036;stroke-width:1.5;" x1="1055" x2="1169" y1="528.5" y2="528.5"/><!--MD5=[3ece5616b20bc24d67c147e24668c060]
class parents.母親からの影響の克服--><rect codeLine="61" fill="#FEFECE" filter="url(#f1rzyqxrcso49e)" height="48" id="parents.母親からの影響の克服" style="stroke:#A80036;stroke-width:1.5;" width="152" x="867" y="488.5"/><ellipse cx="882" cy="504.5" fill="#ADD1B2" rx="11" ry="11" style="stroke:#A80036;stroke-width:1.0;"/><path d="M884.4731,510.6431 Q883.8921,510.9419 883.2529,511.0913 Q882.6138,511.2407 881.9082,511.2407 Q879.4014,511.2407 878.0815,509.5889 Q876.7617,507.937 876.7617,504.8159 Q876.7617,501.6865 878.0815,500.0347 Q879.4014,498.3828 881.9082,498.3828 Q882.6138,498.3828 883.2612,498.5322 Q883.9087,498.6816 884.4731,498.9805 L884.4731,501.7031 Q883.8423,501.1221 883.2488,500.8523 Q882.6553,500.5825 882.0244,500.5825 Q880.6797,500.5825 879.9949,501.6492 Q879.3101,502.7158 879.3101,504.8159 Q879.3101,506.9077 879.9949,507.9744 Q880.6797,509.041 882.0244,509.041 Q882.6553,509.041 883.2488,508.7712 Q883.8423,508.5015 884.4731,507.9204 Z " fill="#000000"/><text fill="#000000" font-family="sans-serif" font-size="12" lengthAdjust="spacing" textLength="120" x="896" y="509.0352">母親からの影響の克服</text><line style="stroke:#A80036;stroke-width:1.5;" x1="868" x2="1018" y1="520.5" y2="520.5"/><line style="stroke:#A80036;stroke-width:1.5;" x1="868" x2="1018" y1="528.5" y2="528.5"/><!--MD5=[a9c19c57b80e7bb1f146470153448781]
class parents.父親からの影響--><rect codeLine="62" fill="#FEFECE" filter="url(#f1rzyqxrcso49e)" height="48" id="parents.父親からの影響" style="stroke:#A80036;stroke-width:1.5;" width="116" x="716" y="488.5"/><ellipse cx="731" cy="504.5" fill="#ADD1B2" rx="11" ry="11" style="stroke:#A80036;stroke-width:1.0;"/><path d="M733.4731,510.6431 Q732.8921,510.9419 732.2529,511.0913 Q731.6138,511.2407 730.9082,511.2407 Q728.4014,511.2407 727.0815,509.5889 Q725.7617,507.937 725.7617,504.8159 Q725.7617,501.6865 727.0815,500.0347 Q728.4014,498.3828 730.9082,498.3828 Q731.6138,498.3828 732.2612,498.5322 Q732.9087,498.6816 733.4731,498.9805 L733.4731,501.7031 Q732.8423,501.1221 732.2488,500.8523 Q731.6553,500.5825 731.0244,500.5825 Q729.6797,500.5825 728.9949,501.6492 Q728.3101,502.7158 728.3101,504.8159 Q728.3101,506.9077 728.9949,507.9744 Q729.6797,509.041 731.0244,509.041 Q731.6553,509.041 732.2488,508.7712 Q732.8423,508.5015 733.4731,507.9204 Z " fill="#000000"/><text fill="#000000" font-family="sans-serif" font-size="12" lengthAdjust="spacing" textLength="84" x="745" y="509.0352">父親からの影響</text><line style="stroke:#A80036;stroke-width:1.5;" x1="717" x2="831" y1="520.5" y2="520.5"/><line style="stroke:#A80036;stroke-width:1.5;" x1="717" x2="831" y1="528.5" y2="528.5"/><!--MD5=[f321c95344578c6a5f01a9c7b8a93ead]
class parents.憧れと諦め--><rect codeLine="64" fill="#FEFECE" filter="url(#f1rzyqxrcso49e)" height="48" id="parents.憧れと諦め" style="stroke:#A80036;stroke-width:1.5;" width="92" x="722" y="611.5"/><ellipse cx="737" cy="627.5" fill="#ADD1B2" rx="11" ry="11" style="stroke:#A80036;stroke-width:1.0;"/><path d="M739.4731,633.6431 Q738.8921,633.9419 738.2529,634.0913 Q737.6138,634.2407 736.9082,634.2407 Q734.4014,634.2407 733.0815,632.5889 Q731.7617,630.937 731.7617,627.8159 Q731.7617,624.6865 733.0815,623.0347 Q734.4014,621.3828 736.9082,621.3828 Q737.6138,621.3828 738.2612,621.5322 Q738.9087,621.6816 739.4731,621.9805 L739.4731,624.7031 Q738.8423,624.1221 738.2488,623.8523 Q737.6553,623.5825 737.0244,623.5825 Q735.6797,623.5825 734.9949,624.6492 Q734.3101,625.7158 734.3101,627.8159 Q734.3101,629.9077 734.9949,630.9744 Q735.6797,632.041 737.0244,632.041 Q737.6553,632.041 738.2488,631.7712 Q738.8423,631.5015 739.4731,630.9204 Z " fill="#000000"/><text fill="#000000" font-family="sans-serif" font-size="12" lengthAdjust="spacing" textLength="60" x="751" y="632.0352">憧れと諦め</text><line style="stroke:#A80036;stroke-width:1.5;" x1="723" x2="813" y1="643.5" y2="643.5"/><line style="stroke:#A80036;stroke-width:1.5;" x1="723" x2="813" y1="651.5" y2="651.5"/><!--MD5=[eb22ec15d31d10a6b25c9ebdffe3f7d7]
class towoman.軽蔑--><rect codeLine="68" fill="#FEFECE" filter="url(#f1rzyqxrcso49e)" height="48" id="towoman.軽蔑" style="stroke:#A80036;stroke-width:1.5;" width="56" x="604" y="488.5"/><ellipse cx="619" cy="504.5" fill="#ADD1B2" rx="11" ry="11" style="stroke:#A80036;stroke-width:1.0;"/><path d="M621.4731,510.6431 Q620.8921,510.9419 620.2529,511.0913 Q619.6138,511.2407 618.9082,511.2407 Q616.4014,511.2407 615.0815,509.5889 Q613.7617,507.937 613.7617,504.8159 Q613.7617,501.6865 615.0815,500.0347 Q616.4014,498.3828 618.9082,498.3828 Q619.6138,498.3828 620.2612,498.5322 Q620.9087,498.6816 621.4731,498.9805 L621.4731,501.7031 Q620.8423,501.1221 620.2488,500.8523 Q619.6553,500.5825 619.0244,500.5825 Q617.6797,500.5825 616.9949,501.6492 Q616.3101,502.7158 616.3101,504.8159 Q616.3101,506.9077 616.9949,507.9744 Q617.6797,509.041 619.0244,509.041 Q619.6553,509.041 620.2488,508.7712 Q620.8423,508.5015 621.4731,507.9204 Z " fill="#000000"/><text fill="#000000" font-family="sans-serif" font-size="12" lengthAdjust="spacing" textLength="24" x="633" y="509.0352">軽蔑</text><line style="stroke:#A80036;stroke-width:1.5;" x1="605" x2="659" y1="520.5" y2="520.5"/><line style="stroke:#A80036;stroke-width:1.5;" x1="605" x2="659" y1="528.5" y2="528.5"/><!--MD5=[8ecd15b8a96d572ab911af03d05a6e1e]
class sexual.同性愛--><rect codeLine="72" fill="#FEFECE" filter="url(#f1rzyqxrcso49e)" height="48" id="sexual.同性愛" style="stroke:#A80036;stroke-width:1.5;" width="68" x="125" y="849"/><ellipse cx="140" cy="865" fill="#ADD1B2" rx="11" ry="11" style="stroke:#A80036;stroke-width:1.0;"/><path d="M142.4731,871.1431 Q141.8921,871.4419 141.2529,871.5913 Q140.6138,871.7407 139.9082,871.7407 Q137.4014,871.7407 136.0815,870.0889 Q134.7617,868.437 134.7617,865.3159 Q134.7617,862.1865 136.0815,860.5347 Q137.4014,858.8828 139.9082,858.8828 Q140.6138,858.8828 141.2612,859.0322 Q141.9087,859.1816 142.4731,859.4805 L142.4731,862.2031 Q141.8423,861.6221 141.2488,861.3523 Q140.6553,861.0825 140.0244,861.0825 Q138.6797,861.0825 137.9949,862.1492 Q137.3101,863.2158 137.3101,865.3159 Q137.3101,867.4077 137.9949,868.4744 Q138.6797,869.541 140.0244,869.541 Q140.6553,869.541 141.2488,869.2712 Q141.8423,869.0015 142.4731,868.4204 Z " fill="#000000"/><text fill="#000000" font-family="sans-serif" font-size="12" lengthAdjust="spacing" textLength="36" x="154" y="869.5352">同性愛</text><line style="stroke:#A80036;stroke-width:1.5;" x1="126" x2="192" y1="881" y2="881"/><line style="stroke:#A80036;stroke-width:1.5;" x1="126" x2="192" y1="889" y2="889"/><!--MD5=[93fe8dbb0c06e7d5a43b24ec49e9c0b4]
class sexual.自己啓発--><rect codeLine="73" fill="#FEFECE" filter="url(#f1rzyqxrcso49e)" height="60.9551" id="sexual.自己啓発" style="stroke:#A80036;stroke-width:1.5;" width="122" x="228" y="842.5"/><ellipse cx="261.9" cy="858.5" fill="#ADD1B2" rx="11" ry="11" style="stroke:#A80036;stroke-width:1.0;"/><path d="M264.3731,864.6431 Q263.7921,864.9419 263.1529,865.0913 Q262.5138,865.2407 261.8082,865.2407 Q259.3014,865.2407 257.9815,863.5889 Q256.6617,861.937 256.6617,858.8159 Q256.6617,855.6865 257.9815,854.0347 Q259.3014,852.3828 261.8082,852.3828 Q262.5138,852.3828 263.1612,852.5322 Q263.8087,852.6816 264.3731,852.9805 L264.3731,855.7031 Q263.7423,855.1221 263.1488,854.8523 Q262.5553,854.5825 261.9244,854.5825 Q260.5797,854.5825 259.8949,855.6492 Q259.2101,856.7158 259.2101,858.8159 Q259.2101,860.9077 259.8949,861.9744 Q260.5797,863.041 261.9244,863.041 Q262.5553,863.041 263.1488,862.7712 Q263.7423,862.5015 264.3731,861.9204 Z " fill="#000000"/><text fill="#000000" font-family="sans-serif" font-size="12" lengthAdjust="spacing" textLength="48" x="280.1" y="863.0352">自己啓発</text><line style="stroke:#A80036;stroke-width:1.5;" x1="229" x2="349" y1="874.5" y2="874.5"/><text fill="#000000" font-family="sans-serif" font-size="11" lengthAdjust="spacing" textLength="110" x="234" y="889.1348">恋愛に対する自己啓発</text><line style="stroke:#A80036;stroke-width:1.5;" x1="229" x2="349" y1="895.4551" y2="895.4551"/><!--MD5=[ae4f08e4688a0111f9c6e955d7e82727]
class sexual.計画性--><rect codeLine="76" fill="#FEFECE" filter="url(#f1rzyqxrcso49e)" height="60.9551" id="sexual.計画性" style="stroke:#A80036;stroke-width:1.5;" width="111" x="125.5" y="963.5"/><ellipse cx="159.85" cy="979.5" fill="#ADD1B2" rx="11" ry="11" style="stroke:#A80036;stroke-width:1.0;"/><path d="M162.3231,985.6431 Q161.7421,985.9419 161.1029,986.0913 Q160.4638,986.2407 159.7582,986.2407 Q157.2514,986.2407 155.9315,984.5889 Q154.6117,982.937 154.6117,979.8159 Q154.6117,976.6865 155.9315,975.0347 Q157.2514,973.3828 159.7582,973.3828 Q160.4638,973.3828 161.1112,973.5322 Q161.7587,973.6816 162.3231,973.9805 L162.3231,976.7031 Q161.6923,976.1221 161.0988,975.8523 Q160.5053,975.5825 159.8744,975.5825 Q158.5297,975.5825 157.8449,976.6492 Q157.1601,977.7158 157.1601,979.8159 Q157.1601,981.9077 157.8449,982.9744 Q158.5297,984.041 159.8744,984.041 Q160.5053,984.041 161.0988,983.7712 Q161.6923,983.5015 162.3231,982.9204 Z " fill="#000000"/><text fill="#000000" font-family="sans-serif" font-size="12" lengthAdjust="spacing" textLength="36" x="178.15" y="984.0352">計画性</text><line style="stroke:#A80036;stroke-width:1.5;" x1="126.5" x2="235.5" y1="995.5" y2="995.5"/><text fill="#000000" font-family="sans-serif" font-size="11" lengthAdjust="spacing" textLength="99" x="131.5" y="1010.1348">恋愛に値する計画性</text><line style="stroke:#A80036;stroke-width:1.5;" x1="126.5" x2="235.5" y1="1016.4551" y2="1016.4551"/><!--MD5=[a00949e067130f1609081a4b662ccac7]
class freedom.闘争--><rect codeLine="83" fill="#FEFECE" filter="url(#f1rzyqxrcso49e)" height="48" id="freedom.闘争" style="stroke:#A80036;stroke-width:1.5;" width="56" x="1651" y="328.5"/><ellipse cx="1666" cy="344.5" fill="#ADD1B2" rx="11" ry="11" style="stroke:#A80036;stroke-width:1.0;"/><path d="M1668.4731,350.6431 Q1667.8921,350.9419 1667.2529,351.0913 Q1666.6138,351.2407 1665.9082,351.2407 Q1663.4014,351.2407 1662.0815,349.5889 Q1660.7617,347.937 1660.7617,344.8159 Q1660.7617,341.6865 1662.0815,340.0347 Q1663.4014,338.3828 1665.9082,338.3828 Q1666.6138,338.3828 1667.2612,338.5322 Q1667.9087,338.6816 1668.4731,338.9805 L1668.4731,341.7031 Q1667.8423,341.1221 1667.2488,340.8523 Q1666.6553,340.5825 1666.0244,340.5825 Q1664.6797,340.5825 1663.9949,341.6492 Q1663.3101,342.7158 1663.3101,344.8159 Q1663.3101,346.9077 1663.9949,347.9744 Q1664.6797,349.041 1666.0244,349.041 Q1666.6553,349.041 1667.2488,348.7712 Q1667.8423,348.5015 1668.4731,347.9204 Z " fill="#000000"/><text fill="#000000" font-family="sans-serif" font-size="12" lengthAdjust="spacing" textLength="24" x="1680" y="349.0352">闘争</text><line style="stroke:#A80036;stroke-width:1.5;" x1="1652" x2="1706" y1="360.5" y2="360.5"/><line style="stroke:#A80036;stroke-width:1.5;" x1="1652" x2="1706" y1="368.5" y2="368.5"/><!--MD5=[eafb347996823219e03ca770c3b99e0c]
class freedom.服従--><rect codeLine="84" fill="#FEFECE" filter="url(#f1rzyqxrcso49e)" height="48" id="freedom.服従" style="stroke:#A80036;stroke-width:1.5;" width="56" x="1560" y="328.5"/><ellipse cx="1575" cy="344.5" fill="#ADD1B2" rx="11" ry="11" style="stroke:#A80036;stroke-width:1.0;"/><path d="M1577.4731,350.6431 Q1576.8921,350.9419 1576.2529,351.0913 Q1575.6138,351.2407 1574.9082,351.2407 Q1572.4014,351.2407 1571.0815,349.5889 Q1569.7617,347.937 1569.7617,344.8159 Q1569.7617,341.6865 1571.0815,340.0347 Q1572.4014,338.3828 1574.9082,338.3828 Q1575.6138,338.3828 1576.2612,338.5322 Q1576.9087,338.6816 1577.4731,338.9805 L1577.4731,341.7031 Q1576.8423,341.1221 1576.2488,340.8523 Q1575.6553,340.5825 1575.0244,340.5825 Q1573.6797,340.5825 1572.9949,341.6492 Q1572.3101,342.7158 1572.3101,344.8159 Q1572.3101,346.9077 1572.9949,347.9744 Q1573.6797,349.041 1575.0244,349.041 Q1575.6553,349.041 1576.2488,348.7712 Q1576.8423,348.5015 1577.4731,347.9204 Z " fill="#000000"/><text fill="#000000" font-family="sans-serif" font-size="12" lengthAdjust="spacing" textLength="24" x="1589" y="349.0352">服従</text><line style="stroke:#A80036;stroke-width:1.5;" x1="1561" x2="1615" y1="360.5" y2="360.5"/><line style="stroke:#A80036;stroke-width:1.5;" x1="1561" x2="1615" y1="368.5" y2="368.5"/><!--MD5=[c9ad840725d1eb9273ec2fd9458677e2]
class commonsense.非常識--><rect codeLine="88" fill="#FEFECE" filter="url(#f1rzyqxrcso49e)" height="48" id="commonsense.非常識" style="stroke:#A80036;stroke-width:1.5;" width="68" x="2539" y="41"/><ellipse cx="2554" cy="57" fill="#ADD1B2" rx="11" ry="11" style="stroke:#A80036;stroke-width:1.0;"/><path d="M2556.4731,63.1431 Q2555.8921,63.4419 2555.2529,63.5913 Q2554.6138,63.7407 2553.9082,63.7407 Q2551.4014,63.7407 2550.0815,62.0889 Q2548.7617,60.437 2548.7617,57.3159 Q2548.7617,54.1865 2550.0815,52.5347 Q2551.4014,50.8828 2553.9082,50.8828 Q2554.6138,50.8828 2555.2612,51.0322 Q2555.9087,51.1816 2556.4731,51.4805 L2556.4731,54.2031 Q2555.8423,53.6221 2555.2488,53.3523 Q2554.6553,53.0825 2554.0244,53.0825 Q2552.6797,53.0825 2551.9949,54.1492 Q2551.3101,55.2158 2551.3101,57.3159 Q2551.3101,59.4077 2551.9949,60.4744 Q2552.6797,61.541 2554.0244,61.541 Q2554.6553,61.541 2555.2488,61.2712 Q2555.8423,61.0015 2556.4731,60.4204 Z " fill="#000000"/><text fill="#000000" font-family="sans-serif" font-size="12" lengthAdjust="spacing" textLength="36" x="2568" y="61.5352">非常識</text><line style="stroke:#A80036;stroke-width:1.5;" x1="2540" x2="2606" y1="73" y2="73"/><line style="stroke:#A80036;stroke-width:1.5;" x1="2540" x2="2606" y1="81" y2="81"/><!--MD5=[e2e01635ae946ef80967a6a861159822]
class commonsense.常識的--><rect codeLine="89" fill="#FEFECE" filter="url(#f1rzyqxrcso49e)" height="48" id="commonsense.常識的" style="stroke:#A80036;stroke-width:1.5;" width="68" x="2436" y="41"/><ellipse cx="2451" cy="57" fill="#ADD1B2" rx="11" ry="11" style="stroke:#A80036;stroke-width:1.0;"/><path d="M2453.4731,63.1431 Q2452.8921,63.4419 2452.2529,63.5913 Q2451.6138,63.7407 2450.9082,63.7407 Q2448.4014,63.7407 2447.0815,62.0889 Q2445.7617,60.437 2445.7617,57.3159 Q2445.7617,54.1865 2447.0815,52.5347 Q2448.4014,50.8828 2450.9082,50.8828 Q2451.6138,50.8828 2452.2612,51.0322 Q2452.9087,51.1816 2453.4731,51.4805 L2453.4731,54.2031 Q2452.8423,53.6221 2452.2488,53.3523 Q2451.6553,53.0825 2451.0244,53.0825 Q2449.6797,53.0825 2448.9949,54.1492 Q2448.3101,55.2158 2448.3101,57.3159 Q2448.3101,59.4077 2448.9949,60.4744 Q2449.6797,61.541 2451.0244,61.541 Q2451.6553,61.541 2452.2488,61.2712 Q2452.8423,61.0015 2453.4731,60.4204 Z " fill="#000000"/><text fill="#000000" font-family="sans-serif" font-size="12" lengthAdjust="spacing" textLength="36" x="2465" y="61.5352">常識的</text><line style="stroke:#A80036;stroke-width:1.5;" x1="2437" x2="2503" y1="73" y2="73"/><line style="stroke:#A80036;stroke-width:1.5;" x1="2437" x2="2503" y1="81" y2="81"/><!--MD5=[f6710ef2a18a6090544f94d09805eaac]
class ex.物理学者--><rect codeLine="93" fill="#FEFECE" filter="url(#f1rzyqxrcso49e)" height="48" id="ex.物理学者" style="stroke:#A80036;stroke-width:1.5;" width="80" x="406" y="849"/><ellipse cx="421" cy="865" fill="#ADD1B2" rx="11" ry="11" style="stroke:#A80036;stroke-width:1.0;"/><path d="M423.4731,871.1431 Q422.8921,871.4419 422.2529,871.5913 Q421.6138,871.7407 420.9082,871.7407 Q418.4014,871.7407 417.0815,870.0889 Q415.7617,868.437 415.7617,865.3159 Q415.7617,862.1865 417.0815,860.5347 Q418.4014,858.8828 420.9082,858.8828 Q421.6138,858.8828 422.2612,859.0322 Q422.9087,859.1816 423.4731,859.4805 L423.4731,862.2031 Q422.8423,861.6221 422.2488,861.3523 Q421.6553,861.0825 421.0244,861.0825 Q419.6797,861.0825 418.9949,862.1492 Q418.3101,863.2158 418.3101,865.3159 Q418.3101,867.4077 418.9949,868.4744 Q419.6797,869.541 421.0244,869.541 Q421.6553,869.541 422.2488,869.2712 Q422.8423,869.0015 423.4731,868.4204 Z " fill="#000000"/><text fill="#000000" font-family="sans-serif" font-size="12" lengthAdjust="spacing" textLength="48" x="435" y="869.5352">物理学者</text><line style="stroke:#A80036;stroke-width:1.5;" x1="407" x2="485" y1="881" y2="881"/><line style="stroke:#A80036;stroke-width:1.5;" x1="407" x2="485" y1="889" y2="889"/><!--MD5=[b74c65644b3f2fbf332c6559ceeaa525]
class Left--><rect codeLine="7" fill="#FEFECE" filter="url(#f1rzyqxrcso49e)" height="48" id="Left" style="stroke:#A80036;stroke-width:1.5;" width="53" x="1242.5" y="41"/><ellipse cx="1257.5" cy="57" fill="#ADD1B2" rx="11" ry="11" style="stroke:#A80036;stroke-width:1.0;"/><path d="M1259.9731,63.1431 Q1259.3921,63.4419 1258.7529,63.5913 Q1258.1138,63.7407 1257.4082,63.7407 Q1254.9014,63.7407 1253.5815,62.0889 Q1252.2617,60.437 1252.2617,57.3159 Q1252.2617,54.1865 1253.5815,52.5347 Q1254.9014,50.8828 1257.4082,50.8828 Q1258.1138,50.8828 1258.7612,51.0322 Q1259.4087,51.1816 1259.9731,51.4805 L1259.9731,54.2031 Q1259.3423,53.6221 1258.7488,53.3523 Q1258.1553,53.0825 1257.5244,53.0825 Q1256.1797,53.0825 1255.4949,54.1492 Q1254.8101,55.2158 1254.8101,57.3159 Q1254.8101,59.4077 1255.4949,60.4744 Q1256.1797,61.541 1257.5244,61.541 Q1258.1553,61.541 1258.7488,61.2712 Q1259.3423,61.0015 1259.9731,60.4204 Z " fill="#000000"/><text fill="#000000" font-family="sans-serif" font-size="12" lengthAdjust="spacing" textLength="21" x="1271.5" y="61.5352">Left</text><line style="stroke:#A80036;stroke-width:1.5;" x1="1243.5" x2="1294.5" y1="73" y2="73"/><line style="stroke:#A80036;stroke-width:1.5;" x1="1243.5" x2="1294.5" y1="81" y2="81"/><!--MD5=[0a0f5a02132a2701f49052079dba42c4]
class LeftUp--><rect codeLine="15" fill="#FEFECE" filter="url(#f1rzyqxrcso49e)" height="48" id="LeftUp" style="stroke:#A80036;stroke-width:1.5;" width="69" x="908.5" y="168.5"/><ellipse cx="923.5" cy="184.5" fill="#ADD1B2" rx="11" ry="11" style="stroke:#A80036;stroke-width:1.0;"/><path d="M925.9731,190.6431 Q925.3921,190.9419 924.7529,191.0913 Q924.1138,191.2407 923.4082,191.2407 Q920.9014,191.2407 919.5815,189.5889 Q918.2617,187.937 918.2617,184.8159 Q918.2617,181.6865 919.5815,180.0347 Q920.9014,178.3828 923.4082,178.3828 Q924.1138,178.3828 924.7612,178.5322 Q925.4087,178.6816 925.9731,178.9805 L925.9731,181.7031 Q925.3423,181.1221 924.7488,180.8523 Q924.1553,180.5825 923.5244,180.5825 Q922.1797,180.5825 921.4949,181.6492 Q920.8101,182.7158 920.8101,184.8159 Q920.8101,186.9077 921.4949,187.9744 Q922.1797,189.041 923.5244,189.041 Q924.1553,189.041 924.7488,188.7712 Q925.3423,188.5015 925.9731,187.9204 Z " fill="#000000"/><text fill="#000000" font-family="sans-serif" font-size="12" lengthAdjust="spacing" textLength="37" x="937.5" y="189.0352">LeftUp</text><line style="stroke:#A80036;stroke-width:1.5;" x1="909.5" x2="976.5" y1="200.5" y2="200.5"/><line style="stroke:#A80036;stroke-width:1.5;" x1="909.5" x2="976.5" y1="208.5" y2="208.5"/><!--MD5=[49fd7558d44f044db7d275260ced17f3]
class Right--><rect codeLine="22" fill="#FEFECE" filter="url(#f1rzyqxrcso49e)" height="48" id="Right" style="stroke:#A80036;stroke-width:1.5;" width="61" x="610.5" y="168.5"/><ellipse cx="625.5" cy="184.5" fill="#ADD1B2" rx="11" ry="11" style="stroke:#A80036;stroke-width:1.0;"/><path d="M627.9731,190.6431 Q627.3921,190.9419 626.7529,191.0913 Q626.1138,191.2407 625.4082,191.2407 Q622.9014,191.2407 621.5815,189.5889 Q620.2617,187.937 620.2617,184.8159 Q620.2617,181.6865 621.5815,180.0347 Q622.9014,178.3828 625.4082,178.3828 Q626.1138,178.3828 626.7612,178.5322 Q627.4087,178.6816 627.9731,178.9805 L627.9731,181.7031 Q627.3423,181.1221 626.7488,180.8523 Q626.1553,180.5825 625.5244,180.5825 Q624.1797,180.5825 623.4949,181.6492 Q622.8101,182.7158 622.8101,184.8159 Q622.8101,186.9077 623.4949,187.9744 Q624.1797,189.041 625.5244,189.041 Q626.1553,189.041 626.7488,188.7712 Q627.3423,188.5015 627.9731,187.9204 Z " fill="#000000"/><text fill="#000000" font-family="sans-serif" font-size="12" lengthAdjust="spacing" textLength="29" x="639.5" y="189.0352">Right</text><line style="stroke:#A80036;stroke-width:1.5;" x1="611.5" x2="670.5" y1="200.5" y2="200.5"/><line style="stroke:#A80036;stroke-width:1.5;" x1="611.5" x2="670.5" y1="208.5" y2="208.5"/><!--MD5=[fca95bcaa851ee2afb0a08e4ea5e518e]
class RightUp--><rect codeLine="29" fill="#FEFECE" filter="url(#f1rzyqxrcso49e)" height="48" id="RightUp" style="stroke:#A80036;stroke-width:1.5;" width="77" x="357.5" y="328.5"/><ellipse cx="372.5" cy="344.5" fill="#ADD1B2" rx="11" ry="11" style="stroke:#A80036;stroke-width:1.0;"/><path d="M374.9731,350.6431 Q374.3921,350.9419 373.7529,351.0913 Q373.1138,351.2407 372.4082,351.2407 Q369.9014,351.2407 368.5815,349.5889 Q367.2617,347.937 367.2617,344.8159 Q367.2617,341.6865 368.5815,340.0347 Q369.9014,338.3828 372.4082,338.3828 Q373.1138,338.3828 373.7612,338.5322 Q374.4087,338.6816 374.9731,338.9805 L374.9731,341.7031 Q374.3423,341.1221 373.7488,340.8523 Q373.1553,340.5825 372.5244,340.5825 Q371.1797,340.5825 370.4949,341.6492 Q369.8101,342.7158 369.8101,344.8159 Q369.8101,346.9077 370.4949,347.9744 Q371.1797,349.041 372.5244,349.041 Q373.1553,349.041 373.7488,348.7712 Q374.3423,348.5015 374.9731,347.9204 Z " fill="#000000"/><text fill="#000000" font-family="sans-serif" font-size="12" lengthAdjust="spacing" textLength="45" x="386.5" y="349.0352">RightUp</text><line style="stroke:#A80036;stroke-width:1.5;" x1="358.5" x2="433.5" y1="360.5" y2="360.5"/><line style="stroke:#A80036;stroke-width:1.5;" x1="358.5" x2="433.5" y1="368.5" y2="368.5"/><!--MD5=[73d4373300714cfef5756e2ecec874b6]
class RightDown--><rect codeLine="35" fill="#FEFECE" filter="url(#f1rzyqxrcso49e)" height="48" id="RightDown" style="stroke:#A80036;stroke-width:1.5;" width="93" x="494.5" y="328.5"/><ellipse cx="509.5" cy="344.5" fill="#ADD1B2" rx="11" ry="11" style="stroke:#A80036;stroke-width:1.0;"/><path d="M511.9731,350.6431 Q511.3921,350.9419 510.7529,351.0913 Q510.1138,351.2407 509.4082,351.2407 Q506.9014,351.2407 505.5815,349.5889 Q504.2617,347.937 504.2617,344.8159 Q504.2617,341.6865 505.5815,340.0347 Q506.9014,338.3828 509.4082,338.3828 Q510.1138,338.3828 510.7612,338.5322 Q511.4087,338.6816 511.9731,338.9805 L511.9731,341.7031 Q511.3423,341.1221 510.7488,340.8523 Q510.1553,340.5825 509.5244,340.5825 Q508.1797,340.5825 507.4949,341.6492 Q506.8101,342.7158 506.8101,344.8159 Q506.8101,346.9077 507.4949,347.9744 Q508.1797,349.041 509.5244,349.041 Q510.1553,349.041 510.7488,348.7712 Q511.3423,348.5015 511.9731,347.9204 Z " fill="#000000"/><text fill="#000000" font-family="sans-serif" font-size="12" lengthAdjust="spacing" textLength="61" x="523.5" y="349.0352">RightDown</text><line style="stroke:#A80036;stroke-width:1.5;" x1="495.5" x2="586.5" y1="360.5" y2="360.5"/><line style="stroke:#A80036;stroke-width:1.5;" x1="495.5" x2="586.5" y1="368.5" y2="368.5"/><!--MD5=[2816c52c0e9a552830c82ba0f8702c33]
class UpperPosition--><rect codeLine="43" fill="#FEFECE" filter="url(#f1rzyqxrcso49e)" height="60.9551" id="UpperPosition" style="stroke:#A80036;stroke-width:1.5;" width="122" x="1715" y="34.5"/><ellipse cx="1734.5" cy="50.5" fill="#ADD1B2" rx="11" ry="11" style="stroke:#A80036;stroke-width:1.0;"/><path d="M1736.9731,56.6431 Q1736.3921,56.9419 1735.7529,57.0913 Q1735.1138,57.2407 1734.4082,57.2407 Q1731.9014,57.2407 1730.5815,55.5889 Q1729.2617,53.937 1729.2617,50.8159 Q1729.2617,47.6865 1730.5815,46.0347 Q1731.9014,44.3828 1734.4082,44.3828 Q1735.1138,44.3828 1735.7612,44.5322 Q1736.4087,44.6816 1736.9731,44.9805 L1736.9731,47.7031 Q1736.3423,47.1221 1735.7488,46.8523 Q1735.1553,46.5825 1734.5244,46.5825 Q1733.1797,46.5825 1732.4949,47.6492 Q1731.8101,48.7158 1731.8101,50.8159 Q1731.8101,52.9077 1732.4949,53.9744 Q1733.1797,55.041 1734.5244,55.041 Q1735.1553,55.041 1735.7488,54.7712 Q1736.3423,54.5015 1736.9731,53.9204 Z " fill="#000000"/><text fill="#000000" font-family="sans-serif" font-size="12" lengthAdjust="spacing" textLength="80" x="1749.5" y="55.0352">UpperPosition</text><line style="stroke:#A80036;stroke-width:1.5;" x1="1716" x2="1836" y1="66.5" y2="66.5"/><text fill="#000000" font-family="sans-serif" font-size="11" lengthAdjust="spacing" textLength="110" x="1721" y="81.1348">現実に根付いていない</text><line style="stroke:#A80036;stroke-width:1.5;" x1="1716" x2="1836" y1="87.4551" y2="87.4551"/><!--MD5=[6c6549bb5e4df4c2265c6c66bcef1a25]
class BottomPosition--><rect codeLine="48" fill="#FEFECE" filter="url(#f1rzyqxrcso49e)" height="86.8652" id="BottomPosition" style="stroke:#A80036;stroke-width:1.5;" width="202" x="1872" y="21.5"/><ellipse cx="1926.75" cy="37.5" fill="#ADD1B2" rx="11" ry="11" style="stroke:#A80036;stroke-width:1.0;"/><path d="M1929.2231,43.6431 Q1928.6421,43.9419 1928.0029,44.0913 Q1927.3638,44.2407 1926.6582,44.2407 Q1924.1514,44.2407 1922.8315,42.5889 Q1921.5117,40.937 1921.5117,37.8159 Q1921.5117,34.6865 1922.8315,33.0347 Q1924.1514,31.3828 1926.6582,31.3828 Q1927.3638,31.3828 1928.0112,31.5322 Q1928.6587,31.6816 1929.2231,31.9805 L1929.2231,34.7031 Q1928.5923,34.1221 1927.9988,33.8523 Q1927.4053,33.5825 1926.7744,33.5825 Q1925.4297,33.5825 1924.7449,34.6492 Q1924.0601,35.7158 1924.0601,37.8159 Q1924.0601,39.9077 1924.7449,40.9744 Q1925.4297,42.041 1926.7744,42.041 Q1927.4053,42.041 1927.9988,41.7712 Q1928.5923,41.5015 1929.2231,40.9204 Z " fill="#000000"/><text fill="#000000" font-family="sans-serif" font-size="12" lengthAdjust="spacing" textLength="84" x="1947.25" y="42.0352">BottomPosition</text><line style="stroke:#A80036;stroke-width:1.5;" x1="1873" x2="2073" y1="53.5" y2="53.5"/><text fill="#000000" font-family="sans-serif" font-size="11" lengthAdjust="spacing" textLength="132" x="1878" y="68.1348">この人の情緒、経験などは</text><text fill="#000000" font-family="sans-serif" font-size="11" lengthAdjust="spacing" textLength="190" x="1878" y="81.0898">過去の経験,当時の状況にのみ基づく。</text><text fill="#000000" font-family="sans-serif" font-size="11" lengthAdjust="spacing" textLength="187" x="1878" y="94.0449">漫画や小説などを描くことは少ない。</text><line style="stroke:#A80036;stroke-width:1.5;" x1="1873" x2="2073" y1="100.3652" y2="100.3652"/><!--MD5=[dc7375b2cbd50a1bc1d8b9e6dc4e058e]
class overall--><rect codeLine="58" fill="#FEFECE" filter="url(#f1rzyqxrcso49e)" height="48" id="overall" style="stroke:#A80036;stroke-width:1.5;" width="70" x="1303" y="168.5"/><ellipse cx="1318" cy="184.5" fill="#ADD1B2" rx="11" ry="11" style="stroke:#A80036;stroke-width:1.0;"/><path d="M1320.4731,190.6431 Q1319.8921,190.9419 1319.2529,191.0913 Q1318.6138,191.2407 1317.9082,191.2407 Q1315.4014,191.2407 1314.0815,189.5889 Q1312.7617,187.937 1312.7617,184.8159 Q1312.7617,181.6865 1314.0815,180.0347 Q1315.4014,178.3828 1317.9082,178.3828 Q1318.6138,178.3828 1319.2612,178.5322 Q1319.9087,178.6816 1320.4731,178.9805 L1320.4731,181.7031 Q1319.8423,181.1221 1319.2488,180.8523 Q1318.6553,180.5825 1318.0244,180.5825 Q1316.6797,180.5825 1315.9949,181.6492 Q1315.3101,182.7158 1315.3101,184.8159 Q1315.3101,186.9077 1315.9949,187.9744 Q1316.6797,189.041 1318.0244,189.041 Q1318.6553,189.041 1319.2488,188.7712 Q1319.8423,188.5015 1320.4731,187.9204 Z " fill="#000000"/><text fill="#000000" font-family="sans-serif" font-size="12" lengthAdjust="spacing" textLength="38" x="1332" y="189.0352">overall</text><line style="stroke:#A80036;stroke-width:1.5;" x1="1304" x2="1372" y1="200.5" y2="200.5"/><line style="stroke:#A80036;stroke-width:1.5;" x1="1304" x2="1372" y1="208.5" y2="208.5"/><!--MD5=[36087da272de9483e657ef4183d037a0]
class Upper--><rect codeLine="60" fill="#FEFECE" filter="url(#f1rzyqxrcso49e)" height="151.6406" id="Upper" style="stroke:#A80036;stroke-width:1.5;" width="205" x="1155.5" y="276.5"/><ellipse cx="1235.75" cy="292.5" fill="#ADD1B2" rx="11" ry="11" style="stroke:#A80036;stroke-width:1.0;"/><path d="M1238.2231,298.6431 Q1237.6421,298.9419 1237.0029,299.0913 Q1236.3638,299.2407 1235.6582,299.2407 Q1233.1514,299.2407 1231.8315,297.5889 Q1230.5117,295.937 1230.5117,292.8159 Q1230.5117,289.6865 1231.8315,288.0347 Q1233.1514,286.3828 1235.6582,286.3828 Q1236.3638,286.3828 1237.0112,286.5322 Q1237.6587,286.6816 1238.2231,286.9805 L1238.2231,289.7031 Q1237.5923,289.1221 1236.9988,288.8523 Q1236.4053,288.5825 1235.7744,288.5825 Q1234.4297,288.5825 1233.7449,289.6492 Q1233.0601,290.7158 1233.0601,292.8159 Q1233.0601,294.9077 1233.7449,295.9744 Q1234.4297,297.041 1235.7744,297.041 Q1236.4053,297.041 1236.9988,296.7712 Q1237.5923,296.5015 1238.2231,295.9204 Z " fill="#000000"/><text fill="#000000" font-family="sans-serif" font-size="12" lengthAdjust="spacing" textLength="36" x="1256.25" y="297.0352">Upper</text><line style="stroke:#A80036;stroke-width:1.5;" x1="1156.5" x2="1359.5" y1="308.5" y2="308.5"/><text fill="#000000" font-family="sans-serif" font-size="11" lengthAdjust="spacing" textLength="88" x="1161.5" y="323.1348">例えば葉っぱには</text><text fill="#000000" font-family="sans-serif" font-size="11" lengthAdjust="spacing" textLength="132" x="1161.5" y="336.0898">これからの未来への期待が</text><text fill="#000000" font-family="sans-serif" font-size="11" lengthAdjust="spacing" textLength="88" x="1161.5" y="349.0449">現れることもある</text><text fill="#000000" font-family="sans-serif" font-size="11" lengthAdjust="spacing" textLength="0" x="1164.5" y="362"/><text fill="#000000" font-family="sans-serif" font-size="11" lengthAdjust="spacing" textLength="99" x="1161.5" y="374.9551">反対に尖った枝には</text><text fill="#000000" font-family="sans-serif" font-size="11" lengthAdjust="spacing" textLength="99" x="1161.5" y="387.9102">未知の攻撃に対する</text><text fill="#000000" font-family="sans-serif" font-size="11" lengthAdjust="spacing" textLength="110" x="1161.5" y="400.8652">防衛意識などが現れる</text><line style="stroke:#A80036;stroke-width:1.5;" x1="1156.5" x2="1359.5" y1="407.1855" y2="407.1855"/><text fill="#000000" font-family="sans-serif" font-size="11" lengthAdjust="spacing" textLength="193" x="1161.5" y="421.8203">ex)木の実がなった絵は期待を表すなど</text><!--MD5=[f6516cf320c6f29c8f5b7f891cd14058]
class Root--><rect codeLine="76" fill="#FEFECE" filter="url(#f1rzyqxrcso49e)" height="48" id="Root" style="stroke:#A80036;stroke-width:1.5;" width="58" x="1396" y="328.5"/><ellipse cx="1411" cy="344.5" fill="#ADD1B2" rx="11" ry="11" style="stroke:#A80036;stroke-width:1.0;"/><path d="M1413.4731,350.6431 Q1412.8921,350.9419 1412.2529,351.0913 Q1411.6138,351.2407 1410.9082,351.2407 Q1408.4014,351.2407 1407.0815,349.5889 Q1405.7617,347.937 1405.7617,344.8159 Q1405.7617,341.6865 1407.0815,340.0347 Q1408.4014,338.3828 1410.9082,338.3828 Q1411.6138,338.3828 1412.2612,338.5322 Q1412.9087,338.6816 1413.4731,338.9805 L1413.4731,341.7031 Q1412.8423,341.1221 1412.2488,340.8523 Q1411.6553,340.5825 1411.0244,340.5825 Q1409.6797,340.5825 1408.9949,341.6492 Q1408.3101,342.7158 1408.3101,344.8159 Q1408.3101,346.9077 1408.9949,347.9744 Q1409.6797,349.041 1411.0244,349.041 Q1411.6553,349.041 1412.2488,348.7712 Q1412.8423,348.5015 1413.4731,347.9204 Z " fill="#000000"/><text fill="#000000" font-family="sans-serif" font-size="12" lengthAdjust="spacing" textLength="26" x="1425" y="349.0352">Root</text><line style="stroke:#A80036;stroke-width:1.5;" x1="1397" x2="1453" y1="360.5" y2="360.5"/><line style="stroke:#A80036;stroke-width:1.5;" x1="1397" x2="1453" y1="368.5" y2="368.5"/><!--MD5=[e7487cfc0cf52f8abd37ba74c91eb638]
link type.防衛的 to type.濾過機能--><path codeLine="7" d="M67.3,659.5 C68.21,675.5 69.42,696.95 70.39,714.03 " fill="none" id="type.防衛的-to-type.濾過機能" style="stroke:#A80036;stroke-width:1.0;"/><polygon fill="#A80036" points="70.68,719.18,74.1585,709.9659,70.3939,714.1882,66.1716,710.4236,70.68,719.18" style="stroke:#A80036;stroke-width:1.0;"/><!--MD5=[e1d496c6697830632d10b091de5459f8]
link env.圧力下 to env.諦め--><path codeLine="28" d="M1259.35,659.5 C1258.9,675.5 1258.29,696.95 1257.81,714.03 " fill="none" id="env.圧力下-to-env.諦め" style="stroke:#A80036;stroke-width:1.0;"/><polygon fill="#A80036" points="1257.66,719.18,1261.9154,710.2979,1257.8028,714.182,1253.9187,710.0694,1257.66,719.18" style="stroke:#A80036;stroke-width:1.0;"/><!--MD5=[6bf901628a2c1a862b05cc073136d264]
link parents.父親からの影響 to parents.憧れと諦め--><path codeLine="63" d="M772.86,536.54 C771.88,556.27 770.47,584.74 769.42,605.91 " fill="none" id="parents.父親からの影響-to-parents.憧れと諦め" style="stroke:#A80036;stroke-width:1.0;"/><polygon fill="#A80036" points="769.16,611.13,773.5931,602.3353,769.4033,606.1359,765.6026,601.946,769.16,611.13" style="stroke:#A80036;stroke-width:1.0;"/><!--MD5=[e649a89c2b40805fb778b2aa49aed64f]
link type.野心 to ex.物理学者--><path codeLine="94" d="M387.35,659.51 C399.34,702.95 425.27,796.89 438.26,843.94 " fill="none" id="type.野心-to-ex.物理学者" style="stroke:#A80036;stroke-width:1.0;"/><polygon fill="#A80036" points="439.62,848.9,441.0817,839.1602,438.2899,844.0802,433.3699,841.2884,439.62,848.9" style="stroke:#A80036;stroke-width:1.0;"/><!--MD5=[46ff0f61df88d746f24bcc43a604fb43]
link Left to time.過去--><path codeLine="10" d="M1295.68,82.03 C1343.43,112.61 1441.34,184.51 1472,276.5 C1493.36,340.59 1498.22,366.24 1472,428.5 C1461.36,453.77 1438.84,475.18 1419.66,489.92 " fill="none" id="Left-to-time.過去" style="stroke:#A80036;stroke-width:1.0;"/><polygon fill="#A80036" points="1415.37,493.15,1424.965,490.9281,1419.3631,490.1409,1420.1504,484.5391,1415.37,493.15" style="stroke:#A80036;stroke-width:1.0;"/><!--MD5=[f58082b2e85a8205cb7109cc36e15679]
link Left to parents.母親からの影響--><path codeLine="11" d="M1249.65,89.13 C1219.95,126.07 1163.85,201.86 1138,276.5 C1113.28,347.88 1110.66,438.06 1111.15,483.14 " fill="none" id="Left-to-parents.母親からの影響" style="stroke:#A80036;stroke-width:1.0;"/><polygon fill="#A80036" points="1111.22,488.41,1115.1169,479.3649,1111.1629,483.4103,1107.1174,479.4563,1111.22,488.41" style="stroke:#A80036;stroke-width:1.0;"/><!--MD5=[d9a63ade84cdccae2298cae2998213a4]
link Left to freedom.服従--><path codeLine="12" d="M1295.74,68.69 C1348.81,75.48 1467.91,98.1 1533,168.5 C1573.2,211.98 1584.08,283.79 1586.98,323.29 " fill="none" id="Left-to-freedom.服従" style="stroke:#A80036;stroke-width:1.0;"/><polygon fill="#A80036" points="1587.33,328.41,1590.7312,319.1671,1587.0021,323.4208,1582.7485,319.6917,1587.33,328.41" style="stroke:#A80036;stroke-width:1.0;"/><!--MD5=[96d72e86311ad847f683472c0c7c666f]
link Left to LeftUp--><path codeLine="18" d="M1242.32,76.27 C1184.93,98.37 1049.49,150.51 982.26,176.39 " fill="none" id="Left-to-LeftUp" style="stroke:#A80036;stroke-width:1.0;"/><polygon fill="#A80036" points="977.54,178.2,987.3763,178.6965,982.2056,176.4022,984.4999,171.2315,977.54,178.2" style="stroke:#A80036;stroke-width:1.0;"/><!--MD5=[63c176ae8e4d7ad78fc2a52b4e711238]
link LeftUp to parents.母親からの影響の克服--><path codeLine="19" d="M943,216.63 C943,273.76 943,421.44 943,483.44 " fill="none" id="LeftUp-to-parents.母親からの影響の克服" style="stroke:#A80036;stroke-width:1.0;"/><polygon fill="#A80036" points="943,488.46,947,479.46,943,483.46,939,479.46,943,488.46" style="stroke:#A80036;stroke-width:1.0;"/><!--MD5=[903b9af8b0fb77112fba557d60a0a9fb]
link Right to time.未来--><path codeLine="25" d="M671.62,209.32 C748.76,248.87 957.77,354.2 1138,428.5 C1158.92,437.13 1165.53,435.85 1186,445.5 C1213.08,458.26 1242.06,475.82 1263.47,489.62 " fill="none" id="Right-to-time.未来" style="stroke:#A80036;stroke-width:1.0;"/><polygon fill="#A80036" points="1267.92,492.51,1262.545,484.2571,1263.7248,489.7896,1258.1924,490.9694,1267.92,492.51" style="stroke:#A80036;stroke-width:1.0;"/><!--MD5=[50d38a489cf9d52cdc66c9ce1255c7e7]
link Right to parents.父親からの影響--><path codeLine="26" d="M650.67,216.63 C674.62,273.88 736.58,422.03 762.42,483.81 " fill="none" id="Right-to-parents.父親からの影響" style="stroke:#A80036;stroke-width:1.0;"/><polygon fill="#A80036" points="764.36,488.46,764.58,478.6136,762.4319,483.8467,757.1987,481.6986,764.36,488.46" style="stroke:#A80036;stroke-width:1.0;"/><!--MD5=[c77d120eb8cbcb6d3f0ed7e172cc7867]
link Right to towoman.軽蔑--><path codeLine="27" d="M640.35,216.63 C638.73,273.76 634.55,421.44 632.79,483.44 " fill="none" id="Right-to-towoman.軽蔑" style="stroke:#A80036;stroke-width:1.0;"/><polygon fill="#A80036" points="632.65,488.46,636.9054,479.5779,632.7928,483.462,628.9087,479.3494,632.65,488.46" style="stroke:#A80036;stroke-width:1.0;"/><!--MD5=[e082b573782168ede5afcfb280b1bb18]
link Right to RightUp--><path codeLine="32" d="M610.26,205.98 C576.2,220.49 520.36,246.34 477,276.5 C456.84,290.52 436.57,309.3 421.35,324.56 " fill="none" id="Right-to-RightUp" style="stroke:#A80036;stroke-width:1.0;"/><polygon fill="#A80036" points="417.59,328.35,426.7608,324.7588,421.104,324.7931,421.0698,319.1364,417.59,328.35" style="stroke:#A80036;stroke-width:1.0;"/><!--MD5=[4763837401d1746d1615eef6fc4da404]
link RightUp to type.野心--><path codeLine="33" d="M394.75,376.97 C392,428.34 385.48,550.56 382.51,606.13 " fill="none" id="RightUp-to-type.野心" style="stroke:#A80036;stroke-width:1.0;"/><polygon fill="#A80036" points="382.24,611.29,386.7233,602.5208,382.5118,606.2974,378.7352,602.0859,382.24,611.29" style="stroke:#A80036;stroke-width:1.0;"/><!--MD5=[2754d5a81c95cc0252c2281e70274c91]
link Right to RightDown--><path codeLine="38" d="M626.24,216.81 C608.17,245.37 577.6,293.67 558.4,324.01 " fill="none" id="Right-to-RightDown" style="stroke:#A80036;stroke-width:1.0;"/><polygon fill="#A80036" points="555.65,328.35,563.8386,322.8776,558.3205,324.1229,557.0752,318.6048,555.65,328.35" style="stroke:#A80036;stroke-width:1.0;"/><!--MD5=[7ad614afc417c9be8970dc99e3e10298]
link RightDown to think.伝統主義--><path codeLine="39" d="M536.49,376.88 C533.02,395.43 528.28,422.06 525,445.5 C517.06,502.34 510.68,569.2 507.4,606.22 " fill="none" id="RightDown-to-think.伝統主義" style="stroke:#A80036;stroke-width:1.0;"/><polygon fill="#A80036" points="506.94,611.46,511.7206,602.8492,507.3824,606.4796,503.752,602.1414,506.94,611.46" style="stroke:#A80036;stroke-width:1.0;"/><!--MD5=[a6bc7b113b4fb0fd80d8050a00e83eca]
link RightDown to parents.憧れと諦め--><path codeLine="40" d="M538.39,376.76 C534.95,420.27 534.62,513.77 588,560.5 C602.77,573.43 657.6,561.65 676,568.5 C699.44,577.23 722.3,593.58 739.37,607.82 " fill="none" id="RightDown-to-parents.憧れと諦め" style="stroke:#A80036;stroke-width:1.0;"/><polygon fill="#A80036" points="743.58,611.39,739.2948,602.5223,739.7636,608.1596,734.1262,608.6285,743.58,611.39" style="stroke:#A80036;stroke-width:1.0;"/><!--MD5=[e88773434d1b09350c0ab996b40c7aa2]
link UpperPosition to state.想像--><path codeLine="46" d="M1777.56,95.75 C1780.47,151.09 1786.67,269.16 1789.52,323.3 " fill="none" id="UpperPosition-to-state.想像" style="stroke:#A80036;stroke-width:1.0;"/><polygon fill="#A80036" points="1789.78,328.34,1793.3125,319.1464,1789.5232,323.3466,1785.323,319.5573,1789.78,328.34" style="stroke:#A80036;stroke-width:1.0;"/><!--MD5=[b7a918c59ac38b0cbb9868a0746bd1f0]
link BottomPosition to state.現実--><path codeLine="53" d="M1959.38,108.74 C1940.54,167.85 1907.05,272.92 1891.03,323.18 " fill="none" id="BottomPosition-to-state.現実" style="stroke:#A80036;stroke-width:1.0;"/><polygon fill="#A80036" points="1889.44,328.16,1895.9814,320.7973,1890.9566,323.3956,1888.3583,318.3707,1889.44,328.16" style="stroke:#A80036;stroke-width:1.0;"/><!--MD5=[a415c15b564b3bfa9301b8796b12e775]
link BottomPosition to state.過去--><path codeLine="54" d="M1973,108.74 C1973,167.73 1973,272.49 1973,322.88 " fill="none" id="BottomPosition-to-state.過去" style="stroke:#A80036;stroke-width:1.0;"/><polygon fill="#A80036" points="1973,328.16,1977,319.16,1973,323.16,1969,319.16,1973,328.16" style="stroke:#A80036;stroke-width:1.0;"/><!--MD5=[995adcfa5d0331d97814f46c9229a0fa]
link overall to Upper--><path codeLine="72" d="M1326.2,216.81 C1318.72,231.58 1308.57,251.62 1298.39,271.73 " fill="none" id="overall-to-Upper" style="stroke:#A80036;stroke-width:1.0;"/><polygon fill="#A80036" points="1296.08,276.29,1303.7146,270.068,1298.3389,271.8294,1296.5775,266.4537,1296.08,276.29" style="stroke:#A80036;stroke-width:1.0;"/><!--MD5=[991a030b9b6551bf54d7e12b251628d7]
link Upper to time.未来--><path codeLine="73" d="M1276.11,428.8 C1280.78,448.22 1285.52,467.94 1289.21,483.25 " fill="none" id="Upper-to-time.未来" style="stroke:#A80036;stroke-width:1.0;"/><polygon fill="#A80036" points="1290.41,488.27,1292.1949,478.5842,1289.241,483.4086,1284.4166,480.4547,1290.41,488.27" style="stroke:#A80036;stroke-width:1.0;"/><!--MD5=[effb18c328571cfbcd7afc3c5c732eaf]
link overall to Root--><path codeLine="80" d="M1350.84,216.81 C1366.5,245.25 1392.94,293.27 1409.66,323.63 " fill="none" id="overall-to-Root" style="stroke:#A80036;stroke-width:1.0;"/><polygon fill="#A80036" points="1412.25,328.35,1411.4004,318.5379,1409.8327,323.9732,1404.3974,322.4055,1412.25,328.35" style="stroke:#A80036;stroke-width:1.0;"/><!--MD5=[eb0be6284cb15b07a87f9c5d3d113739]
link Root to time.過去--><path codeLine="81" d="M1419.39,376.81 C1412.58,405.13 1401.1,452.88 1393.79,483.26 " fill="none" id="Root-to-time.過去" style="stroke:#A80036;stroke-width:1.0;"/><polygon fill="#A80036" points="1392.57,488.35,1398.5686,480.5387,1393.7423,483.4894,1390.7916,478.663,1392.57,488.35" style="stroke:#A80036;stroke-width:1.0;"/><!--MD5=[536b9b071c8a5949cd5908353677b0ac]
link type.自己中心的 to type.頑固--><!--MD5=[59dd5fc6fbc3a1b077a6caf111fefe56]
link type.自己中心的 to type.羞恥心--><!--MD5=[bd14269d94fbc1ee1cbffed331bd9df4]
link type.羞恥心 to type.より若い--><!--MD5=[6007ab110a926ebba21bd107ec8147e6]
link env.不満 to env.女性的要素からの圧力--><!--MD5=[2468c75953ad223985e1f1869a29a770]
link env.不満 to env.他者との接触の増加--><!--MD5=[c1a5cbb3fa6cb5b2b8464a4a984685a4]
link sexual.同性愛 to sexual.自己啓発--><!--MD5=[44b02108f4db488b83d487383b06e9f5]
link sexual.同性愛 to sexual.計画性--><!--MD5=[156e120c1eaf748291eb0e69fffb3829]
link type.頑固 to env.不満--><!--MD5=[e60f463b6e9ea368b50af8e51ed64333]
link type.羞恥心 to sexual.同性愛--><!--MD5=[42f1d94db8d6c25833cbe178aa2c569a]
@startuml location

!include 00target.pu




class Left {

}
Left - - -> time.過去
Left - - -> parents.母親からの影響
Left - - -> freedom.服従


class LeftUp {

}
Left - -> LeftUp
LeftUp - - -> parents.母親からの影響の克服


class Right {

}
Right - - -> time.未来
Right - - -> parents.父親からの影響
Right - - -> towoman.軽蔑

class RightUp {

}
Right - -> RightUp
RightUp - - -> type.野心

class RightDown {

}
Right - -> RightDown
RightDown - - -> think.伝統主義
RightDown - - -> parents.憧れと諦め


class UpperPosition {
現実に根付いていない
}
UpperPosition - - -> state.想像

class BottomPosition {
この人の情緒、経験などは
過去の経験,当時の状況にのみ基づく。
漫画や小説などを描くことは少ない。
}
BottomPosition - - -> state.現実
BottomPosition - - -> state.過去



class overall

class Upper{
例えば葉っぱには
これからの未来への期待が
現れることもある
ex)木の実がなった絵は期待を表すなど

反対に尖った枝には
未知の攻撃に対する
防衛意識などが現れる

}

overall - -> Upper
Upper - -> time.未来


class Root{

}

overall - -> Root
Root - -> time.過去


@enduml

@startuml location


namespace type {
    class 自己中心的 
    class 頑固 
    class 防衛的
    class 濾過機能
    防衛的 - -> 濾過機能
    class 羞恥心
  
    class より若い

    class 野心
}

namespace 思考傾向 {
    class 伝統志向
}



namespace env {
    class 不満
    class 圧力下
  
    class 女性的要素からの圧力
    
    class 諦め
    圧力下 - -> 諦め
  
    class 他者との接触の増加
}

namespace think {
    class 秘密主義
    class 伝統主義
}

namespace living {
    class 死
    class 充実
}

namespace state {
    class 喪失

    class 空想

    class 現実

    class 過去
}

namespace time {
    class 過去

    class 未来
}

namespace parents {
    class 母親からの影響
    class 母親からの影響の克服
    class 父親からの影響
    父親からの影響 - -> 憧れと諦め
    class 憧れと諦め
}

namespace towoman {
    class 軽蔑
}

namespace sexual {
    class 同性愛
    class 自己啓発 {
        恋愛に対する自己啓発
    }
    class 計画性 {
        恋愛に値する計画性
    }
}


namespace freedom {
    class 闘争
    class 服従
}

namespace commonsense {
    class 非常識
    class 常識的
}

namespace ex {
    class 物理学者
    type.野心 - - -> 物理学者
}





class Left {

}
Left - - -> time.過去
Left - - -> parents.母親からの影響
Left - - -> freedom.服従


class LeftUp {

}
Left - -> LeftUp
LeftUp - - -> parents.母親からの影響の克服


class Right {

}
Right - - -> time.未来
Right - - -> parents.父親からの影響
Right - - -> towoman.軽蔑

class RightUp {

}
Right - -> RightUp
RightUp - - -> type.野心

class RightDown {

}
Right - -> RightDown
RightDown - - -> think.伝統主義
RightDown - - -> parents.憧れと諦め


class UpperPosition {
現実に根付いていない
}
UpperPosition - - -> state.想像

class BottomPosition {
この人の情緒、経験などは
過去の経験,当時の状況にのみ基づく。
漫画や小説などを描くことは少ない。
}
BottomPosition - - -> state.現実
BottomPosition - - -> state.過去



class overall

class Upper{
例えば葉っぱには
これからの未来への期待が
現れることもある
ex)木の実がなった絵は期待を表すなど

反対に尖った枝には
未知の攻撃に対する
防衛意識などが現れる

}

overall - -> Upper
Upper - -> time.未来


class Root{

}

overall - -> Root
Root - -> time.過去


@enduml

PlantUML version 1.2021.15(Wed Dec 01 01:45:34 JST 2021)
(GPL source distribution)
Java Runtime: OpenJDK Runtime Environment
JVM: OpenJDK 64-Bit Server VM
Default Encoding: UTF-8
Language: ja
Country: JP
--></g></svg>